<?xml version="1.0" encoding="UTF-8"?><svg id="a" xmlns="http://www.w3.org/2000/svg" xmlns:xlink="http://www.w3.org/1999/xlink" viewBox="0 0 512 512"><defs><clipPath id="b"><path d="M465.89,255.1c.43-1.09.86-2.17,1.27-3.27,0-.2,0-.41-.01-.62,0-.19.08-.59.24-1.15-.51-21.07-4.13-43.15-12.23-65.11,0,0,0-.02,0-.02-.01-.08-.02-.16-.03-.23-.02-.18-.04-.28-.03-.23,0,.04.01.14.05.4-1.65-4.11-3.38-8.07-5.17-11.9-.61-1.31-1.27-2.54-1.9-3.83-1.21-2.46-2.4-4.93-3.66-7.29-.78-1.46-1.59-2.84-2.38-4.25-1.16-2.08-2.32-4.17-3.52-6.17-.88-1.46-1.79-2.86-2.68-4.29-1.17-1.86-2.33-3.73-3.53-5.53-.95-1.43-1.92-2.81-2.89-4.21-1.19-1.72-2.39-3.45-3.6-5.13-1.01-1.39-2.03-2.74-3.05-4.1-1.22-1.62-2.44-3.24-3.67-4.83-1.06-1.36-2.13-2.7-3.2-4.03-1.24-1.55-2.49-3.09-3.75-4.62-1.1-1.33-2.2-2.65-3.31-3.96-.6-.71-1.2-1.45-1.8-2.16.26.31.51.63.77.94-20.85-24.59-43.47-47.25-63.67-79.15-1.91-3.01-3.81-6.02-5.67-9.2-1.06-1.81-1.91-3.45-2.65-4.97-2-4.11-2.92-6.99-3.31-8.43-.04-.15-.12-.39-.15-.51-.08-.32-.13-.56-.13-.56-.05-.43-.26-.6-.55-.64-.14-.02-.27-.06-.45,0-.03.01-.21.04-.2.03-54.44,31.85-76.48,88.08-81.69,122.84.63-3.37,1.43-6.94,2.39-10.64-.21.89-.41,1.78-.6,2.7-.23,1.12-.45,2.25-.66,3.41-.42,2.31-.78,4.71-1.08,7.19-.34,2.83-.58,5.6-.73,8.33-.05.91-.09,1.81-.12,2.71-.03.9-.05,1.79-.06,2.68-.02,1.78,0,3.53.06,5.27.03.87.07,1.73.11,2.59.09,1.72.22,3.42.38,5.11.63,6.74,1.77,13.23,3.24,19.55.37,1.58.76,3.15,1.16,4.71,2.43,9.37,5.51,18.44,8.64,27.53,7.02,20.4,8.63,17.68,16.12,37.97,4.85,13.14,9.64,26.22,12.86,39.37.74,3.04,1.4,6.08,1.95,9.12.18,1.02.36,2.03.52,3.05.97,6.1,1.5,12.22,1.45,18.38-.05,6.16-.69,12.35-2.06,18.59-.46,2.08-1,4.17-1.62,6.26-.31,1.05-.65,2.09-1.01,3.14-6.74,19.77-19.23,33.44-27.34,40.8,38.46,1.78,89.51-8.06,141.8-50.29,0,0,.06-.14.15-.34,26.09-21.32,47.16-48.1,59.7-77.71h0s0,0,0,0c.45-1.06.89-2.12,1.31-3.18.01-.03.02-.06.04-.09ZM330.84,6.24" fill="none"/></clipPath><radialGradient id="c" cx="372.68" cy="-20.13" fx="372.68" fy="-20.13" r="727.72" gradientTransform="translate(7.99 .77)" gradientUnits="userSpaceOnUse"><stop offset=".05" stop-color="#fff44f"/><stop offset=".11" stop-color="#ffe846"/><stop offset=".22" stop-color="#ffc830"/><stop offset=".36" stop-color="#ff980e"/><stop offset=".39" stop-color="#ff8a15"/><stop offset=".46" stop-color="#ff672a"/><stop offset=".53" stop-color="#ff3647"/><stop offset=".7" stop-color="#e31587"/></radialGradient><linearGradient id="d" x1="177.47" y1="-1.72" x2="370.59" y2="524.55" gradientUnits="userSpaceOnUse"><stop offset="0" stop-color="#aaf2ff"/><stop offset=".04" stop-color="#9ef0ff"/><stop offset=".1" stop-color="#7eecff"/><stop offset=".18" stop-color="#4ae6ff"/><stop offset=".28" stop-color="#04ddff"/><stop offset=".29" stop-color="#0df"/><stop offset=".61" stop-color="#0090ed"/><stop offset=".89" stop-color="#0250bb"/></linearGradient><linearGradient id="e" x1="189.87" y1="6.88" x2="323.5" y2="404.1" gradientUnits="userSpaceOnUse"><stop offset="0" stop-color="#aaf2ff"/><stop offset=".04" stop-color="#9ef0ff"/><stop offset=".1" stop-color="#7eecff"/><stop offset=".18" stop-color="#4ae6ff"/><stop offset=".28" stop-color="#04ddff"/><stop offset=".29" stop-color="#0df"/><stop offset=".74" stop-color="#0090ed"/><stop offset="1" stop-color="#0250bb"/></linearGradient><linearGradient id="f" x1="466" y1="106.75" x2="126.08" y2="446.67" gradientUnits="userSpaceOnUse"><stop offset=".24" stop-color="#80ebff" stop-opacity=".5"/><stop offset=".26" stop-color="#75e9ff" stop-opacity=".46"/><stop offset=".36" stop-color="#4be5ff" stop-opacity=".3"/><stop offset=".45" stop-color="#2ae1ff" stop-opacity=".17"/><stop offset=".55" stop-color="#13dfff" stop-opacity=".07"/><stop offset=".63" stop-color="#04ddff" stop-opacity=".02"/><stop offset=".7" stop-color="#0df" stop-opacity="0"/></linearGradient></defs><g clip-path="url(#b)"><polygon points="256.77 217.81 256.77 217.81 256.77 217.81 256.77 217.81" fill="#ff4aa2"/><polygon points="256.77 217.81 256.77 217.81 256.77 217.81 256.77 217.81" fill="#ff4aa2"/><path d="M126.88,427.12c40.95-2.37,72.24-10.44,92.86-17.26,17.84-5.89,28.31-11.04,38.28-18.98,6.76-5.39,23.9-20.51,32.23-44.96,11.44-33.56-.15-65.58-12.09-97.91-7.49-20.28-9.1-17.57-16.12-37.97-8.34-24.24-16.34-48.31-12.68-78.47,2.41-19.86,8.88-34.29,13.41-44.37,12.45-27.71,28.58-44.86,32.5-48.92,12.84-13.31,25.92-22.32,36.29-28.28,4.39,12.76,15.21,29.2,29.96,48.89,25.82,34.48,43.21,46.05,66.16,79.17,10.05,14.51,21.3,31.55,29.64,56.3,3.3,9.78,15.89,49.79,6.55,101.03-11.15,61.18-46.36,98.8-53.28,105.99-6.62,6.87-37.67,38.1-89.99,53.99-44.84,13.62-81.82,8.85-98.36,6.53-44.53-6.24-77.3-23.48-95.35-34.78Z" fill="url(#c)"/><path d="M126.88,427.12c8.75.53,21.74,1.09,37.46.84,56.62-.9,151.99-2.41,203.2-61.55,6.9-7.97,24.44-28.75,30.22-60.71,3.59-19.85,1.32-36.66-1-47.24-7.22-21.22-16.29-35.07-23.48-43.95-4.69-5.79-21.69-25.63-29.82-34.6-.57-.62-2.31-2.53-4.53-5.21-3.69-4.44-6.38-8.22-8.57-11.29-20.62-28.92-25.34-51.44-25.34-51.44s-8.53-37.13,7.39-72.67c4.42-9.88,10.46-18.46,10.46-18.46,3.25-4.62,6.34-8.25,8.7-10.84,4.39,12.76,15.21,29.2,29.96,48.89,25.82,34.48,43.21,46.05,66.16,79.17,10.05,14.51,21.3,31.55,29.64,56.3,3.3,9.78,15.89,49.79,6.55,101.03-11.15,61.18-46.36,98.8-53.28,105.99-6.62,6.87-37.67,38.1-89.99,53.99-44.84,13.62-81.82,8.85-98.36,6.53-44.53-6.24-77.3-23.48-95.35-34.78Z" fill="url(#d)"/><path d="M455.22,188.49c-.71-1.9-1.45-3.76-2.19-5.58.74,1.82,1.48,3.67,2.19,5.58ZM455.22,188.49c.71,1.9,1.41,3.86,2.09,5.86.21.61.45,1.34.72,2.18-.27-.84-.51-1.57-.72-2.18-.68-2.01-1.37-3.96-2.09-5.86ZM417.11,394.17c-.74.86-1.43,1.66-2.08,2.39.65-.73,1.34-1.53,2.08-2.39ZM409.89,402.09c.25-.26.49-.5.69-.71.65-.67,1.55-1.62,2.65-2.82-1.1,1.2-2,2.14-2.65,2.82-.21.21-.44.45-.69.71ZM415.03,396.56c-.65.73-1.25,1.4-1.8,2,.55-.6,1.15-1.27,1.8-2ZM373.27,214.5c-4.69-5.79-21.69-25.63-29.82-34.6-.57-.62-2.31-2.53-4.53-5.21-3.69-4.44-6.38-8.22-8.57-11.29-20.62-28.92-25.34-51.44-25.34-51.44,0,0-8.53-37.13,7.39-72.67,4.42-9.88,10.46-18.46,10.46-18.46,3.25-4.62,6.34-8.25,8.7-10.84-10.37,5.96-23.45,14.97-36.29,28.28-3.92,4.06-20.05,21.21-32.5,48.92-4.53,10.08-11,24.51-13.41,44.37-3.66,30.17,4.34,54.24,12.68,78.47,7.02,20.4,8.63,17.68,16.12,37.97,11.94,32.33,23.53,64.35,12.09,97.91-8.33,24.44-25.47,39.57-32.23,44.96-9.96,7.94-20.43,13.09-38.28,18.98-20.62,6.81-51.91,14.88-92.86,17.26,8.75.53,21.74,1.09,37.46.84,56.62-.9,151.99-2.41,203.2-61.55,6.9-7.97,24.44-28.75,30.22-60.71,3.59-19.85,1.32-36.66-1-47.24-7.22-21.22-16.29-35.07-23.48-43.95Z" fill="url(#e)"/><path d="M454.91,187.49c-.01-.08-.03-.17-.04-.26.01.08.02.15.03.23,0,0,0,.02,0,.03Z" fill="none"/><polygon points="314.65 246.51 314.65 246.51 314.64 246.51 314.65 246.51" fill="#ff4aa2"/><path d="M126.88,427.12c40.95-2.37,72.24-10.44,92.86-17.26,17.84-5.89,28.31-11.04,38.28-18.98,6.76-5.39,23.9-20.51,32.23-44.96,11.44-33.56-.15-65.58-12.09-97.91-7.49-20.28-9.1-17.57-16.12-37.97-8.34-24.24-16.34-48.31-12.68-78.47,2.41-19.86,8.88-34.29,13.41-44.37,12.45-27.71,28.58-44.86,32.5-48.92,12.84-13.31,25.92-22.32,36.29-28.28,4.39,12.76,15.21,29.2,29.96,48.89,25.82,34.48,43.21,46.05,66.16,79.17,10.05,14.51,21.3,31.55,29.64,56.3,3.3,9.78,15.89,49.79,6.55,101.03-11.15,61.18-46.36,98.8-53.28,105.99-6.62,6.87-37.67,38.1-89.99,53.99-44.84,13.62-81.82,8.85-98.36,6.53-44.53-6.24-77.3-23.48-95.35-34.78Z" fill="url(#f)"/></g></svg>