<?xml version="1.0" encoding="UTF-8"?>
<svg id="a" data-name="Layer 1" xmlns="http://www.w3.org/2000/svg" width="512" height="512" viewBox="0 0 512 512">
  <path d="M484.634,373.61h-135.445c-38.212,0-69.189,30.977-69.189,69.189v33.835c0,5.173,4.193,9.366,9.366,9.366h135.445c38.212,0,69.189-30.977,69.189-69.189v-52.567c0,5.173-4.193,9.366-9.366,9.366Z" fill="#efefef"/>
  <g>
    <path d="M326.799,406.33h15.103c14.847,0,24.382,10.111,24.382,23.358s-10.239,23.358-24.19,23.358h-15.295v-46.717ZM335.886,414.714v29.886h5.631c9.472,0,15.615-6.527,15.615-14.911,0-8.575-5.632-14.975-15.871-14.975h-5.375Z"/>
    <path d="M374.478,406.33h31.422v8.512h-22.398v10.495h22.398v8.512h-22.398v10.623h22.398v8.575h-31.422v-46.717Z"/>
    <path d="M411.598,406.33h9.535l12.543,34.686,12.671-34.686h9.471l-17.663,46.717h-8.896l-17.663-46.717Z"/>
  </g>
</svg>