<?xml version="1.0" encoding="UTF-8"?>
<svg id="a" data-name="Layer 1" xmlns="http://www.w3.org/2000/svg" width="512" height="512" viewBox="0 0 512 512">
  <polygon points="377.955 273.401 376.853 236.567 371.312 218.184 355.469 188.288 355.469 188.288 337.346 169.186 337.347 169.187 337.346 169.187 337.346 169.186 337.346 169.186 337.345 169.185 337.346 169.186 318.107 155.451 301.402 148.894 286.839 143.714 281.357 141.764 266.831 140.84 248.354 139.664 248.354 139.664 248.354 139.664 227.544 143.419 210.564 148.639 180.434 166.273 161.602 187.28 144.239 215.48 137.409 239.479 137.409 239.482 137.409 239.48 136.132 275.892 140.703 293.32 142.643 300.719 146.147 307.613 157.006 328.983 167.136 342.635 181.144 355.477 191.579 362.536 198.638 367.311 201.477 368.546 220.21 376.693 256.312 380.931 275.162 381.456 303.062 373.598 327.999 359.912 344.043 346.225 354.008 334.336 356.484 331.383 369.579 305.747 374.072 296.953 374.072 296.953 374.072 296.953 377.955 273.401" fill="#2636a5"/>
  <path id="b" data-name="globe-lines-edge" d="M378.498,273.435c0-.012,0-.023,0-.035,0-.005.001-.01.001-.015v-.004s0-.001,0-.002l-1.102-36.828c0-.005-.002-.01-.002-.015,0-.009,0-.018-.002-.027-.001-.013-.004-.025-.007-.038-.003-.016-.006-.033-.01-.049-.001-.004-.001-.008-.002-.012l-5.538-18.377s0-.003-.001-.004v-.002s-.004-.008-.006-.012c-.003-.01-.007-.02-.011-.03-.005-.013-.011-.026-.017-.039-.003-.005-.004-.011-.007-.017l-15.844-29.896c-.003-.005-.007-.01-.01-.015-.006-.01-.012-.021-.019-.031-.006-.009-.012-.018-.018-.026-.004-.005-.007-.011-.011-.016-.005-.006-.011-.012-.017-.018-.004-.004-.007-.01-.011-.014l-18.122-19.102s-.006-.005-.009-.008c-.004-.004-.008-.008-.013-.012-.01-.01-.023-.018-.034-.028-.008-.007-.015-.015-.024-.021l-.003-.002s-.002-.002-.004-.003l-19.233-13.731s-.006-.003-.009-.005c-.006-.004-.012-.008-.018-.012-.013-.008-.026-.014-.04-.021-.014-.007-.027-.015-.041-.021-.003-.001-.006-.003-.009-.005l-16.693-6.552s0,0-.001,0l-.01-.004s-.005-.001-.008-.002c-.003-.001-.005-.003-.008-.004h-.003s-.001-.002-.002-.002l-20.039-7.128c-.006-.002-.013-.003-.019-.005-.013-.004-.025-.008-.039-.011-.012-.003-.023-.005-.035-.007-.012-.002-.024-.003-.037-.004-.006,0-.012-.003-.019-.003l-33.003-2.101s-.005,0-.007,0c-.003,0-.006,0-.009,0-.013,0-.027.002-.041.002-.018,0-.036.001-.055.004-.005,0-.009,0-.014.002-.002,0-.005,0-.007,0l-20.81,3.756s-.008.003-.012.004c-.006.001-.013.002-.019.003-.005.001-.009.003-.014.004-.012.003-.025.006-.037.01l-16.962,5.214s-.004.002-.006.002c-.013.004-.025.01-.037.015-.015.006-.029.012-.044.019-.007.004-.015.007-.021.011-.002.001-.005.002-.007.003l-30.13,17.633s-.004.003-.006.004c-.009.005-.017.012-.025.017-.008.005-.016.01-.023.015-.007.005-.014.012-.021.017-.006.005-.012.009-.018.014-.008.007-.014.015-.022.023-.005.005-.011.009-.017.015l-.007.008s0,0,0,0l-18.824,20.999s-.005.007-.007.01c-.004.005-.009.01-.013.016-.004.006-.008.011-.012.017-.006.008-.011.016-.017.024-.003.004-.006.007-.008.011l-.006.01s0,0,0,.001l-17.356,28.189c-.003.005-.005.011-.008.016-.006.01-.011.019-.016.03-.005.011-.01.023-.015.034-.005.013-.01.026-.014.039-.002.006-.005.011-.007.017l-6.83,23.999s0,.007-.002.01c-.002.006-.004.011-.005.017,0,.002-.001.004-.002.007,0,.002,0,.005,0,.007-.002.012-.003.025-.005.038-.002.013-.004.027-.005.04,0,.004-.001.007-.001.01l-1.277,36.412c0,.008.001.015.002.023,0,.011,0,.022,0,.034,0,.011.003.023.004.034.002.015.005.03.008.044.002.007.001.014.003.021l.004.015h0s6.507,24.812,6.507,24.812c0,0,0,0,0,.001,0,.003.002.007.003.01.002.006.004.012.006.019.006.018.013.035.021.052,0,0,0,0,0,0,.004.009.006.018.01.026l.002.004s0,.002.001.003l14.36,28.257s.002.003.003.004c.003.005.006.009.009.014.009.016.018.031.029.046.003.004.005.009.008.013l10.123,13.643s0,0,0,0h0s.001.003.002.004l.003.004s.003.003.005.005c.004.005.008.011.012.016.009.011.02.021.03.031.008.008.014.017.022.025l14.008,12.842c.011.01.023.017.035.026.01.008.018.016.028.023l17.494,11.834s.008.003.012.006c.001,0,.003.001.004.002.014.009.027.017.042.025.007.004.014.008.022.011.003.001.005.003.008.005l21.572,9.383c.007.003.014.004.021.007.016.006.032.012.048.016.008.002.016.005.025.007.013.003.026.005.038.007.007.001.014.004.022.005l36.102,4.238c.013.002.026.002.039.002.003,0,.006.001.009.001l18.85.525s.009,0,.013,0c0,0,.001,0,.002,0,.002,0,.004,0,.005,0,.036,0,.071-.004.106-.011.008-.002.015-.005.022-.007,0,0,0,0,0,0,.005-.001.01,0,.015-.002l27.9-7.858c.006-.002.01-.005.016-.006.008-.003.017-.004.025-.007.008-.003.014-.007.022-.01.005-.002.01-.005.015-.007.011-.005.022-.009.033-.015.001,0,.003,0,.004-.002l.011-.006s.001,0,.002,0l24.922-13.678s.005-.003.007-.004c.003-.002.007-.004.01-.006.014-.009.027-.019.041-.029,0,0,0,0,0,0,.011-.008.023-.015.033-.023,0,0,0,0,.001-.001l16.044-13.686c.006-.005.011-.012.017-.017.007-.007.014-.012.021-.019.007-.007.014-.014.02-.022.002-.002.004-.004.006-.006l12.438-14.839s.002-.002.002-.003h0s.003-.005.005-.007c.016-.02.031-.042.044-.065.005-.008.011-.015.015-.023.001-.002.003-.004.004-.006,0,0,0,0,0,0l17.588-34.429c.004-.008.006-.017.01-.025.006-.014.013-.027.018-.041.002-.006.003-.013.005-.019.005-.015.008-.029.011-.044.002-.01.006-.019.008-.029l3.882-23.546s0,0,0-.001v-.005s0-.009.002-.014c0-.007.003-.013.003-.02,0-.007,0-.014,0-.02ZM181.483,355.049l-3.629-3.327,8.161,6.393-4.532-3.066ZM234.432,368.879l-12.75-5.961,30.18,2.715-17.429,3.247ZM239.083,260.322l-33.477,3.524,20.644-34.682,12.833,31.158ZM227.398,229.088l40.899,20.485-28.13,10.519-12.77-31.004ZM239.389,261.384l3.891,30.856-37.242-27.346,33.351-3.511ZM242.792,293.233l-40.454,12.73,2.722-40.436,37.733,27.706ZM240.554,261.898l31.356,20.82-27.474,9.967-3.882-30.787ZM241.053,260.923l28.134-10.521,3.261,31.367-31.395-20.846ZM284.28,224.688l26.074-12.311-2.94,29.286-23.134-16.975ZM306.521,242.359l-35.844,6.547,12.726-23.51,23.119,16.963ZM269.655,248.503l-23.351-42.876,36.175,19.183-12.824,23.693ZM268.347,248.381l-41.167-20.619,17.696-22.477,23.471,43.096ZM204.78,263.103l-5.246-20.024,25.326-13.71-20.08,33.735ZM201.311,304.97l-20.007-32.829,22.681-6.89-2.674,39.719ZM242.165,294.571l-20.354,21.741-18.635-9.472,38.99-12.269ZM272.301,283.734l-7.26,26.143-19.974-16.264,27.233-9.879ZM270.333,250.872l30.259,23.867-27.006,7.427-3.253-31.294ZM270.94,249.964l36.239-6.619-5.774,30.648-30.464-24.029ZM308.487,241.898l2.907-28.961,16.742,22.736-19.649,6.224ZM328.5,236.7l.926,33.165-20.66-26.914,19.734-6.251ZM283.791,223.716l.696-24.616,25.25,12.365-25.946,12.251ZM282.7,223.695l-36.039-19.111,36.741-5.707-.702,24.818ZM226.579,226.763l-6.755-24.577,24.098,2.549-17.343,22.029ZM225.699,227.676l-25.563,13.839,18.807-38.42,6.756,24.581ZM203.922,264.132l-22.202,6.744,16.967-26.725,5.234,19.98ZM199.901,304.751l-27.719-19.637,8.268-12.279,19.451,31.916ZM202.138,307.534l18.628,9.469-22.914,12.654,4.286-22.122ZM244.03,294.172l20.005,16.289-40.653,5.765,20.648-22.054ZM273.39,283.89l29.526,28.549-36.866-2.118,7.339-26.431ZM274.174,283.133l27.101-7.453,2.435,36.011-29.535-28.557ZM308.172,243.966l20.834,27.14-26.558,3.241,5.724-30.382ZM329.597,236.911l17.595,9.943-16.673,23.055-.921-32.998ZM329.783,235.766l10.896-17.927,6.497,27.756-17.393-9.829ZM328.982,234.985l-16.756-22.756,27.796,4.593-11.04,18.163ZM284.927,198.103l19.681-17.815,5.65,30.219-25.331-12.404ZM245.985,203.588l12.486-22.156,24.054,16.48-36.54,5.676ZM219.92,201.102l14.154-28.779,10.11,31.345-24.264-2.566ZM198.85,241.663l-17.155-28.635,36.36-10.599-19.206,39.234ZM180.695,270.457l-8.298-33.368,25.63,6.068-17.333,27.3ZM171.555,284.093l-7.609-18.906,15.71,6.874-8.102,12.032ZM201.138,306.961l-4.297,22.177-23.736-42.037,28.033,19.86ZM221.598,317.787l6.509,21.981-29.632-9.212,23.123-12.769ZM264.639,311.475l-6.453,28.566-34.749-22.723,41.202-5.843ZM303.02,313.535l-16.706,15.128-19.432-17.205,36.139,2.077ZM302.417,276.403l25.722,25.989-23.297,9.875-2.425-35.864ZM302.942,275.384l26.513-3.236-.871,29.144-25.642-25.908ZM347.783,247.897l10.59,35.66-27.52-12.25,16.93-23.41ZM341.781,217.763l17.273,13.097-10.8,14.551-6.472-27.648ZM312.046,211.096l16.033-18.366,11.846,22.972-27.879-4.607ZM311.322,210.268l-5.612-30.017,21.627,11.672-16.015,18.345ZM283.919,197.546l-23.947-16.407,43.531-1.321-19.584,17.727ZM245.097,202.945l-10.04-31.129,22.453,9.102-12.413,22.027ZM218.993,200.516l-11.627-15.761,25.615-12.681-13.988,28.442ZM218.185,201.257l-35.611,10.381,23.924-26.225,11.688,15.844ZM197.767,241.977l-25.379-6.009,8.581-22.031,16.798,28.04ZM179.677,270.882l-16.068-7.031,7.983-25.48,8.084,32.511ZM170.717,284.932l-13.82,5.053,6.162-24.084,7.659,19.03ZM195.575,329.114l-30.403-18.84,6.438-23.601,23.965,42.442ZM226.533,340.418l-28.761,4.561-.125-13.542,28.885,8.98ZM222.873,318.251l33.813,22.111-27.357-.311-6.456-21.8ZM265.674,311.844l19.632,17.382-25.997,10.795,6.365-28.176ZM304.112,314.016l10.375,28.752-27.212-13.506,16.837-15.246ZM305.037,313.366l23.159-9.817-12.759,38.639-10.401-28.823ZM330.539,272.359l27.515,12.248-28.388,16.994.874-29.242ZM348.964,248.041l17.99,12.804-7.678,21.918-10.312-34.723ZM348.759,246.559l10.813-14.568,7.126,27.335-17.938-12.768ZM341.543,216.216l5.021-15.567,11.958,28.441-16.979-12.875ZM340.789,215.001l-11.44-22.186,16.472,6.583-5.032,15.603ZM306.888,179.65l23.956-1.564-3.016,12.865-20.939-11.301ZM259.456,180.067l16.867-20.916,27.03,19.584-43.897,1.332ZM258.46,179.566l-8.684-22.744,25.377,2.044-16.693,20.7ZM257.333,179.672l-22.184-8.993,13.599-13.492,8.585,22.485ZM207.493,183.477l9.539-27.512,16.192,14.773-25.731,12.739ZM181.902,210.758l6.985-28.588,16.578,2.758-23.564,25.83ZM171.535,235.154l-8.958-14.057,17.309-7.386-8.352,21.442ZM171.057,236.433l-7.657,24.439-1.029-38.069,8.686,13.63ZM162.241,264.699l-6.244,24.404-9.803-24.381,16.047-.023ZM145.946,263.634l.524-23.959,15.474,23.936-15.997.023ZM170.63,286.123l-6.205,22.747-7.584-17.705,13.79-5.042ZM195.532,330.368l-18.843,2.669-10.771-21.02,29.614,18.351ZM196.555,331.322l.123,13.347-18.654-10.723,18.532-2.624ZM227.981,341.29l-9.538,19.966-19.877-15.3,29.416-4.665ZM229.093,341.492l25.204,23.267-34.823-3.132,9.619-20.135ZM230.329,341.151l27.607.314-2.518,22.847-25.089-23.161ZM285.805,330.197l1.053,25.811-27.063-15.011,26.01-10.8ZM286.9,330.291l27.306,13.553-26.253,12.271-1.053-25.824ZM329.249,303.839l13.555,21.196-26.332,17.498,12.777-38.694ZM330.193,303.291l26.099,3.835-12.707,17.107-13.392-20.942ZM330.679,302.263l27.916-16.712-1.815,20.547-26.101-3.836ZM367.55,262.44l4.93,17.245-12.37,3.996,7.441-21.241ZM360.992,233.114l14.138,17.805-7.263,8.568-6.875-26.373ZM347.761,200.683l18.362,13.448-6.314,15.208-12.048-28.655ZM328.834,191.437l2.96-12.623,13.225,19.091-16.185-6.468ZM305.423,178.655l-3.187-19.287,27.619,17.691-24.432,1.595ZM304.21,178.011l-26.323-19.071,23.147-.144,3.175,19.215ZM250.665,155.802l17.184-10.546,7.373,12.524-24.557-1.978ZM234.164,170.121l-15.911-14.517,29.432,1.102-13.521,13.415ZM206.177,183.944l-16.524-2.749,25.896-24.281-9.372,27.03ZM180.539,211.737l-16.906-13.725,23.992-15.274-7.086,28.999ZM179.821,212.556l-17.468,7.453.852-20.943,16.617,13.49ZM162.345,262.225l-15.695-24.277,14.613-15.749,1.082,40.027ZM155.546,290.904l-2.978,14.851-5.878-36.878,8.856,22.027ZM156.302,292.679l7.355,17.17-10.504-1.472,3.148-15.697ZM175.386,332.885l-11.088-2.133.706-18.129,10.383,20.262ZM196.332,345.726l-7.877,7.573-10.578-18.182,18.455,10.609ZM197.272,346.333l18.915,14.56-26.777-7.001,7.862-7.559ZM258.997,341.8l27.005,14.978-29.53,7.933,2.525-22.911ZM314.843,344.748l-1.479,18.836-24.358-6.759,25.837-12.077ZM341.939,326.918l-14.995,26.257-10.589-9.257,25.584-17ZM356.737,308.356l.084,13.749-11.998,2.291,11.915-16.04ZM359.744,284.942l12.199-3.94-13.917,23.387,1.718-19.447ZM368.208,260.77l6.925-8.169-2.259,24.491-4.666-16.322ZM360.439,230.666l6.217-14.975,8.057,32.951-14.274-17.977ZM347.211,198.931l4.368-7.628,13.166,20.469-17.534-12.841ZM346.453,198.062l-12.922-18.654,17.29,11.024-4.369,7.629ZM303.095,158.626l13.081-1.392,13.233,18.248-26.314-16.856ZM276.534,157.86l-7.206-12.24,29.454,12.102-22.248.138ZM249.153,155.452l-5.802-10.161,22.727-.226-16.925,10.387ZM247.999,155.63l-28.627-1.072,22.806-9.12,5.82,10.192ZM190.144,179.241l10.25-22.194,14.866-1.355-25.116,23.55ZM188.303,180.628l-9.37-9,19.776-13.529-10.405,22.53ZM187.6,181.464l-23.298,14.832,13.892-23.866,9.406,9.034ZM161.263,219.957l-11.693-6.286,12.526-14.2-.833,20.486ZM160.894,220.995l-14.201,15.306,2.466-21.615,11.736,6.309ZM144.848,263.917l-6.004,4.913,6.466-26.049-.462,21.136ZM144.999,265.201l6.128,38.45-12.559-33.188,6.431-5.262ZM163.975,310.992l-.703,18.069-9.813-19.543,10.516,1.474ZM176.033,334.117l9.968,17.133-20.515-19.162,10.547,2.029ZM218.081,362.513l-.433,9.925-26.161-16.878,26.595,6.953ZM219.154,362.937l13.576,6.347-14.003,3.425.427-9.773ZM255.316,366.095l.422,13.921-19.732-10.324,19.31-3.597ZM286.503,357.771l-8.003,18.844-21.166-11.008,29.169-7.836ZM287.757,357.607l24.339,6.754-32.327,12.056,7.989-18.81ZM315.919,344.984l10.312,9.014-11.734,9.101,1.422-18.116ZM343.902,325.679l11.888-2.27-26.054,27.076,14.166-24.806ZM357.901,320.426l-.081-13.401,10.967-6.7-10.885,20.102ZM358.866,305.11l13.311-22.37-2.448,15.733-10.863,6.637ZM375.841,256.801l1.552,16.447-3.518,4.859,1.966-21.307ZM367.756,215.597l3.042,2.852,3.042,22.032-6.085-24.884ZM352.338,190.468l2.862-1.436,8.275,18.751-11.137-17.315ZM332.314,177.341l5.024-7.192,12.297,18.236-17.321-11.044ZM331.534,176.555l-13.097-18.06,18.128,10.858-5.031,7.202ZM302.037,157.645l-.081-7.851,12.616,6.518-12.535,1.334ZM300.943,157.433l-28.834-11.847,28.752,3.785.083,8.062ZM243.906,144.197l4.591-3.939,15.222,3.742-19.813.197ZM218.836,153.6l8.927-9.615,12.344,1.109-21.27,8.506ZM216.53,154.483l-13.517,1.232,22.194-10.578-8.677,9.346ZM179.357,170.017l1.495-3.344,12.405-6.165-13.9,9.51ZM163.074,196.238l-.902-8.749,13.493-12.882-12.591,21.631ZM162.137,197.778l-11.189,12.685,10.309-21.223.88,8.537ZM145.466,237.427l-7.143,1.329,9.435-21.423-2.292,20.094ZM145.229,238.578l-6.834,27.53-.434-26.177,7.268-1.352ZM151.271,307.114l-8.121-6.683-3.889-25.055,12.01,31.738ZM162.659,330.271l-5.187-1.708-3.47-15.535,8.657,17.242ZM184.828,351.646l-17.234-9.381-2.766-9.299,20,18.681ZM187.972,354.597l7.462,9.512-22.809-17.867,15.347,8.354ZM190.763,356.389l23.725,15.306-15.525-4.853-8.2-10.453ZM234.289,370.023l18.438,9.647-32.053-6.317,13.615-3.33ZM256.416,366.356l20.64,10.735-20.218,3.206-.422-13.941ZM311.202,365.855l-8.379,7.229-18.854,2.927,27.233-10.156ZM326.69,355.021l.698,4.51-10.832,3.35,10.134-7.86ZM354.795,326.015l-11.141,19.79-14.175,6.52,25.317-26.31ZM357.901,322.716l7.461-13.778-7.974,18.9.513-5.122ZM373.668,280.253l2.816-3.891-4.528,14.887,1.711-10.997ZM376.378,250.889h0s0-.01,0-.01c0-.002,0-.003,0-.005,0-.004-.001-.008-.001-.012,0-.002,0-.005,0-.007l-.04-.289.28-3.688.286,9.551-.523-5.541ZM375.629,245.458l-2.819-20.413,3.49,11.582-.671,8.831ZM367.246,213.625l-5.144-11.656,7.198,13.582-2.054-1.926ZM351.737,189.552l-10.272-15.233,13.104,13.812-2.832,1.421ZM317.422,156.617l.687-.496,7.897,5.638-8.584-5.142ZM316.386,156.023l-5.34-2.759,5.934,2.329-.594.43ZM271.312,144.384l10.006-2.056,15.057,5.356-25.063-3.3ZM268.048,143.944l-13.625-3.349,22.845,1.454-9.22,1.895ZM242.237,144.194l-10.628-.955,14.87-2.684-4.242,3.639ZM204.735,153.688l6.08-4.557,9.802-3.013-15.883,7.57ZM199.744,156.068l-5.274,2.621,8.108-4.745-2.834,2.124ZM177.617,171.237l-6.256,5.973,7.154-7.98-.897,2.007ZM148.312,213.391l-2.781,1.03,10.807-17.552-8.026,16.522ZM144.688,215.894l3.002-1.112-7.591,17.235,4.589-16.123ZM137.214,260.617l.159,9.593-.557,1.744.398-11.337ZM137.735,272.661l2.737,17.633-3.773-14.387,1.036-3.246ZM152.014,309.136l3.515,15.737-11.219-22.077,7.704,6.34ZM163.292,331.625l2.44,8.204-7.266-9.792,4.826,1.589ZM217.795,373.87l1.018,1.623-10.665-4.639,9.647,3.016ZM220.533,376.184l-1.252-1.996,23.199,4.572-21.947-2.576ZM277.36,378.144l-2.439,2.761-12.735-.355,15.175-2.406ZM279.051,377.877l15.181-2.357-17.437,4.911,2.256-2.554ZM314.127,364.771l8.903-2.753-15.699,8.616,6.796-5.863ZM328.388,358.863l-.699-4.518,13.009-5.983-12.31,10.501ZM356.566,325.091l-.609,6.071-8.556,10.207,9.164-16.278ZM370.652,299.205l2.198-1.059-10.062,19.697,7.864-18.637ZM373.58,296.586l-2.467,1.189,4.961-16.311-2.493,15.122Z" fill="#fff" stroke="#fff" stroke-miterlimit="10" stroke-width="2"/>
</svg>