<?xml version="1.0" encoding="UTF-8"?><svg id="a" xmlns="http://www.w3.org/2000/svg" xmlns:xlink="http://www.w3.org/1999/xlink" viewBox="0 0 512 512"><defs><radialGradient id="b" cx="-8364.49" cy="-7762.43" fx="-8364.49" fy="-7762.43" r="73.72" gradientTransform="translate(52163.3 48231.2) scale(6.21)" gradientUnits="userSpaceOnUse"><stop offset=".18" stop-color="#aaf2ff"/><stop offset=".43" stop-color="#0df"/><stop offset=".45" stop-color="#00d1fc"/><stop offset=".61" stop-color="#0080e7"/><stop offset=".69" stop-color="#0060df"/></radialGradient><linearGradient id="d" x1="333.29" y1="181.86" x2="319.72" y2="452.32" gradientUnits="userSpaceOnUse"><stop offset="0" stop-color="#bff3ff"/><stop offset="1" stop-color="#0df" stop-opacity="0"/></linearGradient><radialGradient id="f" cx="-8333.29" cy="-7769.38" fx="-8333.29" fy="-7769.38" r="80.8" gradientTransform="translate(52163.3 48231.2) scale(6.21)" gradientUnits="userSpaceOnUse"><stop offset="0" stop-color="#80ebff"/><stop offset=".08" stop-color="#4ce5ff"/><stop offset=".16" stop-color="#23e0ff"/><stop offset=".22" stop-color="#09deff"/><stop offset=".26" stop-color="#0df"/><stop offset=".26" stop-color="#00dcfe"/><stop offset=".38" stop-color="#00b3f5"/><stop offset=".47" stop-color="#0099ef"/><stop offset=".53" stop-color="#0090ed"/><stop offset=".86" stop-color="#0060df"/></radialGradient><radialGradient id="h" cx="-8362.81" cy="-7736.35" fx="-8362.81" fy="-7736.35" r="80.8" gradientTransform="translate(52163.3 48231.2) scale(6.21)" gradientUnits="userSpaceOnUse"><stop offset=".3" stop-color="#321c64" stop-opacity=".8"/><stop offset=".37" stop-color="#202e83" stop-opacity=".51"/><stop offset=".47" stop-color="#0a46ab" stop-opacity=".14"/><stop offset=".53" stop-color="#0250bb" stop-opacity="0"/></radialGradient><radialGradient id="j" cx="-8342.08" cy="-7790.24" fx="-8342.08" fy="-7790.24" r="118.08" gradientTransform="translate(52163.3 48231.2) scale(6.21)" gradientUnits="userSpaceOnUse"><stop offset="0" stop-color="#80ebff"/><stop offset="0" stop-color="#76e6fe"/><stop offset=".04" stop-color="#56d8fb"/><stop offset=".07" stop-color="#3bccf9"/><stop offset=".1" stop-color="#25c3f7"/><stop offset=".14" stop-color="#14bbf5"/><stop offset=".2" stop-color="#08b6f4"/><stop offset=".27" stop-color="#01b3f4"/><stop offset=".47" stop-color="#00b3f4"/><stop offset=".69" stop-color="#0080e7"/><stop offset=".84" stop-color="#0060df"/><stop offset="1" stop-color="#592acb"/></radialGradient><radialGradient id="l" cx="-8363.83" cy="-7772.68" fx="-8363.83" fy="-7772.68" r="27.68" gradientTransform="translate(52163.3 48231.2) scale(6.21)" gradientUnits="userSpaceOnUse"><stop offset="0" stop-color="#0df"/><stop offset=".16" stop-color="#00d6fd"/><stop offset=".38" stop-color="#00c3f8"/><stop offset=".65" stop-color="#00a3f1"/><stop offset=".79" stop-color="#0090ed"/></radialGradient><radialGradient id="n" cx="-8345.03" cy="-7758.12" fx="-8345.03" fy="-7758.12" r="80.68" gradientTransform="translate(52163.3 48231.2) scale(6.21)" gradientUnits="userSpaceOnUse"><stop offset=".29" stop-color="#80ebff"/><stop offset="1" stop-color="#00b3f4"/></radialGradient><linearGradient id="p" x1="214" y1="197.09" x2="168.58" y2="383.23" gradientUnits="userSpaceOnUse"><stop offset="0" stop-color="#bff3ff" stop-opacity=".9"/><stop offset="1" stop-color="#80ebff" stop-opacity=".5"/></linearGradient><linearGradient id="r" x1="163.54" y1="176.35" x2="179.22" y2="425.59" gradientUnits="userSpaceOnUse"><stop offset="0" stop-color="#bff3ff" stop-opacity=".8"/><stop offset="1" stop-color="#80ebff" stop-opacity=".2"/></linearGradient><linearGradient id="t" x1="188.37" y1="87.87" x2="131.9" y2="176.71" gradientUnits="userSpaceOnUse"><stop offset="0" stop-color="#bff3ff" stop-opacity=".8"/><stop offset="1" stop-color="#80ebff" stop-opacity=".2"/></linearGradient><linearGradient id="v" x1="103.49" y1="234.84" x2="86.11" y2="581.22" gradientUnits="userSpaceOnUse"><stop offset="0" stop-color="#0df" stop-opacity=".4"/><stop offset="1" stop-color="#0df" stop-opacity="0"/></linearGradient><linearGradient id="x" x1="132.53" y1="40.27" x2="135.73" y2="452.37" xlink:href="#d"/><linearGradient id="z" x1="371.47" y1="98.95" x2="343.04" y2="665.48" gradientUnits="userSpaceOnUse"><stop offset="0" stop-color="#bff3ff" stop-opacity=".8"/><stop offset="1" stop-color="#0df" stop-opacity="0"/></linearGradient><linearGradient id="ab" x1="442.12" y1="80.72" x2="102.55" y2="420.3" gradientUnits="userSpaceOnUse"><stop offset=".24" stop-color="#80ebff" stop-opacity=".5"/><stop offset=".26" stop-color="#75e9ff" stop-opacity=".46"/><stop offset=".36" stop-color="#4be5ff" stop-opacity=".3"/><stop offset=".45" stop-color="#2ae1ff" stop-opacity=".17"/><stop offset=".55" stop-color="#13dfff" stop-opacity=".07"/><stop offset=".63" stop-color="#04ddff" stop-opacity=".02"/><stop offset=".7" stop-color="#0df" stop-opacity="0"/></linearGradient><linearGradient id="ac" x1="442.12" y1="80.72" x2="102.55" y2="420.3" xlink:href="#ab"/></defs><path id="c" d="M367.16,204.66c-1.05-.97-2.29-1.96-3.61-2.95-.49-.37-.97-.73-1.49-1.1-12.85-9.01-35.85-17.92-58.01-14.07,86.54,43.21,63.31,192.02-56.61,186.4-10.43-.49-21.02-2.33-31.31-6.03-2.35-.88-4.71-1.85-7.07-2.89-1.36-.62-2.71-1.24-4.06-1.94.05.03.11.07.16.1,16.73,11.4,99.35,39.26,185.7-30.97,0,0,.05-.12.13-.31,2.13-5.06,30.71-76.06-23.83-126.26Z" fill="url(#b)"/><path id="e" d="M390.86,331.23s.05-.12.13-.31c2.13-5.06,30.71-76.06-23.83-126.26-1.05-.97-2.29-1.96-3.61-2.95-.49-.37-.97-.73-1.49-1.1-12.42-8.71-34.32-17.32-55.78-14.41-.02,0-.03,0-.05,0-.73.1-1.46.21-2.19.34,85.56,42.73,63.81,188.67-52.59,186.53.32.01.63.04.95.05,118.01,4.62,141.26-140.09,59.27-185.46,17.77-.17,34.95,6.31,45.57,13.16.54.35,1.03.69,1.54,1.04,1.36.94,2.64,1.88,3.72,2.81,56.47,48.03,30.69,120.09,28.76,125.23-.07.19-.12.32-.12.32" fill="url(#d)"/><path id="g" d="M478.98,172.36c-10.46-25.12-31.64-52.25-48.27-60.82,13.54,26.5,21.37,53.09,24.36,72.93,0-.06.01.05.04.23.01.09.03.17.04.26,22.7,61.47,10.33,123.97-7.49,162.17-27.57,59.1-94.32,119.67-198.81,116.71-112.89-3.19-212.33-86.85-230.9-196.43-3.38-17.28,0-26.05,1.7-40.08-2.07,10.82-2.86,13.94-3.9,33.16,0,.41-.03.82-.03,1.23,0,132.71,107.72,240.29,240.6,240.29,119,0,217.81-86.29,237.16-199.63.41-3.08.73-6.17,1.09-9.27,4.78-41.21-.53-84.52-15.61-120.74Z" fill="url(#f)"/><path id="i" d="M478.98,172.36c-10.46-25.12-31.64-52.25-48.27-60.82,13.54,26.5,21.37,53.09,24.36,72.93,0-.06.01.05.04.23.01.09.03.17.04.26,22.7,61.47,10.33,123.97-7.49,162.17-27.57,59.1-94.32,119.67-198.81,116.71-112.89-3.19-212.33-86.85-230.9-196.43-3.38-17.28,0-26.05,1.7-40.08-2.07,10.82-2.86,13.94-3.9,33.16,0,.41-.03.82-.03,1.23,0,132.71,107.72,240.29,240.6,240.29,119,0,217.81-86.29,237.16-199.63.41-3.08.73-6.17,1.09-9.27,4.78-41.21-.53-84.52-15.61-120.74Z" fill="url(#h)"/><path id="k" d="M17.96,267.41c18.56,109.58,118.01,193.24,230.9,196.43,104.48,2.95,171.24-57.62,198.81-116.71,17.82-38.2,30.19-100.7,7.49-162.17,0,0,0-.02,0-.03-.01-.08-.02-.16-.03-.23-.02-.18-.04-.28-.04-.23,0,.04.01.14.05.4,8.53,55.66-19.81,109.58-64.13,146.04-.08.19-.13.31-.13.31-86.35,70.22-168.97,42.37-185.7,30.97-1.17-.56-2.33-1.14-3.5-1.74-50.34-24.03-71.14-69.84-66.68-109.12-42.51,0-57-35.81-57-35.81,0,0,38.16-27.18,88.46-3.54,46.58,21.89,90.33,3.54,90.34,3.54-.09-1.95-41.97-18.59-58.29-34.66-8.72-8.58-12.87-12.72-16.53-15.83-1.99-1.69-3.86-3.08-6.23-4.7-1.43-.97-3.04-2.03-4.99-3.3-17.55-11.39-52.45-10.76-53.6-10.73-.02,0-.11,0-.11,0-9.54-12.07-8.87-51.87-8.32-60.18-.11-.52-7.12,3.63-8.03,4.25-5.97,4.17-14.34,10.85-23.51,20.12-7.27,7.34-15.03,16.33-22.47,26.91,0,.01,0,.03-.01.04,0-.01,0-.03.01-.04-13.37,19.01-25.71,43.24-32.28,72.8-.12.52-8.66,37.84-4.45,57.2Z" fill="url(#j)"/><path id="m" d="M170.74,157.04c1.95,1.27,3.56,2.32,4.99,3.3-9.23-31.15-.68-58.73-.68-58.73-24.72,11.24-43.94,29.01-57.92,44.7,1.16-.03,36.06-.66,53.6,10.73Z" fill="url(#l)"/><path id="o" d="M148.32,283.45s11.11-41.33,79.52-41.33c7.4,0,28.54-20.61,28.94-26.59h0s0,0,0,0c0,0-43.75,18.35-90.34-3.54-50.3-23.64-88.46,3.54-88.46,3.54,0,0,14.49,35.81,57,35.81-4.46,39.29,16.34,85.09,66.68,109.12,1.13.54,2.18,1.12,3.34,1.64-29.38-15.17-53.65-43.83-56.68-78.64Z" fill="url(#n)"/><path id="q" d="M256.78,215.52h0s-1.02.42-2.9,1.07c-4.7,7.94-21.41,23.1-27.8,23.08-68.42-.3-79.7,40.59-79.7,40.59,1.19,14.29,6.05,27.55,13.4,39.26-6.22-10.91-10.32-23.06-11.46-36.07,0,0,11.11-41.33,79.52-41.33,7.4,0,28.54-20.61,28.94-26.59h0Z" fill="url(#p)"/><path id="s" d="M167.09,214.38c39.38,17.06,75.93,6.22,87,2.14-10.2,3.52-47.88,14.14-87.64-4.54-45.21-21.25-80.62-1.44-87.31,2.78,0,0-.01,0-.02.01-.12.07-.22.14-.32.2,0,0-.02.01-.03.02-.1.06-.18.12-.26.17,0,0-.01,0-.02.01-.08.05-.14.09-.2.13,0,0-.02.01-.03.02-.05.03-.09.06-.12.08-.01,0-.02.02-.03.02-.04.03-.07.05-.09.06,0,0,0,0,0,0-.02.01-.03.02-.03.02,0,0,.04.11.11.26,0,.02.01.02.02.04.04.09.08.19.14.31,0,.02.02.04.03.06.06.13.13.28.21.45,0,.01.01.03.02.04.34.72.86,1.75,1.58,3.02,0,0,0,0,0,0h0c5.34,9.44,21.43,31.63,54.89,31.63-4.32,38.11,15.12,82.35,62.23,106.9-45.03-25.95-63.95-73.04-58.69-110.49-34.77-.92-50.31-21.76-54.76-30.6,12.74-6.91,44.82-19.44,83.32-2.77Z" fill="url(#r)"/><path id="u" d="M175.69,160.21c-.38-.22-.77-.45-1.18-.68.42.28.82.55,1.21.82-.01-.04-.02-.09-.04-.13ZM175.44,159.32c-8.75-30.73-.39-57.72-.39-57.72-23.43,10.66-41.92,27.18-55.68,42.23,13.11-12.77,30.09-26.47,50.78-35.86-1.28,9.82-2.38,29.93,5.3,51.34Z" fill="url(#t)"/><path id="w" d="M23.76,292.6c-.07-.23-.13-.46-.19-.69-2.31-8-4.2-16.17-5.61-24.5-1.84-8.43-1.25-20.27,0-30.99-.93,5.57-1.51,11.22-2.2,24.06,0,.41-.03.82-.03,1.23,0,105.02,67.47,194.28,161.47,226.97-81.48-31.21-141.85-105.89-153.44-196.08Z" fill="url(#v)"/><path id="y" d="M21.83,268.38c-4.21-19.36,4.33-56.68,4.45-57.2,6.58-29.57,18.91-53.79,32.28-72.8,0,.01,0,.03-.01.04,0-.01,0-.03.01-.04,7.44-10.58,15.2-19.57,22.47-26.91,9.18-9.27,17.55-15.95,23.51-20.12.17-.11.53-.34,1.01-.63-.08,18.28.95,49.12,9.42,59.24,0,0,.09,0,.11,0,1.16-.06,36.18-1.6,54.09,9.32,1.99,1.21,3.63,2.23,5.09,3.16,2.42,1.55,4.33,2.9,6.38,4.53,3.76,3.01,8.03,7.04,17.01,15.39,13,12.09,41.36,24.12,53.6,29.85-11.93-6.01-40.08-18.85-52.77-31.34-8.72-8.58-12.87-12.72-16.53-15.83-1.99-1.69-3.86-3.08-6.23-4.7-1.43-.97-3.04-2.03-4.99-3.3-17.55-11.39-52.45-10.76-53.6-10.73-.02,0-.11,0-.11,0-8.72-11.03-8.91-45.21-8.46-57.36.02-.47.04-.9.05-1.3,0-.15.01-.29.02-.43,0-.12.01-.24.02-.36.01-.26.03-.52.04-.73,0-.03-.04-.04-.09-.04-.02,0-.05,0-.07.01-.04,0-.09.01-.15.03-.04.01-.09.03-.13.05-.06.02-.13.05-.2.08-.06.02-.12.05-.19.08-.08.03-.15.07-.23.11-.08.04-.16.07-.24.12-.08.04-.16.08-.25.12-.1.05-.2.1-.3.15-.08.04-.16.08-.25.13-.12.06-.24.12-.36.19-.07.04-.13.07-.2.11-2.12,1.14-4.81,2.75-5.36,3.12-5.97,4.17-14.34,10.85-23.51,20.12-7.27,7.34-15.03,16.33-22.47,26.91,0,.01,0,.03-.01.04,0-.01,0-.03.01-.04-13.37,19.01-25.71,43.24-32.28,72.8-.12.52-8.66,37.84-4.45,57.2,15.8,93.25,90.18,167.72,181.56,189.81-89.61-23.24-162.11-96.91-177.69-188.84Z" fill="url(#x)"/><path id="aa" d="M478.98,172.36c-9.23-22.17-26.8-45.88-42.23-57.05-.14-.1-.28-.2-.43-.3-.48-.34-.95-.67-1.43-.98-.18-.12-.36-.24-.54-.36-.45-.29-.9-.57-1.34-.83-.17-.1-.35-.21-.52-.31-.6-.35-1.2-.68-1.79-.99.65,1.27,1.27,2.54,1.9,3.82.39.79.77,1.58,1.15,2.37,11.67,24.41,18.56,48.45,21.32,66.74,0,.04.01.14.05.4,8.53,55.66-19.81,109.58-64.13,146.04-.08.19-.13.31-.13.31-55.08,44.8-108.64,49.68-144.56,44.38,35.79,6.68,92.23,3.87,150.37-43.41,0,0,.05-.12.13-.31,44.31-36.46,72.66-90.38,64.13-146.04-.03-.26-.04-.36-.05-.4-2.45-16.24-8.16-37-17.57-58.54,10.22,10.82,19.87,24.35,26.32,37.49,17.05,34.76,24.74,77.04,22.24,117.82-.19,3.07-.34,6.13-.58,9.17-13.07,112.49-106.97,202.84-225.78,209.5-16.17.91-32.06.21-47.5-1.93,12.48,2,25.28,3.05,38.33,3.05,119,0,217.81-86.29,237.16-199.63.41-3.08.73-6.17,1.09-9.27,4.78-41.21-.53-84.52-15.61-120.74ZM455.15,184.96s0-.02,0-.03c-.01-.08-.02-.16-.03-.23.01.09.03.17.04.26Z" fill="url(#z)"/><path d="M494.56,293.09c4.78-41.21-.53-84.52-15.61-120.74-4.87-11.71-12.08-23.85-20.07-34.35-.07-.09-.14-.18-.2-.27-.44-.58-.88-1.14-1.33-1.71-.15-.2-.31-.39-.46-.58-2.51-3.16-5.08-6.14-7.66-8.89-.23-.25-.47-.5-.7-.74-.33-.34-.66-.68-.98-1.01-.26-.27-.52-.53-.79-.79-.3-.3-.61-.61-.91-.9-.29-.28-.58-.56-.87-.84-.28-.27-.56-.53-.83-.79-.32-.3-.64-.59-.97-.89-.29-.26-.58-.53-.87-.78-.2-.18-.4-.35-.6-.52-.32-.28-.64-.55-.96-.82-.23-.19-.46-.39-.7-.58-.28-.23-.56-.45-.84-.68-.26-.21-.52-.41-.77-.61-.22-.17-.44-.33-.65-.5-.36-.27-.72-.54-1.07-.8-.2-.14-.39-.28-.59-.42-.38-.27-.75-.53-1.13-.78-.25-.17-.49-.33-.74-.49-.38-.24-.76-.48-1.14-.71-.22-.14-.45-.28-.67-.4-.54-.31-1.08-.61-1.61-.89-.04-.02-.09-.05-.13-.07.65,1.27,1.28,2.55,1.9,3.82.38.79.77,1.57,1.14,2.36,0,0,0,0,0,.01,1.34,2.81,2.62,5.62,3.83,8.41.07.16.14.32.21.48,1.38,3.17,2.67,6.33,3.89,9.46.03.08.06.15.09.23,1.08,2.78,2.1,5.53,3.05,8.26.03.08.06.15.08.23.44,1.25.85,2.48,1.26,3.72.09.28.19.56.28.84.36,1.11.71,2.21,1.06,3.3.13.4.25.8.37,1.2.31,1,.61,2,.9,2.99.14.48.28.96.42,1.44.26.92.52,1.83.77,2.73.15.54.3,1.09.44,1.63.23.84.45,1.67.66,2.5.15.6.3,1.19.45,1.78.19.76.38,1.52.55,2.27.15.65.3,1.3.44,1.94.15.68.31,1.37.46,2.04.15.71.3,1.41.44,2.12.12.59.25,1.18.36,1.76.16.82.31,1.63.45,2.43.08.44.17.9.24,1.34.21,1.24.41,2.46.59,3.65,0,.03,0,.09.03.23,0,.05.01.1.02.17,1.07,6.96,1.56,13.89,1.51,20.76-.02,3.44-.18,6.86-.46,10.26-.14,1.7-.32,3.4-.52,5.09-5.16,42.3-30.03,81.44-64.65,109.93-.08.19-.13.31-.13.31,0,0,0,0,0,0-1.2.97-2.4,1.92-3.59,2.86-.27.21-.54.43-.82.64-1.18.91-2.35,1.81-3.53,2.69-.16.12-.33.24-.49.36-1.07.79-2.14,1.57-3.21,2.34-.25.18-.49.35-.74.53-1.17.83-2.33,1.64-3.5,2.44-.24.16-.47.32-.71.48-1.05.72-2.11,1.42-3.16,2.11-.18.12-.36.24-.55.36-1.16.76-2.33,1.49-3.49,2.22-.27.17-.54.33-.8.5-1.14.71-2.28,1.4-3.42,2.07-.04.03-.09.05-.13.08-1.18.69-2.35,1.37-3.52,2.03-.27.15-.54.3-.81.45-1.15.65-2.31,1.28-3.46,1.9-.14.08-.28.15-.42.22-1.05.56-2.11,1.11-3.16,1.64-.25.13-.5.26-.75.38-1.13.57-2.26,1.13-3.39,1.67-.23.11-.46.22-.69.33-1.01.48-2.01.95-3.01,1.4-.2.09-.4.19-.6.28-1.12.51-2.24,1-3.35,1.47-.26.11-.53.22-.79.33-1.06.45-2.11.88-3.16,1.31-.1.04-.19.08-.29.12-1.12.45-2.23.88-3.34,1.3-.28.1-.55.21-.83.31-1.1.41-2.2.81-3.29,1.2-.14.05-.28.1-.42.14-.99.35-1.98.68-2.97,1.01-.27.09-.54.18-.81.27-1.06.35-2.12.68-3.18,1-.24.07-.47.14-.71.21-.92.28-1.83.54-2.74.8-.24.07-.47.14-.71.2-1.04.29-2.07.57-3.1.83-.29.07-.57.15-.86.22-.91.23-1.82.46-2.73.67-.17.04-.35.09-.52.13-1.02.24-2.02.46-3.03.68-.31.07-.61.13-.91.2-1,.21-1.99.41-2.98.6-.18.04-.36.07-.55.1-.86.16-1.71.32-2.56.46-.31.05-.62.11-.93.16-.95.16-1.9.31-2.84.46-.28.04-.55.08-.83.12-.76.11-1.52.22-2.28.32-.3.04-.59.08-.89.12-.91.12-1.82.22-2.72.32-.33.04-.65.07-.98.1-.72.08-1.44.15-2.15.21-.27.03-.54.05-.81.08-.87.08-1.74.14-2.6.21-.36.03-.71.05-1.07.07-.73.05-1.45.09-2.17.13-.4.02-.79.04-1.18.06-.65.03-1.3.06-1.94.08-.37.01-.74.03-1.11.04-.8.02-1.59.04-2.38.05-.35,0-.7,0-1.05,0-.55,0-1.1,0-1.64,0-.37,0-.75,0-1.12,0-.75,0-1.49-.02-2.23-.04-.39,0-.78-.02-1.17-.03-.49-.01-.97-.03-1.46-.05-.5-.02-.99-.04-1.49-.06-.58-.03-1.16-.06-1.73-.09-.41-.02-.82-.05-1.23-.08-.44-.03-.88-.06-1.31-.09-.62-.05-1.25-.1-1.86-.15-.4-.03-.81-.07-1.21-.11-.42-.04-.84-.08-1.26-.12-.42-.04-.84-.09-1.25-.13-.63-.07-1.26-.14-1.88-.22-.33-.04-.65-.08-.97-.12-.43-.06-.87-.11-1.29-.17-21.28-2.9-36.64-9.42-42.86-13.66-.57-.27-1.14-.57-1.7-.85,0,0,0,0,0,0,0,0-.02,0-.02-.01.51.26,1.01.51,1.54.75-1.06-.55-2.11-1.12-3.15-1.7-.28-.15-.55-.31-.82-.47-.79-.45-1.57-.9-2.35-1.37-.29-.18-.59-.35-.88-.53-.82-.5-1.63-1.01-2.44-1.53-.21-.13-.42-.27-.63-.4-2.08-1.36-4.12-2.8-6.12-4.3-.13-.1-.27-.2-.4-.31-.87-.66-1.73-1.33-2.58-2.01-.16-.13-.32-.26-.49-.39-.9-.73-1.79-1.47-2.66-2.23-.06-.05-.12-.1-.18-.15-1.96-1.7-3.87-3.48-5.71-5.32-.02-.02-.03-.03-.05-.05-.89-.89-1.76-1.79-2.62-2.71-.06-.06-.11-.12-.17-.18-13.9-14.96-23.59-33.84-25.44-54.99,0,0,11.11-41.33,79.52-41.33,7.4,0,28.54-20.61,28.93-26.59h0s0,0,0,0c0-.12-.17-.3-.49-.53,0,0,0,0,0,0-.07-.05-.16-.11-.25-.17-.02-.01-.05-.03-.07-.05-.16-.1-.34-.21-.53-.33-.04-.03-.09-.05-.13-.08-.1-.06-.21-.12-.33-.19-.08-.04-.16-.09-.24-.14-.16-.09-.34-.19-.52-.29-.12-.07-.24-.13-.37-.2-.11-.06-.23-.12-.35-.18-.15-.08-.31-.16-.47-.25-.13-.07-.25-.13-.38-.2-.22-.11-.45-.23-.68-.35-.1-.05-.21-.11-.32-.16-.26-.13-.53-.27-.81-.41-.04-.02-.07-.04-.11-.06-.34-.17-.69-.34-1.05-.52-.07-.03-.14-.07-.21-.1-.35-.17-.71-.35-1.08-.53-.02,0-.03-.02-.05-.02-1.38-.68-2.89-1.42-4.49-2.21-.23-.11-.45-.22-.68-.34-.15-.08-.3-.15-.46-.23-.17-.08-.34-.17-.5-.25-.08-.04-.16-.08-.23-.12-.28-.14-.57-.28-.86-.42-.05-.03-.1-.05-.16-.08-.05-.02-.1-.05-.15-.07-.17-.08-.34-.17-.51-.25,0,0-.02,0-.03-.01-.24-.12-.47-.24-.71-.35-.02-.01-.05-.02-.07-.04-.39-.2-.79-.39-1.19-.59,0,0-.01,0-.02,0-.18-.09-.37-.19-.56-.28,0,0,0,0,0,0-13.28-6.66-30.17-15.74-39.22-24.64-8.72-8.58-12.87-12.72-16.53-15.83-.23-.2-.46-.38-.69-.57-.33-.27-.65-.54-.98-.8-.21-.16-.42-.32-.62-.48-.44-.34-.89-.68-1.35-1.02-.19-.14-.37-.27-.56-.41-.17-.13-.35-.25-.53-.38-.48-.34-.97-.68-1.49-1.04-9.15-30.87-.83-58.22-.68-58.71-1.5.68-2.97,1.39-4.43,2.12-.49.25-.97.51-1.46.76-.96.5-1.93.99-2.88,1.5-.58.32-1.15.64-1.72.97-.83.47-1.67.93-2.49,1.41-.61.36-1.2.73-1.8,1.09-.76.46-1.53.93-2.28,1.4-.62.39-1.22.79-1.83,1.19-.71.46-1.43.93-2.13,1.4-.62.42-1.23.84-1.84,1.27-.67.47-1.34.93-2,1.4-.62.44-1.23.89-1.84,1.34-.63.46-1.26.93-1.87,1.4-.62.47-1.23.94-1.83,1.42-.59.46-1.17.92-1.75,1.38-.62.49-1.23.99-1.84,1.49-.54.45-1.09.9-1.62,1.35-.62.52-1.23,1.04-1.84,1.57-.5.43-1,.87-1.49,1.3-.62.55-1.24,1.1-1.85,1.65-.45.41-.9.82-1.34,1.23-.63.58-1.26,1.16-1.87,1.74-.4.38-.79.75-1.18,1.13-.64.62-1.29,1.24-1.91,1.85-.33.33-.66.66-.99.99-.67.66-1.33,1.33-1.98,1.99-.26.26-.51.53-.76.79-.7.73-1.4,1.45-2.09,2.17-.16.17-.31.33-.46.5-1.55,1.65-3.06,3.29-4.5,4.91-.02,0-.11,0-.11,0,0,0,0,0,0-.01,0,0-.01,0-.01,0-9.54-12.07-8.87-51.87-8.32-60.18-.01-.02-.03-.03-.07-.03h0s-.05,0-.07.01c0,0,0,0,0,0-.04,0-.09.01-.15.03,0,0,0,0,0,0-.04.01-.09.03-.13.05,0,0,0,0,0,0-.06.02-.13.05-.2.08,0,0,0,0,0,0-.06.02-.12.05-.19.08,0,0,0,0,0,0-.08.03-.15.07-.23.11,0,0,0,0,0,0-.08.04-.16.07-.24.11,0,0,0,0,0,0-.08.04-.16.08-.25.12,0,0,0,0,0,0-.1.05-.19.1-.29.15,0,0,0,0,0,0-.08.04-.16.08-.25.13,0,0,0,0,0,0-.11.06-.23.12-.34.18,0,0,0,0,0,0-.07.04-.13.07-.2.11h0c-1.31.71-2.83,1.58-3.93,2.24-.04.02-.07.04-.11.07-.17.1-.32.19-.46.28-.04.03-.09.05-.13.08-.12.08-.23.14-.33.21-.04.02-.08.05-.11.07-.12.07-.22.14-.28.18-1.49,1.04-3.13,2.24-4.9,3.6-.44.34-.89.69-1.35,1.05-4.57,3.59-9.89,8.17-15.55,13.77-.57.56-1.14,1.13-1.71,1.71-1.82,1.84-3.67,3.78-5.53,5.82-1.87,2.04-3.75,4.18-5.64,6.43-3.78,4.49-7.58,9.38-11.3,14.67,0,.01,0,.03-.01.04,0-.01,0-.03.01-.04-.84,1.19-1.67,2.4-2.49,3.63-1.65,2.46-3.28,5-4.89,7.62-2.4,3.93-4.74,8.05-6.98,12.35-3.73,7.17-7.18,14.85-10.22,23.05-1.07,2.88-2.07,5.83-3.02,8.83-.3.93-.58,1.86-.87,2.8-1.42,4.69-2.71,9.52-3.82,14.52-.01.06-.14.6-.33,1.5,0,.02,0,.05-.01.07-.45,2.12-2.49,12.85-2.77,15.16-.01.08,0,.05,0,0-.12.68-.23,1.39-.34,2.09-.34,2.32-.67,4.74-.97,7.23,0,.05-.01.1-.02.15,0,0,0,0,0,0,0,0,0,0,0,0-.11.69-.22,1.38-.33,2.09,0,.01,0,.02,0,.03-.05.33-.1.66-.14,1,0,.03,0,.07-.01.1-.02.16-.04.33-.06.49-.38,3.21-.71,6.47-.98,9.74,0,.11-.02.22-.03.33,0,.11-.02.22-.02.33-.03.42-.06.85-.09,1.3,0,.13-.02.27-.03.4-.08,1.11-.15,2.29-.23,3.55-.01.17-.02.35-.03.52-.03.49-.06.99-.09,1.51-.01.18-.02.35-.03.53-.04.69-.08,1.39-.12,2.12,0,.41-.03.82-.03,1.23,0,1.89.03,3.77.07,5.65.01.59.04,1.17.05,1.76.04,1.32.09,2.64.15,3.95.03.64.06,1.29.1,1.93.07,1.34.16,2.68.26,4.02.04.54.07,1.08.11,1.62.14,1.85.31,3.69.49,5.52.03.28.06.56.09.84.16,1.56.34,3.12.53,4.67.08.61.16,1.22.24,1.83.17,1.25.34,2.49.52,3.73.09.64.19,1.27.29,1.91.21,1.32.43,2.64.66,3.95.09.5.17,1,.26,1.5.32,1.77.66,3.54,1.02,5.3.09.45.19.89.29,1.34.28,1.33.57,2.67.87,3.99.15.64.3,1.27.45,1.91.27,1.16.56,2.32.85,3.47.16.64.32,1.28.49,1.92.33,1.28.68,2.56,1.04,3.83.13.47.25.94.39,1.4.48,1.68.98,3.35,1.49,5.02.18.57.36,1.14.54,1.7.36,1.14.73,2.28,1.11,3.41.23.68.46,1.35.69,2.03.36,1.05.73,2.09,1.1,3.13.24.66.48,1.33.72,1.99.45,1.2.9,2.4,1.37,3.6.19.48.37.97.56,1.45.61,1.55,1.25,3.09,1.89,4.62.28.67.57,1.33.86,2,.41.96.83,1.91,1.25,2.86.32.72.65,1.45.98,2.17.42.91.84,1.81,1.27,2.71.33.71.67,1.41,1.01,2.11.52,1.07,1.05,2.13,1.59,3.2.49.98.99,1.95,1.5,2.91.5.97,1.01,1.93,1.53,2.89.4.75.82,1.49,1.23,2.23.43.78.87,1.56,1.31,2.33.44.77.88,1.54,1.32,2.3.43.74.87,1.48,1.31,2.22.46.77.91,1.53,1.38,2.29.5.81,1.01,1.62,1.51,2.42.82,1.3,1.65,2.6,2.5,3.89.43.65.86,1.31,1.29,1.96.54.81,1.1,1.62,1.65,2.42.42.61.84,1.21,1.26,1.81.57.82,1.15,1.63,1.73,2.44.4.55.8,1.1,1.21,1.65,2.16,2.95,4.39,5.84,6.68,8.69.36.44.71.89,1.07,1.33.69.85,1.4,1.69,2.1,2.53.37.45.75.89,1.13,1.33.73.85,1.46,1.71,2.2,2.55.3.34.6.67.89,1.01,2.61,2.94,5.29,5.82,8.03,8.63.29.29.58.59.87.88.85.86,1.71,1.72,2.58,2.57.3.3.61.59.91.89.91.88,1.81,1.76,2.73,2.62.08.08.16.15.25.23,3.13,2.94,6.33,5.79,9.61,8.56.22.18.44.37.66.55,1.01.85,2.03,1.69,3.06,2.52.2.17.41.33.62.5,4.53,3.65,9.2,7.14,14,10.45.16.11.31.22.47.33,1.17.8,2.34,1.59,3.52,2.38.09.06.17.11.26.17,4.98,3.29,10.1,6.41,15.33,9.33.11.06.22.12.33.19,3.3,1.84,6.65,3.6,10.04,5.28.01,0,.02.01.04.02,1.68.83,3.36,1.64,5.06,2.44.04.02.07.03.11.05,1.68.78,3.36,1.54,5.06,2.29.15.07.3.13.45.2,5.44,2.37,10.99,4.55,16.63,6.52.21.07.41.15.62.22,1.42.49,2.86.97,4.29,1.44.29.1.59.19.88.29,1.39.45,2.79.88,4.19,1.31.32.1.65.19.97.29,1.41.42,2.82.83,4.23,1.22.27.08.55.15.83.22,1.49.41,2.98.8,4.47,1.18,0,0,.01,0,.02,0,4.97,1.25,10,2.35,15.09,3.29.15.03.3.06.45.09,1.34.24,2.69.47,4.04.69.53.09,1.05.18,1.58.26,1.04.16,2.08.32,3.12.47.78.11,1.56.22,2.33.33.95.13,1.91.25,2.86.37.93.11,1.87.22,2.81.32,1.38.15,2.77.29,4.16.42,1.26.12,2.51.24,3.78.34.37.03.73.05,1.1.08,1.61.12,3.22.22,4.83.31.34.02.68.04,1.03.05,1.82.09,3.65.16,5.49.21.07,0,.15,0,.22,0,2.04.05,4.09.08,6.14.08,11.15,0,22.13-.76,32.88-2.22,0,0,.02,0,.03,0,1.78-.24,3.56-.51,5.33-.79h.03c52.98-8.46,100.18-34.2,135.65-71.24.35-.36.7-.73,1.05-1.09,1.01-1.07,2.02-2.15,3.01-3.24.33-.36.65-.73.98-1.09,2.97-3.3,5.86-6.69,8.65-10.16.3-.37.6-.74.89-1.11.93-1.17,1.84-2.34,2.75-3.52.28-.37.56-.74.84-1.11,1.67-2.2,3.29-4.43,4.88-6.69.26-.37.53-.75.79-1.12.86-1.23,1.7-2.47,2.53-3.71.25-.38.5-.77.76-1.15,17.9-27.12,30.44-58.08,36.13-91.38.41-3.08.73-6.17,1.09-9.27ZM455.14,184.93c-.01-.08-.02-.16-.03-.23.01.09.03.17.04.26,0,0,0-.02,0-.03ZM17.31,242.88s0-.06,0-.08c0,0,0,0,0-.01,0,.03,0,.07,0,.1ZM17.44,264.49c-.03-.22-.06-.45-.09-.67.04.28.08.55.12.82,0-.05-.02-.1-.03-.15Z" fill="url(#ab)"/><path d="M494.56,293.09c4.78-41.21-.53-84.52-15.61-120.74-4.87-11.71-12.08-23.85-20.07-34.35-.07-.09-.14-.18-.2-.27-.44-.58-.88-1.14-1.33-1.71-.15-.2-.31-.39-.46-.58-2.51-3.16-5.08-6.14-7.66-8.89-.23-.25-.47-.5-.7-.74-.33-.34-.66-.68-.98-1.01-.26-.27-.52-.53-.79-.79-.3-.3-.61-.61-.91-.9-.29-.28-.58-.56-.87-.84-.28-.27-.56-.53-.83-.79-.32-.3-.64-.59-.97-.89-.29-.26-.58-.53-.87-.78-.2-.18-.4-.35-.6-.52-.32-.28-.64-.55-.96-.82-.23-.19-.46-.39-.7-.58-.28-.23-.56-.45-.84-.68-.26-.21-.52-.41-.77-.61-.22-.17-.44-.33-.65-.5-.36-.27-.72-.54-1.07-.8-.2-.14-.39-.28-.59-.42-.38-.27-.75-.53-1.13-.78-.25-.17-.49-.33-.74-.49-.38-.24-.76-.48-1.14-.71-.22-.14-.45-.28-.67-.4-.54-.31-1.08-.61-1.61-.89-.04-.02-.09-.05-.13-.07h0,0c.65,1.27,1.28,2.55,1.9,3.82.3.62.6,1.25.9,1.87.08.16.16.33.24.49,0,0,0,0,0,.01.47.98.92,1.97,1.38,2.95.15.33.31.65.46.98.04.1.09.19.14.29.64,1.4,1.26,2.8,1.87,4.19,0,0,0,0,0,0,.07.16.14.32.21.47,0,0,0,0,0,0,0,0,0,.01,0,.02,1.41,3.25,2.73,6.47,3.97,9.67.6,1.55,1.18,3.09,1.75,4.63.04.11.08.23.12.34.4,1.1.8,2.2,1.19,3.29,0,.03.02.06.03.08.02.05.04.1.05.15.23.66.44,1.31.67,1.96.2.59.4,1.17.6,1.76.09.26.18.52.26.78,0,.02.01.03.02.05.36,1.11.71,2.21,1.06,3.3.13.4.25.8.37,1.2.31,1,.61,2,.9,2.99.14.48.28.96.42,1.44.26.92.52,1.83.77,2.73.15.54.3,1.09.44,1.63.23.84.45,1.67.66,2.5.15.6.3,1.19.45,1.78.19.76.38,1.52.55,2.27.15.65.3,1.3.44,1.94.15.68.31,1.37.46,2.04.15.71.3,1.41.44,2.12.08.39.16.78.24,1.16.04.2.08.4.12.6.08.4.15.78.22,1.17.08.42.16.84.23,1.26.03.18.07.37.1.55.05.26.1.53.14.79.21,1.24.41,2.46.59,3.65,0,.01,0,.04,0,.07,0,0,0,.01,0,.02,0,.04,0,.08.02.15,0,.05.01.1.02.17,1.07,6.96,1.56,13.89,1.51,20.76-.02,3.44-.18,6.86-.46,10.26-.14,1.7-.32,3.4-.52,5.09-.19,1.54-.41,3.07-.65,4.6-.07.47-.15.93-.23,1.4-.18,1.09-.37,2.17-.58,3.26-.1.51-.19,1.01-.3,1.52-.23,1.15-.48,2.3-.74,3.44-.09.38-.16.75-.25,1.13-.36,1.5-.74,3-1.14,4.49-.09.33-.19.65-.28.98-.33,1.17-.67,2.34-1.02,3.51-.15.49-.3.98-.46,1.46-.33,1.05-.67,2.09-1.03,3.13-.16.46-.31.93-.48,1.39-.46,1.31-.94,2.62-1.44,3.92-.06.15-.11.31-.17.46-.56,1.45-1.15,2.89-1.75,4.33-.18.42-.36.84-.54,1.25-.45,1.04-.9,2.07-1.37,3.1-.22.48-.44.95-.66,1.43-.49,1.04-.99,2.08-1.5,3.12-.19.39-.38.77-.57,1.16-.7,1.4-1.43,2.79-2.17,4.17-.13.24-.27.48-.4.72-.63,1.15-1.27,2.29-1.92,3.42-.26.44-.52.88-.77,1.32-.56.96-1.14,1.92-1.72,2.87-.27.44-.53.87-.81,1.31-.7,1.11-1.41,2.22-2.13,3.32-.15.23-.3.46-.45.69-.88,1.32-1.77,2.63-2.68,3.93-.25.36-.51.71-.77,1.07-.68.95-1.37,1.9-2.07,2.85-.32.43-.64.86-.96,1.29-.69.92-1.4,1.83-2.11,2.74-.29.37-.57.74-.87,1.11-1,1.25-2.01,2.49-3.03,3.72-.11.13-.22.26-.33.39-.93,1.1-1.87,2.19-2.82,3.27-.34.38-.68.76-1.02,1.15-.76.85-1.53,1.69-2.3,2.53-.36.39-.72.78-1.08,1.17-.87.93-1.75,1.84-2.64,2.75-.25.25-.49.51-.74.76-1.13,1.15-2.28,2.28-3.44,3.4-.29.28-.59.56-.89.84-.89.85-1.78,1.69-2.69,2.52-.4.37-.8.73-1.2,1.1-.86.78-1.72,1.54-2.59,2.3-.38.33-.75.66-1.13.99-1.23,1.06-2.47,2.12-3.73,3.15.7-1.66,4.25-10.42,6.77-23.21.12-.61.24-1.23.35-1.85.81-4.39,1.48-9.21,1.87-14.35,1.18-15.42-.13-33.72-7.82-51.81-.73-1.72-1.52-3.45-2.37-5.16-5.1-10.3-12.41-20.45-22.64-29.86-1.05-.97-2.29-1.96-3.61-2.95-.49-.37-.97-.73-1.49-1.1-.39-.28-.8-.55-1.21-.83-.15-.1-.3-.19-.44-.29-.27-.18-.54-.36-.82-.54-.18-.11-.37-.23-.55-.34-.26-.16-.51-.32-.77-.48-.11-.07-.22-.13-.33-.2-5.11-3.02-11.07-5.83-17.53-7.99-.2-.07-.39-.13-.59-.2-.11-.04-.23-.07-.34-.11-.16-.05-.31-.1-.47-.15-.36-.11-.71-.22-1.07-.33-.25-.08-.51-.15-.76-.23-.37-.11-.73-.21-1.1-.31-.25-.07-.5-.14-.75-.2-.38-.1-.76-.2-1.14-.3-.24-.06-.49-.12-.73-.18-.39-.1-.78-.19-1.18-.28-.24-.06-.48-.11-.72-.16-.4-.09-.81-.18-1.21-.26-.23-.05-.47-.09-.7-.14-.42-.08-.83-.16-1.25-.24-.23-.04-.45-.08-.68-.12-.43-.07-.86-.15-1.29-.21-.22-.03-.43-.06-.65-.09-.45-.07-.89-.13-1.34-.19-.2-.03-.4-.05-.6-.07-.47-.06-.93-.11-1.4-.16-.18-.02-.37-.03-.55-.05-.49-.05-.97-.09-1.46-.13-.16-.01-.32-.02-.47-.03-.52-.04-1.03-.07-1.55-.09-.11,0-.23,0-.34-.01-.56-.02-1.13-.05-1.69-.06-.02,0-.05,0-.07,0-4.06-.07-8.15.2-12.22.91,1.34.67,2.66,1.37,3.96,2.09.42.23.82.49,1.23.73.86.5,1.72.99,2.56,1.51.49.31.96.63,1.45.95.73.47,1.47.94,2.19,1.43.51.35.99.71,1.49,1.07.67.48,1.34.95,1.99,1.44.5.38.98.78,1.47,1.17.62.49,1.25.97,1.85,1.47.49.41.95.83,1.43,1.24.58.51,1.17,1.01,1.74,1.52.47.43.92.88,1.37,1.31.55.52,1.1,1.04,1.63,1.57.45.45.88.92,1.32,1.39.51.54,1.03,1.06,1.53,1.61.43.48.84.97,1.27,1.45.48.55.96,1.09,1.43,1.65.41.5.8,1.01,1.21,1.52.45.56.9,1.12,1.33,1.69.39.52.76,1.05,1.14,1.57.41.57.84,1.14,1.24,1.72.37.53.72,1.08,1.07,1.62.39.59.78,1.17,1.15,1.77.34.55.67,1.11,1,1.67.36.6.72,1.19,1.07,1.8.32.57.62,1.14.93,1.72.33.61.66,1.21.98,1.83.3.58.58,1.17.86,1.76.3.62.61,1.23.89,1.85.28.6.53,1.2.8,1.81.27.62.55,1.24.81,1.87.25.61.49,1.23.73,1.85.24.63.49,1.26.72,1.89.23.63.44,1.26.65,1.89.22.63.44,1.26.64,1.9.2.64.39,1.29.58,1.93.19.64.38,1.27.56,1.91.18.65.34,1.31.51,1.97.16.64.33,1.27.48,1.91.16.67.29,1.34.44,2,.14.64.28,1.27.4,1.91.13.68.25,1.36.36,2.04.11.63.22,1.27.32,1.91.11.69.2,1.38.29,2.07.08.63.17,1.26.24,1.9.08.7.14,1.4.21,2.1.06.63.12,1.26.17,1.88.05.71.09,1.42.13,2.13.03.62.07,1.24.1,1.87.03.72.04,1.44.05,2.15.01.62.02,1.23.02,1.85,0,.72-.01,1.45-.03,2.17-.01.61-.02,1.22-.05,1.83-.03.73-.07,1.46-.11,2.19-.03.6-.07,1.2-.11,1.8-.06.74-.13,1.48-.2,2.21-.06.59-.11,1.18-.18,1.77-.08.74-.18,1.49-.28,2.23-.08.58-.15,1.16-.24,1.74-.11.75-.24,1.49-.37,2.24-.1.57-.2,1.14-.3,1.71-.14.75-.3,1.49-.46,2.24-.12.56-.24,1.12-.37,1.68-.17.75-.36,1.5-.55,2.24-.14.55-.28,1.1-.42,1.64-.2.75-.42,1.5-.64,2.24-.16.54-.32,1.07-.48,1.6-.23.75-.48,1.49-.73,2.24-.18.52-.35,1.04-.54,1.56-.11.3-.22.59-.33.89,0,0,0,0,0,0-.16.44-.32.89-.49,1.33-.19.51-.39,1.02-.59,1.52-.12.3-.25.59-.37.88,0,.02-.02.04-.03.06-.17.42-.35.84-.53,1.26-.21.5-.42.99-.64,1.48-.13.29-.27.58-.41.88-.02.04-.04.08-.05.12-.18.4-.36.8-.55,1.19-.23.48-.46.96-.7,1.44-.14.29-.3.58-.44.87-.03.06-.06.11-.09.17-.19.38-.38.75-.58,1.13-.25.47-.49.93-.75,1.4-.16.29-.32.57-.48.85-.04.07-.08.15-.12.22-.2.35-.4.71-.6,1.06-.26.45-.53.9-.8,1.35-.17.28-.35.56-.52.84-.06.09-.11.18-.17.27-.21.33-.41.66-.62.99-.28.44-.56.87-.84,1.3-.18.28-.37.55-.56.82-.07.11-.14.21-.22.32-.21.31-.42.62-.63.92-.29.42-.59.84-.89,1.26-.19.27-.4.53-.59.8-.09.12-.18.24-.27.36-.21.28-.42.57-.64.86-.31.41-.62.81-.94,1.21-.21.26-.42.51-.63.77-.11.13-.22.27-.33.4-.22.26-.43.53-.64.79-.33.39-.65.78-.99,1.16-.22.25-.44.5-.66.74-.13.15-.26.3-.39.44-.22.24-.43.49-.65.73-.34.37-.68.74-1.03,1.11-.23.24-.46.48-.69.71-.15.16-.3.32-.46.47-.22.22-.43.45-.65.67-.36.36-.72.71-1.08,1.06-.24.23-.48.45-.72.68-.18.17-.35.33-.53.5-.22.2-.43.41-.64.61-.37.34-.75.68-1.12,1.01-.25.22-.5.43-.75.65-.2.17-.4.35-.61.52-.21.18-.42.37-.64.55-.39.32-.78.64-1.17.96-.26.21-.52.41-.78.61-.23.18-.45.36-.68.54-.21.16-.42.33-.63.5-.4.31-.81.61-1.22.91-.26.19-.54.38-.8.57-.26.18-.51.37-.77.55-.21.15-.41.3-.62.44-.42.29-.84.57-1.26.86-.27.18-.55.36-.83.53-.28.19-.57.37-.86.55-.2.13-.4.27-.61.39-.43.27-.87.54-1.31.8-.28.17-.57.33-.85.49-.31.18-.63.37-.94.55-.2.11-.39.23-.59.35-.45.25-.9.5-1.36.74-.29.15-.58.3-.87.45-.35.18-.69.37-1.04.55-.19.1-.38.2-.58.3-.46.23-.93.46-1.4.69-.29.14-.59.27-.88.41-.38.18-.76.36-1.14.53-.19.09-.37.18-.56.26-.48.21-.97.42-1.45.63-.3.13-.6.24-.89.37-.41.17-.82.34-1.24.51-.18.07-.36.15-.54.22-.5.2-1,.38-1.5.57-.3.11-.61.22-.91.33-.45.16-.89.33-1.34.48-.17.06-.34.13-.52.19-.51.17-1.03.34-1.55.51-.3.1-.61.19-.91.28-.48.15-.96.3-1.45.45-.17.05-.33.11-.5.15-.53.15-1.07.3-1.6.45-.3.08-.62.16-.92.24-.52.14-1.03.28-1.55.4-.16.04-.32.09-.48.12-.54.13-1.1.25-1.65.38-.31.07-.62.13-.92.2-.55.12-1.1.24-1.66.36-.15.03-.3.07-.46.1-.56.11-1.13.21-1.7.31-.31.06-.62.1-.93.16-.59.1-1.18.21-1.78.3-.15.02-.29.05-.43.07-.58.09-1.16.16-1.75.24-.31.04-.62.08-.92.12-.63.08-1.26.17-1.89.24-.14.02-.27.04-.41.05-.6.06-1.2.12-1.8.17-.3.03-.61.05-.92.08-.67.06-1.33.12-2.01.17-.13,0-.25.02-.38.03-.61.04-1.24.07-1.86.1-.3.02-.61.02-.91.04-.71.03-1.41.07-2.12.09-.12,0-.24.01-.36.01-.63.02-1.27.02-1.91.02-.3,0-.6,0-.9,0-.75,0-1.49.01-2.25,0-.11,0-.22,0-.33,0-1.51-.02-3.02-.05-4.55-.12-10.43-.49-21.02-2.33-31.31-6.03-2.35-.88-4.71-1.85-7.07-2.89-1.36-.62-2.71-1.24-4.06-1.94.05.03.11.07.16.1-.57-.27-1.13-.56-1.7-.85,0,0,0,0,0,0,0,0-.02,0-.03-.01.51.26,1.01.51,1.54.75-29.38-15.17-53.65-43.83-56.68-78.64,0,0,11.11-41.33,79.52-41.33,7.4,0,28.54-20.61,28.93-26.59h0s0,0,0,0c0-.02-.01-.05-.02-.07,0-.02-.02-.04-.03-.06-.03-.05-.08-.1-.15-.16-.04-.04-.08-.07-.12-.11-.05-.04-.1-.08-.16-.13-.09-.07-.2-.14-.32-.22-.07-.04-.14-.09-.21-.14-.14-.09-.3-.19-.47-.29-.08-.04-.16-.09-.24-.14-.2-.11-.41-.23-.64-.36-.07-.04-.15-.08-.22-.12-.26-.14-.53-.29-.82-.44-.05-.03-.1-.05-.15-.08-.33-.17-.67-.35-1.04-.54,0,0-.01,0-.02,0-.41-.21-.85-.43-1.3-.66,0,0,0,0,0,0-.01,0-.03-.01-.04-.02-.34-.17-.7-.35-1.07-.53-.01,0-.02-.01-.03-.02-.05-.03-.11-.05-.16-.08-.02-.01-.04-.02-.06-.03-.01,0-.03-.02-.05-.02-.27-.14-.55-.27-.84-.41-.06-.03-.11-.06-.17-.08-.03-.01-.05-.03-.08-.04,0,0,0,0,0,0-.04-.02-.1-.05-.14-.07-.56-.28-1.14-.56-1.75-.86-.47-.23-.96-.47-1.46-.71-.61-.3-1.23-.6-1.86-.92-.15-.07-.29-.14-.43-.21-.07-.03-.14-.07-.21-.1-.1-.05-.2-.1-.3-.15-.01,0-.03-.01-.04-.02-.06-.03-.11-.06-.17-.08-.29-.14-.58-.28-.87-.43,0,0,0,0-.01,0-.05-.02-.09-.05-.14-.07,0,0-.01,0-.02,0-.04-.02-.08-.04-.12-.06,0,0-.01,0-.02,0-.17-.09-.35-.17-.52-.26,0,0-.01,0-.02-.01-.11-.06-.22-.11-.34-.17-.13-.06-.25-.12-.38-.19-.02-.01-.04-.02-.06-.03-.4-.2-.8-.4-1.2-.6,0,0-.01,0-.02,0-.13-.06-.26-.13-.39-.19-.06-.03-.11-.06-.17-.08h0c-13.28-6.66-30.18-15.74-39.23-24.64-8.72-8.58-12.87-12.72-16.53-15.83-.23-.2-.46-.38-.69-.57-.33-.27-.65-.54-.98-.8-.21-.16-.42-.32-.62-.48-.44-.34-.89-.68-1.35-1.02-.19-.14-.37-.27-.56-.41-.17-.13-.35-.25-.53-.38-.48-.34-.97-.68-1.49-1.04-9.15-30.87-.83-58.22-.68-58.71-1.5.68-2.97,1.39-4.43,2.12-.49.25-.97.51-1.46.76-.96.5-1.93.99-2.88,1.5-.58.31-1.14.64-1.71.96,0,0,0,0,0,0,0,0,0,0,0,0-.83.47-1.67.93-2.48,1.41-.61.36-1.2.73-1.8,1.09-.76.46-1.53.93-2.28,1.4,0,0,0,0,0,0s0,0,0,0c-.62.39-1.22.79-1.83,1.19-.71.46-1.43.93-2.13,1.4-.62.42-1.23.84-1.83,1.26,0,0,0,0,0,0,0,0,0,0,0,0-.67.47-1.34.93-2,1.4,0,0,0,0,0,0s0,0,0,0c-.62.44-1.23.89-1.83,1.34,0,0,0,0,0,0s0,0,0,0c-.63.46-1.25.93-1.87,1.4-.62.47-1.23.94-1.83,1.42,0,0,0,0,0,0s0,0,0,0c-.59.46-1.17.92-1.75,1.38-.62.49-1.23.99-1.84,1.49-.54.45-1.08.89-1.62,1.34,0,0,0,0,0,0,0,0,0,0,0,0-.62.52-1.23,1.04-1.83,1.56-.5.43-1,.87-1.49,1.3h0s0,0,0,0c-.62.55-1.24,1.1-1.85,1.65-.45.41-.9.82-1.34,1.23-.63.58-1.26,1.16-1.87,1.74,0,0,0,0,0,0s0,0,0,0c-.4.37-.79.75-1.18,1.12h0s0,0,0,0c-.64.62-1.28,1.23-1.91,1.85h0s0,0,0,0c-.33.33-.66.66-.99.98h0s0,0,0,0c-.67.66-1.33,1.33-1.98,1.99-.26.26-.51.53-.76.79-.7.73-1.4,1.45-2.09,2.17-.16.17-.31.33-.46.5-.77.82-1.53,1.63-2.27,2.44-.76.83-1.51,1.65-2.23,2.47-.02,0-.11,0-.11,0,0,0,0,0,0-.01,0,0-.01,0-.01,0-9.54-12.07-8.87-51.87-8.32-60.18h0s-.03-.03-.07-.03h0s-.05,0-.07.01h0s0,0,0,0c-.04,0-.09.01-.15.03,0,0,0,0,0,0-.04.01-.08.03-.13.04,0,0,0,0,0,0,0,0,0,0,0,0-.06.02-.13.05-.2.08,0,0,0,0,0,0-.06.02-.12.05-.18.08,0,0,0,0,0,0,0,0,0,0,0,0,0,0,0,0,0,0-.08.03-.15.07-.23.11,0,0,0,0,0,0-.08.04-.16.07-.24.11,0,0,0,0,0,0,0,0,0,0,0,0-.08.04-.16.08-.25.12,0,0,0,0,0,0,0,0,0,0,0,0-.1.05-.19.1-.29.15,0,0,0,0,0,0,0,0,0,0,0,0-.08.04-.16.08-.25.13,0,0,0,0,0,0,0,0,0,0,0,0-.11.06-.23.12-.34.18,0,0,0,0,0,0-.07.04-.13.07-.2.11h0s0,0,0,0c-.65.35-1.36.75-2.04,1.14,0,0,0,0,0,0-.68.39-1.34.77-1.89,1.11-.04.02-.07.04-.1.06,0,0,0,0,0,0,0,0,0,0,0,0-.16.1-.31.19-.45.27,0,0,0,0,0,0,0,0,0,0,0,0-.04.03-.09.05-.13.08-.12.07-.23.14-.32.2,0,0,0,0,0,0,0,0,0,0,0,0-.03.02-.07.04-.1.06,0,0,0,0,0,0,0,0,0,0,0,0-.12.07-.22.14-.28.18-.75.52-1.53,1.08-2.35,1.68s-1.67,1.24-2.55,1.92c-.44.34-.89.69-1.35,1.05,0,0-.02.01-.03.02-.51.4-1.03.82-1.56,1.25-.17.14-.35.28-.52.42-.38.31-.76.62-1.15.94-.2.16-.4.33-.6.5-.39.33-.79.66-1.19,1-.18.16-.36.31-.55.47-.57.49-1.15.99-1.74,1.51-.02.01-.03.03-.05.04-.59.52-1.18,1.05-1.78,1.59-.19.17-.39.35-.58.53-.43.39-.85.78-1.29,1.18-.22.2-.44.41-.67.62-.43.41-.87.82-1.31,1.24-.2.19-.4.38-.61.58-.64.61-1.28,1.24-1.93,1.88-.57.56-1.14,1.13-1.71,1.71-1.38,1.39-2.78,2.86-4.19,4.38-.45.48-.89.95-1.34,1.44-.93,1.02-1.87,2.07-2.81,3.14-.94,1.07-1.88,2.17-2.83,3.29-1.89,2.24-3.78,4.59-5.67,7.03-1.89,2.45-3.77,4.99-5.63,7.64,0,.01,0,.03-.01.04,0-.01,0-.03.01-.04-.84,1.19-1.67,2.4-2.49,3.63-1.65,2.46-3.28,5-4.89,7.62-.72,1.18-1.43,2.38-2.14,3.59-.21.36-.42.72-.63,1.09-.52.9-1.04,1.82-1.55,2.74-.21.37-.41.74-.62,1.12-.69,1.26-1.37,2.53-2.05,3.82-.85,1.64-1.68,3.31-2.5,5-.26.53-.5,1.06-.76,1.59-.57,1.2-1.13,2.4-1.68,3.63-.28.61-.55,1.23-.82,1.85-.54,1.23-1.07,2.48-1.6,3.74-.24.57-.47,1.13-.71,1.7-.74,1.82-1.46,3.67-2.16,5.54-.54,1.45-1.06,2.91-1.56,4.4-.5,1.46-.99,2.94-1.46,4.44-.3.93-.58,1.86-.87,2.8-.57,1.88-1.11,3.79-1.63,5.72-.2.74-.4,1.48-.59,2.22-.17.65-.33,1.29-.49,1.94-.38,1.53-.75,3.07-1.1,4.63-.01.06-.13.6-.33,1.49,0,0,0,0,0,0,0,0,0,0,0,0,0,0,0,0,0,0,0,0,0,0,0,0,0,.02,0,.05-.01.07-.45,2.12-2.49,12.85-2.77,15.16-.01.08,0,.05,0,0-.12.71-.24,1.45-.35,2.18-.16,1.1-.32,2.22-.48,3.37,0,.07-.02.15-.03.22-.16,1.17-.31,2.35-.45,3.55,0,.05-.01.1-.02.15,0,0,0,0,0,0,0,0,0,0,0,0-.11.69-.22,1.38-.33,2.08,0,0,0,.02,0,.03,0,0,0,0,0,0,0,0,0,0,0,0-.05.33-.1.66-.14.99,0,.03,0,.07-.01.1-.02.16-.04.33-.06.49-.38,3.21-.71,6.47-.98,9.74,0,.11-.02.22-.03.33,0,.11-.02.21-.02.32,0,0,0,0,0,.01,0,0,0,0,0,.01-.03.42-.06.84-.09,1.28,0,0,0,0,0,0,0,0,0,0,0,0,0,.13-.02.26-.03.4-.08,1.11-.15,2.29-.23,3.55-.01.17-.02.34-.03.5,0,0,0,.01,0,.02s0,.01,0,.02c-.03.48-.06.98-.09,1.49,0,.17-.02.34-.03.52,0,0,0,0,0,0s0,0,0,0c-.04.68-.08,1.38-.12,2.11,0,.41-.03.82-.03,1.23,0,1.89.03,3.77.07,5.65h0c.01.59.04,1.17.05,1.75h0c.04,1.32.09,2.64.15,3.95,0,0,0,0,0,0s0,0,0,0c.03.64.06,1.28.1,1.93,0,0,0,0,0,0s0,0,0,0c.07,1.34.16,2.68.26,4.02.04.54.07,1.08.11,1.62,0,0,0,0,0,0s0,0,0,0c.14,1.85.31,3.69.49,5.52.03.28.06.56.09.83,0,0,0,0,0,0s0,0,0,0c.16,1.56.34,3.11.53,4.67,0,0,0,0,0,0s0,0,0,0c.08.61.16,1.22.24,1.83.17,1.25.34,2.49.52,3.73.09.64.19,1.27.29,1.91,0,0,0,0,0,0s0,0,0,0c.21,1.32.43,2.64.66,3.95.09.5.17,1,.26,1.5,0,0,0,0,0,0s0,0,0,0c.32,1.77.66,3.54,1.02,5.3.09.45.19.89.28,1.34,0,0,0,0,0,0,0,0,0,0,0,0,.28,1.33.57,2.66.87,3.99,0,0,0,0,0,0s0,0,0,0c.15.64.3,1.27.45,1.91,0,0,0,0,0,0s0,0,0,0c.27,1.16.56,2.31.85,3.47,0,0,0,0,0,0h0c.16.64.32,1.28.49,1.92,0,0,0,0,0,0,0,0,0,0,0,0,.33,1.28.68,2.56,1.04,3.83.13.47.25.94.39,1.4.48,1.68.98,3.35,1.49,5.01,0,0,0,0,0,0s0,0,0,0c.18.57.36,1.14.54,1.7.36,1.14.73,2.28,1.11,3.41h0s0,0,0,0c.23.68.46,1.35.69,2.02h0s0,0,0,0c.36,1.04.73,2.08,1.1,3.12,0,0,0,0,0,0s0,0,0,0c.24.66.48,1.33.72,1.99.45,1.2.9,2.4,1.37,3.6.19.48.37.97.56,1.45.61,1.55,1.25,3.09,1.89,4.62.28.67.57,1.33.86,2,.41.96.83,1.91,1.25,2.86,0,0,0,0,0,0s0,0,0,0c.32.72.65,1.44.98,2.16,0,0,0,0,0,0s0,0,0,0c.42.91.84,1.81,1.26,2.7.33.71.67,1.41,1.01,2.11.52,1.07,1.05,2.13,1.59,3.19,0,0,0,0,0,0,0,0,0,0,0,0,.49.97.99,1.95,1.5,2.91.5.97,1.01,1.93,1.53,2.89.4.75.81,1.49,1.23,2.23h0s0,0,0,0c.43.78.87,1.56,1.31,2.33.44.77.88,1.54,1.32,2.3.43.74.87,1.48,1.31,2.22.46.77.91,1.53,1.38,2.29,0,0,0,0,0,0s0,0,0,0c.5.81,1.01,1.61,1.51,2.42.82,1.3,1.65,2.6,2.5,3.89.43.65.85,1.31,1.29,1.96,0,0,0,0,0,0s0,0,0,0c.54.81,1.1,1.62,1.65,2.42.42.61.83,1.21,1.26,1.81,0,0,0,0,0,0s0,0,0,0c.57.82,1.15,1.63,1.73,2.44.4.55.8,1.1,1.21,1.65,0,0,0,0,0,0,0,0,0,0,0,0,1.08,1.47,2.17,2.93,3.28,4.37,0,0,.01.01.02.02,1.11,1.44,2.24,2.88,3.38,4.29.36.44.71.89,1.07,1.33.69.85,1.4,1.69,2.1,2.53.37.45.75.89,1.13,1.33,0,0,0,0,0,0s0,0,0,0c.73.85,1.46,1.71,2.2,2.55.3.34.6.67.89,1,0,0,0,0,0,0,0,0,0,0,0,0,1.3,1.47,2.63,2.92,3.96,4.36,1.34,1.44,2.7,2.86,4.07,4.26,0,0,0,0,0,0,0,0,0,0,0,0,.29.29.57.59.86.88.85.86,1.71,1.72,2.57,2.57h0s0,0,0,0c.3.3.61.59.91.89,0,0,0,0,0,0s0,0,0,0c.9.88,1.81,1.75,2.73,2.62.08.08.16.15.25.23,1.55,1.46,3.12,2.89,4.71,4.3.03.03.07.06.1.09,1.58,1.41,3.19,2.8,4.81,4.16.22.18.44.37.66.55,1.01.85,2.03,1.69,3.06,2.52h0s0,0,0,0c.2.17.41.33.61.49,0,0,0,0,0,0,0,0,0,0,0,0,4.53,3.65,9.2,7.13,13.99,10.45,0,0,0,0,0,0,0,0,0,0,0,0,.16.11.31.22.47.32,0,0,0,0,0,0s0,0,0,0c1.16.8,2.34,1.59,3.51,2.38,0,0,0,0,0,0s0,0,0,0c.09.06.17.11.26.17,4.98,3.29,10.1,6.41,15.33,9.33.11.06.22.12.33.18h0s0,0,0,0c1.65.92,3.3,1.81,4.97,2.69,0,0,0,0,.01,0,4.99,2.63,10.09,5.08,15.29,7.36.16.07.32.14.47.21,5.44,2.37,10.99,4.55,16.63,6.52.19.07.38.14.58.2,6.64,2.3,13.41,4.33,20.31,6.05.05.01.1.02.15.04,2.17.54,4.36,1.05,6.55,1.53.31.07.61.13.92.2,1.84.4,3.69.77,5.54,1.13.34.06.68.13,1.02.19,1.8.34,3.62.65,5.43.95.39.06.78.13,1.18.19,1.04.16,2.08.32,3.12.47.78.11,1.56.22,2.33.33.95.13,1.91.25,2.86.37.93.11,1.87.22,2.81.32,1.38.15,2.77.29,4.16.42,1.26.12,2.51.24,3.78.34.37.03.73.05,1.1.08,1.61.12,3.22.22,4.83.31.34.02.68.04,1.03.05,1.82.09,3.65.16,5.49.21.07,0,.15,0,.22,0,2.04.05,4.09.08,6.14.08,1.67,0,3.34-.02,5.01-.06.49-.01.99-.02,1.48-.04,1.23-.03,2.46-.07,3.69-.13.49-.02.98-.04,1.47-.06.84-.04,1.68-.09,2.51-.14,1.2-.07,2.39-.14,3.58-.23.71-.05,1.41-.11,2.12-.17,1.22-.1,2.44-.21,3.65-.32.8-.08,1.59-.16,2.38-.24,1.86-.2,3.71-.42,5.56-.66.32-.04.64-.08.96-.12,2.13-.29,4.26-.6,6.37-.94.57-.09,1.13-.19,1.69-.29,1.49-.25,2.98-.52,4.47-.8.82-.16,1.65-.32,2.47-.48,1.23-.24,2.45-.5,3.67-.76.89-.19,1.78-.38,2.67-.58,1.3-.3,2.59-.61,3.88-.93,1.67-.41,3.32-.84,4.98-1.28.78-.21,1.56-.41,2.33-.63,1.23-.34,2.46-.7,3.69-1.06.64-.19,1.28-.38,1.91-.58,1.31-.4,2.62-.8,3.92-1.23.26-.08.52-.18.78-.26,37.94-12.46,71.7-34.09,98.67-62.27.35-.36.7-.73,1.05-1.09,1.01-1.07,2.02-2.15,3.01-3.24.33-.36.65-.73.98-1.09,2.97-3.3,5.86-6.69,8.65-10.16.3-.37.6-.74.89-1.11.93-1.17,1.84-2.34,2.75-3.52.28-.37.56-.74.84-1.11,1.67-2.2,3.29-4.43,4.88-6.69.26-.37.53-.75.79-1.12.86-1.23,1.7-2.47,2.53-3.71.25-.38.5-.77.76-1.15,17.9-27.12,30.44-58.08,36.13-91.38.41-3.08.73-6.17,1.09-9.27ZM455.14,184.93c-.01-.08-.02-.16-.03-.23,0,.02,0,.04,0,.06.01.07.02.14.03.2,0,0,0-.02,0-.03ZM17.31,242.88s0-.05,0-.08c0,0,0,0,0-.01,0,.03,0,.06,0,.1ZM17.44,264.49s0,0,0,0c-.03-.22-.06-.44-.09-.67.02.15.04.29.06.44.02.13.04.25.06.38,0-.05-.02-.1-.03-.15Z" fill="url(#ac)"/></svg>