<?xml version="1.0" encoding="UTF-8"?><svg id="a" xmlns="http://www.w3.org/2000/svg" xmlns:xlink="http://www.w3.org/1999/xlink" viewBox="0 0 512 512"><defs><radialGradient id="b" cx="-7886.98" cy="-7769.38" fx="-7886.98" fy="-7769.38" r="80.8" gradientTransform="translate(49392.54 48231.2) scale(6.21)" gradientUnits="userSpaceOnUse"><stop offset="0" stop-color="#80ebff"/><stop offset=".08" stop-color="#4ce5ff"/><stop offset=".16" stop-color="#23e0ff"/><stop offset=".22" stop-color="#09deff"/><stop offset=".26" stop-color="#0df"/><stop offset=".26" stop-color="#00dcfe"/><stop offset=".38" stop-color="#00b3f5"/><stop offset=".47" stop-color="#0099ef"/><stop offset=".53" stop-color="#0090ed"/><stop offset=".86" stop-color="#0060df"/></radialGradient><radialGradient id="d" cx="-7916.51" cy="-7736.35" fx="-7916.51" fy="-7736.35" r="80.8" gradientTransform="translate(49392.54 48231.2) scale(6.21)" gradientUnits="userSpaceOnUse"><stop offset=".3" stop-color="#321c64" stop-opacity=".8"/><stop offset=".37" stop-color="#202e83" stop-opacity=".51"/><stop offset=".47" stop-color="#0a46ab" stop-opacity=".14"/><stop offset=".53" stop-color="#0250bb" stop-opacity="0"/></radialGradient><radialGradient id="f" cx="-7895.77" cy="-7790.24" fx="-7895.77" fy="-7790.24" r="118.08" gradientTransform="translate(49392.54 48231.2) scale(6.21)" gradientUnits="userSpaceOnUse"><stop offset="0" stop-color="#80ebff"/><stop offset="0" stop-color="#76e6fe"/><stop offset=".04" stop-color="#56d8fb"/><stop offset=".07" stop-color="#3bccf9"/><stop offset=".1" stop-color="#25c3f7"/><stop offset=".14" stop-color="#14bbf5"/><stop offset=".2" stop-color="#08b6f4"/><stop offset=".27" stop-color="#01b3f4"/><stop offset=".47" stop-color="#00b3f4"/><stop offset=".69" stop-color="#0080e7"/><stop offset=".84" stop-color="#0060df"/><stop offset="1" stop-color="#592acb"/></radialGradient><radialGradient id="h" cx="-7898.72" cy="-7758.12" fx="-7898.72" fy="-7758.12" r="80.68" gradientTransform="translate(49392.54 48231.2) scale(6.21)" gradientUnits="userSpaceOnUse"><stop offset=".29" stop-color="#80ebff"/><stop offset="1" stop-color="#00b3f4"/></radialGradient><linearGradient id="j" x1="214" y1="197.09" x2="168.58" y2="383.23" gradientUnits="userSpaceOnUse"><stop offset="0" stop-color="#bff3ff" stop-opacity=".9"/><stop offset="1" stop-color="#80ebff" stop-opacity=".5"/></linearGradient><linearGradient id="l" x1="163.54" y1="176.35" x2="179.22" y2="425.59" gradientUnits="userSpaceOnUse"><stop offset="0" stop-color="#bff3ff" stop-opacity=".8"/><stop offset="1" stop-color="#80ebff" stop-opacity=".2"/></linearGradient><linearGradient id="n" x1="103.49" y1="234.84" x2="86.11" y2="581.22" gradientUnits="userSpaceOnUse"><stop offset="0" stop-color="#0df" stop-opacity=".4"/><stop offset="1" stop-color="#0df" stop-opacity="0"/></linearGradient><linearGradient id="p" x1="132.53" y1="40.27" x2="135.73" y2="452.37" gradientUnits="userSpaceOnUse"><stop offset="0" stop-color="#bff3ff"/><stop offset="1" stop-color="#0df" stop-opacity="0"/></linearGradient><linearGradient id="r" x1="371.47" y1="98.95" x2="343.04" y2="665.48" gradientUnits="userSpaceOnUse"><stop offset="0" stop-color="#bff3ff" stop-opacity=".8"/><stop offset="1" stop-color="#0df" stop-opacity="0"/></linearGradient><linearGradient id="t" x1="442.12" y1="80.72" x2="102.55" y2="420.3" gradientUnits="userSpaceOnUse"><stop offset=".24" stop-color="#80ebff" stop-opacity=".5"/><stop offset=".26" stop-color="#75e9ff" stop-opacity=".46"/><stop offset=".36" stop-color="#4be5ff" stop-opacity=".3"/><stop offset=".45" stop-color="#2ae1ff" stop-opacity=".17"/><stop offset=".55" stop-color="#13dfff" stop-opacity=".07"/><stop offset=".63" stop-color="#04ddff" stop-opacity=".02"/><stop offset=".7" stop-color="#0df" stop-opacity="0"/></linearGradient></defs><path id="c" d="M478.98,172.36c-10.46-25.12-31.64-52.25-48.27-60.82,13.54,26.5,21.37,53.09,24.36,72.93,0-.06.01.05.04.23.01.09.03.17.04.26,22.7,61.47,10.33,123.97-7.49,162.17-27.57,59.1-94.32,119.67-198.81,116.71-112.89-3.19-212.33-86.85-230.9-196.43-3.38-17.28,0-26.05,1.7-40.08-2.07,10.82-2.86,13.94-3.9,33.16,0,.41-.03.82-.03,1.23,0,132.71,107.72,240.29,240.6,240.29,119,0,217.81-86.29,237.16-199.63.41-3.08.73-6.17,1.09-9.27,4.78-41.21-.53-84.52-15.61-120.74Z" fill="url(#b)"/><path id="e" d="M478.98,172.36c-10.46-25.12-31.64-52.25-48.27-60.82,13.54,26.5,21.37,53.09,24.36,72.93,0-.06.01.05.04.23.01.09.03.17.04.26,22.7,61.47,10.33,123.97-7.49,162.17-27.57,59.1-94.32,119.67-198.81,116.71-112.89-3.19-212.33-86.85-230.9-196.43-3.38-17.28,0-26.05,1.7-40.08-2.07,10.82-2.86,13.94-3.9,33.16,0,.41-.03.82-.03,1.23,0,132.71,107.72,240.29,240.6,240.29,119,0,217.81-86.29,237.16-199.63.41-3.08.73-6.17,1.09-9.27,4.78-41.21-.53-84.52-15.61-120.74Z" fill="url(#d)"/><path id="g" d="M17.96,267.41c18.56,109.58,118.01,193.24,230.9,196.43,104.48,2.95,171.24-57.62,198.81-116.71,17.82-38.2,30.19-100.7,7.49-162.17,0,0,0-.02,0-.03-.01-.08-.02-.16-.03-.23-.02-.18-.04-.28-.04-.23,0,.04.01.14.05.4,8.53,55.66-19.81,109.58-64.13,146.04-.08.19-.13.31-.13.31-86.35,70.22-168.97,42.37-185.7,30.97-1.17-.56-2.33-1.14-3.5-1.74-50.34-24.03-71.14-69.84-66.68-109.12-42.51,0-57-35.81-57-35.81,0,0,38.16-27.18,88.46-3.54,46.58,21.89,90.33,3.54,90.34,3.54-.09-1.95-41.97-18.59-58.29-34.66-8.72-8.58-12.87-12.72-16.53-15.83-1.99-1.69-3.86-3.08-6.23-4.7-1.43-.97-3.04-2.03-4.99-3.3-17.55-11.39-52.45-10.76-53.6-10.73-.02,0-.11,0-.11,0-9.54-12.07-8.87-51.87-8.32-60.18-.11-.52-7.12,3.63-8.03,4.25-5.97,4.17-14.34,10.85-23.51,20.12-7.27,7.34-15.03,16.33-22.47,26.91,0,.01,0,.03-.01.04,0-.01,0-.03.01-.04-13.37,19.01-25.71,43.24-32.28,72.8-.12.52-8.66,37.84-4.45,57.2Z" fill="url(#f)"/><path id="i" d="M148.32,283.45s11.11-41.33,79.52-41.33c7.4,0,28.54-20.61,28.94-26.59h0s0,0,0,0c0,0-43.75,18.35-90.34-3.54-50.3-23.64-88.46,3.54-88.46,3.54,0,0,14.49,35.81,57,35.81-4.46,39.29,16.34,85.09,66.68,109.12,1.13.54,2.18,1.12,3.34,1.64-29.38-15.17-53.65-43.83-56.68-78.64Z" fill="url(#h)"/><path id="k" d="M256.78,215.52h0s-1.02.42-2.9,1.07c-4.7,7.94-21.41,23.1-27.8,23.08-68.42-.3-79.7,40.59-79.7,40.59,1.19,14.29,6.05,27.55,13.4,39.26-6.22-10.91-10.32-23.06-11.46-36.07,0,0,11.11-41.33,79.52-41.33,7.4,0,28.54-20.61,28.94-26.59h0Z" fill="url(#j)"/><path id="m" d="M167.09,214.38c39.38,17.06,75.93,6.22,87,2.14-10.2,3.52-47.88,14.14-87.64-4.54-45.21-21.25-80.62-1.44-87.31,2.78,0,0-.01,0-.02.01-.12.07-.22.14-.32.2,0,0-.02.01-.03.02-.1.06-.18.12-.26.17,0,0-.01,0-.02.01-.08.05-.14.09-.2.13,0,0-.02.01-.03.02-.05.03-.09.06-.12.08-.01,0-.02.02-.03.02-.04.03-.07.05-.09.06,0,0,0,0,0,0-.02.01-.03.02-.03.02,0,0,.04.11.11.26,0,.02.01.02.02.04.04.09.08.19.14.31,0,.02.02.04.03.06.06.13.13.28.21.45,0,.01.01.03.02.04.34.72.86,1.75,1.58,3.02,0,0,0,0,0,0h0c5.34,9.44,21.43,31.63,54.89,31.63-4.32,38.11,15.12,82.35,62.23,106.9-45.03-25.95-63.95-73.04-58.69-110.49-34.77-.92-50.31-21.76-54.76-30.6,12.74-6.91,44.82-19.44,83.32-2.77Z" fill="url(#l)"/><path id="o" d="M23.76,292.6c-.07-.23-.13-.46-.19-.69-2.31-8-4.2-16.17-5.61-24.5-1.84-8.43-1.25-20.27,0-30.99-.93,5.57-1.51,11.22-2.2,24.06,0,.41-.03.82-.03,1.23,0,105.02,67.47,194.28,161.47,226.97-81.48-31.21-141.85-105.89-153.44-196.08Z" fill="url(#n)"/><path id="q" d="M21.83,268.38c-4.21-19.36,4.33-56.68,4.45-57.2,6.58-29.57,18.91-53.79,32.28-72.8,0,.01,0,.03-.01.04,0-.01,0-.03.01-.04,7.44-10.58,15.2-19.57,22.47-26.91,9.18-9.27,17.55-15.95,23.51-20.12.17-.11.53-.34,1.01-.63-.08,18.28.95,49.12,9.42,59.24,0,0,.09,0,.11,0,1.16-.06,36.18-1.6,54.09,9.32,1.99,1.21,3.63,2.23,5.09,3.16,2.42,1.55,4.33,2.9,6.38,4.53,3.76,3.01,8.03,7.04,17.01,15.39,13,12.09,41.36,24.12,53.6,29.85-11.93-6.01-40.08-18.85-52.77-31.34-8.72-8.58-12.87-12.72-16.53-15.83-1.99-1.69-3.86-3.08-6.23-4.7-1.43-.97-3.04-2.03-4.99-3.3-17.55-11.39-52.45-10.76-53.6-10.73-.02,0-.11,0-.11,0-8.72-11.03-8.91-45.21-8.46-57.36.02-.47.04-.9.05-1.3,0-.15.01-.29.02-.43,0-.12.01-.24.02-.36.01-.26.03-.52.04-.73,0-.03-.04-.04-.09-.04-.02,0-.05,0-.07.01-.04,0-.09.01-.15.03-.04.01-.09.03-.13.05-.06.02-.13.05-.2.08-.06.02-.12.05-.19.08-.08.03-.15.07-.23.11-.08.04-.16.07-.24.12-.08.04-.16.08-.25.12-.1.05-.2.1-.3.15-.08.04-.16.08-.25.13-.12.06-.24.12-.36.19-.07.04-.13.07-.2.11-2.12,1.14-4.81,2.75-5.36,3.12-5.97,4.17-14.34,10.85-23.51,20.12-7.27,7.34-15.03,16.33-22.47,26.91,0,.01,0,.03-.01.04,0-.01,0-.03.01-.04-13.37,19.01-25.71,43.24-32.28,72.8-.12.52-8.66,37.84-4.45,57.2,15.8,93.25,90.18,167.72,181.56,189.81-89.61-23.24-162.11-96.91-177.69-188.84Z" fill="url(#p)"/><path id="s" d="M478.98,172.36c-9.23-22.17-26.8-45.88-42.23-57.05-.14-.1-.28-.2-.43-.3-.48-.34-.95-.67-1.43-.98-.18-.12-.36-.24-.54-.36-.45-.29-.9-.57-1.34-.83-.17-.1-.35-.21-.52-.31-.6-.35-1.2-.68-1.79-.99.65,1.27,1.27,2.54,1.9,3.82.39.79.77,1.58,1.15,2.37,11.67,24.41,18.56,48.45,21.32,66.74,0,.04.01.14.05.4,8.53,55.66-19.81,109.58-64.13,146.04-.08.19-.13.31-.13.31-55.08,44.8-108.64,49.68-144.56,44.38,35.79,6.68,92.23,3.87,150.37-43.41,0,0,.05-.12.13-.31,44.31-36.46,72.66-90.38,64.13-146.04-.03-.26-.04-.36-.05-.4-2.45-16.24-8.16-37-17.57-58.54,10.22,10.82,19.87,24.35,26.32,37.49,17.05,34.76,24.74,77.04,22.24,117.82-.19,3.07-.34,6.13-.58,9.17-13.07,112.49-106.97,202.84-225.78,209.5-16.17.91-32.06.21-47.5-1.93,12.48,2,25.28,3.05,38.33,3.05,119,0,217.81-86.29,237.16-199.63.41-3.08.73-6.17,1.09-9.27,4.78-41.21-.53-84.52-15.61-120.74ZM455.15,184.96s0-.02,0-.03c-.01-.08-.02-.16-.03-.23.01.09.03.17.04.26Z" fill="url(#r)"/><path d="M494.56,293.09c4.78-41.21-.53-84.52-15.61-120.74-4.87-11.71-12.08-23.85-20.07-34.35-.07-.09-.14-.18-.2-.27-.44-.58-.88-1.14-1.33-1.71-.15-.2-.31-.39-.46-.58-2.51-3.16-5.08-6.14-7.66-8.89-.23-.25-.47-.5-.7-.74-.33-.34-.66-.68-.98-1.01-.26-.27-.52-.53-.79-.79-.3-.3-.61-.61-.91-.9-.29-.28-.58-.56-.87-.84-.28-.27-.56-.53-.83-.79-.32-.3-.64-.59-.97-.89-.29-.26-.58-.53-.87-.78-.2-.18-.4-.35-.6-.52-.32-.28-.64-.55-.96-.82-.23-.19-.46-.39-.7-.58-.28-.23-.56-.45-.84-.68-.26-.21-.52-.41-.77-.61-.22-.17-.44-.33-.65-.5-.36-.27-.72-.54-1.07-.8-.2-.14-.39-.28-.59-.42-.38-.27-.75-.53-1.13-.78-.25-.17-.49-.33-.74-.49-.38-.24-.76-.48-1.14-.71-.22-.14-.45-.28-.67-.4-.54-.31-1.08-.61-1.61-.89-.04-.02-.09-.05-.13-.07.65,1.27,1.28,2.55,1.9,3.82.38.79.77,1.57,1.14,2.36,0,0,0,0,0,.01,1.34,2.81,2.62,5.62,3.83,8.41.07.16.14.32.21.48,1.38,3.17,2.67,6.33,3.89,9.46.03.08.06.15.09.23,1.08,2.78,2.1,5.53,3.05,8.26.03.08.06.15.08.23.44,1.25.85,2.48,1.26,3.72.09.28.19.56.28.84.36,1.11.71,2.21,1.06,3.3.13.4.25.8.37,1.2.31,1,.61,2,.9,2.99.14.48.28.96.42,1.44.26.92.52,1.83.77,2.73.15.54.3,1.09.44,1.63.23.84.45,1.67.66,2.5.15.6.3,1.19.45,1.78.19.76.38,1.52.55,2.27.15.65.3,1.3.44,1.94.15.68.31,1.37.46,2.04.15.71.3,1.41.44,2.12.12.59.25,1.18.36,1.76.16.82.31,1.63.45,2.43.08.44.17.9.24,1.34.21,1.24.41,2.46.59,3.65,0,.03,0,.09.03.23,0,.05.01.1.02.17,1.07,6.96,1.56,13.89,1.51,20.76-.02,3.44-.18,6.86-.46,10.26-.14,1.7-.32,3.4-.52,5.09-5.16,42.3-30.03,81.44-64.65,109.93-.08.19-.13.31-.13.31,0,0,0,0,0,0-1.2.97-2.4,1.92-3.59,2.86-.27.21-.54.43-.82.64-1.18.91-2.35,1.81-3.53,2.69-.16.12-.33.24-.49.36-1.07.79-2.14,1.57-3.21,2.34-.25.18-.49.35-.74.53-1.17.83-2.33,1.64-3.5,2.44-.24.16-.47.32-.71.48-1.05.72-2.11,1.42-3.16,2.11-.18.12-.36.24-.55.36-1.16.76-2.33,1.49-3.49,2.22-.27.17-.54.33-.8.5-1.14.71-2.28,1.4-3.42,2.07-.04.03-.09.05-.13.08-1.18.69-2.35,1.37-3.52,2.03-.27.15-.54.3-.81.45-1.15.65-2.31,1.28-3.46,1.9-.14.08-.28.15-.42.22-1.05.56-2.11,1.11-3.16,1.64-.25.13-.5.26-.75.38-1.13.57-2.26,1.13-3.39,1.67-.23.11-.46.22-.69.33-1.01.48-2.01.95-3.01,1.4-.2.09-.4.19-.6.28-1.12.51-2.24,1-3.35,1.47-.26.11-.53.22-.79.33-1.06.45-2.11.88-3.16,1.31-.1.04-.19.08-.29.12-1.12.45-2.23.88-3.34,1.3-.27.1-.55.21-.82.31-1.1.41-2.2.81-3.29,1.2-.14.05-.28.1-.42.14-.99.35-1.98.68-2.97,1.01-.27.09-.54.18-.81.27-1.06.35-2.12.68-3.18,1-.24.07-.47.14-.71.21-.92.28-1.83.54-2.74.8-.24.07-.47.14-.71.2-1.04.29-2.07.57-3.1.83-.29.07-.57.15-.86.22-.91.23-1.82.46-2.73.67-.17.04-.35.09-.52.13-1.02.24-2.02.46-3.03.68-.31.07-.61.13-.91.2-1,.21-1.99.41-2.98.6-.18.04-.36.07-.55.1-.86.16-1.71.32-2.56.46-.31.05-.62.11-.93.16-.95.16-1.9.31-2.84.46-.28.04-.55.08-.83.12-.76.11-1.52.22-2.28.32-.3.04-.59.08-.89.12-.91.12-1.82.22-2.72.32-.33.04-.65.07-.98.1-.72.08-1.44.15-2.15.21-.27.03-.54.05-.81.08-.87.08-1.74.14-2.6.21-.36.03-.71.05-1.07.07-.73.05-1.45.09-2.17.13-.4.02-.79.04-1.18.06-.65.03-1.3.06-1.94.08-.37.01-.74.03-1.11.04-.8.02-1.59.04-2.38.05-.35,0-.7,0-1.05,0-.55,0-1.1,0-1.64,0-.37,0-.75,0-1.12,0-.75,0-1.49-.02-2.23-.04-.39,0-.78-.02-1.17-.03-.49-.01-.97-.03-1.46-.05-.5-.02-.99-.04-1.49-.06-.58-.03-1.16-.06-1.73-.09-.41-.02-.82-.05-1.23-.08-.44-.03-.88-.06-1.31-.09-.63-.05-1.25-.1-1.86-.15-.4-.03-.81-.07-1.21-.11-.42-.04-.84-.08-1.26-.12-.42-.04-.84-.09-1.25-.13-.63-.07-1.26-.14-1.89-.22-.33-.04-.65-.08-.97-.12-.43-.06-.87-.11-1.3-.17-21.28-2.9-36.63-9.42-42.86-13.66-.57-.27-1.14-.57-1.71-.85h0s-.01,0-.02,0c.51.25,1.01.51,1.54.74-1.06-.55-2.11-1.12-3.15-1.7-.28-.15-.55-.31-.82-.47-.79-.45-1.57-.9-2.35-1.37-.29-.18-.59-.35-.88-.53-.82-.5-1.63-1.01-2.44-1.53-.21-.14-.42-.27-.63-.4-2.08-1.36-4.12-2.8-6.12-4.3-.13-.1-.26-.2-.4-.3-.87-.66-1.73-1.33-2.58-2.01-.16-.13-.33-.26-.49-.39-.9-.73-1.79-1.47-2.66-2.23-.06-.05-.11-.1-.17-.15-1.96-1.71-3.87-3.48-5.71-5.32-.02-.02-.03-.03-.05-.05-.89-.89-1.76-1.8-2.62-2.71-.06-.06-.11-.12-.17-.18-13.91-14.96-23.59-33.84-25.44-54.99,0,0,11.11-41.33,79.52-41.33,7.4,0,28.54-20.61,28.93-26.59h0s0,0,0,0c0-.12-.17-.3-.48-.53,0,0,0,0,0,0-.07-.05-.16-.11-.25-.17-.02-.01-.05-.03-.07-.05-.15-.1-.33-.21-.53-.33-.05-.03-.09-.06-.14-.09-.1-.06-.21-.12-.32-.19-.08-.05-.16-.09-.25-.14-.17-.09-.34-.19-.52-.29-.12-.06-.23-.13-.36-.19-.12-.06-.24-.13-.36-.19-.15-.08-.3-.16-.46-.24-.14-.07-.27-.14-.42-.22-.21-.11-.43-.22-.66-.34-.1-.05-.2-.1-.31-.16-.27-.13-.54-.27-.82-.41-.04-.02-.07-.04-.11-.05-.34-.17-.69-.34-1.05-.52-.07-.03-.14-.07-.21-.11-1.65-.82-3.53-1.74-5.56-2.74-.28-.14-.56-.28-.85-.42-.13-.06-.25-.12-.38-.19-.12-.06-.24-.12-.35-.17-.06-.03-.12-.06-.18-.09-.34-.17-.68-.33-1.02-.51-.06-.03-.11-.06-.17-.08-.06-.03-.12-.06-.19-.09-.15-.07-.3-.15-.45-.22-.01,0-.03-.01-.04-.02-.24-.12-.49-.24-.73-.36-.02,0-.04-.02-.05-.03-.4-.2-.8-.4-1.21-.6h0c-.19-.1-.38-.19-.57-.29,0,0-.02,0-.03-.01-13.28-6.66-30.15-15.73-39.19-24.62-8.72-8.58-12.87-12.72-16.53-15.83-1.99-1.69-3.86-3.08-6.23-4.7,0,0,0,0,0,0-.35-.24-.71-.48-1.09-.73-1.15-.77-2.42-1.6-3.88-2.55-8.77-5.7-21.89-8.39-32.95-9.65-1.38-.16-2.73-.29-4.04-.41s-2.57-.21-3.77-.29c-2.41-.16-4.59-.26-6.45-.32-.46-.01-.91-.03-1.33-.04-1.26-.03-2.33-.04-3.15-.04-1.1,0-1.77.01-1.92.01-.01,0-.04,0-.06,0-.03,0-.05,0-.05,0,0,0,0,0,0-.01,0,0-.01,0-.01,0-9.54-12.07-8.87-51.87-8.32-60.18-.01-.02-.03-.03-.07-.03h0s-.05,0-.07.01c0,0,0,0,0,0-.04,0-.09.01-.15.03,0,0,0,0,0,0-.04.01-.09.03-.13.05,0,0,0,0,0,0-.06.02-.13.05-.2.08,0,0,0,0,0,0-.06.02-.12.05-.18.08,0,0,0,0,0,0-.08.03-.15.07-.23.11,0,0,0,0,0,0-.08.04-.16.07-.24.11,0,0,0,0,0,0-.08.04-.16.08-.25.12,0,0,0,0,0,0-.1.05-.19.1-.29.15,0,0,0,0,0,0-.08.04-.16.08-.25.13,0,0,0,0-.01,0-.11.06-.22.12-.34.18,0,0,0,0,0,0-.07.04-.13.07-.2.11,0,0,0,0,0,0-1.31.71-2.83,1.58-3.93,2.24-.04.02-.07.04-.1.06-.16.1-.32.19-.46.28-.05.03-.09.06-.14.09-.12.07-.22.14-.32.2-.04.02-.08.05-.12.07-.12.07-.21.14-.28.18-.37.26-.76.53-1.15.81-1.74,1.24-3.66,2.69-5.72,4.32-.51.41-1.04.83-1.57,1.26-.61.5-1.24,1.01-1.87,1.54-3.07,2.57-6.39,5.53-9.85,8.87-1.11,1.07-2.23,2.17-3.36,3.31-3.64,3.67-7.39,7.76-11.17,12.24-.94,1.12-1.89,2.27-2.84,3.44-2.84,3.52-5.67,7.26-8.46,11.23,0,.01,0,.03-.01.04,0-.01,0-.03.01-.04h0s0,0,0,0c-4.18,5.94-8.26,12.39-12.09,19.36-.77,1.39-1.52,2.81-2.27,4.24-3.73,7.17-7.18,14.85-10.22,23.05-.61,1.64-1.2,3.3-1.77,4.98-1.72,5.04-3.27,10.28-4.64,15.69-.45,1.81-.89,3.63-1.3,5.48-.01.06-.13.59-.33,1.49,0,.03-.01.06-.02.08-.45,2.12-2.49,12.85-2.77,15.16-.01.08,0,.05,0,0-.12.74-.24,1.5-.36,2.25-.34,2.31-.67,4.74-.96,7.22h0s0,0,0,0c-.11.69-.22,1.38-.33,2.08,0,.02,0,.04,0,.05-.05.32-.1.65-.14.98,0,.03,0,.07-.01.1-.02.16-.04.33-.06.49-.38,3.21-.71,6.47-.98,9.74,0,.11-.02.22-.03.33,0,.11-.02.22-.02.33-.03.42-.06.85-.09,1.3,0,.13-.02.27-.03.4-.08,1.11-.15,2.29-.23,3.55-.01.17-.02.35-.03.52-.03.49-.06.99-.09,1.51-.01.18-.02.35-.03.53-.04.69-.08,1.39-.12,2.12,0,.41-.03.82-.03,1.23,0,1.89.03,3.77.07,5.65.01.59.04,1.17.05,1.76.04,1.32.09,2.64.15,3.95.03.64.06,1.29.1,1.93.07,1.34.16,2.68.26,4.02.04.54.07,1.08.11,1.62.14,1.85.31,3.69.49,5.52.03.28.06.56.09.84.16,1.56.34,3.12.53,4.67.08.61.16,1.22.24,1.83.17,1.25.34,2.49.52,3.73.09.64.19,1.27.29,1.91.21,1.32.43,2.64.66,3.95.09.5.17,1,.26,1.5.32,1.77.66,3.54,1.02,5.3.09.45.19.89.29,1.34.28,1.33.57,2.67.87,3.99.15.64.3,1.27.45,1.91.27,1.16.56,2.32.85,3.47.16.64.32,1.28.49,1.92.33,1.28.68,2.56,1.04,3.83.13.47.25.94.39,1.4.48,1.68.98,3.35,1.49,5.02.18.57.36,1.14.54,1.71.36,1.14.73,2.27,1.11,3.4.23.68.46,1.35.69,2.03.36,1.04.73,2.09,1.1,3.12.24.66.48,1.33.72,1.99.45,1.2.9,2.4,1.37,3.6.19.48.37.97.56,1.45.61,1.55,1.25,3.09,1.89,4.62.28.67.57,1.33.86,2,.41.96.83,1.91,1.25,2.86.32.72.65,1.45.98,2.17.42.91.84,1.81,1.27,2.71.33.71.67,1.41,1.01,2.11.52,1.07,1.05,2.13,1.59,3.2.49.98.99,1.95,1.5,2.91.5.97,1.01,1.93,1.53,2.89.4.75.82,1.49,1.23,2.24.43.78.86,1.55,1.3,2.33.44.77.88,1.54,1.33,2.31.43.74.87,1.48,1.31,2.22.46.77.91,1.53,1.38,2.29.5.81,1.01,1.62,1.51,2.42.82,1.3,1.65,2.6,2.5,3.89.43.65.86,1.31,1.29,1.96.54.81,1.1,1.62,1.65,2.42.42.61.84,1.21,1.26,1.81.57.82,1.15,1.63,1.73,2.44.4.55.8,1.1,1.21,1.65,2.16,2.95,4.39,5.84,6.68,8.69.36.44.71.89,1.07,1.33.7.85,1.4,1.69,2.11,2.54.37.44.75.89,1.12,1.33.73.86,1.46,1.71,2.2,2.55.3.34.6.67.89,1.01,2.61,2.94,5.29,5.82,8.03,8.63.29.29.57.59.86.88.85.86,1.71,1.72,2.58,2.57.3.3.61.59.91.89.91.88,1.82,1.76,2.74,2.62.08.08.16.15.24.23,3.13,2.94,6.34,5.79,9.62,8.56.22.18.43.37.65.55,1.01.85,2.03,1.69,3.06,2.52.2.17.41.33.62.49,4.53,3.65,9.2,7.14,14,10.46.16.11.31.22.47.32,1.17.8,2.34,1.6,3.52,2.38.09.06.17.11.26.17,4.99,3.3,10.1,6.41,15.34,9.33.11.06.22.12.33.18,3.3,1.84,6.64,3.6,10.04,5.28.01,0,.03.01.04.02,1.67.83,3.36,1.64,5.06,2.43.04.02.08.04.11.05,1.68.78,3.36,1.54,5.06,2.29.15.07.3.13.45.2,5.44,2.37,10.98,4.55,16.62,6.52.21.07.41.15.62.22,1.43.49,2.86.97,4.3,1.44.29.09.58.19.87.28,1.39.45,2.79.88,4.19,1.31.32.1.65.19.97.29,1.41.42,2.82.83,4.23,1.22.27.08.55.15.82.22,1.49.41,2.98.8,4.48,1.18,0,0,.01,0,.02,0,4.97,1.25,10.01,2.35,15.1,3.29.15.03.3.06.45.09,1.34.25,2.69.47,4.04.69.53.09,1.05.18,1.58.26,1.04.16,2.08.32,3.12.47.78.11,1.56.22,2.33.33.95.13,1.91.25,2.86.37.93.11,1.87.22,2.81.32,1.38.15,2.77.29,4.16.42,1.26.12,2.51.24,3.78.34.37.03.73.05,1.1.08,1.61.12,3.22.22,4.83.31.34.02.68.04,1.03.05,1.82.09,3.65.16,5.49.21.07,0,.15,0,.22,0,2.04.05,4.09.08,6.14.08,27.88,0,54.65-4.74,79.55-13.45.02,0,.05-.02.07-.03,1.07-.37,2.13-.77,3.19-1.16,1.12-.41,2.24-.83,3.36-1.26,1.01-.39,2.02-.77,3.03-1.17.14-.06.28-.11.42-.17.9-.36,1.8-.74,2.7-1.11,1.3-.54,2.6-1.09,3.89-1.66,35.86-15.65,67.17-39.77,91.38-69.84.3-.37.6-.74.89-1.11.93-1.17,1.84-2.34,2.75-3.52.28-.37.56-.74.84-1.11,1.67-2.2,3.29-4.43,4.88-6.69.26-.37.53-.75.79-1.12.86-1.23,1.7-2.47,2.53-3.71.25-.38.5-.77.76-1.15,17.9-27.12,30.44-58.08,36.13-91.38.41-3.08.73-6.17,1.09-9.27ZM455.14,184.93c-.01-.08-.02-.16-.03-.23.01.09.03.17.04.26,0,0,0-.02,0-.03ZM17.31,242.88s0-.06,0-.08c0,0,0,0,0-.01,0,.03,0,.06,0,.1ZM17.44,264.49c-.03-.22-.06-.45-.09-.67.04.28.08.55.12.83,0-.05-.02-.1-.03-.15Z" fill="url(#t)"/></svg>