<?xml version="1.0" encoding="UTF-8"?><svg id="a" xmlns="http://www.w3.org/2000/svg" xmlns:xlink="http://www.w3.org/1999/xlink" viewBox="0 0 512 512"><defs><radialGradient id="b" cx="-8824.56" cy="-7737.2" fx="-8824.56" fy="-7753.22" r="19.61" gradientTransform="translate(54976.95 48231.2) scale(6.2)" gradientUnits="userSpaceOnUse"><stop offset="0" stop-color="#0df" stop-opacity=".4"/><stop offset="1" stop-color="#7542e5" stop-opacity=".15"/></radialGradient><radialGradient id="d" cx="-8824.86" cy="-7736.16" fx="-8824.86" fy="-7736.16" r="19.93" gradientTransform="translate(54976.95 48231.2) scale(6.2)" gradientUnits="userSpaceOnUse"><stop offset=".92" stop-color="#7542e5" stop-opacity="0"/><stop offset=".93" stop-color="#6a50e7" stop-opacity=".04"/><stop offset=".95" stop-color="#4c77ee" stop-opacity=".14"/><stop offset=".98" stop-color="#1cb7f8" stop-opacity=".3"/><stop offset="1" stop-color="#0df" stop-opacity=".4"/></radialGradient></defs><polygon points="376.85 236.57 371.31 218.18 355.47 188.29 337.35 169.19 318.11 155.45 301.4 148.89 281.36 141.76 248.35 139.66 227.54 143.42 210.56 148.64 180.43 166.27 161.6 187.28 144.24 215.48 137.41 239.48 136.13 275.89 142.64 300.72 157.01 328.98 167.14 342.63 181.14 355.48 198.64 367.31 220.21 376.69 256.31 380.93 275.16 381.46 303.06 373.6 328 359.91 344.04 346.22 356.48 331.38 374.07 296.95 377.96 273.4 376.85 236.57" fill="#09204d"/><polygon points="248.96 156.21 234.18 170.87 258.29 180.65 276.22 158.41 248.96 156.21" fill="#0e56d7"/><polygon points="258.29 180.65 304.96 179.23 276.22 158.41 258.29 180.65" fill="#1053d1"/><polygon points="301.5 158.25 276.22 158.41 304.96 179.23 331.54 177.49 301.5 158.25" fill="#0b4fbf"/><polygon points="331.54 177.49 316.43 156.66 337.35 169.19 331.54 177.49" fill="#0b48b0"/><polygon points="351.55 190.25 331.54 177.49 337.35 169.19 351.55 190.25" fill="#0c45a7"/><polygon points="331.54 177.49 328.2 191.77 346.5 199.08 331.54 177.49" fill="#0f46af"/><polygon points="331.54 177.49 351.55 190.25 346.5 199.08 331.54 177.49" fill="#0c47ad"/><polygon points="304.96 179.23 331.54 177.49 328.2 191.77 304.96 179.23" fill="#0e4fc3"/><polygon points="304.96 179.23 283.97 198.24 310.99 211.47 304.96 179.23" fill="#174dca"/><polygon points="258.29 180.65 304.96 179.23 283.97 198.24 258.29 180.65" fill="#1650d4"/><polygon points="328.2 191.77 340.91 216.42 346.5 199.08 328.2 191.77" fill="#1246b2"/><polygon points="340.91 216.42 346.5 199.08 359.81 230.75 340.91 216.42" fill="#133ea1"/><polygon points="346.5 199.08 366.79 213.94 359.81 230.75 346.5 199.08" fill="#103d98"/><polygon points="351.55 190.25 355.47 188.29 366.79 213.94 351.55 190.25" fill="#0b3785"/><polygon points="366.79 213.94 371.31 218.18 355.47 188.29 366.79 213.94" fill="#0b3685"/><path d="M366.79,213.94l-15.24-23.69-5.06,8.83,20.29,14.86ZM337.35,169.19l14.21,21.07,3.92-1.96-18.12-19.1Z" fill="#0c3b91"/><polygon points="375.83 250.93 371.31 218.18 376.85 236.57 375.76 250.93 375.83 250.93" fill="#0b3279"/><polygon points="366.79 213.94 375.83 250.93 371.31 218.18 366.79 213.94" fill="#0f388d"/><polygon points="359.81 230.75 375.83 250.93 366.79 213.94 359.81 230.75" fill="#0d3481"/><polygon points="375.76 250.93 376.85 236.57 377.96 273.4 375.83 250.93 375.76 250.93" fill="#0b2e71"/><polygon points="373.15 280.04 377.96 273.4 375.83 250.93 373.15 280.04" fill="#0e2f77"/><polygon points="374.07 296.95 370.23 298.8 377.96 273.4 374.07 296.95" fill="#0e2969"/><polygon points="370.23 298.8 377.96 273.4 373.15 280.04 370.23 298.8" fill="#0c2a69"/><polygon points="373.15 280.04 375.83 250.93 367.6 260.64 373.15 280.04" fill="#123180"/><polygon points="370.23 298.8 373.15 280.04 357.27 306.72 370.23 298.8" fill="#112b70"/><polygon points="359.81 230.75 375.83 250.93 367.6 260.64 359.81 230.75" fill="#12378c"/><polygon points="373.15 280.04 367.6 260.64 359.23 284.54 373.15 280.04" fill="#122e7b"/><polygon points="356.48 331.38 370.23 298.8 357.37 322.55 356.48 331.38" fill="#11296c"/><polygon points="357.37 322.55 370.23 298.8 357.27 306.72 357.37 322.55" fill="#142a72"/><path d="M370.23,298.8l-13.75,32.58,17.59-34.43-3.84,1.85ZM344.04,346.22l12.44-14.84.89-8.83-13.33,23.67ZM328,359.91l16.04-13.69-16.96,7.8.91,5.89Z" fill="#112768"/><polygon points="234.36 369.45 218.15 373.41 218.64 362.1 234.36 369.45" fill="#1c226a"/><polygon points="144.24 215.48 148.71 213.83 137.41 239.48 144.24 215.48" fill="#182b7a"/><polygon points="137.41 239.48 145.96 237.89 148.71 213.83 137.41 239.48" fill="#1f308d"/><polygon points="137.92 270.29 137.41 239.48 145.96 237.89 137.92 270.29" fill="#1e2b7f"/><path d="M328.2,191.77l-17.2,19.71,29.91,4.94-12.71-24.65ZM178.07,171.56l21.96-15.02-19.6,9.74-2.36,5.28Z" fill="#1346b5"/><polyline points="180.43 166.27 210.56 148.64 200.03 156.53 180.43 166.27" fill="#1244ac"/><polygon points="200.03 156.53 227.54 143.42 210.56 148.64 200.03 156.53" fill="#0e4ab6"/><path d="M304.96,179.23l6.03,32.24,17.2-19.71-23.23-12.54ZM216.79,155.01l25.63-10.25-14.87-1.34-10.76,11.59Z" fill="#0e4bba"/><polygon points="248.35 139.66 227.54 143.42 242.42 144.76 248.35 139.66" fill="#0a4ebc"/><polyline points="268.04 144.5 242.42 144.76 248.35 139.66" fill="#0c54cc"/><path d="M316.43,156.66l-14.94,1.59,30.05,19.25-15.11-20.83ZM268.04,144.5l33.36,4.39-20.04-7.13-13.32,2.74Z" fill="#0b4bb4"/><polygon points="316.43 156.66 301.4 148.89 318.11 155.45 316.43 156.66" fill="#0c3889"/><path d="M142.64,300.72l9.86,8.12-14.59-38.55,4.72,30.43ZM278.77,377.37l8.67-20.41-31.6,8.49,22.93,11.93ZM287.44,356.96l26.41,7.33,1.6-20.43-28.02,13.1Z" fill="#202575"/><polygon points="327.09 354.02 315.46 343.86 343.55 325.19 327.09 354.02" fill="#1b2773"/><polygon points="343.55 325.19 327.09 354.02 344.04 346.22 357.37 322.55 343.55 325.19" fill="#15276d"/><path d="M318.11,155.45l-1.67,1.21,20.91,12.53-19.24-13.74ZM301.5,158.25l14.94-1.59-15.03-7.77.1,9.36Z" fill="#0c409d"/><path d="M248.35,139.66l19.68,4.84,13.32-2.74-33-2.1ZM301.4,148.89l-33.36-4.39,33.46,13.75-.1-9.36Z" fill="#0b4cb7"/><polygon points="268.04 144.5 276.22 158.41 301.5 158.25 268.04 144.5" fill="#0b55ce"/><polygon points="268.04 144.5 276.22 158.41 248.96 156.21 268.04 144.5" fill="#0a52c5"/><polygon points="242.42 144.76 248.96 156.21 268.04 144.5 242.42 144.76" fill="#0951c4"/><polygon points="216.79 155.01 242.42 144.76 248.96 156.21 216.79 155.01" fill="#0b50c4"/><path d="M200.03,156.53l16.76-1.53,10.76-11.59-27.51,13.11ZM216.79,155.01l17.39,15.87,14.78-14.66-32.17-1.2Z" fill="#0f4dbf"/><polygon points="216.79 155.01 188.48 181.55 200.03 156.53 216.79 155.01" fill="#1546b6"/><polygon points="188.48 181.55 206.54 184.56 216.79 155.01 188.48 181.55" fill="#1549bd"/><polygon points="206.54 184.56 216.79 155.01 234.18 170.87 206.54 184.56" fill="#144bc3"/><polygon points="161.6 187.28 162.7 197.96 178.07 171.56 161.6 187.28" fill="#173794"/><polygon points="148.71 213.83 161.6 187.28 162.7 197.96 148.71 213.83" fill="#192f84"/><polygon points="162.7 197.96 178.07 171.56 188.48 181.55 162.7 197.96" fill="#1a389b"/><polygon points="161.77 220.85 162.7 197.96 148.71 213.83 161.77 220.85" fill="#1d3089"/><polygon points="161.77 220.85 162.7 197.96 180.87 212.7 161.77 220.85" fill="#1e389f"/><polygon points="180.87 212.7 188.48 181.55 162.7 197.96 180.87 212.7" fill="#1c40af"/><polygon points="180.87 212.7 188.48 181.55 206.54 184.56 180.87 212.7" fill="#1e41b7"/><polygon points="145.96 237.89 148.71 213.83 161.77 220.85 145.96 237.89" fill="#192c7d"/><path d="M278.77,377.37l24.29-3.77,10.8-9.31-35.09,13.08ZM136.13,275.89l1.79-5.6-.51-30.81-1.28,36.41ZM145.96,237.89l-8.04,32.4,14.59,38.55-7.12-44.66.57-26.29Z" fill="#162467"/><polygon points="152.51 308.83 164.54 310.52 156.11 290.85 152.51 308.83" fill="#1a236a"/><path d="M327.09,354.02l-13.23,10.26-10.8,9.31,24.94-13.69-.91-5.89ZM256.31,380.93l18.85.52,27.9-7.86-24.29,3.77-22.46,3.56ZM163.73,331.2l12.65,2.43-11.84-23.11-.8,20.68Z" fill="#132668"/><path d="M218.64,362.1l-21.41-16.48-8.9,8.56,29.82,19.24.49-11.31ZM142.64,300.72l14.36,28.26-4.5-20.15-9.86-8.12ZM136.13,275.89l6.51,24.83-4.72-30.43-1.79,5.6ZM255.84,365.44l-37.2-3.35,15.72,7.35-16.21,3.96-19.51-6.1,21.57,9.38,36.1,4.24,22.46-3.56-22.93-11.93ZM164.54,310.52l-12.03-1.69,11.23,22.36.8-20.68ZM145.39,264.18l7.12,44.66,3.61-17.98-10.72-26.67ZM176.38,333.63l-12.65-2.43-6.73-2.21,10.13,13.65,14.01,12.84,17.49,11.83-10.31-13.14-11.95-20.54Z" fill="#1b2268"/><polygon points="145.96 237.89 162.94 264.15 161.77 220.85 145.96 237.89" fill="#212a81"/><polygon points="145.39 264.18 156.11 290.85 162.94 264.15 145.39 264.18" fill="#21267a"/><polygon points="156.11 290.85 162.94 264.15 171.43 285.25 156.11 290.85" fill="#262781"/><polygon points="164.54 310.52 197.09 330.7 171.43 285.25 164.54 310.52" fill="#272379"/><path d="M157.01,328.98l6.73,2.21-11.23-22.36,4.5,20.15ZM228.92,340.59l-10.28,21.51,37.2,3.35-26.92-24.85ZM164.54,310.52l11.84,23.11,11.95,20.54,8.9-8.56-.14-14.92-32.56-20.17Z" fill="#1e226d"/><path d="M315.46,343.86l-1.6,20.43,13.23-10.26-11.63-10.16ZM258.54,340.93l-2.7,24.52,31.6-8.49-1.12-27.56-27.77,11.53Z" fill="#222475"/><path d="M145.39,264.18l17.55-.03-16.98-26.27-.57,26.29ZM286.32,329.39l1.12,27.56,28.02-13.1-29.14-14.46Z" fill="#23277d"/><polygon points="286.32 329.39 304.35 313.07 315.46 343.86 286.32 329.39" fill="#1e2776"/><polygon points="315.46 343.86 329.09 302.58 304.35 313.07 315.46 343.86" fill="#222b86"/><polygon points="343.55 325.19 315.46 343.86 329.09 302.58 343.55 325.19" fill="#192974"/><polygon points="357.27 306.72 329.09 302.58 343.55 325.19 357.37 322.55 357.27 306.72" fill="#172a75"/><polygon points="359.23 284.54 329.09 302.58 357.27 306.72 373.15 280.04 359.23 284.54" fill="#172d7d"/><path d="M148.71,213.83l12.89-26.55-17.36,28.2,4.47-1.66ZM347.99,246.68l11.24,37.86,8.37-23.9-19.61-13.96Z" fill="#18338a"/><polygon points="367.6 260.64 359.81 230.75 347.99 246.68 367.6 260.64" fill="#153791"/><polygon points="329.09 302.58 359.23 284.54 330.02 271.53 329.09 302.58" fill="#1b318b"/><polygon points="329.09 302.58 301.77 274.98 304.35 313.07 329.09 302.58" fill="#242d8d"/><polygon points="286.32 329.39 265.34 310.83 304.35 313.07 286.32 329.39" fill="#2a2b8f"/><path d="M164.54,310.52l6.89-25.27-15.32,5.6,8.43,19.67ZM265.34,310.83l-6.8,30.1,27.77-11.53-20.97-18.57Z" fill="#27267f"/><polygon points="221.93 316.98 201.74 306.72 197.09 330.7 228.92 340.59 258.54 340.93 221.93 316.98" fill="#2d2381"/><polygon points="258.54 340.93 265.34 310.83 221.93 316.98 258.54 340.93" fill="#2f2485"/><polygon points="162.94 264.15 171.65 236.35 161.77 220.85 162.94 264.15" fill="#233196"/><polygon points="180.87 212.7 219.09 201.56 198.9 242.8 180.87 212.7" fill="#293cb7"/><polygon points="329.09 302.58 301.77 274.98 330.02 271.53 329.09 302.58" fill="#25339c"/><polygon points="359.23 284.54 347.99 246.68 330.02 271.53 359.23 284.54" fill="#19348f"/><polygon points="304.35 313.07 273.11 282.86 301.77 274.98 304.35 313.07" fill="#2a309a"/><polygon points="265.34 310.83 304.35 313.07 273.11 282.86 265.34 310.83" fill="#302b96"/><polygon points="265.34 310.83 243.98 293.43 273.11 282.86 265.34 310.83" fill="#3630a7"/><path d="M178.07,171.56l2.36-5.28-18.83,21.01,16.47-15.72ZM340.91,216.42l7.08,30.26,11.82-15.93-18.91-14.34Z" fill="#173da2"/><polygon points="180.87 212.7 198.9 242.8 171.65 236.35 180.87 212.7" fill="#2a36a8"/><polygon points="171.65 236.35 198.9 242.8 180.47 271.82 171.65 236.35" fill="#312e9f"/><polygon points="219.09 201.56 234.18 170.87 206.54 184.56 219.09 201.56" fill="#184dcd"/><polygon points="162.94 264.15 180.47 271.82 171.43 285.25 162.94 264.15" fill="#272986"/><polygon points="180.47 271.82 171.43 285.25 197.09 330.7 201.74 306.72 180.47 271.82" fill="#2c2584"/><polygon points="201.74 306.72 204.58 264.5 180.47 271.82 201.74 306.72" fill="#32268b"/><polygon points="201.74 306.72 243.98 293.43 204.58 264.5 201.74 306.72" fill="#372999"/><polygon points="243.98 293.43 239.86 260.79 204.58 264.5 243.98 293.43" fill="#392da5"/><polygon points="239.86 260.79 269.66 249.65 273.11 282.86 239.86 260.79" fill="#3338bc"/><polygon points="221.93 316.98 265.34 310.83 243.98 293.43 221.93 316.98" fill="#362896"/><polygon points="221.93 316.98 201.74 306.72 243.98 293.43 221.93 316.98" fill="#35268f"/><polygon points="219.09 201.56 244.96 204.3 234.18 170.87 219.09 201.56" fill="#2648d3"/><polygon points="258.29 180.65 234.18 170.87 244.96 204.3 258.29 180.65" fill="#1057dc"/><polygon points="258.29 180.65 283.97 198.24 244.96 204.3 258.29 180.65" fill="#1653da"/><polygon points="244.96 204.3 283.22 224.59 269.66 249.65 244.96 204.3" fill="#2b46d5"/><polygon points="283.22 224.59 283.97 198.24 244.96 204.3 283.22 224.59" fill="#244ad7"/><polygon points="283.22 224.59 283.97 198.24 310.99 211.47 283.22 224.59" fill="#2547cf"/><polygon points="244.96 204.3 269.66 249.65 226.34 227.95 244.96 204.3" fill="#333cc5"/><polygon points="239.86 260.79 269.66 249.65 226.34 227.95 239.86 260.79" fill="#3833b6"/><polygon points="269.66 249.65 307.86 242.67 283.22 224.59 269.66 249.65" fill="#2a41c6"/><polygon points="310.99 211.47 307.86 242.67 283.22 224.59 310.99 211.47" fill="#2045c1"/><polygon points="310.99 211.47 329.03 235.96 307.86 242.67 310.99 211.47" fill="#1b43b7"/><polygon points="340.91 216.42 310.99 211.47 329.03 235.96 340.91 216.42" fill="#1742af"/><path d="M188.48,181.55l11.55-25.02-21.96,15.02,10.41,9.99ZM340.91,216.42l-11.88,19.55,18.97,10.72-7.08-30.26Z" fill="#1740a9"/><polygon points="330.02 271.53 347.99 246.68 329.03 235.96 330.02 271.53" fill="#1b3ca4"/><polygon points="330.02 271.53 329.03 235.96 307.86 242.67 330.02 271.53" fill="#1f3dad"/><path d="M180.87,212.7l38.22-11.14-12.54-17.01-25.68,28.15ZM269.66,249.65l32.12,25.33,6.09-32.31-38.2,6.98Z" fill="#2543c3"/><polygon points="273.11 282.86 301.77 274.98 269.66 249.65 273.11 282.86" fill="#2e37b2"/><polygon points="219.09 201.56 226.34 227.95 244.96 204.3 219.09 201.56" fill="#2d40c7"/><polygon points="219.09 201.56 198.9 242.8 226.34 227.95 219.09 201.56" fill="#3537b8"/><polygon points="226.34 227.95 204.58 264.5 239.86 260.79 226.34 227.95" fill="#3931b0"/><path d="M239.86,260.79l4.12,32.64,29.13-10.57-33.25-22.07ZM204.58,264.5l21.76-36.55-27.44,14.86,5.68,21.7Z" fill="#3735b8"/><polygon points="180.47 271.82 198.9 242.8 204.58 264.5 180.47 271.82" fill="#342892"/><path d="M198.64,367.31l19.51,6.1-29.82-19.24,10.31,13.14ZM197.23,345.62l21.41,16.48,10.28-21.51-31.83-9.89.14,14.92ZM255.84,365.44l2.7-24.52-29.62-.34,26.92,24.85ZM287.44,356.96l-8.67,20.41,35.09-13.08-26.41-7.33Z" fill="#232372"/><polygon points="162.94 264.15 171.65 236.35 180.47 271.82 162.94 264.15" fill="#2a2f96"/><path d="M171.65,236.35l9.21-23.65-19.09,8.15,9.88,15.5ZM307.86,242.67l-6.09,32.31,28.24-3.45-22.16-28.86Z" fill="#2636a5"/><path id="c" d="M378.5,273.44s0-.02,0-.04c0,0,0,0,0-.02h0s0,0,0,0l-1.1-36.83s0-.01,0-.02c0,0,0-.02,0-.03,0-.01,0-.03,0-.04,0-.02,0-.03-.01-.05,0,0,0,0,0-.01l-5.54-18.38s0,0,0,0h0s0,0,0-.01c0-.01,0-.02-.01-.03,0-.01-.01-.03-.02-.04,0,0,0-.01,0-.02l-15.84-29.9s0,0,0-.01c0-.01-.01-.02-.02-.03,0,0-.01-.02-.02-.03,0,0,0-.01-.01-.02,0,0-.01-.01-.02-.02,0,0,0,0-.01-.01l-18.12-19.1s0,0,0,0c0,0,0,0-.01-.01-.01,0-.02-.02-.03-.03,0,0-.02-.01-.02-.02h0s0,0,0,0l-19.23-13.73s0,0,0,0c0,0-.01,0-.02-.01-.01,0-.03-.01-.04-.02-.01,0-.03-.01-.04-.02,0,0,0,0,0,0l-16.69-6.55s0,0,0,0h-.01s0,0,0,0c0,0,0,0,0,0h0s0,0,0,0l-20.04-7.13s-.01,0-.02,0c-.01,0-.03,0-.04-.01-.01,0-.02,0-.04,0-.01,0-.02,0-.04,0,0,0-.01,0-.02,0l-33-2.1s0,0,0,0c0,0,0,0,0,0-.01,0-.03,0-.04,0-.02,0-.04,0-.05,0,0,0,0,0-.01,0,0,0,0,0,0,0l-20.81,3.76s0,0-.01,0c0,0-.01,0-.02,0,0,0,0,0-.01,0-.01,0-.03,0-.04.01l-16.96,5.21s0,0,0,0c-.01,0-.02,0-.04.01-.01,0-.03.01-.04.02,0,0-.01,0-.02.01,0,0,0,0,0,0l-30.13,17.63s0,0,0,0c0,0-.02.01-.03.02,0,0-.02,0-.02.02,0,0-.01.01-.02.02,0,0-.01,0-.02.01,0,0-.01.02-.02.02,0,0-.01,0-.02.02h0s0,0,0,0l-18.82,21s0,0,0,.01c0,0,0,.01-.01.02,0,0,0,.01-.01.02,0,0-.01.02-.02.02,0,0,0,0,0,.01h0s0,.01,0,.01l-17.36,28.19s0,.01,0,.02c0,0-.01.02-.02.03,0,.01,0,.02-.01.03,0,.01-.01.03-.01.04,0,0,0,.01,0,.02l-6.83,24s0,0,0,0c0,0,0,.01,0,.02,0,0,0,0,0,0,0,0,0,0,0,0,0,.01,0,.03,0,.04,0,.01,0,.03,0,.04,0,0,0,0,0,.01l-1.28,36.41s0,.02,0,.02c0,.01,0,.02,0,.03,0,.01,0,.02,0,.03,0,.02,0,.03,0,.04,0,0,0,.01,0,.02v.02s0,0,0,0l6.51,24.81s0,0,0,0c0,0,0,0,0,0,0,0,0,.01,0,.02,0,.02.01.03.02.05,0,0,0,0,0,0,0,0,0,.02.01.03h0s0,0,0,0l14.36,28.26s0,0,0,0c0,0,0,0,0,.01,0,.02.02.03.03.05,0,0,0,0,0,.01l10.12,13.64s0,0,0,0h0s0,0,0,0h0s0,0,0,0c0,0,0,.01.01.02,0,.01.02.02.03.03,0,0,.01.02.02.02l14.01,12.84s.02.02.03.03c0,0,.02.02.03.02l17.49,11.83s0,0,.01,0c0,0,0,0,0,0,.01,0,.03.02.04.02,0,0,.01,0,.02.01,0,0,0,0,0,0l21.57,9.38s.01,0,.02,0c.02,0,.03.01.05.02,0,0,.02,0,.02,0,.01,0,.03,0,.04,0,0,0,.01,0,.02,0l36.1,4.24s.03,0,.04,0c0,0,0,0,0,0l18.85.52s0,0,.01,0c0,0,0,0,0,0,0,0,0,0,0,0,.04,0,.07,0,.11-.01,0,0,.01,0,.02,0,0,0,0,0,0,0,0,0,.01,0,.02,0l27.9-7.86s.01,0,.02,0c0,0,.02,0,.02,0,0,0,.01,0,.02-.01,0,0,0,0,.02,0,.01,0,.02,0,.03-.01,0,0,0,0,0,0h.01s0,0,0,0l24.92-13.68s0,0,0,0c0,0,0,0,.01,0,.01,0,.03-.02.04-.03,0,0,0,0,0,0,.01,0,.02-.01.03-.02,0,0,0,0,0,0l16.04-13.69s.01-.01.02-.02c0,0,.01-.01.02-.02,0,0,.01-.01.02-.02,0,0,0,0,0,0l12.44-14.84s0,0,0,0h0s0,0,0,0c.02-.02.03-.04.04-.06,0,0,.01-.02.01-.02,0,0,0,0,0,0,0,0,0,0,0,0l17.59-34.43s0-.02,0-.03c0-.01.01-.03.02-.04,0,0,0-.01,0-.02,0-.01,0-.03.01-.04,0,0,0-.02,0-.03l3.88-23.55s0,0,0,0h0s0-.01,0-.02c0,0,0-.01,0-.02,0,0,0-.01,0-.02ZM181.48,355.05l-3.63-3.33,8.16,6.39-4.53-3.07ZM234.43,368.88l-12.75-5.96,30.18,2.71-17.43,3.25ZM239.08,260.32l-33.48,3.52,20.64-34.68,12.83,31.16ZM227.4,229.09l40.9,20.49-28.13,10.52-12.77-31ZM239.39,261.38l3.89,30.86-37.24-27.35,33.35-3.51ZM242.79,293.23l-40.45,12.73,2.72-40.44,37.73,27.71ZM240.55,261.9l31.36,20.82-27.47,9.97-3.88-30.79ZM241.05,260.92l28.13-10.52,3.26,31.37-31.39-20.85ZM284.28,224.69l26.07-12.31-2.94,29.29-23.13-16.97ZM306.52,242.36l-35.84,6.55,12.73-23.51,23.12,16.96ZM269.66,248.5l-23.35-42.88,36.18,19.18-12.82,23.69ZM268.35,248.38l-41.17-20.62,17.7-22.48,23.47,43.1ZM204.78,263.1l-5.25-20.02,25.33-13.71-20.08,33.73ZM201.31,304.97l-20.01-32.83,22.68-6.89-2.67,39.72ZM242.16,294.57l-20.35,21.74-18.64-9.47,38.99-12.27ZM272.3,283.73l-7.26,26.14-19.97-16.26,27.23-9.88ZM270.33,250.87l30.26,23.87-27.01,7.43-3.25-31.29ZM270.94,249.96l36.24-6.62-5.77,30.65-30.46-24.03ZM308.49,241.9l2.91-28.96,16.74,22.74-19.65,6.22ZM328.5,236.7l.93,33.16-20.66-26.91,19.73-6.25ZM283.79,223.72l.7-24.62,25.25,12.37-25.95,12.25ZM282.7,223.69l-36.04-19.11,36.74-5.71-.7,24.82ZM226.58,226.76l-6.75-24.58,24.1,2.55-17.34,22.03ZM225.7,227.68l-25.56,13.84,18.81-38.42,6.76,24.58ZM203.92,264.13l-22.2,6.74,16.97-26.72,5.23,19.98ZM199.9,304.75l-27.72-19.64,8.27-12.28,19.45,31.92ZM202.14,307.53l18.63,9.47-22.91,12.65,4.29-22.12ZM244.03,294.17l20.01,16.29-40.65,5.77,20.65-22.05ZM273.39,283.89l29.53,28.55-36.87-2.12,7.34-26.43ZM274.17,283.13l27.1-7.45,2.43,36.01-29.54-28.56ZM308.17,243.97l20.83,27.14-26.56,3.24,5.72-30.38ZM329.6,236.91l17.59,9.94-16.67,23.05-.92-33ZM329.78,235.77l10.9-17.93,6.5,27.76-17.39-9.83ZM328.98,234.98l-16.76-22.76,27.8,4.59-11.04,18.16ZM284.93,198.1l19.68-17.81,5.65,30.22-25.33-12.4ZM245.99,203.59l12.49-22.16,24.05,16.48-36.54,5.68ZM219.92,201.1l14.15-28.78,10.11,31.35-24.26-2.57ZM198.85,241.66l-17.15-28.64,36.36-10.6-19.21,39.23ZM180.7,270.46l-8.3-33.37,25.63,6.07-17.33,27.3ZM171.56,284.09l-7.61-18.91,15.71,6.87-8.1,12.03ZM201.14,306.96l-4.3,22.18-23.74-42.04,28.03,19.86ZM221.6,317.79l6.51,21.98-29.63-9.21,23.12-12.77ZM264.64,311.48l-6.45,28.57-34.75-22.72,41.2-5.84ZM303.02,313.54l-16.71,15.13-19.43-17.2,36.14,2.08ZM302.42,276.4l25.72,25.99-23.3,9.87-2.42-35.86ZM302.94,275.38l26.51-3.24-.87,29.14-25.64-25.91ZM347.78,247.9l10.59,35.66-27.52-12.25,16.93-23.41ZM341.78,217.76l17.27,13.1-10.8,14.55-6.47-27.65ZM312.05,211.1l16.03-18.37,11.85,22.97-27.88-4.61ZM311.32,210.27l-5.61-30.02,21.63,11.67-16.02,18.34ZM283.92,197.55l-23.95-16.41,43.53-1.32-19.58,17.73ZM245.1,202.94l-10.04-31.13,22.45,9.1-12.41,22.03ZM218.99,200.52l-11.63-15.76,25.61-12.68-13.99,28.44ZM218.19,201.26l-35.61,10.38,23.92-26.22,11.69,15.84ZM197.77,241.98l-25.38-6.01,8.58-22.03,16.8,28.04ZM179.68,270.88l-16.07-7.03,7.98-25.48,8.08,32.51ZM170.72,284.93l-13.82,5.05,6.16-24.08,7.66,19.03ZM195.58,329.11l-30.4-18.84,6.44-23.6,23.97,42.44ZM226.53,340.42l-28.76,4.56-.12-13.54,28.89,8.98ZM222.87,318.25l33.81,22.11-27.36-.31-6.46-21.8ZM265.67,311.84l19.63,17.38-26,10.79,6.36-28.18ZM304.11,314.02l10.38,28.75-27.21-13.51,16.84-15.25ZM305.04,313.37l23.16-9.82-12.76,38.64-10.4-28.82ZM330.54,272.36l27.51,12.25-28.39,16.99.87-29.24ZM348.96,248.04l17.99,12.8-7.68,21.92-10.31-34.72ZM348.76,246.56l10.81-14.57,7.13,27.34-17.94-12.77ZM341.54,216.22l5.02-15.57,11.96,28.44-16.98-12.87ZM340.79,215l-11.44-22.19,16.47,6.58-5.03,15.6ZM306.89,179.65l23.96-1.56-3.02,12.87-20.94-11.3ZM259.46,180.07l16.87-20.92,27.03,19.58-43.9,1.33ZM258.46,179.57l-8.68-22.74,25.38,2.04-16.69,20.7ZM257.33,179.67l-22.18-8.99,13.6-13.49,8.59,22.49ZM207.49,183.48l9.54-27.51,16.19,14.77-25.73,12.74ZM181.9,210.76l6.99-28.59,16.58,2.76-23.56,25.83ZM171.53,235.15l-8.96-14.06,17.31-7.39-8.35,21.44ZM171.06,236.43l-7.66,24.44-1.03-38.07,8.69,13.63ZM162.24,264.7l-6.24,24.4-9.8-24.38,16.05-.02ZM145.95,263.63l.52-23.96,15.47,23.94-16,.02ZM170.63,286.12l-6.21,22.75-7.58-17.7,13.79-5.04ZM195.53,330.37l-18.84,2.67-10.77-21.02,29.61,18.35ZM196.56,331.32l.12,13.35-18.65-10.72,18.53-2.62ZM227.98,341.29l-9.54,19.97-19.88-15.3,29.42-4.67ZM229.09,341.49l25.2,23.27-34.82-3.13,9.62-20.13ZM230.33,341.15l27.61.31-2.52,22.85-25.09-23.16ZM285.8,330.2l1.05,25.81-27.06-15.01,26.01-10.8ZM286.9,330.29l27.31,13.55-26.25,12.27-1.05-25.82ZM329.25,303.84l13.56,21.2-26.33,17.5,12.78-38.69ZM330.19,303.29l26.1,3.84-12.71,17.11-13.39-20.94ZM330.68,302.26l27.92-16.71-1.82,20.55-26.1-3.84ZM367.55,262.44l4.93,17.24-12.37,4,7.44-21.24ZM360.99,233.11l14.14,17.81-7.26,8.57-6.87-26.37ZM347.76,200.68l18.36,13.45-6.31,15.21-12.05-28.66ZM328.83,191.44l2.96-12.62,13.22,19.09-16.18-6.47ZM305.42,178.66l-3.19-19.29,27.62,17.69-24.43,1.6ZM304.21,178.01l-26.32-19.07,23.15-.14,3.18,19.21ZM250.66,155.8l17.18-10.55,7.37,12.52-24.56-1.98ZM234.16,170.12l-15.91-14.52,29.43,1.1-13.52,13.41ZM206.18,183.94l-16.52-2.75,25.9-24.28-9.37,27.03ZM180.54,211.74l-16.91-13.73,23.99-15.27-7.09,29ZM179.82,212.56l-17.47,7.45.85-20.94,16.62,13.49ZM162.35,262.23l-15.69-24.28,14.61-15.75,1.08,40.03ZM155.55,290.9l-2.98,14.85-5.88-36.88,8.86,22.03ZM156.3,292.68l7.36,17.17-10.5-1.47,3.15-15.7ZM175.39,332.88l-11.09-2.13.71-18.13,10.38,20.26ZM196.33,345.73l-7.88,7.57-10.58-18.18,18.46,10.61ZM197.27,346.33l18.92,14.56-26.78-7,7.86-7.56ZM259,341.8l27,14.98-29.53,7.93,2.53-22.91ZM314.84,344.75l-1.48,18.84-24.36-6.76,25.84-12.08ZM341.94,326.92l-14.99,26.26-10.59-9.26,25.58-17ZM356.74,308.36l.08,13.75-12,2.29,11.91-16.04ZM359.74,284.94l12.2-3.94-13.92,23.39,1.72-19.45ZM368.21,260.77l6.93-8.17-2.26,24.49-4.67-16.32ZM360.44,230.67l6.22-14.97,8.06,32.95-14.27-17.98ZM347.21,198.93l4.37-7.63,13.17,20.47-17.53-12.84ZM346.45,198.06l-12.92-18.65,17.29,11.02-4.37,7.63ZM303.1,158.63l13.08-1.39,13.23,18.25-26.31-16.86ZM276.53,157.86l-7.21-12.24,29.45,12.1-22.25.14ZM249.15,155.45l-5.8-10.16,22.73-.23-16.92,10.39ZM248,155.63l-28.63-1.07,22.81-9.12,5.82,10.19ZM190.14,179.24l10.25-22.19,14.87-1.36-25.12,23.55ZM188.3,180.63l-9.37-9,19.78-13.53-10.41,22.53ZM187.6,181.46l-23.3,14.83,13.89-23.87,9.41,9.03ZM161.26,219.96l-11.69-6.29,12.53-14.2-.83,20.49ZM160.89,220.99l-14.2,15.31,2.47-21.61,11.74,6.31ZM144.85,263.92l-6,4.91,6.47-26.05-.46,21.14ZM145,265.2l6.13,38.45-12.56-33.19,6.43-5.26ZM163.97,310.99l-.7,18.07-9.81-19.54,10.52,1.47ZM176.03,334.12l9.97,17.13-20.52-19.16,10.55,2.03ZM218.08,362.51l-.43,9.92-26.16-16.88,26.59,6.95ZM219.15,362.94l13.58,6.35-14,3.43.43-9.77ZM255.32,366.1l.42,13.92-19.73-10.32,19.31-3.6ZM286.5,357.77l-8,18.84-21.17-11.01,29.17-7.84ZM287.76,357.61l24.34,6.75-32.33,12.06,7.99-18.81ZM315.92,344.98l10.31,9.01-11.73,9.1,1.42-18.12ZM343.9,325.68l11.89-2.27-26.05,27.08,14.17-24.81ZM357.9,320.43l-.08-13.4,10.97-6.7-10.89,20.1ZM358.87,305.11l13.31-22.37-2.45,15.73-10.86,6.64ZM375.84,256.8l1.55,16.45-3.52,4.86,1.97-21.31ZM367.76,215.6l3.04,2.85,3.04,22.03-6.08-24.88ZM352.34,190.47l2.86-1.44,8.27,18.75-11.14-17.32ZM332.31,177.34l5.02-7.19,12.3,18.24-17.32-11.04ZM331.53,176.56l-13.1-18.06,18.13,10.86-5.03,7.2ZM302.04,157.64l-.08-7.85,12.62,6.52-12.54,1.33ZM300.94,157.43l-28.83-11.85,28.75,3.79.08,8.06ZM243.91,144.2l4.59-3.94,15.22,3.74-19.81.2ZM218.84,153.6l8.93-9.62,12.34,1.11-21.27,8.51ZM216.53,154.48l-13.52,1.23,22.19-10.58-8.68,9.35ZM179.36,170.02l1.5-3.34,12.41-6.17-13.9,9.51ZM163.07,196.24l-.9-8.75,13.49-12.88-12.59,21.63ZM162.14,197.78l-11.19,12.69,10.31-21.22.88,8.54ZM145.47,237.43l-7.14,1.33,9.44-21.42-2.29,20.09ZM145.23,238.58l-6.83,27.53-.43-26.18,7.27-1.35ZM151.27,307.11l-8.12-6.68-3.89-25.05,12.01,31.74ZM162.66,330.27l-5.19-1.71-3.47-15.53,8.66,17.24ZM184.83,351.65l-17.23-9.38-2.77-9.3,20,18.68ZM187.97,354.6l7.46,9.51-22.81-17.87,15.35,8.35ZM190.76,356.39l23.72,15.31-15.53-4.85-8.2-10.45ZM234.29,370.02l18.44,9.65-32.05-6.32,13.62-3.33ZM256.42,366.36l20.64,10.73-20.22,3.21-.42-13.94ZM311.2,365.86l-8.38,7.23-18.85,2.93,27.23-10.16ZM326.69,355.02l.7,4.51-10.83,3.35,10.13-7.86ZM354.79,326.01l-11.14,19.79-14.18,6.52,25.32-26.31ZM357.9,322.72l7.46-13.78-7.97,18.9.51-5.12ZM373.67,280.25l2.82-3.89-4.53,14.89,1.71-11ZM376.38,250.89h0s0,0,0,0c0,0,0,0,0,0,0,0,0,0,0-.01,0,0,0,0,0,0l-.04-.29.28-3.69.29,9.55-.52-5.54ZM375.63,245.46l-2.82-20.41,3.49,11.58-.67,8.83ZM367.25,213.62l-5.14-11.66,7.2,13.58-2.05-1.93ZM351.74,189.55l-10.27-15.23,13.1,13.81-2.83,1.42ZM317.42,156.62l.69-.5,7.9,5.64-8.58-5.14ZM316.39,156.02l-5.34-2.76,5.93,2.33-.59.43ZM271.31,144.38l10.01-2.06,15.06,5.36-25.06-3.3ZM268.05,143.94l-13.62-3.35,22.85,1.45-9.22,1.89ZM242.24,144.19l-10.63-.96,14.87-2.68-4.24,3.64ZM204.74,153.69l6.08-4.56,9.8-3.01-15.88,7.57ZM199.74,156.07l-5.27,2.62,8.11-4.75-2.83,2.12ZM177.62,171.24l-6.26,5.97,7.15-7.98-.9,2.01ZM148.31,213.39l-2.78,1.03,10.81-17.55-8.03,16.52ZM144.69,215.89l3-1.11-7.59,17.24,4.59-16.12ZM137.21,260.62l.16,9.59-.56,1.74.4-11.34ZM137.74,272.66l2.74,17.63-3.77-14.39,1.04-3.25ZM152.01,309.14l3.52,15.74-11.22-22.08,7.7,6.34ZM163.29,331.62l2.44,8.2-7.27-9.79,4.83,1.59ZM217.8,373.87l1.02,1.62-10.66-4.64,9.65,3.02ZM220.53,376.18l-1.25-2,23.2,4.57-21.95-2.58ZM277.36,378.14l-2.44,2.76-12.74-.35,15.17-2.41ZM279.05,377.88l15.18-2.36-17.44,4.91,2.26-2.55ZM314.13,364.77l8.9-2.75-15.7,8.62,6.8-5.86ZM328.39,358.86l-.7-4.52,13.01-5.98-12.31,10.5ZM356.57,325.09l-.61,6.07-8.56,10.21,9.16-16.28ZM370.65,299.2l2.2-1.06-10.06,19.7,7.86-18.64ZM373.58,296.59l-2.47,1.19,4.96-16.31-2.49,15.12Z" fill="url(#b)"/><path id="e" d="M378.5,273.44s0-.02,0-.04c0,0,0,0,0-.02h0s0,0,0,0l-1.1-36.83s0-.01,0-.02c0,0,0-.02,0-.03,0-.01,0-.03,0-.04,0-.02,0-.03-.01-.05,0,0,0,0,0-.01l-5.54-18.38s0,0,0,0h0s0,0,0-.01c0-.01,0-.02-.01-.03,0-.01-.01-.03-.02-.04,0,0,0-.01,0-.02l-15.84-29.9s0,0,0-.01c0-.01-.01-.02-.02-.03,0,0-.01-.02-.02-.03,0,0,0-.01-.01-.02,0,0-.01-.01-.02-.02,0,0,0,0-.01-.01l-18.12-19.1s0,0,0,0c0,0,0,0-.01-.01-.01,0-.02-.02-.03-.03,0,0-.02-.01-.02-.02h0s0,0,0,0l-19.23-13.73s0,0,0,0c0,0-.01,0-.02-.01-.01,0-.03-.01-.04-.02-.01,0-.03-.01-.04-.02,0,0,0,0,0,0l-16.69-6.55s0,0,0,0h-.01s0,0,0,0c0,0,0,0,0,0h0s0,0,0,0l-20.04-7.13s-.01,0-.02,0c-.01,0-.03,0-.04-.01-.01,0-.02,0-.04,0-.01,0-.02,0-.04,0,0,0-.01,0-.02,0l-33-2.1s0,0,0,0c0,0,0,0,0,0-.01,0-.03,0-.04,0-.02,0-.04,0-.05,0,0,0,0,0-.01,0,0,0,0,0,0,0l-20.81,3.76s0,0-.01,0c0,0-.01,0-.02,0,0,0,0,0-.01,0-.01,0-.03,0-.04.01l-16.96,5.21s0,0,0,0c-.01,0-.02,0-.04.01-.01,0-.03.01-.04.02,0,0-.01,0-.02.01,0,0,0,0,0,0l-30.13,17.63s0,0,0,0c0,0-.02.01-.03.02,0,0-.02,0-.02.02,0,0-.01.01-.02.02,0,0-.01,0-.02.01,0,0-.01.02-.02.02,0,0-.01,0-.02.02h0s0,0,0,0l-18.82,21s0,0,0,.01c0,0,0,.01-.01.02,0,0,0,.01-.01.02,0,0-.01.02-.02.02,0,0,0,0,0,.01h0s0,.01,0,.01l-17.36,28.19s0,.01,0,.02c0,0-.01.02-.02.03,0,.01,0,.02-.01.03,0,.01-.01.03-.01.04,0,0,0,.01,0,.02l-6.83,24s0,0,0,0c0,0,0,.01,0,.02,0,0,0,0,0,0,0,0,0,0,0,0,0,.01,0,.03,0,.04,0,.01,0,.03,0,.04,0,0,0,0,0,.01l-1.28,36.41s0,.02,0,.02c0,.01,0,.02,0,.03,0,.01,0,.02,0,.03,0,.02,0,.03,0,.04,0,0,0,.01,0,.02v.02s0,0,0,0l6.51,24.81s0,0,0,0c0,0,0,0,0,0,0,0,0,.01,0,.02,0,.02.01.03.02.05,0,0,0,0,0,0,0,0,0,.02.01.03h0s0,0,0,0l14.36,28.26s0,0,0,0c0,0,0,0,0,.01,0,.02.02.03.03.05,0,0,0,0,0,.01l10.12,13.64s0,0,0,0h0s0,0,0,0h0s0,0,0,0c0,0,0,.01.01.02,0,.01.02.02.03.03,0,0,.01.02.02.02l14.01,12.84s.02.02.03.03c0,0,.02.02.03.02l17.49,11.83s0,0,.01,0c0,0,0,0,0,0,.01,0,.03.02.04.02,0,0,.01,0,.02.01,0,0,0,0,0,0l21.57,9.38s.01,0,.02,0c.02,0,.03.01.05.02,0,0,.02,0,.02,0,.01,0,.03,0,.04,0,0,0,.01,0,.02,0l36.1,4.24s.03,0,.04,0c0,0,0,0,0,0l18.85.52s0,0,.01,0c0,0,0,0,0,0,0,0,0,0,0,0,.04,0,.07,0,.11-.01,0,0,.01,0,.02,0,0,0,0,0,0,0,0,0,.01,0,.02,0l27.9-7.86s.01,0,.02,0c0,0,.02,0,.02,0,0,0,.01,0,.02-.01,0,0,0,0,.02,0,.01,0,.02,0,.03-.01,0,0,0,0,0,0h.01s0,0,0,0l24.92-13.68s0,0,0,0c0,0,0,0,.01,0,.01,0,.03-.02.04-.03,0,0,0,0,0,0,.01,0,.02-.01.03-.02,0,0,0,0,0,0l16.04-13.69s.01-.01.02-.02c0,0,.01-.01.02-.02,0,0,.01-.01.02-.02,0,0,0,0,0,0l12.44-14.84s0,0,0,0h0s0,0,0,0c.02-.02.03-.04.04-.06,0,0,.01-.02.01-.02,0,0,0,0,0,0,0,0,0,0,0,0l17.59-34.43s0-.02,0-.03c0-.01.01-.03.02-.04,0,0,0-.01,0-.02,0-.01,0-.03.01-.04,0,0,0-.02,0-.03l3.88-23.55s0,0,0,0h0s0-.01,0-.02c0,0,0-.01,0-.02,0,0,0-.01,0-.02ZM181.48,355.05l-3.63-3.33,8.16,6.39-4.53-3.07ZM234.43,368.88l-12.75-5.96,30.18,2.71-17.43,3.25ZM239.08,260.32l-33.48,3.52,20.64-34.68,12.83,31.16ZM227.4,229.09l40.9,20.49-28.13,10.52-12.77-31ZM239.39,261.38l3.89,30.86-37.24-27.35,33.35-3.51ZM242.79,293.23l-40.45,12.73,2.72-40.44,37.73,27.71ZM240.55,261.9l31.36,20.82-27.47,9.97-3.88-30.79ZM241.05,260.92l28.13-10.52,3.26,31.37-31.39-20.85ZM284.28,224.69l26.07-12.31-2.94,29.29-23.13-16.97ZM306.52,242.36l-35.84,6.55,12.73-23.51,23.12,16.96ZM269.66,248.5l-23.35-42.88,36.18,19.18-12.82,23.69ZM268.35,248.38l-41.17-20.62,17.7-22.48,23.47,43.1ZM204.78,263.1l-5.25-20.02,25.33-13.71-20.08,33.73ZM201.31,304.97l-20.01-32.83,22.68-6.89-2.67,39.72ZM242.16,294.57l-20.35,21.74-18.64-9.47,38.99-12.27ZM272.3,283.73l-7.26,26.14-19.97-16.26,27.23-9.88ZM270.33,250.87l30.26,23.87-27.01,7.43-3.25-31.29ZM270.94,249.96l36.24-6.62-5.77,30.65-30.46-24.03ZM308.49,241.9l2.91-28.96,16.74,22.74-19.65,6.22ZM328.5,236.7l.93,33.16-20.66-26.91,19.73-6.25ZM283.79,223.72l.7-24.62,25.25,12.37-25.95,12.25ZM282.7,223.69l-36.04-19.11,36.74-5.71-.7,24.82ZM226.58,226.76l-6.75-24.58,24.1,2.55-17.34,22.03ZM225.7,227.68l-25.56,13.84,18.81-38.42,6.76,24.58ZM203.92,264.13l-22.2,6.74,16.97-26.72,5.23,19.98ZM199.9,304.75l-27.72-19.64,8.27-12.28,19.45,31.92ZM202.14,307.53l18.63,9.47-22.91,12.65,4.29-22.12ZM244.03,294.17l20.01,16.29-40.65,5.77,20.65-22.05ZM273.39,283.89l29.53,28.55-36.87-2.12,7.34-26.43ZM274.17,283.13l27.1-7.45,2.43,36.01-29.54-28.56ZM308.17,243.97l20.83,27.14-26.56,3.24,5.72-30.38ZM329.6,236.91l17.59,9.94-16.67,23.05-.92-33ZM329.78,235.77l10.9-17.93,6.5,27.76-17.39-9.83ZM328.98,234.98l-16.76-22.76,27.8,4.59-11.04,18.16ZM284.93,198.1l19.68-17.81,5.65,30.22-25.33-12.4ZM245.99,203.59l12.49-22.16,24.05,16.48-36.54,5.68ZM219.92,201.1l14.15-28.78,10.11,31.35-24.26-2.57ZM198.85,241.66l-17.15-28.64,36.36-10.6-19.21,39.23ZM180.7,270.46l-8.3-33.37,25.63,6.07-17.33,27.3ZM171.56,284.09l-7.61-18.91,15.71,6.87-8.1,12.03ZM201.14,306.96l-4.3,22.18-23.74-42.04,28.03,19.86ZM221.6,317.79l6.51,21.98-29.63-9.21,23.12-12.77ZM264.64,311.48l-6.45,28.57-34.75-22.72,41.2-5.84ZM303.02,313.54l-16.71,15.13-19.43-17.2,36.14,2.08ZM302.42,276.4l25.72,25.99-23.3,9.87-2.42-35.86ZM302.94,275.38l26.51-3.24-.87,29.14-25.64-25.91ZM347.78,247.9l10.59,35.66-27.52-12.25,16.93-23.41ZM341.78,217.76l17.27,13.1-10.8,14.55-6.47-27.65ZM312.05,211.1l16.03-18.37,11.85,22.97-27.88-4.61ZM311.32,210.27l-5.61-30.02,21.63,11.67-16.02,18.34ZM283.92,197.55l-23.95-16.41,43.53-1.32-19.58,17.73ZM245.1,202.94l-10.04-31.13,22.45,9.1-12.41,22.03ZM218.99,200.52l-11.63-15.76,25.61-12.68-13.99,28.44ZM218.19,201.26l-35.61,10.38,23.92-26.22,11.69,15.84ZM197.77,241.98l-25.38-6.01,8.58-22.03,16.8,28.04ZM179.68,270.88l-16.07-7.03,7.98-25.48,8.08,32.51ZM170.72,284.93l-13.82,5.05,6.16-24.08,7.66,19.03ZM195.58,329.11l-30.4-18.84,6.44-23.6,23.97,42.44ZM226.53,340.42l-28.76,4.56-.12-13.54,28.89,8.98ZM222.87,318.25l33.81,22.11-27.36-.31-6.46-21.8ZM265.67,311.84l19.63,17.38-26,10.79,6.36-28.18ZM304.11,314.02l10.38,28.75-27.21-13.51,16.84-15.25ZM305.04,313.37l23.16-9.82-12.76,38.64-10.4-28.82ZM330.54,272.36l27.51,12.25-28.39,16.99.87-29.24ZM348.96,248.04l17.99,12.8-7.68,21.92-10.31-34.72ZM348.76,246.56l10.81-14.57,7.13,27.34-17.94-12.77ZM341.54,216.22l5.02-15.57,11.96,28.44-16.98-12.87ZM340.79,215l-11.44-22.19,16.47,6.58-5.03,15.6ZM306.89,179.65l23.96-1.56-3.02,12.87-20.94-11.3ZM259.46,180.07l16.87-20.92,27.03,19.58-43.9,1.33ZM258.46,179.57l-8.68-22.74,25.38,2.04-16.69,20.7ZM257.33,179.67l-22.18-8.99,13.6-13.49,8.59,22.49ZM207.49,183.48l9.54-27.51,16.19,14.77-25.73,12.74ZM181.9,210.76l6.99-28.59,16.58,2.76-23.56,25.83ZM171.53,235.15l-8.96-14.06,17.31-7.39-8.35,21.44ZM171.06,236.43l-7.66,24.44-1.03-38.07,8.69,13.63ZM162.24,264.7l-6.24,24.4-9.8-24.38,16.05-.02ZM145.95,263.63l.52-23.96,15.47,23.94-16,.02ZM170.63,286.12l-6.21,22.75-7.58-17.7,13.79-5.04ZM195.53,330.37l-18.84,2.67-10.77-21.02,29.61,18.35ZM196.56,331.32l.12,13.35-18.65-10.72,18.53-2.62ZM227.98,341.29l-9.54,19.97-19.88-15.3,29.42-4.67ZM229.09,341.49l25.2,23.27-34.82-3.13,9.62-20.13ZM230.33,341.15l27.61.31-2.52,22.85-25.09-23.16ZM285.8,330.2l1.05,25.81-27.06-15.01,26.01-10.8ZM286.9,330.29l27.31,13.55-26.25,12.27-1.05-25.82ZM329.25,303.84l13.56,21.2-26.33,17.5,12.78-38.69ZM330.19,303.29l26.1,3.84-12.71,17.11-13.39-20.94ZM330.68,302.26l27.92-16.71-1.82,20.55-26.1-3.84ZM367.55,262.44l4.93,17.24-12.37,4,7.44-21.24ZM360.99,233.11l14.14,17.81-7.26,8.57-6.87-26.37ZM347.76,200.68l18.36,13.45-6.31,15.21-12.05-28.66ZM328.83,191.44l2.96-12.62,13.22,19.09-16.18-6.47ZM305.42,178.66l-3.19-19.29,27.62,17.69-24.43,1.6ZM304.21,178.01l-26.32-19.07,23.15-.14,3.18,19.21ZM250.66,155.8l17.18-10.55,7.37,12.52-24.56-1.98ZM234.16,170.12l-15.91-14.52,29.43,1.1-13.52,13.41ZM206.18,183.94l-16.52-2.75,25.9-24.28-9.37,27.03ZM180.54,211.74l-16.91-13.73,23.99-15.27-7.09,29ZM179.82,212.56l-17.47,7.45.85-20.94,16.62,13.49ZM162.35,262.23l-15.69-24.28,14.61-15.75,1.08,40.03ZM155.55,290.9l-2.98,14.85-5.88-36.88,8.86,22.03ZM156.3,292.68l7.36,17.17-10.5-1.47,3.15-15.7ZM175.39,332.88l-11.09-2.13.71-18.13,10.38,20.26ZM196.33,345.73l-7.88,7.57-10.58-18.18,18.46,10.61ZM197.27,346.33l18.92,14.56-26.78-7,7.86-7.56ZM259,341.8l27,14.98-29.53,7.93,2.53-22.91ZM314.84,344.75l-1.48,18.84-24.36-6.76,25.84-12.08ZM341.94,326.92l-14.99,26.26-10.59-9.26,25.58-17ZM356.74,308.36l.08,13.75-12,2.29,11.91-16.04ZM359.74,284.94l12.2-3.94-13.92,23.39,1.72-19.45ZM368.21,260.77l6.93-8.17-2.26,24.49-4.67-16.32ZM360.44,230.67l6.22-14.97,8.06,32.95-14.27-17.98ZM347.21,198.93l4.37-7.63,13.17,20.47-17.53-12.84ZM346.45,198.06l-12.92-18.65,17.29,11.02-4.37,7.63ZM303.1,158.63l13.08-1.39,13.23,18.25-26.31-16.86ZM276.53,157.86l-7.21-12.24,29.45,12.1-22.25.14ZM249.15,155.45l-5.8-10.16,22.73-.23-16.92,10.39ZM248,155.63l-28.63-1.07,22.81-9.12,5.82,10.19ZM190.14,179.24l10.25-22.19,14.87-1.36-25.12,23.55ZM188.3,180.63l-9.37-9,19.78-13.53-10.41,22.53ZM187.6,181.46l-23.3,14.83,13.89-23.87,9.41,9.03ZM161.26,219.96l-11.69-6.29,12.53-14.2-.83,20.49ZM160.89,220.99l-14.2,15.31,2.47-21.61,11.74,6.31ZM144.85,263.92l-6,4.91,6.47-26.05-.46,21.14ZM145,265.2l6.13,38.45-12.56-33.19,6.43-5.26ZM163.97,310.99l-.7,18.07-9.81-19.54,10.52,1.47ZM176.03,334.12l9.97,17.13-20.52-19.16,10.55,2.03ZM218.08,362.51l-.43,9.92-26.16-16.88,26.59,6.95ZM219.15,362.94l13.58,6.35-14,3.43.43-9.77ZM255.32,366.1l.42,13.92-19.73-10.32,19.31-3.6ZM286.5,357.77l-8,18.84-21.17-11.01,29.17-7.84ZM287.76,357.61l24.34,6.75-32.33,12.06,7.99-18.81ZM315.92,344.98l10.31,9.01-11.73,9.1,1.42-18.12ZM343.9,325.68l11.89-2.27-26.05,27.08,14.17-24.81ZM357.9,320.43l-.08-13.4,10.97-6.7-10.89,20.1ZM358.87,305.11l13.31-22.37-2.45,15.73-10.86,6.64ZM375.84,256.8l1.55,16.45-3.52,4.86,1.97-21.31ZM367.76,215.6l3.04,2.85,3.04,22.03-6.08-24.88ZM352.34,190.47l2.86-1.44,8.27,18.75-11.14-17.32ZM332.31,177.34l5.02-7.19,12.3,18.24-17.32-11.04ZM331.53,176.56l-13.1-18.06,18.13,10.86-5.03,7.2ZM302.04,157.64l-.08-7.85,12.62,6.52-12.54,1.33ZM300.94,157.43l-28.83-11.85,28.75,3.79.08,8.06ZM243.91,144.2l4.59-3.94,15.22,3.74-19.81.2ZM218.84,153.6l8.93-9.62,12.34,1.11-21.27,8.51ZM216.53,154.48l-13.52,1.23,22.19-10.58-8.68,9.35ZM179.36,170.02l1.5-3.34,12.41-6.17-13.9,9.51ZM163.07,196.24l-.9-8.75,13.49-12.88-12.59,21.63ZM162.14,197.78l-11.19,12.69,10.31-21.22.88,8.54ZM145.47,237.43l-7.14,1.33,9.44-21.42-2.29,20.09ZM145.23,238.58l-6.83,27.53-.43-26.18,7.27-1.35ZM151.27,307.11l-8.12-6.68-3.89-25.05,12.01,31.74ZM162.66,330.27l-5.19-1.71-3.47-15.53,8.66,17.24ZM184.83,351.65l-17.23-9.38-2.77-9.3,20,18.68ZM187.97,354.6l7.46,9.51-22.81-17.87,15.35,8.35ZM190.76,356.39l23.72,15.31-15.53-4.85-8.2-10.45ZM234.29,370.02l18.44,9.65-32.05-6.32,13.62-3.33ZM256.42,366.36l20.64,10.73-20.22,3.21-.42-13.94ZM311.2,365.86l-8.38,7.23-18.85,2.93,27.23-10.16ZM326.69,355.02l.7,4.51-10.83,3.35,10.13-7.86ZM354.79,326.01l-11.14,19.79-14.18,6.52,25.32-26.31ZM357.9,322.72l7.46-13.78-7.97,18.9.51-5.12ZM373.67,280.25l2.82-3.89-4.53,14.89,1.71-11ZM376.38,250.89h0s0,0,0,0c0,0,0,0,0,0,0,0,0,0,0-.01,0,0,0,0,0,0l-.04-.29.28-3.69.29,9.55-.52-5.54ZM375.63,245.46l-2.82-20.41,3.49,11.58-.67,8.83ZM367.25,213.62l-5.14-11.66,7.2,13.58-2.05-1.93ZM351.74,189.55l-10.27-15.23,13.1,13.81-2.83,1.42ZM317.42,156.62l.69-.5,7.9,5.64-8.58-5.14ZM316.39,156.02l-5.34-2.76,5.93,2.33-.59.43ZM271.31,144.38l10.01-2.06,15.06,5.36-25.06-3.3ZM268.05,143.94l-13.62-3.35,22.85,1.45-9.22,1.89ZM242.24,144.19l-10.63-.96,14.87-2.68-4.24,3.64ZM204.74,153.69l6.08-4.56,9.8-3.01-15.88,7.57ZM199.74,156.07l-5.27,2.62,8.11-4.75-2.83,2.12ZM177.62,171.24l-6.26,5.97,7.15-7.98-.9,2.01ZM148.31,213.39l-2.78,1.03,10.81-17.55-8.03,16.52ZM144.69,215.89l3-1.11-7.59,17.24,4.59-16.12ZM137.21,260.62l.16,9.59-.56,1.74.4-11.34ZM137.74,272.66l2.74,17.63-3.77-14.39,1.04-3.25ZM152.01,309.14l3.52,15.74-11.22-22.08,7.7,6.34ZM163.29,331.62l2.44,8.2-7.27-9.79,4.83,1.59ZM217.8,373.87l1.02,1.62-10.66-4.64,9.65,3.02ZM220.53,376.18l-1.25-2,23.2,4.57-21.95-2.58ZM277.36,378.14l-2.44,2.76-12.74-.35,15.17-2.41ZM279.05,377.88l15.18-2.36-17.44,4.91,2.26-2.55ZM314.13,364.77l8.9-2.75-15.7,8.62,6.8-5.86ZM328.39,358.86l-.7-4.52,13.01-5.98-12.31,10.5ZM356.57,325.09l-.61,6.07-8.56,10.21,9.16-16.28ZM370.65,299.2l2.2-1.06-10.06,19.7,7.86-18.64ZM373.58,296.59l-2.47,1.19,4.96-16.31-2.49,15.12Z" fill="url(#d)"/></svg>