<svg width="257" height="256" viewBox="0 0 257 256" fill="none" xmlns="http://www.w3.org/2000/svg">
<circle cx="128" cy="128" r="120" fill="#8000D7"/>
<path d="M213.094 97.5112C213.523 89.0139 207.772 81.4351 199.472 79.5468C178.916 74.8776 157.389 80.6712 141.948 95.0307L139.305 97.4854C136.224 100.352 132.172 101.94 127.967 101.94C123.752 101.94 119.701 100.344 116.62 97.4769L114.036 95.0736C98.5953 80.6883 77.0431 74.8862 56.4695 79.5554H56.4523C48.1954 81.4437 42.4619 88.9882 42.8567 97.4683V97.5198C40.7367 105.888 44.0068 136.787 45.8608 141.645C49.5859 161.275 65.6276 176.038 84.8538 176.038C94.4582 176.038 103.153 172.201 110.028 166.073L114.216 162.485C121.95 155.868 133.322 155.773 141.159 162.271L147.459 167.472V167.446C154.085 172.776 162.205 176.038 171.097 176.038C190.323 176.038 206.365 161.275 210.09 141.645C211.944 136.779 215.334 106.008 213.094 97.5112ZM109.032 130.479C104.458 135.654 97.3593 138.985 89.377 138.985C81.3948 138.985 74.2966 135.654 69.7218 130.479C67.3185 127.767 67.3185 123.492 69.7218 120.771C74.2966 115.596 81.3948 112.266 89.377 112.266C97.3593 112.266 104.458 115.596 109.032 120.771C111.436 123.492 111.436 127.767 109.032 130.479ZM186.28 130.479C181.705 135.654 174.607 138.985 166.625 138.985C158.643 138.985 151.544 135.654 146.97 130.479C144.566 127.767 144.566 123.492 146.97 120.771C151.544 115.596 158.643 112.266 166.625 112.266C174.607 112.266 181.705 115.596 186.28 120.771C188.683 123.492 188.683 127.767 186.28 130.479Z" fill="white"/>
<g clip-path="url(#clip0_3690_1540)">
<path d="M249.911 174.219C247.368 168.084 242.215 161.462 238.169 159.37C241.462 165.841 243.367 172.332 244.095 177.175C244.095 177.175 244.095 177.209 244.107 177.272C237.489 160.737 226.265 154.068 217.1 139.551C216.635 138.818 216.172 138.086 215.719 137.302C215.463 136.861 215.256 136.46 215.076 136.082C214.696 135.348 214.403 134.572 214.201 133.77C214.203 133.732 214.19 133.695 214.166 133.666C214.142 133.636 214.107 133.617 214.07 133.612C214.034 133.602 213.996 133.602 213.96 133.612C213.951 133.616 213.942 133.622 213.933 133.629C213.919 133.629 213.904 133.646 213.89 133.651L213.914 133.619C199.21 142.25 194.221 158.217 193.763 166.207C187.887 166.61 182.269 168.778 177.641 172.429C177.158 172.019 176.652 171.636 176.126 171.282C174.793 166.603 174.736 161.651 175.963 156.943C169.949 159.689 165.273 164.022 161.872 167.857H161.846C159.524 164.911 159.688 155.193 159.819 153.164C159.792 153.038 158.09 154.051 157.871 154.204C155.822 155.669 153.908 157.312 152.149 159.116C150.148 161.149 148.32 163.346 146.683 165.685C142.919 171.032 140.249 177.073 138.828 183.46C138.801 183.587 138.777 183.719 138.75 183.849C138.641 184.364 138.244 186.949 138.173 187.51V187.64C137.655 190.311 137.333 193.016 137.208 195.734V196.034C137.208 228.432 163.417 254.698 195.744 254.698C224.697 254.698 248.735 233.632 253.443 205.96C253.541 205.21 253.621 204.454 253.709 203.697C254.873 193.635 253.58 183.06 249.911 174.219ZM182.442 220.14C182.715 220.269 182.973 220.413 183.253 220.54L183.292 220.565C183.012 220.428 182.727 220.286 182.445 220.14H182.442ZM244.112 177.299V177.243V177.307V177.299Z" fill="url(#paint0_linear_3690_1540)"/>
<path d="M249.911 174.219C247.368 168.084 242.214 161.462 238.169 159.37C241.462 165.841 243.366 172.332 244.095 177.175V177.294C249.619 192.302 246.608 207.563 242.273 216.888C235.565 231.315 219.326 246.103 193.904 245.383C166.461 244.602 142.267 224.168 137.749 197.426C136.926 193.205 137.749 191.064 138.163 187.64C137.659 190.278 137.466 191.042 137.216 195.734V196.034C137.216 228.432 163.424 254.698 195.751 254.698C224.704 254.698 248.742 233.632 253.45 205.96C253.548 205.21 253.628 204.454 253.716 203.697C254.873 193.635 253.579 183.06 249.911 174.219V174.219Z" fill="url(#paint1_radial_3690_1540)"/>
<path d="M249.911 174.219C247.368 168.084 242.214 161.462 238.169 159.37C241.462 165.841 243.366 172.332 244.095 177.175V177.294C249.619 192.302 246.608 207.563 242.273 216.888C235.565 231.315 219.326 246.103 193.904 245.383C166.461 244.602 142.267 224.168 137.749 197.426C136.926 193.205 137.749 191.064 138.163 187.64C137.659 190.278 137.466 191.042 137.216 195.734V196.034C137.216 228.432 163.424 254.698 195.751 254.698C224.704 254.698 248.742 233.632 253.45 205.96C253.548 205.21 253.628 204.454 253.716 203.697C254.873 193.635 253.579 183.06 249.911 174.219V174.219Z" fill="url(#paint2_radial_3690_1540)"/>
<path d="M221.465 181.112C221.594 181.203 221.709 181.293 221.83 181.383C220.361 178.769 218.531 176.376 216.394 174.275C198.199 156.04 211.625 134.735 213.887 133.651L213.912 133.619C199.207 142.251 194.219 158.218 193.761 166.207C194.443 166.161 195.123 166.102 195.817 166.102C206.79 166.102 216.348 172.151 221.465 181.112Z" fill="url(#paint3_radial_3690_1540)"/>
<path d="M195.853 184.754C195.758 186.219 190.614 191.248 188.814 191.248C172.168 191.248 169.467 201.339 169.467 201.339C170.198 209.839 176.107 216.837 183.256 220.54C183.582 220.709 183.911 220.86 184.23 221.011C184.802 221.256 185.377 221.5 185.95 221.717C188.401 222.584 190.969 223.077 193.566 223.182C222.741 224.553 228.397 188.221 207.34 177.67C212.73 176.731 218.328 178.906 221.453 181.105C216.338 172.144 206.778 166.095 195.805 166.095C195.11 166.095 194.431 166.154 193.749 166.2C187.877 166.608 182.264 168.778 177.641 172.43C178.535 173.189 179.544 174.199 181.665 176.294C185.645 180.229 195.831 184.278 195.853 184.754V184.754Z" fill="url(#paint4_radial_3690_1540)"/>
<path d="M195.853 184.754C195.758 186.219 190.614 191.248 188.814 191.248C172.168 191.248 169.467 201.339 169.467 201.339C170.198 209.839 176.107 216.837 183.256 220.54C183.582 220.709 183.911 220.86 184.23 221.011C184.802 221.256 185.377 221.5 185.95 221.717C188.401 222.584 190.969 223.077 193.566 223.182C222.741 224.553 228.397 188.221 207.34 177.67C212.73 176.731 218.328 178.906 221.453 181.105C216.338 172.144 206.778 166.095 195.805 166.095C195.11 166.095 194.431 166.154 193.749 166.2C187.877 166.608 182.264 168.778 177.641 172.43C178.535 173.189 179.544 174.199 181.665 176.294C185.645 180.229 195.831 184.278 195.853 184.754V184.754Z" fill="url(#paint5_radial_3690_1540)"/>
<path d="M174.921 170.479C175.395 170.787 175.785 171.045 176.138 171.282C174.805 166.603 174.748 161.651 175.975 156.943C169.961 159.69 165.285 164.022 161.885 167.857C162.16 167.85 170.651 167.696 174.921 170.479V170.479Z" fill="url(#paint6_radial_3690_1540)"/>
<path d="M137.751 197.426C142.269 224.168 166.463 244.602 193.925 245.383C219.347 246.103 235.576 231.315 242.294 216.888C246.629 207.561 249.64 192.302 244.116 177.294V177.182C244.116 177.197 244.116 177.216 244.128 177.28C246.203 190.869 239.308 204.034 228.527 212.936C228.516 212.961 228.505 212.986 228.496 213.012C207.487 230.155 187.386 223.355 183.315 220.579C183.033 220.442 182.748 220.301 182.465 220.154C170.216 214.296 165.157 203.104 166.241 193.513C155.901 193.513 152.375 184.769 152.375 184.769C152.375 184.769 161.659 178.134 173.897 183.905C185.23 189.251 195.874 184.771 195.874 184.769C195.852 184.293 185.666 180.231 181.693 176.308C179.572 174.214 178.563 173.203 177.669 172.444C177.186 172.034 176.68 171.651 176.154 171.297C175.806 171.053 175.424 170.808 174.937 170.494C170.667 167.711 162.176 167.864 161.896 167.872H161.869C159.548 164.925 159.711 155.208 159.842 153.179C159.816 153.052 158.113 154.065 157.894 154.219C155.846 155.683 153.931 157.327 152.172 159.13C150.171 161.164 148.343 163.361 146.707 165.699C142.942 171.046 140.272 177.088 138.851 183.475C138.805 183.587 136.723 192.7 137.751 197.426V197.426Z" fill="url(#paint7_radial_3690_1540)"/>
<path d="M216.394 174.275C218.531 176.376 220.361 178.769 221.83 181.383C222.134 181.612 222.427 181.857 222.707 182.115C235.977 194.36 229.035 211.694 228.506 212.939C239.287 204.036 246.182 190.872 244.107 177.282C237.489 160.737 226.265 154.068 217.1 139.551C216.635 138.818 216.172 138.086 215.719 137.302C215.463 136.861 215.256 136.46 215.076 136.082C214.696 135.348 214.403 134.572 214.201 133.77C214.203 133.732 214.19 133.695 214.166 133.666C214.142 133.636 214.107 133.617 214.07 133.612C214.034 133.602 213.996 133.602 213.96 133.612C213.951 133.616 213.942 133.622 213.933 133.629C213.919 133.629 213.904 133.646 213.89 133.651C211.624 134.734 198.199 156.04 216.394 174.275V174.275Z" fill="url(#paint8_radial_3690_1540)"/>
<path d="M222.702 182.103C222.422 181.845 222.13 181.6 221.825 181.371C221.706 181.281 221.582 181.19 221.46 181.1C218.335 178.903 212.738 176.726 207.347 177.665C228.402 188.216 222.748 224.548 193.573 223.177C190.976 223.072 188.409 222.579 185.957 221.712C185.385 221.497 184.81 221.26 184.237 221.006C183.906 220.855 183.577 220.704 183.263 220.535L183.302 220.56C187.372 223.343 207.474 230.143 228.482 212.992C228.482 212.992 228.494 212.961 228.514 212.917C229.035 211.694 235.977 194.36 222.702 182.103Z" fill="url(#paint9_radial_3690_1540)"/>
<path d="M169.467 201.339C169.467 201.339 172.168 191.248 188.814 191.248C190.614 191.248 195.758 186.214 195.853 184.754C195.948 183.295 185.209 189.236 173.875 183.89C161.638 178.12 152.353 184.754 152.353 184.754C152.353 184.754 155.88 193.498 166.22 193.498C165.136 203.089 170.195 214.272 182.444 220.14C182.717 220.269 182.975 220.413 183.255 220.54C176.107 216.845 170.205 209.839 169.467 201.339Z" fill="url(#paint10_radial_3690_1540)"/>
<path d="M249.911 174.219C247.368 168.084 242.215 161.462 238.169 159.37C241.462 165.841 243.367 172.332 244.095 177.175C244.095 177.175 244.095 177.209 244.107 177.272C237.489 160.737 226.265 154.068 217.1 139.551C216.635 138.818 216.172 138.086 215.719 137.302C215.463 136.861 215.256 136.46 215.076 136.082C214.696 135.348 214.403 134.572 214.201 133.77C214.203 133.732 214.19 133.695 214.166 133.666C214.142 133.636 214.107 133.617 214.07 133.612C214.034 133.602 213.996 133.602 213.96 133.612C213.951 133.616 213.942 133.622 213.933 133.629C213.919 133.629 213.904 133.646 213.89 133.651L213.914 133.619C199.21 142.25 194.221 158.217 193.763 166.207C194.445 166.161 195.125 166.102 195.819 166.102C206.792 166.102 216.35 172.151 221.467 181.112C218.342 178.915 212.745 176.738 207.355 177.678C228.409 188.228 222.756 224.561 193.581 223.189C190.983 223.084 188.416 222.591 185.964 221.724C185.392 221.509 184.817 221.272 184.244 221.019C183.913 220.867 183.584 220.716 183.27 220.547L183.309 220.572C183.027 220.435 182.742 220.294 182.459 220.147C182.732 220.277 182.99 220.421 183.27 220.547C176.107 216.844 170.205 209.839 169.467 201.339C169.467 201.339 172.168 191.247 188.814 191.247C190.614 191.247 195.758 186.214 195.853 184.754C195.831 184.278 185.645 180.216 181.672 176.293C179.551 174.199 178.542 173.188 177.649 172.429C177.165 172.019 176.659 171.636 176.134 171.282C174.8 166.603 174.744 161.651 175.97 156.943C169.957 159.689 165.28 164.022 161.88 167.857H161.853C159.532 164.911 159.695 155.193 159.826 153.164C159.8 153.038 158.097 154.051 157.878 154.204C155.83 155.669 153.915 157.312 152.156 159.116C150.155 161.149 148.327 163.346 146.691 165.685C142.926 171.032 140.256 177.073 138.835 183.46C138.809 183.587 138.784 183.719 138.758 183.849C138.648 184.364 138.151 186.985 138.083 187.547C138.083 187.591 138.083 187.505 138.083 187.547C137.627 190.256 137.335 192.99 137.208 195.734V196.034C137.208 228.432 163.417 254.698 195.744 254.698C224.697 254.698 248.735 233.632 253.443 205.96C253.541 205.21 253.621 204.454 253.709 203.697C254.873 193.635 253.58 183.06 249.911 174.219ZM244.105 177.231V177.294V177.231Z" fill="url(#paint11_linear_3690_1540)"/>
</g>
<defs>
<linearGradient id="paint0_linear_3690_1540" x1="242.163" y1="152.364" x2="144.783" y2="246.112" gradientUnits="userSpaceOnUse">
<stop offset="0.05" stop-color="#FFF44F"/>
<stop offset="0.11" stop-color="#FFE847"/>
<stop offset="0.22" stop-color="#FFC830"/>
<stop offset="0.37" stop-color="#FF980E"/>
<stop offset="0.4" stop-color="#FF8B16"/>
<stop offset="0.46" stop-color="#FF672A"/>
<stop offset="0.53" stop-color="#FF3647"/>
<stop offset="0.7" stop-color="#E31587"/>
</linearGradient>
<radialGradient id="paint1_radial_3690_1540" cx="0" cy="0" r="1" gradientUnits="userSpaceOnUse" gradientTransform="translate(237.672 147.045) scale(122.032 122.3)">
<stop offset="0.13" stop-color="#FFBD4F"/>
<stop offset="0.19" stop-color="#FFAC31"/>
<stop offset="0.25" stop-color="#FF9D17"/>
<stop offset="0.28" stop-color="#FF980E"/>
<stop offset="0.4" stop-color="#FF563B"/>
<stop offset="0.47" stop-color="#FF3750"/>
<stop offset="0.71" stop-color="#F5156C"/>
<stop offset="0.78" stop-color="#EB0878"/>
<stop offset="0.86" stop-color="#E50080"/>
</radialGradient>
<radialGradient id="paint2_radial_3690_1540" cx="0" cy="0" r="1" gradientUnits="userSpaceOnUse" gradientTransform="translate(193.081 197.043) scale(122.032 122.3)">
<stop offset="0.3" stop-color="#960E18"/>
<stop offset="0.35" stop-color="#B11927" stop-opacity="0.74"/>
<stop offset="0.43" stop-color="#DB293D" stop-opacity="0.34"/>
<stop offset="0.5" stop-color="#F5334B" stop-opacity="0.09"/>
<stop offset="0.53" stop-color="#FF3750" stop-opacity="0"/>
</radialGradient>
<radialGradient id="paint3_radial_3690_1540" cx="0" cy="0" r="1" gradientUnits="userSpaceOnUse" gradientTransform="translate(207.796 119.29) scale(88.4067 88.6007)">
<stop offset="0.13" stop-color="#FFF44F"/>
<stop offset="0.25" stop-color="#FFDC3E"/>
<stop offset="0.51" stop-color="#FF9D12"/>
<stop offset="0.53" stop-color="#FF980E"/>
</radialGradient>
<radialGradient id="paint4_radial_3690_1540" cx="0" cy="0" r="1" gradientUnits="userSpaceOnUse" gradientTransform="translate(179.585 228.989) scale(58.104 58.2315)">
<stop offset="0.35" stop-color="#3A8EE6"/>
<stop offset="0.47" stop-color="#5C79F0"/>
<stop offset="0.67" stop-color="#9059FF"/>
<stop offset="1" stop-color="#C139E6"/>
</radialGradient>
<radialGradient id="paint5_radial_3690_1540" cx="0" cy="0" r="1" gradientTransform="matrix(29.8827 -7.40989 8.62594 35.197 194.834 182.508)" gradientUnits="userSpaceOnUse">
<stop offset="0.21" stop-color="#9059FF" stop-opacity="0"/>
<stop offset="0.28" stop-color="#8C4FF3" stop-opacity="0.06"/>
<stop offset="0.75" stop-color="#7716A8" stop-opacity="0.45"/>
<stop offset="0.97" stop-color="#6E008B" stop-opacity="0.6"/>
</radialGradient>
<radialGradient id="paint6_radial_3690_1540" cx="0" cy="0" r="1" gradientUnits="userSpaceOnUse" gradientTransform="translate(191.539 142.041) scale(41.8017 41.8935)">
<stop stop-color="#FFE226"/>
<stop offset="0.12" stop-color="#FFDB27"/>
<stop offset="0.3" stop-color="#FFC82A"/>
<stop offset="0.5" stop-color="#FFA930"/>
<stop offset="0.73" stop-color="#FF7E37"/>
<stop offset="0.79" stop-color="#FF7139"/>
</radialGradient>
<radialGradient id="paint7_radial_3690_1540" cx="0" cy="0" r="1" gradientUnits="userSpaceOnUse" gradientTransform="translate(224.399 115.47) scale(178.345 178.737)">
<stop offset="0.11" stop-color="#FFF44F"/>
<stop offset="0.46" stop-color="#FF980E"/>
<stop offset="0.62" stop-color="#FF5634"/>
<stop offset="0.72" stop-color="#FF3647"/>
<stop offset="0.9" stop-color="#E31587"/>
</radialGradient>
<radialGradient id="paint8_radial_3690_1540" cx="0" cy="0" r="1" gradientTransform="matrix(13.0644 129.622 -84.9189 9.16518 207.158 134.998)" gradientUnits="userSpaceOnUse">
<stop stop-color="#FFF44F"/>
<stop offset="0.06" stop-color="#FFE847"/>
<stop offset="0.17" stop-color="#FFC830"/>
<stop offset="0.3" stop-color="#FF980E"/>
<stop offset="0.36" stop-color="#FF8B16"/>
<stop offset="0.45" stop-color="#FF672A"/>
<stop offset="0.57" stop-color="#FF3647"/>
<stop offset="0.74" stop-color="#E31587"/>
</radialGradient>
<radialGradient id="paint9_radial_3690_1540" cx="0" cy="0" r="1" gradientUnits="userSpaceOnUse" gradientTransform="translate(190.556 157.556) scale(111.341 111.586)">
<stop offset="0.14" stop-color="#FFF44F"/>
<stop offset="0.48" stop-color="#FF980E"/>
<stop offset="0.59" stop-color="#FF5634"/>
<stop offset="0.66" stop-color="#FF3647"/>
<stop offset="0.9" stop-color="#E31587"/>
</radialGradient>
<radialGradient id="paint10_radial_3690_1540" cx="0" cy="0" r="1" gradientUnits="userSpaceOnUse" gradientTransform="translate(219.947 164.088) scale(121.864 122.131)">
<stop offset="0.09" stop-color="#FFF44F"/>
<stop offset="0.23" stop-color="#FFE141"/>
<stop offset="0.51" stop-color="#FFAF1E"/>
<stop offset="0.63" stop-color="#FF980E"/>
</radialGradient>
<linearGradient id="paint11_linear_3690_1540" x1="240.994" y1="151.861" x2="158.13" y2="234.546" gradientUnits="userSpaceOnUse">
<stop offset="0.17" stop-color="#FFF44F" stop-opacity="0.8"/>
<stop offset="0.27" stop-color="#FFF44F" stop-opacity="0.63"/>
<stop offset="0.49" stop-color="#FFF44F" stop-opacity="0.22"/>
<stop offset="0.6" stop-color="#FFF44F" stop-opacity="0"/>
</linearGradient>
<clipPath id="clip0_3690_1540">
<rect x="132" y="131" width="125" height="125" rx="2" fill="white"/>
</clipPath>
</defs>
</svg>
