<svg width="1024" height="1024" viewBox="0 0 1024 1024" fill="none" xmlns="http://www.w3.org/2000/svg">
<g filter="url(#filter0_d_3692_2453)">
<rect x="100" y="100" width="824" height="824" rx="184" fill="#20123A"/>
</g>
<path d="M350.497 560.871L372.853 622.854L406.448 668.18L485.322 683.224L523.055 686.434L587.472 670.34L615.222 643.74L350.497 560.871Z" fill="#09204D"/>
<path d="M684.294 469.442L676.398 443.242L653.818 400.634L627.988 373.411L600.569 353.835L576.761 344.49L548.193 334.328L501.158 331.335L471.498 336.688L447.297 344.126L404.356 369.258L377.518 399.198L352.77 439.39L343.035 473.593L341.216 525.488L350.496 560.871L370.966 601.155L385.404 620.611L405.367 638.913L430.3 655.78L461.045 669.152L512.498 675.191L539.364 675.94L579.126 664.74L614.667 645.234L637.533 625.728L655.263 604.574L680.331 555.505L685.865 521.938L684.294 469.442Z" fill="#09204D"/>
<path d="M502.018 354.916L480.954 375.815L515.315 389.744L540.875 358.046L502.018 354.916Z" fill="#0E56D7"/>
<path d="M515.315 389.744L581.839 387.725L540.876 358.046L515.315 389.744Z" fill="#1053D1"/>
<path d="M576.896 357.823L540.875 358.046L581.838 387.725L619.718 385.252L576.896 357.823Z" fill="#0B4FBF"/>
<path d="M619.718 385.252L598.184 355.558L627.988 373.411L619.718 385.252Z" fill="#0B48B0"/>
<path d="M648.235 403.436L619.718 385.252L627.989 373.411L648.235 403.436Z" fill="#0C45A7"/>
<path d="M619.718 385.252L614.947 405.595L641.029 416.019L619.718 385.252Z" fill="#0F46AF"/>
<path d="M619.718 385.252L648.235 403.436L641.03 416.019L619.718 385.252Z" fill="#0C47AD"/>
<path d="M581.838 387.725L619.718 385.252L614.947 405.595L581.838 387.725Z" fill="#0E4FC3"/>
<path d="M581.839 387.725L551.91 414.816L590.429 433.679L581.839 387.725Z" fill="#174DCA"/>
<path d="M515.315 389.744L581.839 387.725L551.91 414.816L515.315 389.744Z" fill="#1650D4"/>
<path d="M614.947 405.595L633.062 440.724L641.029 416.019L614.947 405.595Z" fill="#1246B2"/>
<path d="M633.062 440.723L641.03 416.019L660.008 461.156L633.062 440.723Z" fill="#133EA1"/>
<path d="M641.029 416.019L669.954 437.202L660.008 461.156L641.029 416.019Z" fill="#103D98"/>
<path d="M648.235 403.436L653.818 400.635L669.954 437.202L648.235 403.436Z" fill="#0B3785"/>
<path d="M669.954 437.202L676.397 443.242L653.818 400.635L669.954 437.202Z" fill="#0B3685"/>
<path d="M669.954 437.2L648.235 403.436L641.029 416.023L669.954 437.2ZM627.988 373.413L648.235 403.436L653.818 400.632L627.988 373.413Z" fill="#0C3B91"/>
<path d="M682.843 489.913L676.397 443.242L684.294 469.442L682.738 489.913H682.843Z" fill="#0B3279"/>
<path d="M669.954 437.202L682.843 489.913L676.397 443.242L669.954 437.202Z" fill="#0F388D"/>
<path d="M660.008 461.156L682.843 489.913L669.954 437.202L660.008 461.156Z" fill="#0D3481"/>
<path d="M682.738 489.913L684.294 469.442L685.865 521.939L682.843 489.913H682.738Z" fill="#0B2E71"/>
<path d="M679.016 531.401L685.865 521.939L682.843 489.914L679.016 531.401Z" fill="#0E2F77"/>
<path d="M680.331 555.506L674.854 558.144L685.865 521.939L680.331 555.506Z" fill="#0E2969"/>
<path d="M674.854 558.144L685.865 521.939L679.015 531.401L674.854 558.144Z" fill="#0C2A69"/>
<path d="M679.015 531.401L682.843 489.914L671.111 503.752L679.015 531.401Z" fill="#123180"/>
<path d="M674.855 558.144L679.016 531.4L656.389 569.426L674.855 558.144Z" fill="#112B70"/>
<path d="M660.008 461.156L682.843 489.914L671.112 503.752L660.008 461.156Z" fill="#12378C"/>
<path d="M679.015 531.401L671.111 503.752L659.182 537.807L679.015 531.401Z" fill="#122E7B"/>
<path d="M655.264 604.575L674.855 558.144L656.526 591.991L655.264 604.575Z" fill="#11296C"/>
<path d="M656.526 591.991L674.855 558.144L656.389 569.426L656.526 591.991Z" fill="#142A72"/>
<path d="M674.855 558.144L655.264 604.58L680.328 555.505L674.855 558.144ZM637.533 625.728L655.264 604.58L656.526 591.997L637.533 625.728ZM614.667 645.235L637.533 625.728L613.368 636.842L614.667 645.235Z" fill="#112768"/>
<path d="M481.212 658.822L458.11 664.473L458.814 648.35L481.212 658.822Z" fill="#1C226A"/>
<path d="M352.771 439.39L359.139 437.03L343.036 473.593L352.771 439.39Z" fill="#182B7A"/>
<path d="M343.036 473.593L355.228 471.325L359.139 437.03L343.036 473.593Z" fill="#1F308D"/>
<path d="M343.764 517.505L343.036 473.593L355.228 471.325L343.764 517.505Z" fill="#1E2B7F"/>
<path d="M614.948 405.594L590.429 433.679L633.062 440.723L614.948 405.594ZM400.994 376.788L432.297 355.378L404.366 369.258L400.994 376.788Z" fill="#1346B5"/>
<path d="M404.355 369.258L447.297 344.126L432.286 355.376L404.355 369.258Z" fill="#1244AC"/>
<path d="M432.286 355.376L471.498 336.688L447.297 344.126L432.286 355.376Z" fill="#0E4AB6"/>
<path d="M581.842 387.725L590.432 433.678L614.951 405.594L581.842 387.725ZM456.171 353.2L492.699 338.592L471.501 336.688L456.171 353.2Z" fill="#0E4BBA"/>
<path d="M501.158 331.335L471.498 336.688L492.696 338.592L501.158 331.335Z" fill="#0A4EBC"/>
<path d="M529.209 338.229L492.695 338.592L501.157 331.335" fill="#0C54CC"/>
<path d="M598.184 355.558L576.897 357.823L619.717 385.252L598.184 355.558ZM529.209 338.229L576.755 344.49L548.188 334.328L529.209 338.229Z" fill="#0B4BB4"/>
<path d="M598.184 355.558L576.761 344.49L600.569 353.835L598.184 355.558Z" fill="#0C3889"/>
<path d="M350.496 560.874L364.553 572.442L343.765 517.514L350.496 560.874ZM544.508 670.118L556.865 641.03L511.83 653.129L544.508 670.118ZM556.865 641.03L594.517 651.476L596.802 622.364L556.865 641.03Z" fill="#202575"/>
<path d="M613.367 636.842L596.797 622.357L636.833 595.752L613.367 636.842Z" fill="#1B2773"/>
<path d="M636.835 595.752L613.368 636.842L637.533 625.728L656.526 591.991L636.835 595.752Z" fill="#15276D"/>
<path d="M600.569 353.835L598.184 355.558L627.989 373.411L600.569 353.835ZM576.897 357.822L598.184 355.557L576.761 344.482L576.897 357.822Z" fill="#0C409D"/>
<path d="M501.158 331.335L529.212 338.229L548.197 334.328L501.158 331.335ZM576.758 344.49L529.212 338.229L576.905 357.823L576.758 344.49Z" fill="#0B4CB7"/>
<path d="M529.209 338.229L540.876 358.046L576.897 357.823L529.209 338.229Z" fill="#0B55CE"/>
<path d="M529.209 338.229L540.876 358.046L502.019 354.918L529.209 338.229Z" fill="#0A52C5"/>
<path d="M492.695 338.593L502.018 354.918L529.209 338.229L492.695 338.593Z" fill="#0951C4"/>
<path d="M456.168 353.2L492.695 338.592L502.018 354.917L456.168 353.2Z" fill="#0B50C4"/>
<path d="M432.286 355.376L456.168 353.2L471.498 336.688L432.286 355.376ZM456.168 353.2L480.954 375.815L502.018 354.916L456.168 353.2Z" fill="#0F4DBF"/>
<path d="M456.168 353.2L415.82 391.033L432.286 355.377L456.168 353.2Z" fill="#1546B6"/>
<path d="M415.82 391.033L441.567 395.315L456.168 353.2L415.82 391.033Z" fill="#1549BD"/>
<path d="M441.566 395.315L456.168 353.2L480.955 375.815L441.566 395.315Z" fill="#144BC3"/>
<path d="M377.518 399.198L379.086 414.417L400.989 376.788L377.518 399.198Z" fill="#173794"/>
<path d="M359.139 437.031L377.517 399.198L379.086 414.417L359.139 437.031Z" fill="#192F84"/>
<path d="M379.086 414.417L400.989 376.788L415.82 391.032L379.086 414.417Z" fill="#1A389B"/>
<path d="M377.76 447.04L379.086 414.417L359.139 437.031L377.76 447.04Z" fill="#1D3089"/>
<path d="M377.76 447.04L379.086 414.417L404.97 435.43L377.76 447.04Z" fill="#1E389F"/>
<path d="M404.97 435.43L415.82 391.033L379.086 414.417L404.97 435.43Z" fill="#1C40AF"/>
<path d="M404.97 435.43L415.819 391.033L441.566 395.315L404.97 435.43Z" fill="#1E41B7"/>
<path d="M355.228 471.325L359.139 437.03L377.76 447.04L355.228 471.325Z" fill="#192C7D"/>
<path d="M544.508 670.115L579.126 664.74L594.512 651.467L544.508 670.115ZM341.216 525.488L343.765 517.505L343.035 473.593L341.216 525.488ZM355.227 471.325L343.765 517.505L364.553 572.433L354.408 508.793L355.227 471.325Z" fill="#162467"/>
<path d="M364.552 572.44L381.702 574.844L369.693 546.81L364.552 572.44Z" fill="#1A236A"/>
<path d="M613.367 636.842L594.512 651.467L579.126 664.74L614.667 645.235L613.367 636.842ZM512.497 675.191L539.363 675.94L579.126 664.74L544.508 670.115L512.497 675.191ZM380.555 604.316L398.579 607.783L381.702 574.856L380.555 604.316Z" fill="#132668"/>
<path d="M458.814 648.35L428.297 624.861L415.613 637.056L458.105 664.473L458.814 648.35ZM350.496 560.874L370.966 601.158L364.553 572.442L350.496 560.874ZM341.216 525.491L350.496 560.874L343.765 517.508L341.216 525.491ZM511.829 653.123L458.82 648.353L481.218 658.826L458.105 664.473L430.296 655.78L461.041 669.152L512.493 675.191L544.504 670.115L511.829 653.123ZM381.702 574.847L364.553 572.442L380.555 604.313L381.702 574.847ZM354.408 508.796L364.553 572.436L369.693 546.806L354.408 508.796ZM398.579 607.777L380.555 604.31L370.966 601.155L385.404 620.612L405.367 638.914L430.3 655.78L415.613 637.056L398.579 607.777Z" fill="#1B2268"/>
<path d="M355.228 471.325L379.428 508.759L377.76 447.04L355.228 471.325Z" fill="#212A81"/>
<path d="M354.408 508.794L369.694 546.81L379.429 508.759L354.408 508.794Z" fill="#21267A"/>
<path d="M369.693 546.81L379.428 508.759L391.527 538.825L369.693 546.81Z" fill="#262781"/>
<path d="M381.702 574.844L428.102 603.596L391.527 538.825L381.702 574.844Z" fill="#272379"/>
<path d="M370.966 601.155L380.555 604.31L364.553 572.438L370.966 601.155ZM473.459 617.692L458.814 648.344L511.823 653.113L473.459 617.692ZM381.702 574.838L398.579 607.765L415.613 637.044L428.296 624.849L428.102 603.587L381.702 574.838Z" fill="#1E226D"/>
<path d="M596.796 622.355L594.512 651.467L613.367 636.842L596.796 622.355ZM515.681 618.178L511.829 653.12L556.864 641.021L555.26 601.744L515.681 618.178Z" fill="#222475"/>
<path d="M354.408 508.796L379.427 508.759L355.228 471.325L354.408 508.796ZM555.264 601.741L556.867 641.018L596.798 622.352L555.264 601.741Z" fill="#23277D"/>
<path d="M555.262 601.741L580.961 578.47L596.797 622.357L555.262 601.741Z" fill="#1E2776"/>
<path d="M596.798 622.357L616.223 563.524L580.961 578.47L596.798 622.357Z" fill="#222B86"/>
<path d="M636.833 595.752L596.797 622.357L616.223 563.524L636.833 595.752Z" fill="#192974"/>
<path d="M656.389 569.426L616.223 563.523L636.835 595.752L656.526 591.991L656.389 569.426Z" fill="#172A75"/>
<path d="M659.182 537.807L616.223 563.523L656.389 569.426L679.015 531.4L659.182 537.807Z" fill="#172D7D"/>
<path d="M359.139 437.031L377.518 399.198L352.771 439.39L359.139 437.031ZM643.159 483.857L659.182 537.808L671.111 503.752L643.159 483.857Z" fill="#18338A"/>
<path d="M671.111 503.752L660.008 461.156L643.159 483.855L671.111 503.752Z" fill="#153791"/>
<path d="M616.223 563.525L659.182 537.807L617.546 519.273L616.223 563.525Z" fill="#1B318B"/>
<path d="M616.223 563.525L577.291 524.186L580.961 578.47L616.223 563.525Z" fill="#242D8D"/>
<path d="M555.262 601.741L525.372 575.276L580.961 578.47L555.262 601.741Z" fill="#2A2B8F"/>
<path d="M381.702 574.844L391.527 538.826L369.693 546.808L381.702 574.844ZM525.372 575.277L515.681 618.178L555.263 601.741L525.372 575.277Z" fill="#27267F"/>
<path d="M463.495 584.052L434.721 569.426L428.102 603.595L473.459 617.698L515.681 618.178L463.495 584.052Z" fill="#2D2381"/>
<path d="M515.68 618.178L525.372 575.276L463.495 584.052L515.68 618.178Z" fill="#2F2485"/>
<path d="M379.428 508.759L391.84 469.138L377.76 447.04L379.428 508.759Z" fill="#233196"/>
<path d="M404.97 435.43L459.445 419.551L430.671 478.331L404.97 435.43Z" fill="#293CB7"/>
<path d="M616.223 563.525L577.291 524.186L617.546 519.273L616.223 563.525Z" fill="#25339C"/>
<path d="M659.182 537.808L643.159 483.855L617.546 519.274L659.182 537.808Z" fill="#19348F"/>
<path d="M580.961 578.47L536.438 535.423L577.291 524.186L580.961 578.47Z" fill="#2A309A"/>
<path d="M525.372 575.277L580.961 578.471L536.438 535.423L525.372 575.277Z" fill="#302B96"/>
<path d="M525.372 575.277L494.922 550.484L536.438 535.423L525.372 575.277Z" fill="#3630A7"/>
<path d="M400.989 376.788L404.356 369.258L377.518 399.198L400.989 376.788ZM633.062 440.723L643.159 483.857L660.008 461.156L633.062 440.723Z" fill="#173DA2"/>
<path d="M404.97 435.43L430.671 478.331L391.84 469.138L404.97 435.43Z" fill="#2A36A8"/>
<path d="M391.84 469.138L430.671 478.331L404.412 519.691L391.84 469.138Z" fill="#312E9F"/>
<path d="M459.445 419.551L480.955 375.815L441.566 395.314L459.445 419.551Z" fill="#184DCD"/>
<path d="M379.428 508.759L404.412 519.691L391.527 538.825L379.428 508.759Z" fill="#272986"/>
<path d="M404.412 519.691L391.527 538.826L428.102 603.596L434.721 569.426L404.412 519.691Z" fill="#2C2584"/>
<path d="M434.721 569.426L438.773 509.253L404.412 519.691L434.721 569.426Z" fill="#32268B"/>
<path d="M434.721 569.426L494.922 550.483L438.773 509.253L434.721 569.426Z" fill="#372999"/>
<path d="M494.922 550.483L489.056 503.96L438.773 509.253L494.922 550.483Z" fill="#392DA5"/>
<path d="M489.056 503.96L531.517 488.081L536.439 535.423L489.056 503.96Z" fill="#3338BC"/>
<path d="M463.495 584.052L525.372 575.276L494.922 550.483L463.495 584.052Z" fill="#362896"/>
<path d="M463.495 584.052L434.721 569.426L494.922 550.483L463.495 584.052Z" fill="#35268F"/>
<path d="M459.445 419.551L496.319 423.452L480.955 375.815L459.445 419.551Z" fill="#2648D3"/>
<path d="M515.315 389.743L480.955 375.815L496.319 423.452L515.315 389.743Z" fill="#1057DC"/>
<path d="M515.315 389.744L551.91 414.816L496.319 423.452L515.315 389.744Z" fill="#1653DA"/>
<path d="M496.319 423.452L550.848 452.368L531.517 488.081L496.319 423.452Z" fill="#2B46D5"/>
<path d="M550.848 452.367L551.91 414.815L496.319 423.452L550.848 452.367Z" fill="#244AD7"/>
<path d="M550.848 452.367L551.91 414.815L590.429 433.679L550.848 452.367Z" fill="#2547CF"/>
<path d="M496.319 423.452L531.517 488.081L469.781 457.159L496.319 423.452Z" fill="#333CC5"/>
<path d="M489.056 503.96L531.517 488.081L469.781 457.159L489.056 503.96Z" fill="#3833B6"/>
<path d="M531.517 488.081L585.967 478.137L550.848 452.368L531.517 488.081Z" fill="#2A41C6"/>
<path d="M590.429 433.679L585.967 478.137L550.848 452.368L590.429 433.679Z" fill="#2045C1"/>
<path d="M590.429 433.679L616.13 468.582L585.967 478.137L590.429 433.679Z" fill="#1B43B7"/>
<path d="M633.062 440.723L590.429 433.679L616.13 468.582L633.062 440.723Z" fill="#1742AF"/>
<path d="M415.82 391.032L432.287 355.376L400.983 376.787L415.82 391.032ZM633.062 440.723L616.13 468.589L643.159 483.864L633.062 440.723Z" fill="#1740A9"/>
<path d="M617.546 519.273L643.158 483.855L616.13 468.582L617.546 519.273Z" fill="#1B3CA4"/>
<path d="M617.546 519.273L616.13 468.582L585.967 478.136L617.546 519.273Z" fill="#1F3DAD"/>
<path d="M404.971 435.43L459.445 419.551L441.568 395.314L404.971 435.43ZM531.513 488.081L577.286 524.186L585.962 478.136L531.513 488.081Z" fill="#2543C3"/>
<path d="M536.438 535.423L577.291 524.186L531.517 488.081L536.438 535.423Z" fill="#2E37B2"/>
<path d="M459.445 419.551L469.781 457.159L496.319 423.452L459.445 419.551Z" fill="#2D40C7"/>
<path d="M459.445 419.551L430.671 478.331L469.781 457.159L459.445 419.551Z" fill="#3537B8"/>
<path d="M469.781 457.159L438.773 509.254L489.056 503.96L469.781 457.159Z" fill="#3931B0"/>
<path d="M489.056 503.96L494.922 550.484L536.439 535.423L489.056 503.96ZM438.773 509.254L469.781 457.161L430.671 478.335L438.773 509.254Z" fill="#3735B8"/>
<path d="M404.412 519.692L430.671 478.332L438.773 509.254L404.412 519.692Z" fill="#342892"/>
<path d="M430.3 655.78L458.11 664.473L415.613 637.056L430.3 655.78ZM428.296 624.861L458.814 648.35L473.459 617.698L428.102 603.596L428.296 624.861ZM511.829 653.12L515.681 618.178L473.459 617.698L511.829 653.12ZM556.864 641.021L544.506 670.109L594.51 651.461L556.864 641.021Z" fill="#232372"/>
<path d="M379.428 508.759L391.84 469.138L404.412 519.691L379.428 508.759Z" fill="#2A2F96"/>
<path d="M391.84 469.138L404.971 435.43L377.76 447.04L391.84 469.138ZM585.967 478.136L577.291 524.186L617.546 519.273L585.967 478.136Z" fill="#2636A5"/>
<path d="M686.639 521.988V521.906L685.068 469.419V469.36C685.068 469.341 685.068 469.323 685.059 469.305C685.05 469.288 685.05 469.258 685.044 469.236V469.22L677.152 443.028V443.012L677.136 442.969C677.136 442.95 677.121 442.931 677.112 442.913L677.102 442.89L654.521 400.282L654.508 400.261L654.479 400.217L654.454 400.18L654.438 400.158L654.415 400.131L654.398 400.111L628.554 372.878L628.542 372.868L628.524 372.85C628.51 372.836 628.492 372.824 628.476 372.811L628.442 372.781L601.029 353.212H601.016L600.991 353.194C600.972 353.183 600.953 353.174 600.933 353.165C600.915 353.154 600.895 353.144 600.874 353.135H600.863L577.071 343.798H577.034L548.473 333.639H548.446L548.391 333.624L548.341 333.614H548.262L501.226 330.621H501.144C501.119 330.619 501.093 330.619 501.068 330.621H501.038L471.378 335.973H471.315L471.262 335.988L447.087 343.42L447.034 343.44C447.014 343.449 446.991 343.458 446.972 343.468L446.941 343.483H446.931L403.99 368.616H403.981L403.945 368.639L403.911 368.661L403.883 368.687L403.857 368.707L403.827 368.74L403.803 368.76L403.793 368.772L376.965 398.699L376.955 398.714L376.936 398.736L376.918 398.761L376.895 398.795L376.883 398.81L376.874 398.825L352.109 438.984L352.097 439.008L352.074 439.049L352.053 439.098C352.053 439.117 352.038 439.135 352.032 439.154L352.023 439.178L342.288 473.382V473.494C342.285 473.513 342.282 473.533 342.281 473.552V473.567L340.462 525.462V525.591C340.464 525.612 340.468 525.633 340.474 525.654V525.707L349.748 561.068V561.083L349.757 561.109C349.765 561.134 349.775 561.159 349.786 561.183C349.786 561.195 349.795 561.208 349.801 561.22L370.266 601.492L370.28 601.511C370.292 601.534 370.306 601.556 370.321 601.577L370.331 601.597L384.76 621.041L384.778 621.064C384.791 621.08 384.808 621.093 384.821 621.108C384.831 621.12 384.842 621.132 384.853 621.143L404.816 639.453C404.833 639.467 404.849 639.478 404.867 639.491L404.906 639.524L429.838 656.389L429.856 656.398L429.915 656.433L429.947 656.448H429.958L460.703 669.82L460.734 669.83C460.756 669.839 460.779 669.846 460.802 669.852L460.837 669.862L460.892 669.873H460.923L512.375 675.913H512.445L539.311 676.661H539.339C539.388 676.66 539.438 676.655 539.486 676.646L539.519 676.635H539.541L579.303 665.436L579.327 665.427L579.361 665.418L579.392 665.403L579.414 665.393L579.461 665.372L579.478 665.363L614.998 645.873H615.008L615.023 645.864C615.043 645.851 615.062 645.838 615.08 645.823L615.128 645.79L637.994 626.285L638.017 626.26L638.047 626.233L638.076 626.201H638.085L655.813 605.052L655.82 605.041C655.843 605.012 655.864 604.981 655.882 604.948L655.904 604.916V604.907L681.024 555.854C681.024 555.844 681.033 555.83 681.038 555.819L681.064 555.761V555.733C681.07 555.712 681.076 555.691 681.08 555.67C681.08 555.656 681.089 555.643 681.092 555.628L686.624 522.07V522.013L686.639 521.988ZM405.851 638.305L400.683 633.563L412.314 642.675L405.851 638.305ZM481.316 658.015L463.144 649.518L506.156 653.387L481.316 658.015ZM487.942 503.299L440.232 508.319L469.654 458.89L487.942 503.299ZM471.29 458.783L529.58 487.978L489.488 502.971L471.29 458.783ZM488.375 504.811L493.921 548.789L440.843 509.808L488.375 504.811ZM493.226 550.203L435.573 568.346L439.452 510.716L493.226 550.203ZM490.035 505.545L534.723 535.224L495.567 549.428L490.035 505.545ZM490.746 504.155L530.844 489.161L535.491 533.864L490.746 504.155ZM552.353 452.512L589.52 434.966L585.329 476.71L552.353 452.512ZM584.056 477.697L532.967 487.029L551.108 453.528L584.056 477.697ZM531.516 486.456L498.236 425.348L549.8 452.687L531.516 486.456ZM529.651 486.281L470.98 456.898L496.201 424.858L529.651 486.281ZM439.058 507.262L431.582 478.723L467.677 459.184L439.058 507.262ZM434.111 566.928L405.596 520.139L437.921 510.32L434.111 566.928ZM492.335 552.107L463.327 583.092L436.768 569.594L492.335 552.107ZM535.287 536.662L524.941 573.921L496.474 550.739L535.287 536.662ZM532.481 489.828L575.606 523.844L537.116 534.429L532.481 489.828ZM533.347 488.533L584.994 479.099L576.765 522.779L533.347 488.533ZM586.859 477.038L590.996 435.765L614.856 468.17L586.859 477.038ZM615.382 469.629L616.702 516.896L587.257 478.541L615.382 469.629ZM551.662 451.124L552.653 416.041L588.634 433.667L551.662 451.124ZM550.107 451.093L498.744 423.857L551.107 415.722L550.107 451.093ZM470.122 455.467L460.496 420.44L494.839 424.072L470.122 455.467ZM468.868 456.769L432.436 476.492L459.24 421.735L468.868 456.769ZM437.831 508.727L406.19 518.338L430.371 480.254L437.831 508.727ZM432.1 566.615L392.595 538.629L404.379 521.128L432.1 566.615ZM435.29 570.583L461.838 584.077L429.181 602.115L435.29 570.583ZM494.995 551.535L523.505 574.754L465.567 582.97L494.995 551.535ZM536.839 536.882L578.921 577.57L526.379 574.55L536.839 536.882ZM537.955 535.802L576.579 525.179L580.049 576.502L537.955 535.802ZM586.41 479.981L616.102 518.667L578.252 523.287L586.41 479.981ZM616.945 469.926L642.022 484.101L618.258 516.959L616.945 469.926ZM617.21 468.292L632.739 442.748L642 482.307L617.21 468.292ZM616.068 467.181L592.186 434.748L631.802 441.294L616.068 467.181ZM553.28 414.615L581.335 389.226L589.388 432.294L553.28 414.615ZM497.781 422.441L515.576 390.863L549.858 414.351L497.781 422.441ZM460.632 418.897L480.805 377.88L495.213 422.554L460.632 418.897ZM430.602 476.71L406.153 435.898L457.98 420.793L430.602 476.71ZM404.729 517.744L392.903 470.187L429.432 478.835L404.729 517.744ZM391.702 537.177L380.858 510.228L403.248 520.025L391.702 537.177ZM433.863 569.769L427.74 601.368L393.911 541.458L433.863 569.769ZM463.024 585.198L472.301 616.526L430.072 603.397L463.024 585.198ZM524.366 576.203L515.169 616.916L465.645 584.53L524.366 576.203ZM579.067 579.138L555.257 600.696L527.562 576.175L579.067 579.138ZM578.208 526.217L614.866 563.258L581.663 577.331L578.208 526.217ZM578.956 524.765L616.742 520.152L615.5 561.69L578.956 524.765ZM642.863 485.59L657.957 536.414L618.735 518.955L642.863 485.59ZM634.31 442.643L658.927 461.31L643.534 482.048L634.31 442.643ZM591.932 433.141L614.782 406.966L631.665 439.706L591.932 433.141ZM590.899 431.96L582.902 389.181L613.723 405.816L590.899 431.96ZM551.844 413.829L517.714 390.447L579.755 388.564L551.844 413.829ZM496.514 421.524L482.205 377.159L514.206 390.131L496.514 421.524ZM459.305 418.063L442.735 395.6L479.241 377.527L459.305 418.063ZM458.154 419.119L407.4 433.914L441.502 396.533L458.154 419.119ZM429.054 477.147L392.878 468.583L405.109 437.184L429.054 477.147ZM403.27 518.344L380.372 508.324L391.741 472.009L403.27 518.344ZM390.503 538.369L370.805 545.571L379.586 511.246L390.503 538.369ZM425.93 601.337L382.599 574.485L391.774 540.849L425.93 601.337ZM470.051 617.447L429.06 623.944L428.883 604.644L470.051 617.447ZM464.834 585.849L513.034 617.372L474.052 616.929L464.834 585.849ZM525.834 576.718L553.813 601.49L516.769 616.885L525.834 576.718ZM580.614 579.819L595.401 620.796L556.628 601.554L580.614 579.819ZM581.933 578.891L614.94 564.901L596.755 619.977L581.933 578.891ZM618.279 520.448L657.493 537.904L617.035 562.119L618.279 520.448ZM644.538 485.79L670.177 504.039L659.234 535.277L644.538 485.79ZM644.243 483.678L659.653 462.916L669.809 501.874L644.243 483.678ZM633.96 440.433L641.115 418.247L658.158 458.782L633.96 440.433ZM632.885 438.701L616.579 407.08L640.056 416.464L632.885 438.701ZM584.581 388.323L618.722 386.094L614.423 404.43L584.581 388.323ZM516.979 388.914L541.017 359.104L579.541 387.011L516.979 388.914ZM515.559 388.199L503.182 355.784L539.358 358.698L515.559 388.199ZM513.954 388.347L482.336 375.53L501.717 356.301L513.954 388.347ZM442.922 393.772L456.517 354.56L479.592 375.616L442.922 393.772ZM406.451 432.651L416.406 391.908L440.031 395.839L406.451 432.651ZM391.676 467.421L378.91 447.387L403.579 436.862L391.676 467.421ZM390.994 469.243L380.083 504.074L378.616 449.818L390.994 469.243ZM378.43 509.528L369.531 544.31L355.56 509.562L378.43 509.528ZM355.204 508.013L355.942 473.866L377.996 507.975L355.204 508.013ZM390.383 540.064L381.538 572.483L370.73 547.25L390.383 540.064ZM425.874 603.123L399.019 606.927L383.668 576.969L425.874 603.123ZM427.333 604.483L427.507 623.506L400.929 608.223L427.333 604.483ZM472.121 618.689L458.526 647.144L430.199 625.344L472.121 618.689ZM473.705 618.977L509.627 652.136L459.997 647.673L473.705 618.977ZM475.467 618.49L514.814 618.933L511.225 651.496L475.467 618.49ZM554.525 602.886L556.027 639.673L517.463 618.279L554.525 602.886ZM556.087 603.02L595.004 622.335L557.587 639.825L556.087 603.02ZM616.443 565.319L635.763 595.528L598.234 620.466L616.443 565.319ZM617.788 564.539L654.986 570.003L636.882 594.392L617.788 564.539ZM618.481 563.073L658.268 539.256L655.68 568.539L618.481 563.073ZM671.03 506.317L678.056 530.894L660.426 536.589L671.03 506.317ZM661.682 464.521L681.833 489.898L671.481 502.109L661.682 464.521ZM642.826 418.305L668.997 437.471L660.003 459.139L642.826 418.305ZM615.851 405.127L620.07 387.136L638.918 414.346L615.851 405.127ZM582.481 386.91L577.939 359.423L617.301 384.636L582.481 386.91ZM580.753 385.993L543.249 358.807L576.238 358.603L580.753 385.993ZM504.439 354.339L528.93 339.309L539.438 357.159L504.439 354.339ZM480.921 374.748L458.253 354.054L500.202 355.632L480.921 374.748ZM441.035 394.448L417.5 390.525L454.407 355.92L441.035 394.448ZM404.506 434.054L380.412 414.494L414.606 392.725L404.506 434.054ZM403.483 435.222L378.587 445.85L379.8 416.003L403.483 435.222ZM378.576 506.011L356.208 471.411L377.027 448.967L378.576 506.011ZM368.886 546.884L364.639 568.051L356.261 515.485L368.886 546.884ZM369.964 549.415L380.447 573.884L365.478 571.786L369.964 549.415ZM397.162 606.716L381.363 603.676L382.368 577.836L397.162 606.716ZM427.014 625.018L415.792 635.811L400.712 609.896L427.014 625.018ZM428.353 625.883L455.312 646.633L417.149 636.656L428.353 625.883ZM516.325 619.423L554.82 640.77L512.738 652.076L516.325 619.423ZM595.912 623.624L593.805 650.468L559.102 640.835L595.912 623.624ZM634.528 598.212L613.164 635.633L598.072 622.447L634.528 598.212ZM655.625 571.757L655.743 591.352L638.645 594.617L655.625 571.757ZM659.907 538.386L677.292 532.775L657.458 566.107L659.907 538.386ZM671.968 503.937L681.839 492.294L678.618 527.198L671.968 503.937ZM660.894 461.032L669.753 439.69L681.236 486.652L660.894 461.032ZM642.048 415.802L648.273 404.932L667.039 434.104L642.048 415.802ZM640.967 414.565L622.552 387.987L647.194 403.699L640.967 414.565ZM579.175 358.361L597.818 356.371L616.678 382.377L579.175 358.361ZM541.319 357.268L531.048 339.824L573.026 357.072L541.319 357.268ZM502.296 353.837L494.027 339.355L526.419 339.033L502.296 353.837ZM500.651 354.091L459.852 352.562L492.356 339.569L500.651 354.091ZM418.196 387.74L432.805 356.109L453.992 354.176L418.196 387.74ZM415.57 389.717L402.216 376.89L430.401 357.608L415.57 389.717ZM414.569 390.909L381.366 412.047L401.165 378.033L414.569 390.909ZM377.033 445.77L360.369 436.811L378.221 416.573L377.033 445.77ZM376.508 447.247L356.269 469.062L359.783 438.258L376.508 447.247ZM353.639 508.421L345.082 515.423L354.297 478.298L353.639 508.421ZM353.853 510.25L362.588 565.05L344.688 517.759L353.853 510.25ZM380.899 575.515L379.896 601.266L365.91 573.413L380.899 575.515ZM398.085 608.471L412.291 632.891L383.055 605.574L398.085 608.471ZM458.011 648.943L457.392 663.088L420.108 639.032L458.011 648.943ZM459.541 649.546L478.884 658.593L458.927 663.475L459.541 649.546ZM511.073 654.047L511.674 673.888L483.553 659.174L511.073 654.047ZM555.517 642.183L544.111 669.04L513.945 653.352L555.517 642.183ZM557.304 641.951L591.991 651.575L545.923 668.758L557.304 641.951ZM597.44 623.959L612.138 636.805L595.426 649.777L597.44 623.959ZM637.322 596.446L654.274 593.211L617.142 631.801L637.322 596.446ZM657.275 588.959L657.158 569.859L672.787 560.309L657.275 588.959ZM658.648 567.131L677.62 535.249L674.141 557.67L658.648 567.131ZM682.841 498.28L685.056 521.722L680.043 528.647L682.841 498.28ZM671.324 439.556L675.659 443.621L679.996 475.02L671.324 439.556ZM649.35 403.742L653.43 401.695L665.223 428.421L649.35 403.742ZM620.823 385.034L627.983 374.783L645.508 400.771L620.823 385.034ZM619.711 383.913L601.037 358.173L626.877 373.646L619.711 383.913ZM577.666 356.961L577.551 345.77L595.531 355.059L577.666 356.961ZM576.108 356.658L535.012 339.774L575.99 345.169L576.108 356.658ZM494.817 337.795L501.36 332.184L523.055 337.518L494.817 337.795ZM459.085 351.197L471.807 337.493L489.398 339.074L459.085 351.197ZM455.798 352.453L436.533 354.21L468.164 339.133L455.798 352.453ZM402.819 374.593L404.949 369.826L422.63 361.039L402.819 374.593ZM379.611 411.963L378.327 399.495L397.566 381.135L379.611 411.963ZM378.275 414.159L362.328 432.238L377.022 401.99L378.275 414.159ZM354.517 470.667L344.329 472.561L357.776 442.029L354.517 470.667ZM354.179 472.307L344.434 511.542L343.815 474.234L354.179 472.307ZM362.79 569.985L351.216 560.46L345.673 524.752L362.79 569.985ZM379.019 602.989L371.626 600.554L366.681 578.415L379.019 602.989ZM410.618 633.453L386.058 620.085L382.116 606.832L410.618 633.453ZM415.098 637.659L425.729 651.215L393.222 625.752L415.098 637.659ZM419.076 640.213L452.889 662.028L430.763 655.112L419.076 640.213ZM481.11 659.645L507.393 673.393L461.711 664.386L481.11 659.645ZM512.644 654.418L542.061 669.716L513.246 674.286L512.644 654.418ZM590.727 653.704L578.785 664.006L551.912 668.179L590.727 653.704ZM612.801 638.263L613.794 644.69L598.358 649.468L612.801 638.263ZM652.855 596.919L636.976 625.121L616.774 634.413L652.855 596.919ZM657.285 592.217L667.916 572.579L656.547 599.516L657.285 592.217ZM679.757 531.698L683.772 526.153L677.317 547.371L679.757 531.698ZM683.618 489.852V489.805L683.56 489.393L683.961 484.136L684.368 497.748L683.618 489.852ZM682.55 482.112L678.534 453.023L683.507 469.53L682.55 482.112ZM670.602 436.743L663.271 420.13L673.53 439.486L670.602 436.743ZM648.498 402.439L633.858 380.734L652.535 400.419L648.498 402.439ZM599.593 355.501L600.572 354.794L611.826 362.829L599.593 355.501ZM598.116 354.653L590.506 350.721L598.962 354.04L598.116 354.653ZM533.877 338.061L548.137 335.13L569.596 342.764L533.877 338.061ZM529.224 337.434L509.806 332.661L542.366 334.729L529.224 337.434ZM492.439 337.789L477.292 336.428L498.484 332.604L492.439 337.789ZM438.987 351.321L447.653 344.824L461.623 340.53L438.987 351.321ZM431.874 354.717L424.357 358.452L435.914 351.69L431.874 354.717ZM400.341 376.334L391.424 384.847L401.62 373.478L400.341 376.334ZM358.576 436.412L354.612 437.889L370.014 412.873L358.576 436.412ZM353.408 439.979L357.69 438.395L346.872 462.959L353.408 439.979ZM342.755 503.718L342.982 517.391L342.195 519.876L342.755 503.718ZM343.493 520.885L347.394 546.014L342.017 525.511L343.493 520.885ZM363.843 572.869L368.853 595.298L352.872 563.828L363.843 572.869ZM379.917 604.92L383.394 616.613L373.056 602.661L379.917 604.92ZM457.595 665.127L459.046 667.441L443.855 660.838L457.595 665.127ZM461.497 668.426L459.714 665.582L492.777 672.096L461.497 668.426ZM542.488 671.219L539.021 675.16L520.871 674.655L542.488 671.219ZM544.896 670.838L566.532 667.479L541.68 674.478L544.896 670.838ZM594.888 652.16L607.576 648.235L585.202 660.516L594.888 652.16ZM615.213 643.744L614.217 637.304L632.758 628.777L615.213 643.744ZM655.376 595.608L654.508 604.26L642.314 618.807L655.376 595.608ZM675.457 558.714L678.59 557.205L664.25 585.278L675.457 558.714ZM679.63 554.983L676.113 556.677L683.182 533.431L679.63 554.983Z" fill="url(#paint0_radial_3692_2453)"/>
<path d="M686.639 521.988V521.906L685.068 469.419V469.36C685.068 469.341 685.068 469.323 685.059 469.305C685.05 469.288 685.05 469.258 685.044 469.236V469.22L677.152 443.028V443.012L677.136 442.969C677.136 442.95 677.121 442.931 677.112 442.913L677.102 442.89L654.521 400.282L654.508 400.261L654.479 400.217L654.454 400.18L654.438 400.158L654.415 400.131L654.398 400.111L628.554 372.878L628.542 372.868L628.524 372.85C628.51 372.836 628.492 372.824 628.476 372.811L628.442 372.781L601.029 353.212H601.016L600.991 353.194C600.972 353.183 600.953 353.174 600.933 353.165C600.915 353.154 600.895 353.144 600.874 353.135H600.863L577.071 343.798H577.034L548.473 333.639H548.446L548.391 333.624L548.341 333.614H548.262L501.226 330.621H501.144C501.119 330.619 501.093 330.619 501.068 330.621H501.038L471.378 335.973H471.315L471.262 335.988L447.087 343.42L447.034 343.44C447.014 343.449 446.991 343.458 446.972 343.468L446.941 343.483H446.931L403.99 368.616H403.981L403.945 368.639L403.911 368.661L403.883 368.687L403.857 368.707L403.827 368.74L403.803 368.76L403.793 368.772L376.965 398.699L376.955 398.714L376.936 398.736L376.918 398.761L376.895 398.795L376.883 398.81L376.874 398.825L352.109 438.984L352.097 439.008L352.074 439.049L352.053 439.098C352.053 439.117 352.038 439.135 352.032 439.154L352.023 439.178L342.288 473.382V473.494C342.285 473.513 342.282 473.533 342.281 473.552V473.567L340.462 525.462V525.591C340.464 525.612 340.468 525.633 340.474 525.654V525.707L349.748 561.068V561.083L349.757 561.109C349.765 561.134 349.775 561.159 349.786 561.183C349.786 561.195 349.795 561.208 349.801 561.22L370.266 601.492L370.28 601.511C370.292 601.534 370.306 601.556 370.321 601.577L370.331 601.597L384.76 621.041L384.778 621.064C384.791 621.08 384.808 621.093 384.821 621.108C384.831 621.12 384.842 621.132 384.853 621.143L404.816 639.453C404.833 639.467 404.849 639.478 404.867 639.491L404.906 639.524L429.838 656.389L429.856 656.398L429.915 656.433L429.947 656.448H429.958L460.703 669.82L460.734 669.83C460.756 669.839 460.779 669.846 460.802 669.852L460.837 669.862L460.892 669.873H460.923L512.375 675.913H512.445L539.311 676.661H539.339C539.388 676.66 539.438 676.655 539.486 676.646L539.519 676.635H539.541L579.303 665.436L579.327 665.427L579.361 665.418L579.392 665.403L579.414 665.393L579.461 665.372L579.478 665.363L614.998 645.873H615.008L615.023 645.864C615.043 645.851 615.062 645.838 615.08 645.823L615.128 645.79L637.994 626.285L638.017 626.26L638.047 626.233L638.076 626.201H638.085L655.813 605.052L655.82 605.041C655.843 605.012 655.864 604.981 655.882 604.948L655.904 604.916V604.907L681.024 555.854C681.024 555.844 681.033 555.83 681.038 555.819L681.064 555.761V555.733C681.07 555.712 681.076 555.691 681.08 555.67C681.08 555.656 681.089 555.643 681.092 555.628L686.624 522.07V522.013L686.639 521.988ZM405.851 638.305L400.683 633.563L412.314 642.675L405.851 638.305ZM481.316 658.015L463.144 649.518L506.156 653.387L481.316 658.015ZM487.942 503.299L440.232 508.319L469.654 458.89L487.942 503.299ZM471.29 458.783L529.58 487.978L489.488 502.971L471.29 458.783ZM488.375 504.811L493.921 548.789L440.843 509.808L488.375 504.811ZM493.226 550.203L435.573 568.346L439.452 510.716L493.226 550.203ZM490.035 505.545L534.723 535.224L495.567 549.428L490.035 505.545ZM490.746 504.155L530.844 489.161L535.491 533.864L490.746 504.155ZM552.353 452.512L589.52 434.966L585.329 476.71L552.353 452.512ZM584.056 477.697L532.967 487.029L551.108 453.528L584.056 477.697ZM531.516 486.456L498.236 425.348L549.8 452.687L531.516 486.456ZM529.651 486.281L470.98 456.898L496.201 424.858L529.651 486.281ZM439.058 507.262L431.582 478.723L467.677 459.184L439.058 507.262ZM434.111 566.928L405.596 520.139L437.921 510.32L434.111 566.928ZM492.335 552.107L463.327 583.092L436.768 569.594L492.335 552.107ZM535.287 536.662L524.941 573.921L496.474 550.739L535.287 536.662ZM532.481 489.828L575.606 523.844L537.116 534.429L532.481 489.828ZM533.347 488.533L584.994 479.099L576.765 522.779L533.347 488.533ZM586.859 477.038L590.996 435.765L614.856 468.17L586.859 477.038ZM615.382 469.629L616.702 516.896L587.257 478.541L615.382 469.629ZM551.662 451.124L552.653 416.041L588.634 433.667L551.662 451.124ZM550.107 451.093L498.744 423.857L551.107 415.722L550.107 451.093ZM470.122 455.467L460.496 420.44L494.839 424.072L470.122 455.467ZM468.868 456.769L432.436 476.492L459.24 421.735L468.868 456.769ZM437.831 508.727L406.19 518.338L430.371 480.254L437.831 508.727ZM432.1 566.615L392.595 538.629L404.379 521.128L432.1 566.615ZM435.29 570.583L461.838 584.077L429.181 602.115L435.29 570.583ZM494.995 551.535L523.505 574.754L465.567 582.97L494.995 551.535ZM536.839 536.882L578.921 577.57L526.379 574.55L536.839 536.882ZM537.955 535.802L576.579 525.179L580.049 576.502L537.955 535.802ZM586.41 479.981L616.102 518.667L578.252 523.287L586.41 479.981ZM616.945 469.926L642.022 484.101L618.258 516.959L616.945 469.926ZM617.21 468.292L632.739 442.748L642 482.307L617.21 468.292ZM616.068 467.181L592.186 434.748L631.802 441.294L616.068 467.181ZM553.28 414.615L581.335 389.226L589.388 432.294L553.28 414.615ZM497.781 422.441L515.576 390.863L549.858 414.351L497.781 422.441ZM460.632 418.897L480.805 377.88L495.213 422.554L460.632 418.897ZM430.602 476.71L406.153 435.898L457.98 420.793L430.602 476.71ZM404.729 517.744L392.903 470.187L429.432 478.835L404.729 517.744ZM391.702 537.177L380.858 510.228L403.248 520.025L391.702 537.177ZM433.863 569.769L427.74 601.368L393.911 541.458L433.863 569.769ZM463.024 585.198L472.301 616.526L430.072 603.397L463.024 585.198ZM524.366 576.203L515.169 616.916L465.645 584.53L524.366 576.203ZM579.067 579.138L555.257 600.696L527.562 576.175L579.067 579.138ZM578.208 526.217L614.866 563.258L581.663 577.331L578.208 526.217ZM578.956 524.765L616.742 520.152L615.5 561.69L578.956 524.765ZM642.863 485.59L657.957 536.414L618.735 518.955L642.863 485.59ZM634.31 442.643L658.927 461.31L643.534 482.048L634.31 442.643ZM591.932 433.141L614.782 406.966L631.665 439.706L591.932 433.141ZM590.899 431.96L582.902 389.181L613.723 405.816L590.899 431.96ZM551.844 413.829L517.714 390.447L579.755 388.564L551.844 413.829ZM496.514 421.524L482.205 377.159L514.206 390.131L496.514 421.524ZM459.305 418.063L442.735 395.6L479.241 377.527L459.305 418.063ZM458.154 419.119L407.4 433.914L441.502 396.533L458.154 419.119ZM429.054 477.147L392.878 468.583L405.109 437.184L429.054 477.147ZM403.27 518.344L380.372 508.324L391.741 472.009L403.27 518.344ZM390.503 538.369L370.805 545.571L379.586 511.246L390.503 538.369ZM425.93 601.337L382.599 574.485L391.774 540.849L425.93 601.337ZM470.051 617.447L429.06 623.944L428.883 604.644L470.051 617.447ZM464.834 585.849L513.034 617.372L474.052 616.929L464.834 585.849ZM525.834 576.718L553.813 601.49L516.769 616.885L525.834 576.718ZM580.614 579.819L595.401 620.796L556.628 601.554L580.614 579.819ZM581.933 578.891L614.94 564.901L596.755 619.977L581.933 578.891ZM618.279 520.448L657.493 537.904L617.035 562.119L618.279 520.448ZM644.538 485.79L670.177 504.039L659.234 535.277L644.538 485.79ZM644.243 483.678L659.653 462.916L669.809 501.874L644.243 483.678ZM633.96 440.433L641.115 418.247L658.158 458.782L633.96 440.433ZM632.885 438.701L616.579 407.08L640.056 416.464L632.885 438.701ZM584.581 388.323L618.722 386.094L614.423 404.43L584.581 388.323ZM516.979 388.914L541.017 359.104L579.541 387.011L516.979 388.914ZM515.559 388.199L503.182 355.784L539.358 358.698L515.559 388.199ZM513.954 388.347L482.336 375.53L501.717 356.301L513.954 388.347ZM442.922 393.772L456.517 354.56L479.592 375.616L442.922 393.772ZM406.451 432.651L416.406 391.908L440.031 395.839L406.451 432.651ZM391.676 467.421L378.91 447.387L403.579 436.862L391.676 467.421ZM390.994 469.243L380.083 504.074L378.616 449.818L390.994 469.243ZM378.43 509.528L369.531 544.31L355.56 509.562L378.43 509.528ZM355.204 508.013L355.942 473.866L377.996 507.975L355.204 508.013ZM390.383 540.064L381.538 572.483L370.73 547.25L390.383 540.064ZM425.874 603.123L399.019 606.927L383.668 576.969L425.874 603.123ZM427.333 604.483L427.507 623.506L400.929 608.223L427.333 604.483ZM472.121 618.689L458.526 647.144L430.199 625.344L472.121 618.689ZM473.705 618.977L509.627 652.136L459.997 647.673L473.705 618.977ZM475.467 618.49L514.814 618.933L511.225 651.496L475.467 618.49ZM554.525 602.886L556.027 639.673L517.463 618.279L554.525 602.886ZM556.087 603.02L595.004 622.335L557.587 639.825L556.087 603.02ZM616.443 565.319L635.763 595.528L598.234 620.466L616.443 565.319ZM617.788 564.539L654.986 570.003L636.882 594.392L617.788 564.539ZM618.481 563.073L658.268 539.256L655.68 568.539L618.481 563.073ZM671.03 506.317L678.056 530.894L660.426 536.589L671.03 506.317ZM661.682 464.521L681.833 489.898L671.481 502.109L661.682 464.521ZM642.826 418.305L668.997 437.471L660.003 459.139L642.826 418.305ZM615.851 405.127L620.07 387.136L638.918 414.346L615.851 405.127ZM582.481 386.91L577.939 359.423L617.301 384.636L582.481 386.91ZM580.753 385.993L543.249 358.807L576.238 358.603L580.753 385.993ZM504.439 354.339L528.93 339.309L539.438 357.159L504.439 354.339ZM480.921 374.748L458.253 354.054L500.202 355.632L480.921 374.748ZM441.035 394.448L417.5 390.525L454.407 355.92L441.035 394.448ZM404.506 434.054L380.412 414.494L414.606 392.725L404.506 434.054ZM403.483 435.222L378.587 445.85L379.8 416.003L403.483 435.222ZM378.576 506.011L356.208 471.411L377.027 448.967L378.576 506.011ZM368.886 546.884L364.639 568.051L356.261 515.485L368.886 546.884ZM369.964 549.415L380.447 573.884L365.478 571.786L369.964 549.415ZM397.162 606.716L381.363 603.676L382.368 577.836L397.162 606.716ZM427.014 625.018L415.792 635.811L400.712 609.896L427.014 625.018ZM428.353 625.883L455.312 646.633L417.149 636.656L428.353 625.883ZM516.325 619.423L554.82 640.77L512.738 652.076L516.325 619.423ZM595.912 623.624L593.805 650.468L559.102 640.835L595.912 623.624ZM634.528 598.212L613.164 635.633L598.072 622.447L634.528 598.212ZM655.625 571.757L655.743 591.352L638.645 594.617L655.625 571.757ZM659.907 538.386L677.292 532.775L657.458 566.107L659.907 538.386ZM671.968 503.937L681.839 492.294L678.618 527.198L671.968 503.937ZM660.894 461.032L669.753 439.69L681.236 486.652L660.894 461.032ZM642.048 415.802L648.273 404.932L667.039 434.104L642.048 415.802ZM640.967 414.565L622.552 387.987L647.194 403.699L640.967 414.565ZM579.175 358.361L597.818 356.371L616.678 382.377L579.175 358.361ZM541.319 357.268L531.048 339.824L573.026 357.072L541.319 357.268ZM502.296 353.837L494.027 339.355L526.419 339.033L502.296 353.837ZM500.651 354.091L459.852 352.562L492.356 339.569L500.651 354.091ZM418.196 387.74L432.805 356.109L453.992 354.176L418.196 387.74ZM415.57 389.717L402.216 376.89L430.401 357.608L415.57 389.717ZM414.569 390.909L381.366 412.047L401.165 378.033L414.569 390.909ZM377.033 445.77L360.369 436.811L378.221 416.573L377.033 445.77ZM376.508 447.247L356.269 469.062L359.783 438.258L376.508 447.247ZM353.639 508.421L345.082 515.423L354.297 478.298L353.639 508.421ZM353.853 510.25L362.588 565.05L344.688 517.759L353.853 510.25ZM380.899 575.515L379.896 601.266L365.91 573.413L380.899 575.515ZM398.085 608.471L412.291 632.891L383.055 605.574L398.085 608.471ZM458.011 648.943L457.392 663.088L420.108 639.032L458.011 648.943ZM459.541 649.546L478.884 658.593L458.927 663.475L459.541 649.546ZM511.073 654.047L511.674 673.888L483.553 659.174L511.073 654.047ZM555.517 642.183L544.111 669.04L513.945 653.352L555.517 642.183ZM557.304 641.951L591.991 651.575L545.923 668.758L557.304 641.951ZM597.44 623.959L612.138 636.805L595.426 649.777L597.44 623.959ZM637.322 596.446L654.274 593.211L617.142 631.801L637.322 596.446ZM657.275 588.959L657.158 569.859L672.787 560.309L657.275 588.959ZM658.648 567.131L677.62 535.249L674.141 557.67L658.648 567.131ZM682.841 498.28L685.056 521.722L680.043 528.647L682.841 498.28ZM671.324 439.556L675.659 443.621L679.996 475.02L671.324 439.556ZM649.35 403.742L653.43 401.695L665.223 428.421L649.35 403.742ZM620.823 385.034L627.983 374.783L645.508 400.771L620.823 385.034ZM619.711 383.913L601.037 358.173L626.877 373.646L619.711 383.913ZM577.666 356.961L577.551 345.77L595.531 355.059L577.666 356.961ZM576.108 356.658L535.012 339.774L575.99 345.169L576.108 356.658ZM494.817 337.795L501.36 332.184L523.055 337.518L494.817 337.795ZM459.085 351.197L471.807 337.493L489.398 339.074L459.085 351.197ZM455.798 352.453L436.533 354.21L468.164 339.133L455.798 352.453ZM402.819 374.593L404.949 369.826L422.63 361.039L402.819 374.593ZM379.611 411.963L378.327 399.495L397.566 381.135L379.611 411.963ZM378.275 414.159L362.328 432.238L377.022 401.99L378.275 414.159ZM354.517 470.667L344.329 472.561L357.776 442.029L354.517 470.667ZM354.179 472.307L344.434 511.542L343.815 474.234L354.179 472.307ZM362.79 569.985L351.216 560.46L345.673 524.752L362.79 569.985ZM379.019 602.989L371.626 600.554L366.681 578.415L379.019 602.989ZM410.618 633.453L386.058 620.085L382.116 606.832L410.618 633.453ZM415.098 637.659L425.729 651.215L393.222 625.752L415.098 637.659ZM419.076 640.213L452.889 662.028L430.763 655.112L419.076 640.213ZM481.11 659.645L507.393 673.393L461.711 664.386L481.11 659.645ZM512.644 654.418L542.061 669.716L513.246 674.286L512.644 654.418ZM590.727 653.704L578.785 664.006L551.912 668.179L590.727 653.704ZM612.801 638.263L613.794 644.69L598.358 649.468L612.801 638.263ZM652.855 596.919L636.976 625.121L616.774 634.413L652.855 596.919ZM657.285 592.217L667.916 572.579L656.547 599.516L657.285 592.217ZM679.757 531.698L683.772 526.153L677.317 547.371L679.757 531.698ZM683.618 489.852V489.805L683.56 489.393L683.961 484.136L684.368 497.748L683.618 489.852ZM682.55 482.112L678.534 453.023L683.507 469.53L682.55 482.112ZM670.602 436.743L663.271 420.13L673.53 439.486L670.602 436.743ZM648.498 402.439L633.858 380.734L652.535 400.419L648.498 402.439ZM599.593 355.501L600.572 354.794L611.826 362.829L599.593 355.501ZM598.116 354.653L590.506 350.721L598.962 354.04L598.116 354.653ZM533.877 338.061L548.137 335.13L569.596 342.764L533.877 338.061ZM529.224 337.434L509.806 332.661L542.366 334.729L529.224 337.434ZM492.439 337.789L477.292 336.428L498.484 332.604L492.439 337.789ZM438.987 351.321L447.653 344.824L461.623 340.53L438.987 351.321ZM431.874 354.717L424.357 358.452L435.914 351.69L431.874 354.717ZM400.341 376.334L391.424 384.847L401.62 373.478L400.341 376.334ZM358.576 436.412L354.612 437.889L370.014 412.873L358.576 436.412ZM353.408 439.979L357.69 438.395L346.872 462.959L353.408 439.979ZM342.755 503.718L342.982 517.391L342.195 519.876L342.755 503.718ZM343.493 520.885L347.394 546.014L342.017 525.511L343.493 520.885ZM363.843 572.869L368.853 595.298L352.872 563.828L363.843 572.869ZM379.917 604.92L383.394 616.613L373.056 602.661L379.917 604.92ZM457.595 665.127L459.046 667.441L443.855 660.838L457.595 665.127ZM461.497 668.426L459.714 665.582L492.777 672.096L461.497 668.426ZM542.488 671.219L539.021 675.16L520.871 674.655L542.488 671.219ZM544.896 670.838L566.532 667.479L541.68 674.478L544.896 670.838ZM594.888 652.16L607.576 648.235L585.202 660.516L594.888 652.16ZM615.213 643.744L614.217 637.304L632.758 628.777L615.213 643.744ZM655.376 595.608L654.508 604.26L642.314 618.807L655.376 595.608ZM675.457 558.714L678.59 557.205L664.25 585.278L675.457 558.714ZM679.63 554.983L676.113 556.677L683.182 533.431L679.63 554.983Z" fill="url(#paint1_radial_3692_2453)"/>
<path d="M841.243 379.641C825.802 342.544 794.53 302.494 769.973 289.836C789.96 328.965 801.526 368.23 805.947 397.528C805.947 397.444 805.963 397.6 806 397.862C806.018 397.989 806.04 398.119 806.059 398.246C839.577 489.007 821.318 581.302 795.004 637.701C754.292 724.966 655.727 814.399 501.452 810.035C334.763 805.322 187.926 681.791 160.513 519.994C155.52 494.481 160.513 481.525 163.024 460.809C159.961 476.78 158.796 481.392 157.265 509.767C157.265 510.373 157.228 510.972 157.228 511.579C157.23 707.528 316.286 866.375 512.495 866.375C596.246 866.41 677.316 836.851 741.389 782.917C805.462 728.983 848.418 654.144 862.671 571.615C863.273 567.073 863.754 562.507 864.286 557.927C871.348 497.078 863.502 433.122 841.243 379.641Z" fill="url(#paint2_radial_3692_2453)"/>
<path d="M841.243 379.641C825.802 342.544 794.53 302.494 769.973 289.836C789.96 328.965 801.526 368.23 805.947 397.528C805.947 397.444 805.963 397.6 806 397.862C806.018 397.989 806.04 398.119 806.059 398.246C839.577 489.007 821.318 581.302 795.004 637.701C754.292 724.966 655.727 814.399 501.452 810.035C334.763 805.322 187.926 681.791 160.513 519.994C155.52 494.481 160.513 481.525 163.024 460.809C159.961 476.78 158.796 481.392 157.265 509.767C157.265 510.373 157.228 510.972 157.228 511.579C157.23 707.528 316.286 866.375 512.495 866.375C596.246 866.41 677.316 836.851 741.389 782.917C805.462 728.983 848.418 654.144 862.671 571.615C863.273 567.073 863.754 562.507 864.286 557.927C871.348 497.078 863.502 433.122 841.243 379.641Z" fill="url(#paint3_radial_3692_2453)"/>
<path d="M160.515 519.994C187.926 681.791 334.763 805.322 501.453 810.035C655.729 814.399 754.294 724.959 795.006 637.701C821.319 581.297 839.58 489.011 806.061 398.246L806.049 398.207L806.002 397.862C805.965 397.6 805.941 397.444 805.948 397.528C805.948 397.587 805.971 397.729 806.018 398.119C818.617 480.304 776.763 559.922 711.332 613.756C711.215 614.035 711.135 614.218 711.135 614.218C583.642 717.905 461.641 676.777 436.938 659.941C435.203 659.108 433.48 658.25 431.77 657.368C357.44 621.887 326.731 554.249 333.315 496.242C270.553 496.242 249.151 443.369 249.151 443.369C249.151 443.369 305.501 403.238 379.77 438.141C448.552 470.467 513.15 443.372 513.158 443.369C513.025 440.487 451.194 415.922 427.088 392.199C414.207 379.523 408.092 373.413 402.676 368.828C399.737 366.349 396.665 364.032 393.474 361.888C391.036 360.238 388.582 358.614 386.11 357.016C360.199 340.195 308.667 341.122 306.966 341.165H306.801C292.717 323.349 293.711 264.574 294.514 252.302C294.345 251.54 284.007 257.662 282.653 258.584C270.223 267.446 258.602 277.39 247.926 288.301C235.781 300.6 224.683 313.892 214.749 328.038C214.749 328.056 214.739 328.075 214.733 328.093C214.733 328.075 214.743 328.056 214.749 328.037C191.908 360.363 175.705 396.9 167.08 435.53C166.908 436.309 154.291 491.414 160.515 519.994Z" fill="url(#paint4_radial_3692_2453)"/>
<path d="M637.824 379.985C650.784 392.692 661.886 407.163 670.804 422.971C672.761 424.438 674.586 425.902 676.138 427.329C756.677 501.453 714.48 606.289 711.33 613.756C776.761 559.922 818.616 480.304 806.016 398.119C765.843 298.109 697.727 257.782 642.096 169.976C639.283 165.536 636.471 161.084 633.728 156.392C632.33 153.996 631.026 151.548 629.817 149.052C627.51 144.595 625.73 139.885 624.514 135.016C624.523 134.785 624.445 134.56 624.296 134.383C624.147 134.207 623.937 134.093 623.708 134.063C623.49 134.001 623.259 134.001 623.041 134.063C622.99 134.081 622.917 134.139 622.863 134.159C622.785 134.19 622.686 134.261 622.604 134.307C608.863 140.845 527.389 269.696 637.824 379.985Z" fill="url(#paint5_linear_3692_2453)"/>
<path d="M501.158 331.335L548.193 334.328L576.761 344.49L600.569 353.835L627.988 373.412L653.818 400.635L662.791 417.567C663.996 418.305 666.482 419.908 668.597 421.344C669.372 421.887 670.073 422.429 670.812 422.968C661.894 407.16 650.791 392.689 637.831 379.982C527.389 269.696 608.862 140.846 622.606 134.296C622.646 134.242 622.729 134.123 622.754 134.095C533.51 186.3 503.235 282.872 500.453 331.189L500.44 331.459L501.158 331.335Z" fill="url(#paint6_linear_3692_2453)"/>
<path d="M386.108 357.025C388.583 358.619 391.037 360.243 393.472 361.897C385.374 333.602 385.03 303.651 392.475 275.177C355.98 291.775 327.593 318.012 306.958 341.18C308.665 341.131 360.197 340.204 386.108 357.025Z" fill="url(#paint7_radial_3692_2453)"/>
<path d="M353.01 543.668C353.01 543.668 369.409 482.636 470.433 482.636C481.36 482.636 512.576 452.198 513.158 443.369C513.74 434.541 448.552 470.467 379.77 438.141C305.498 403.238 249.151 443.369 249.151 443.369C249.151 443.369 270.553 496.242 333.315 496.242C326.731 554.249 357.44 621.887 431.77 657.368C433.431 658.161 434.993 659.026 436.698 659.786C393.31 637.391 357.485 595.066 353.01 543.668Z" fill="url(#paint8_radial_3692_2453)"/>
<path d="M676.138 427.33C674.586 425.902 672.761 424.438 670.804 422.971C670.081 422.429 669.372 421.887 668.589 421.346C649.62 408.037 615.653 394.891 582.928 400.576C710.711 464.382 676.406 684.11 499.339 675.807C483.571 675.165 467.989 672.164 453.112 666.903C449.593 665.583 446.114 664.162 442.677 662.642C440.672 661.728 438.67 660.807 436.689 659.783C436.76 659.833 436.858 659.888 436.93 659.931C461.632 676.764 583.633 717.895 711.128 614.208C711.128 614.208 711.208 614.025 711.324 613.746C714.48 606.292 756.677 501.453 676.138 427.33Z" fill="url(#paint9_radial_3692_2453)"/>
<path d="M841.213 379.626C825.772 342.529 794.499 302.479 769.942 289.822C789.929 328.95 801.496 368.215 805.917 397.513C805.917 397.572 805.939 397.714 805.987 398.104C765.821 298.095 697.695 257.767 642.066 169.962C639.26 165.52 636.442 161.07 633.697 156.377C632.3 153.982 630.995 151.533 629.787 149.037C627.482 144.583 625.703 139.876 624.487 135.01C624.496 134.779 624.418 134.554 624.268 134.378C624.119 134.202 623.909 134.088 623.68 134.059C623.462 133.997 623.231 133.997 623.014 134.059C622.964 134.077 622.89 134.134 622.837 134.155C622.758 134.186 622.659 134.257 622.577 134.303C622.615 134.249 622.699 134.13 622.724 134.102C533.481 186.307 503.222 283.164 500.44 331.481L501.161 331.351L548.196 334.344L574.668 343.76L600.572 353.851L627.991 373.428L653.79 400.636C653.79 400.636 662.67 417.302 662.797 417.583C642.208 405.338 612.287 395.471 582.915 400.574C710.698 464.381 676.393 684.108 499.325 675.805C483.553 675.162 467.966 672.157 453.085 666.891C449.566 665.572 446.087 664.152 442.65 662.631C440.645 661.718 438.643 660.795 436.663 659.773C436.734 659.823 436.831 659.878 436.903 659.928C435.169 659.095 433.446 658.237 431.736 657.354C433.397 658.147 434.959 659.012 436.664 659.773C393.277 637.378 357.453 595.052 352.977 543.654C352.977 543.654 369.376 482.622 470.399 482.622C481.326 482.622 512.543 452.184 513.124 443.356C512.991 440.474 451.158 415.908 427.053 392.186C414.173 379.509 408.057 373.399 402.641 368.815C399.703 366.336 396.631 364.019 393.439 361.875C385.342 333.58 384.997 303.629 392.443 275.155C355.948 291.753 327.561 317.99 306.925 341.157H306.761C292.677 323.341 293.671 264.566 294.473 252.295C294.304 251.533 283.967 257.655 282.612 258.576C270.186 267.436 258.568 277.378 247.893 288.284C235.749 300.584 224.652 313.875 214.718 328.02C191.877 360.347 175.675 396.882 167.048 435.513C166.879 436.282 166.735 437.079 166.569 437.854C165.901 440.979 162.895 456.831 162.475 460.233C162.506 459.972 162.443 460.493 162.475 460.233C159.733 476.615 157.984 493.148 157.237 509.741C157.237 510.346 157.198 510.946 157.198 511.553C157.198 707.5 316.257 866.348 512.459 866.348C596.209 866.384 677.279 836.827 741.353 782.896C805.427 728.964 848.385 654.128 862.641 571.6C863.243 567.058 863.725 562.492 864.256 557.912C871.317 497.063 863.472 433.107 841.213 379.626ZM805.97 397.847C805.988 397.974 806.01 398.104 806.029 398.231L806.016 398.192C806 398.07 805.984 397.961 805.97 397.847Z" fill="url(#paint10_linear_3692_2453)"/>
<path d="M513.152 443.372C513.152 443.372 511.646 444.003 508.87 444.953C501.93 456.682 477.258 479.062 467.821 479.025C366.798 478.582 350.139 538.954 350.139 538.954C351.982 559.588 358.769 579.474 369.925 596.929C360.492 580.612 354.72 562.44 353.01 543.671C353.01 543.671 369.408 482.638 470.433 482.638C481.36 482.638 512.576 452.2 513.158 443.372H513.152Z" fill="url(#paint11_linear_3692_2453)"/>
<path d="M806.06 398.243L806.047 398.207C806.029 398.086 806.016 397.976 805.998 397.863C805.988 397.751 805.972 397.639 805.949 397.528C805.965 397.726 805.987 397.923 806.016 398.119C803.632 392.194 801.087 386.335 798.385 380.548C797.481 378.607 796.511 376.793 795.58 374.898C793.808 371.259 792.036 367.612 790.18 364.13C789.035 361.98 787.832 359.941 786.661 357.848C784.944 354.783 783.241 351.699 781.471 348.744C780.173 346.584 778.832 344.515 777.514 342.41C775.788 339.66 774.068 336.902 772.297 334.238C770.897 332.128 769.462 330.085 768.036 328.025C766.274 325.481 764.513 322.934 762.72 320.453C761.232 318.405 759.72 316.403 758.214 314.399C756.427 312.009 754.619 309.634 752.79 307.275C751.226 305.273 749.651 303.288 748.065 301.32C746.233 299.035 744.387 296.762 742.527 294.5C740.908 292.542 739.281 290.591 737.644 288.648C736.758 287.594 735.872 286.511 734.986 285.46C735.37 285.916 735.74 286.39 736.121 286.851C705.341 250.541 671.935 217.077 642.103 169.981C639.285 165.542 636.474 161.091 633.734 156.397C632.335 154.002 631.03 151.553 629.822 149.057C627.813 145.065 626.177 140.896 624.935 136.603C624.873 136.374 624.76 136.026 624.721 135.852C624.6 135.382 624.524 135.025 624.524 135.025C624.532 134.794 624.453 134.569 624.303 134.393C624.154 134.217 623.944 134.102 623.715 134.072C623.497 134.012 623.267 134.012 623.049 134.072C622.999 134.09 622.924 134.149 622.869 134.171C622.814 134.194 622.695 134.27 622.611 134.31C621.83 134.748 621.106 135.279 620.455 135.893C620.281 136.044 620.11 136.197 619.941 136.352C618.95 137.288 618.012 138.277 617.131 139.316C617.096 139.356 617.068 139.378 617.032 139.418C617.041 139.409 617.05 139.409 617.059 139.4C595.774 164.419 541.42 273.153 629.019 370.681C547.006 274.195 598.687 169.922 621.149 142.606C622.344 146.285 623.806 149.872 625.525 153.337C626.736 155.832 628.041 158.281 629.437 160.677C632.177 165.376 634.99 169.832 637.806 174.262C693.435 262.067 761.551 302.396 801.724 402.405C801.697 402.209 801.675 402.012 801.657 401.815C801.681 401.925 801.697 402.037 801.706 402.15C801.724 402.262 801.737 402.374 801.755 402.494L801.769 402.531C835.287 493.295 817.027 585.588 790.713 641.986C776.588 671.94 757.511 699.296 734.283 722.902C759.438 698.347 780.002 669.494 795.005 637.704C821.319 581.301 839.577 489.009 806.06 398.243Z" fill="url(#paint12_linear_3692_2453)"/>
<path d="M622.607 134.296C622.646 134.242 622.729 134.123 622.754 134.095C542.363 181.122 509.827 264.143 502.129 315.47C510.971 268.048 541.368 195.613 609.49 149.882C615.097 141.029 620.037 135.526 622.607 134.296Z" fill="url(#paint13_linear_3692_2453)"/>
<path d="M711.134 614.218C711.134 614.218 711.214 614.035 711.33 613.756C714.48 606.292 756.677 501.453 676.138 427.329C674.586 425.902 672.761 424.438 670.804 422.971C670.081 422.429 669.372 421.887 668.59 421.346C650.258 408.484 617.92 395.778 586.233 400.069L586.156 400.078C585.08 400.226 584.004 400.392 582.928 400.576C709.27 463.663 677.152 679.163 505.269 675.997C505.735 676.019 506.203 676.056 506.668 676.076C680.916 682.894 715.246 469.225 594.186 402.237C620.421 401.98 645.797 411.56 661.468 421.665C662.264 422.178 662.995 422.69 663.738 423.204C665.75 424.593 667.631 425.984 669.238 427.352C752.624 498.268 714.562 604.672 711.708 612.259C711.65 612.415 711.59 612.572 711.531 612.728" fill="url(#paint14_linear_3692_2453)"/>
<path d="M380.719 441.686C438.863 466.873 492.828 450.867 509.18 444.846C494.119 450.04 438.479 465.73 379.775 438.141C313.014 406.765 260.741 436.017 250.854 442.253L250.827 442.269L250.353 442.564L250.315 442.591C250.167 442.683 250.043 442.767 249.927 442.843L249.903 442.858C249.804 442.923 249.705 442.988 249.608 443.055L249.569 443.078L249.385 443.204L249.334 443.239L249.206 443.328L249.159 443.362L249.324 443.747L249.349 443.806C249.404 443.932 249.475 444.087 249.556 444.267L249.596 444.354C249.697 444.574 249.799 444.793 249.903 445.011L249.931 445.067C250.656 446.581 251.434 448.07 252.264 449.529V449.538C260.144 463.483 283.908 496.234 333.317 496.234C326.931 552.502 355.637 617.828 425.206 654.079C358.714 615.765 330.776 546.238 338.542 490.938C287.21 489.577 264.252 458.811 257.689 445.755C276.488 435.563 323.871 417.057 380.719 441.686Z" fill="url(#paint15_linear_3692_2453)"/>
<path d="M393.417 361.694C392.858 361.366 392.279 361.029 391.681 360.684C392.299 361.097 392.896 361.5 393.472 361.891C393.453 361.825 393.432 361.76 393.417 361.694ZM393.053 360.391C385.374 332.529 385.174 303.135 392.475 275.171C357.879 290.906 330.582 315.298 310.254 337.531C329.612 318.675 354.689 298.442 385.231 284.579C383.341 299.08 381.713 328.766 393.053 360.391Z" fill="url(#paint16_linear_3692_2453)"/>
<path d="M169.08 557.183C168.981 556.845 168.894 556.505 168.798 556.165C165.352 544.274 162.587 532.196 160.515 519.99C157.804 507.542 158.669 490.066 160.515 474.235C159.143 482.452 158.284 490.804 157.266 509.763C157.266 510.368 157.229 510.968 157.229 511.575C157.229 666.642 256.85 798.453 395.647 846.712C275.331 800.635 186.197 690.369 169.08 557.183Z" fill="url(#paint17_linear_3692_2453)"/>
<path d="M166.237 521.425C160.014 492.845 172.632 437.739 172.801 436.966C181.427 398.335 197.629 361.798 220.471 329.472L220.454 329.528C220.454 329.51 220.465 329.491 220.471 329.473C230.406 315.328 241.504 302.036 253.649 289.736C264.323 278.829 275.941 268.887 288.367 260.028C288.861 259.705 289.36 259.393 289.866 259.091C289.744 286.083 291.275 331.626 303.78 346.559H303.944C305.657 346.47 357.361 344.189 383.814 360.323C386.337 361.853 388.844 363.41 391.333 364.995C394.591 367.053 397.735 369.287 400.75 371.687C406.308 376.128 412.607 382.076 425.869 394.41C445.065 412.263 486.934 430.026 505.013 438.488C487.399 429.615 445.837 410.658 427.089 392.208C414.209 379.532 408.093 373.422 402.677 368.837C399.738 366.358 396.666 364.041 393.475 361.897C391.038 360.247 388.583 358.623 386.111 357.025C360.201 340.204 308.669 341.129 306.968 341.174H306.802C293.93 324.89 293.654 274.412 294.314 256.475C294.34 255.784 294.367 255.146 294.393 254.555L294.424 253.922C294.433 253.747 294.442 253.572 294.451 253.396C294.473 253.01 294.494 252.636 294.516 252.313C294.506 252.267 294.454 252.249 294.376 252.251C294.349 252.251 294.305 252.264 294.271 252.268C294.195 252.279 294.121 252.296 294.048 252.318C293.99 252.335 293.919 252.363 293.853 252.386C293.657 252.454 293.465 252.532 293.277 252.618L292.932 252.775C292.686 252.889 292.442 253.007 292.201 253.129L291.758 253.352L291.396 253.541L290.866 253.819L290.57 253.98C287.439 255.664 283.464 258.046 282.659 258.594C270.228 267.452 258.605 277.393 247.926 288.301C235.781 300.6 224.683 313.892 214.749 328.038C214.749 328.056 214.739 328.075 214.733 328.093C214.733 328.075 214.743 328.056 214.749 328.037C191.908 360.363 175.705 396.9 167.08 435.53C166.908 436.3 154.291 491.405 160.515 519.99C183.845 657.681 293.665 767.639 428.604 800.259C296.292 765.953 189.234 657.164 166.237 521.425Z" fill="url(#paint18_linear_3692_2453)"/>
<path d="M841.242 379.641C827.62 346.91 801.67 311.892 778.886 295.406L778.258 294.963C777.552 294.463 776.849 293.98 776.15 293.513C775.884 293.336 775.618 293.161 775.352 292.987C774.688 292.559 774.028 292.149 773.372 291.756C773.118 291.608 772.863 291.443 772.609 291.295C771.741 290.789 770.862 290.303 769.972 289.839C770.931 291.718 771.854 293.596 772.777 295.474C773.346 296.64 773.911 297.808 774.472 298.978C791.701 335.028 801.873 370.514 805.948 397.531C805.948 397.59 805.97 397.732 806.017 398.122C818.617 480.307 776.762 559.925 711.331 613.759C711.215 614.038 711.135 614.221 711.135 614.221C629.806 680.371 550.718 687.574 497.691 679.755C550.531 689.625 633.878 685.464 719.72 615.652L719.916 615.19C785.346 561.356 827.202 481.736 814.602 399.552C814.576 399.356 814.553 399.159 814.533 398.962C810.914 374.979 802.486 344.322 788.59 312.524C804.145 329.002 817.234 347.645 827.447 367.874C852.618 419.2 863.975 481.629 860.278 541.837C860.001 546.37 859.772 550.885 859.422 555.383C840.126 721.496 701.478 854.893 526.039 864.723C502.623 866.042 479.134 865.088 455.902 861.873C474.618 864.868 493.541 866.374 512.495 866.375C688.205 866.375 834.108 738.967 862.67 571.615C863.273 567.073 863.754 562.507 864.286 557.927C871.348 497.078 863.501 433.122 841.242 379.641ZM806.059 398.246L806.047 398.207L806 397.862C806.017 397.989 806.04 398.119 806.059 398.246Z" fill="url(#paint19_linear_3692_2453)"/>
<defs>
<filter id="filter0_d_3692_2453" x="78" y="89" width="868" height="868" filterUnits="userSpaceOnUse" color-interpolation-filters="sRGB">
<feFlood flood-opacity="0" result="BackgroundImageFix"/>
<feColorMatrix in="SourceAlpha" type="matrix" values="0 0 0 0 0 0 0 0 0 0 0 0 0 0 0 0 0 0 127 0" result="hardAlpha"/>
<feOffset dy="11"/>
<feGaussianBlur stdDeviation="11"/>
<feColorMatrix type="matrix" values="0 0 0 0 0 0 0 0 0 0 0 0 0 0 0 0 0 0 0.28 0"/>
<feBlend mode="normal" in2="BackgroundImageFix" result="effect1_dropShadow_3692_2453"/>
<feBlend mode="normal" in="SourceGraphic" in2="effect1_dropShadow_3692_2453" result="shape"/>
</filter>
<radialGradient id="paint0_radial_3692_2453" cx="0" cy="0" r="1" gradientUnits="userSpaceOnUse" gradientTransform="translate(511.676 503.639) scale(173.308 173.28)">
<stop stop-color="#00DDFF" stop-opacity="0.4"/>
<stop offset="1" stop-color="#7542E5" stop-opacity="0.15"/>
</radialGradient>
<radialGradient id="paint1_radial_3692_2453" cx="0" cy="0" r="1" gradientUnits="userSpaceOnUse" gradientTransform="translate(509.049 512.812) scale(176.1 176.072)">
<stop offset="0.915" stop-color="#7542E5" stop-opacity="0"/>
<stop offset="0.929" stop-color="#6A51E7" stop-opacity="0.037"/>
<stop offset="0.953" stop-color="#4C78EE" stop-opacity="0.139"/>
<stop offset="0.984" stop-color="#1DB7F9" stop-opacity="0.302"/>
<stop offset="1" stop-color="#00DDFF" stop-opacity="0.4"/>
</radialGradient>
<radialGradient id="paint2_radial_3692_2453" cx="0" cy="0" r="1" gradientUnits="userSpaceOnUse" gradientTransform="translate(769.517 215.303) scale(740.607 739.653)">
<stop stop-color="#80EBFF"/>
<stop offset="0.082" stop-color="#4DE5FF"/>
<stop offset="0.161" stop-color="#23E1FF"/>
<stop offset="0.222" stop-color="#09DEFF"/>
<stop offset="0.259" stop-color="#00DDFF"/>
<stop offset="0.26" stop-color="#00DCFF"/>
<stop offset="0.38" stop-color="#00B3F5"/>
<stop offset="0.473" stop-color="#0099EF"/>
<stop offset="0.53" stop-color="#0090ED"/>
<stop offset="0.86" stop-color="#0060DF"/>
</radialGradient>
<radialGradient id="paint3_radial_3692_2453" cx="0" cy="0" r="1" gradientUnits="userSpaceOnUse" gradientTransform="translate(498.886 517.691) scale(740.607 739.653)">
<stop offset="0.3" stop-color="#321C64" stop-opacity="0.8"/>
<stop offset="0.371" stop-color="#212F83" stop-opacity="0.511"/>
<stop offset="0.475" stop-color="#0A47AC" stop-opacity="0.141"/>
<stop offset="0.53" stop-color="#0250BB" stop-opacity="0"/>
</radialGradient>
<radialGradient id="paint4_radial_3692_2453" cx="0" cy="0" r="1" gradientUnits="userSpaceOnUse" gradientTransform="translate(688.953 24.3362) scale(1082.37 1080.98)">
<stop stop-color="#80EBFF"/>
<stop offset="0.008" stop-color="#76E7FE"/>
<stop offset="0.035" stop-color="#57D9FB"/>
<stop offset="0.067" stop-color="#3BCDF9"/>
<stop offset="0.103" stop-color="#25C3F7"/>
<stop offset="0.144" stop-color="#14BCF6"/>
<stop offset="0.196" stop-color="#09B7F5"/>
<stop offset="0.268" stop-color="#02B4F4"/>
<stop offset="0.469" stop-color="#00B3F4"/>
<stop offset="0.687" stop-color="#0080E7"/>
<stop offset="0.844" stop-color="#0060DF"/>
<stop offset="0.995" stop-color="#592ACB"/>
</radialGradient>
<linearGradient id="paint5_linear_3692_2453" x1="609.307" y1="85.074" x2="807.726" y2="682.22" gradientUnits="userSpaceOnUse">
<stop stop-color="#AAF2FF"/>
<stop offset="0.035" stop-color="#9EF1FF"/>
<stop offset="0.098" stop-color="#7EEDFF"/>
<stop offset="0.183" stop-color="#4BE6FF"/>
<stop offset="0.284" stop-color="#04DEFF"/>
<stop offset="0.29" stop-color="#00DDFF"/>
<stop offset="0.609" stop-color="#0090ED"/>
<stop offset="0.894" stop-color="#0250BB"/>
</linearGradient>
<linearGradient id="paint6_linear_3692_2453" x1="528.548" y1="133.33" x2="647.373" y2="490.939" gradientUnits="userSpaceOnUse">
<stop stop-color="#AAF2FF"/>
<stop offset="0.035" stop-color="#9EF1FF"/>
<stop offset="0.098" stop-color="#7EEDFF"/>
<stop offset="0.183" stop-color="#4BE6FF"/>
<stop offset="0.284" stop-color="#04DEFF"/>
<stop offset="0.29" stop-color="#00DDFF"/>
<stop offset="0.74" stop-color="#0090ED"/>
<stop offset="1" stop-color="#0250BB"/>
</linearGradient>
<radialGradient id="paint7_radial_3692_2453" cx="0" cy="0" r="1" gradientUnits="userSpaceOnUse" gradientTransform="translate(489.545 185.038) scale(253.692 253.365)">
<stop stop-color="#00DDFF"/>
<stop offset="0.156" stop-color="#00D6FD"/>
<stop offset="0.382" stop-color="#00C3F9"/>
<stop offset="0.648" stop-color="#00A4F2"/>
<stop offset="0.792" stop-color="#0090ED"/>
</radialGradient>
<radialGradient id="paint8_radial_3692_2453" cx="0" cy="0" r="1" gradientUnits="userSpaceOnUse" gradientTransform="translate(661.939 318.376) scale(739.59 738.637)">
<stop offset="0.286" stop-color="#80EBFF"/>
<stop offset="1" stop-color="#00B3F4"/>
</radialGradient>
<radialGradient id="paint9_radial_3692_2453" cx="0" cy="0" r="1" gradientUnits="userSpaceOnUse" gradientTransform="translate(483.559 278.873) scale(675.736 674.865)">
<stop offset="0.181" stop-color="#AAF2FF"/>
<stop offset="0.427" stop-color="#00DDFF"/>
<stop offset="0.448" stop-color="#00D2FC"/>
<stop offset="0.613" stop-color="#0080E7"/>
<stop offset="0.689" stop-color="#0060DF"/>
</radialGradient>
<linearGradient id="paint10_linear_3692_2453" x1="786.818" y1="244.321" x2="285.41" y2="745.731" gradientUnits="userSpaceOnUse">
<stop offset="0.239" stop-color="#80EBFF" stop-opacity="0.5"/>
<stop offset="0.261" stop-color="#76EAFF" stop-opacity="0.459"/>
<stop offset="0.359" stop-color="#4CE5FF" stop-opacity="0.295"/>
<stop offset="0.455" stop-color="#2BE2FF" stop-opacity="0.167"/>
<stop offset="0.546" stop-color="#13DFFF" stop-opacity="0.075"/>
<stop offset="0.631" stop-color="#05DEFF" stop-opacity="0.019"/>
<stop offset="0.704" stop-color="#00DDFF" stop-opacity="0"/>
</linearGradient>
<linearGradient id="paint11_linear_3692_2453" x1="449.987" y1="416.156" x2="382.913" y2="691.009" gradientUnits="userSpaceOnUse">
<stop stop-color="#BFF3FF" stop-opacity="0.9"/>
<stop offset="1" stop-color="#80EBFF" stop-opacity="0.5"/>
</linearGradient>
<linearGradient id="paint12_linear_3692_2453" x1="715.237" y1="124.587" x2="673.731" y2="951.765" gradientUnits="userSpaceOnUse">
<stop stop-color="#BFF3FF"/>
<stop offset="1" stop-color="#00DDFF" stop-opacity="0"/>
</linearGradient>
<linearGradient id="paint13_linear_3692_2453" x1="567.355" y1="126.811" x2="554.019" y2="392.592" gradientUnits="userSpaceOnUse">
<stop stop-color="#BFF3FF"/>
<stop offset="1" stop-color="#AAF2FF" stop-opacity="0.5"/>
</linearGradient>
<linearGradient id="paint14_linear_3692_2453" x1="626.122" y1="393.665" x2="606.084" y2="793.021" gradientUnits="userSpaceOnUse">
<stop stop-color="#BFF3FF"/>
<stop offset="1" stop-color="#00DDFF" stop-opacity="0"/>
</linearGradient>
<linearGradient id="paint15_linear_3692_2453" x1="375.477" y1="385.532" x2="398.625" y2="753.551" gradientUnits="userSpaceOnUse">
<stop stop-color="#BFF3FF" stop-opacity="0.8"/>
<stop offset="0.999" stop-color="#80EBFF" stop-opacity="0.2"/>
</linearGradient>
<linearGradient id="paint16_linear_3692_2453" x1="412.145" y1="254.882" x2="328.754" y2="386.064" gradientUnits="userSpaceOnUse">
<stop stop-color="#BFF3FF" stop-opacity="0.8"/>
<stop offset="1" stop-color="#80EBFF" stop-opacity="0.2"/>
</linearGradient>
<linearGradient id="paint17_linear_3692_2453" x1="286.811" y1="471.896" x2="261.146" y2="983.348" gradientUnits="userSpaceOnUse">
<stop stop-color="#00DDFF" stop-opacity="0.4"/>
<stop offset="1" stop-color="#00DDFF" stop-opacity="0"/>
</linearGradient>
<linearGradient id="paint18_linear_3692_2453" x1="329.686" y1="184.606" x2="334.411" y2="793.086" gradientUnits="userSpaceOnUse">
<stop stop-color="#BFF3FF"/>
<stop offset="1" stop-color="#00DDFF" stop-opacity="0"/>
</linearGradient>
<linearGradient id="paint19_linear_3692_2453" x1="682.503" y1="271.251" x2="640.527" y2="1107.77" gradientUnits="userSpaceOnUse">
<stop stop-color="#BFF3FF" stop-opacity="0.8"/>
<stop offset="1" stop-color="#00DDFF" stop-opacity="0"/>
</linearGradient>
</defs>
</svg>
