<?xml version="1.0" encoding="UTF-8"?>
<svg id="a" data-name="Layer 1" xmlns="http://www.w3.org/2000/svg" width="512" height="512" xmlns:xlink="http://www.w3.org/1999/xlink" viewBox="0 0 512 512">
  <defs>
    <radialGradient id="b" cx="-40948.443" cy="-33409.756" fx="-40948.443" fy="-33409.756" r="109.339" gradientTransform="translate(103715.258 84704.267) scale(2.527)" gradientUnits="userSpaceOnUse">
      <stop offset=".467" stop-color="#0df" stop-opacity=".2"/>
      <stop offset=".606" stop-color="#05dffa" stop-opacity=".214"/>
      <stop offset=".748" stop-color="#17e6ec" stop-opacity=".256"/>
      <stop offset=".889" stop-color="#35f2d5" stop-opacity=".326"/>
      <stop offset="1" stop-color="#54ffbd" stop-opacity=".4"/>
    </radialGradient>
    <radialGradient id="d" cx="-12162.497" cy="-10512.401" fx="-12162.497" fy="-10512.401" r="12.089" gradientTransform="translate(297258.565 256894.495) scale(24.418)" gradientUnits="userSpaceOnUse">
      <stop offset=".434" stop-color="#7542e5" stop-opacity="0"/>
      <stop offset=".561" stop-color="#7744e5" stop-opacity=".013"/>
      <stop offset=".665" stop-color="#7f4be8" stop-opacity=".053"/>
      <stop offset=".761" stop-color="#8d57ec" stop-opacity=".12"/>
      <stop offset=".852" stop-color="#a068f2" stop-opacity=".214"/>
      <stop offset=".939" stop-color="#b87dfa" stop-opacity=".335"/>
      <stop offset=".978" stop-color="#c689ff" stop-opacity=".4"/>
    </radialGradient>
  </defs>
  <path id="c" data-name="globe-lines" d="M498.996,281.762c.001-.024.002-.047.002-.07,0-.01.002-.02.002-.03v-.009s0-.003,0-.004l-2.206-73.69c0-.011-.003-.02-.004-.031-.001-.018-.002-.036-.004-.054-.003-.026-.008-.051-.013-.076-.006-.033-.012-.065-.021-.097-.002-.008-.002-.015-.005-.023l-11.08-36.771s-.002-.006-.003-.008v-.005c-.004-.008-.009-.015-.011-.024-.007-.02-.014-.04-.022-.06-.01-.027-.022-.053-.034-.079-.005-.011-.008-.022-.014-.033l-31.699-59.819c-.006-.011-.014-.019-.02-.03-.012-.021-.024-.041-.038-.062-.012-.018-.024-.035-.036-.052-.008-.01-.015-.021-.023-.032-.011-.013-.023-.024-.034-.036-.008-.009-.013-.019-.022-.028l-36.257-38.221c-.005-.006-.012-.01-.017-.016-.008-.008-.017-.017-.025-.025-.021-.02-.045-.037-.068-.055-.017-.013-.03-.029-.048-.042l-.006-.004s-.005-.003-.007-.005l-38.48-27.475c-.006-.004-.013-.006-.018-.011-.012-.008-.024-.017-.037-.025-.026-.016-.053-.028-.08-.042-.027-.014-.054-.029-.082-.041-.006-.003-.012-.007-.018-.009l-33.399-13.11s-.002,0-.003-.001l-.02-.008c-.005-.002-.011-.003-.016-.005-.006-.002-.011-.006-.017-.008l-.007-.002s-.003,0-.004-.001l-40.092-14.262c-.013-.004-.025-.005-.038-.009-.025-.008-.051-.015-.077-.022-.024-.006-.047-.011-.071-.015-.025-.004-.049-.006-.073-.009-.013-.001-.025-.005-.038-.006l-66.029-4.203s-.009,0-.014,0c-.006,0-.012-.001-.017-.001-.027,0-.054.003-.081.004-.037.001-.073.002-.109.007-.009.001-.018.002-.027.003-.005,0-.01,0-.014.001l-41.635,7.515c-.009.002-.016.005-.025.007-.013.003-.025.003-.038.006-.009.002-.018.006-.027.009-.025.007-.05.012-.074.02l-33.935,10.433s-.008.004-.012.005c-.025.008-.05.02-.075.03-.029.012-.059.024-.087.038-.014.007-.029.014-.043.021-.005.003-.01.004-.015.007l-60.282,35.283s-.007.006-.012.008c-.017.011-.033.023-.05.035-.015.01-.031.019-.046.031-.014.011-.027.023-.041.035-.012.01-.025.018-.036.029-.015.014-.028.031-.043.046-.011.011-.023.019-.033.03l-.015.016s0,0,0,0l-37.661,42.017c-.006.006-.009.014-.015.02-.009.01-.018.02-.027.031-.009.011-.017.023-.025.034-.012.016-.022.032-.033.048-.005.008-.012.014-.017.022l-.013.021s-.001.002-.002.003l-34.724,56.404c-.006.011-.01.022-.016.033-.011.02-.022.039-.033.059-.011.022-.02.045-.029.068-.011.026-.02.052-.029.078-.004.012-.01.022-.013.034l-13.665,48.021c-.002.007-.002.013-.004.02-.003.012-.007.023-.01.035-.001.004-.003.009-.004.013-.001.005,0,.01-.002.015-.005.025-.006.051-.009.076-.003.027-.009.053-.01.08,0,.007-.003.014-.003.021l-2.555,72.859c0,.016.003.031.003.046,0,.023,0,.045,0,.068.002.023.005.045.008.068.004.03.01.059.016.089.003.014.003.028.007.043l.008.03h0s13.019,49.647,13.019,49.647c0,0,0,.001,0,.002.002.007.004.013.006.02.004.013.009.025.013.038.012.036.027.07.042.104,0,0,0,.001,0,.002.008.017.012.035.02.052l.005.009s.002.003.003.005l28.729,56.541s.004.005.006.008c.005.01.012.018.018.028.018.032.036.063.057.092.006.009.01.018.016.027l20.254,27.299s0,.001.001.002v.002s.004.004.006.006l.006.008s.007.006.009.01c.008.011.016.022.025.032.018.022.04.041.06.062.016.016.028.034.044.05l28.025,25.697c.022.02.047.035.07.053.019.015.035.033.056.047l35.001,23.679c.008.005.016.007.024.011.003.002.005.003.008.005.027.017.055.034.084.049.015.008.029.016.044.022.006.003.01.007.016.009l43.16,18.774c.014.006.029.008.043.014.031.012.063.023.096.032.017.005.033.01.05.014.026.006.051.01.077.014.015.002.029.008.044.01l72.229,8.479c.026.003.052.003.078.005.006,0,.012.002.019.002l37.714,1.05c.009,0,.017,0,.026,0,.001,0,.002,0,.004,0,.003,0,.007-.001.011-.001.072,0,.143-.008.211-.022.015-.003.029-.01.044-.013,0,0,0,0,0,0,.011-.003.021-.001.031-.004l55.819-15.723c.011-.003.021-.009.032-.013.016-.005.033-.008.049-.014.015-.006.029-.014.044-.021.01-.004.02-.01.03-.014.022-.01.044-.018.065-.03.003-.002.006-.002.009-.003l.023-.013s.002-.001.004-.002l49.862-27.37c.005-.003.01-.006.015-.009.007-.004.014-.008.021-.012.029-.017.055-.038.082-.058,0,0,0,0,0,0,.022-.016.046-.029.067-.047.001,0,.002-.002.003-.003l32.099-27.386c.012-.011.021-.023.033-.034.014-.013.029-.025.042-.039.014-.014.027-.029.04-.044.004-.005.009-.008.013-.012l24.886-29.692s.003-.004.005-.006h0c.004-.005.006-.01.01-.015.033-.04.061-.084.088-.129.009-.016.021-.03.03-.046.002-.004.005-.008.007-.013,0,0,0,0,0,0l35.189-68.891c.008-.016.012-.034.02-.05.012-.027.027-.053.037-.082.004-.013.006-.026.01-.038.009-.029.016-.059.023-.088.004-.02.012-.038.015-.058l7.767-47.114s0-.001,0-.002l.002-.01c.002-.009,0-.018.002-.028.002-.013.005-.026.006-.04.001-.014,0-.027.002-.041ZM104.825,445.067l-7.26-6.657,16.328,12.791-9.067-6.134ZM210.762,472.74l-25.51-11.928,60.381,5.432-34.871,6.496ZM220.065,255.523l-66.977,7.051,41.302-69.396,25.674,62.345ZM196.687,193.025l81.828,40.99-56.28,21.048-25.548-62.038ZM220.678,257.648l7.785,61.742-74.51-54.717,66.726-7.025ZM227.487,321.376l-80.938,25.472,5.446-80.91,75.492,55.438ZM223.008,258.678l62.734,41.659-54.967,19.943-7.767-61.602ZM224.008,256.726l56.288-21.052,6.524,62.763-62.812-41.711ZM310.492,184.223l52.167-24.635-5.882,58.6-46.285-33.966ZM354.99,219.58l-71.714,13.1,25.461-47.043,46.253,33.943ZM281.233,231.874l-46.718-85.792,72.376,38.385-25.658,47.408ZM278.615,231.63l-82.364-41.258,35.406-44.975,46.958,86.233ZM151.435,261.088l-10.496-40.067,50.67-27.434-40.174,67.501ZM144.496,344.861l-40.028-65.69,45.378-13.786-5.349,79.476ZM226.232,324.053l-40.723,43.503-37.284-18.953,78.007-24.549ZM286.527,302.369l-14.524,52.311-39.962-32.543,54.486-19.768ZM282.588,236.615l60.539,47.757-54.031,14.861-6.509-62.618ZM283.803,234.797l72.503-13.244-11.553,61.326-60.95-48.082ZM358.923,218.659l5.816-57.949,33.495,45.494-39.311,12.455ZM398.964,208.257l1.853,66.361-41.334-53.852,39.482-12.509ZM309.514,182.276l1.393-49.255,50.518,24.742-51.911,24.514ZM307.331,182.234l-72.103-38.24,73.507-11.42-1.404,49.66ZM195.049,188.374l-13.514-49.178,48.213,5.1-34.699,44.078ZM193.288,190.201l-51.144,27.69,37.627-76.876,13.516,49.186ZM149.719,263.148l-44.419,13.495,33.946-53.474,10.473,39.979ZM141.674,344.422l-55.457-39.293,16.542-24.57,38.915,63.863ZM146.15,349.992l37.27,18.946-45.845,25.32,8.575-44.266ZM229.964,323.256l40.025,32.594-81.335,11.536,41.31-44.13ZM288.705,302.683l59.074,57.125-73.758-4.239,14.684-52.886ZM290.273,301.167l54.22-14.914,4.871,72.055-59.091-57.142ZM358.293,222.797l41.683,54.306-53.135,6.486,11.452-60.792ZM401.159,208.68l35.202,19.896-33.358,46.131-1.844-66.027ZM401.531,206.387l21.799-35.87,13,55.538-34.799-19.668ZM399.928,204.825l-33.525-45.534,55.612,9.19-22.087,36.343ZM311.786,131.026l39.376-35.647,11.303,60.467-50.679-24.821ZM233.876,142.001l24.981-44.333,48.125,32.975-73.105,11.358ZM181.727,137.028l28.318-57.585,20.227,62.72-48.545-5.135ZM139.571,218.188l-34.321-57.298,72.746-21.208-38.425,78.506ZM103.249,275.804l-16.601-66.768,51.279,12.142-34.678,54.626ZM84.963,303.087l-15.223-37.829,31.432,13.755-16.209,24.074ZM144.149,348.846l-8.596,44.374-47.49-84.113,56.086,39.739ZM185.084,370.508l13.023,43.983-59.285-18.434,46.262-25.55ZM271.196,357.878l-12.911,57.16-69.522-45.468,82.433-11.692ZM347.986,362l-33.425,30.271-38.878-34.426,72.303,4.155ZM346.779,287.7l51.462,52.003-46.611,19.759-4.851-71.762ZM347.829,285.661l53.044-6.475-1.742,58.316-51.302-51.841ZM437.543,230.662l21.188,71.353-55.059-24.512,33.871-46.841ZM425.536,170.366l34.557,26.207-21.608,29.115-12.949-55.322ZM366.043,157.025l32.078-36.748,23.7,45.966-55.778-9.218ZM364.596,155.367l-11.227-60.061,43.269,23.355-32.042,36.707ZM309.769,129.912l-47.911-32.829,87.094-2.643-39.183,35.471ZM232.098,140.715l-20.087-62.287,44.923,18.213-24.835,44.074ZM179.872,135.855l-23.261-31.537,51.248-25.375-27.986,56.912ZM178.256,137.338l-71.248,20.771,47.865-52.474,23.384,31.703ZM137.405,218.817l-50.777-12.023,17.169-44.084,33.608,56.107ZM101.211,276.653l-32.147-14.068,15.972-50.985,16.175,65.053ZM83.286,304.767l-27.651,10.112,12.328-48.19,15.323,38.079ZM133.02,393.172l-60.829-37.698,12.881-47.225,47.947,84.923ZM194.957,415.791l-57.542,9.127-.249-27.096,57.792,17.969ZM187.634,371.435l67.649,44.243-54.733-.622-12.916-43.621ZM273.266,358.617l39.277,34.78-52.012,21.599,12.734-56.379ZM350.17,362.962l20.758,57.532-54.443-27.025,33.685-30.507ZM352.02,361.662l46.335-19.642-25.527,77.315-20.809-57.673ZM403.044,279.608l55.049,24.507-56.797,34.004,1.748-58.512ZM439.905,230.951l35.993,25.621-15.361,43.857-20.631-69.478ZM439.496,227.985l21.633-29.149,14.256,54.697-35.889-25.548ZM425.06,167.271l10.045-31.148,23.925,56.91-33.97-25.761ZM423.551,164.838l-22.889-44.393,32.956,13.173-10.068,31.22ZM355.725,94.103l47.929-3.13-6.035,25.742-41.894-22.612ZM260.826,94.937l33.745-41.852,54.08,39.187-87.825,2.665ZM258.833,93.935l-17.374-45.51,50.772,4.09-33.397,41.42ZM256.579,94.147l-44.384-17.994,27.208-26.997,17.176,44.992ZM156.864,101.762l19.085-55.05,32.395,29.561-51.48,25.49ZM105.663,156.348l13.976-57.202,33.168,5.518-47.144,51.684ZM84.922,205.164l-17.922-28.127,34.631-14.778-16.71,42.905ZM83.965,207.722l-15.319,48.9-2.058-76.173,17.377,27.273ZM66.327,264.281l-12.492,48.831-19.613-48.785,32.105-.046ZM33.725,262.151l1.047-47.94,30.959,47.894-32.006.046ZM83.11,307.15l-12.415,45.515-15.174-35.426,27.589-10.089ZM132.933,395.682l-37.7,5.34-21.55-42.059,59.25,36.72ZM134.98,397.591l.246,26.707-37.322-21.456,37.077-5.251ZM197.855,417.536l-19.084,39.95-39.769-30.615,58.852-9.335ZM200.08,417.94l50.425,46.556-69.671-6.267,19.245-40.288ZM202.553,417.257l55.234.627-5.038,45.716-50.196-46.344ZM313.542,395.34l2.107,51.647-54.146-30.036,52.039-21.611ZM315.734,395.528l54.632,27.119-52.525,24.554-2.108-51.672ZM400.463,342.598l27.12,42.413-52.683,35.012,25.563-77.424ZM402.351,341.502l52.217,7.674-25.423,34.229-26.794-41.904ZM403.324,339.445l55.852-33.439-3.632,41.114-52.22-7.675ZM477.092,259.761l9.863,34.506-24.749,7.996,14.886-42.501ZM463.97,201.082l28.286,35.627-14.532,17.144-13.754-52.771ZM437.5,136.189l36.737,26.908-12.632,30.429-24.105-57.338ZM399.631,117.688l5.922-25.258,26.459,38.201-32.381-12.943ZM352.793,92.113l-6.377-38.592,55.258,35.4-48.881,3.192ZM350.367,90.824l-52.664-38.161,46.311-.287,6.353,38.448ZM243.238,46.384l34.38-21.102,14.751,25.059-49.132-3.958ZM210.224,75.037l-31.833-29.048,58.885,2.205-27.052,26.842ZM154.231,102.694l-33.061-5.5,51.811-48.585-18.75,54.086ZM102.937,158.307l-33.824-27.463,48.001-30.562-14.177,58.025ZM101.5,159.947l-34.949,14.914,1.704-41.906,33.245,26.993ZM66.536,259.332l-31.401-48.578,29.237-31.514,2.164,80.091ZM52.932,316.716l-5.959,29.716-11.76-73.791,17.719,44.075ZM54.446,320.268l14.716,34.356-21.015-2.946,6.299-31.41ZM92.626,400.717l-22.185-4.268,1.412-36.275,20.773,40.542ZM134.533,426.413l-15.76,15.154-21.163-36.381,36.924,21.227ZM136.414,427.628l37.844,29.133-53.574-14.008,15.73-15.125ZM259.909,418.557l54.028,29.971-59.081,15.873,5.052-45.844ZM371.64,424.455l-2.958,37.689-48.734-13.525,51.692-24.164ZM425.851,388.778l-30,52.538-21.186-18.522,51.185-34.016ZM455.458,351.636l.167,27.511-24.005,4.584,23.838-32.096ZM461.475,304.787l24.406-7.885-27.843,46.796,3.437-38.911ZM478.407,256.419l13.855-16.345-4.52,49.004-9.335-32.659ZM462.865,196.183l12.439-29.963,16.12,65.933-28.559-35.97ZM436.399,132.683l8.739-15.263,26.341,40.958-35.08-25.695ZM434.882,130.944l-25.852-37.325,34.593,22.059-8.741,15.265ZM348.136,52.036l26.172-2.785,26.475,36.513-52.647-33.727ZM294.995,50.503l-14.417-24.491,58.93,24.215-44.513.276ZM240.214,45.684l-11.609-20.331,45.471-.452-33.862,20.783ZM237.905,46.04l-57.274-2.145,45.629-18.248,11.645,20.394ZM122.154,93.284l20.508-44.41,29.742-2.712-50.25,47.122ZM118.469,96.06l-18.747-18.009,39.565-27.071-20.818,45.081ZM117.063,97.732l-46.612,29.678,27.794-47.755,18.818,18.077ZM64.371,174.756l-23.394-12.578,25.061-28.414-1.667,40.992ZM63.633,176.832l-28.413,30.625,4.933-43.249,23.48,12.624ZM31.529,262.717l-12.013,9.831,12.937-52.123-.924,42.292ZM31.831,265.287l12.261,76.937-25.127-66.408,12.866-10.529ZM69.796,356.912l-1.407,36.155-19.632-39.105,21.04,2.95ZM93.921,403.183l19.943,34.283-41.045-38.342,21.102,4.059ZM178.046,460.002l-.867,19.859-52.341-33.772,53.208,13.913ZM180.194,460.85l27.162,12.701-28.016,6.854.854-19.554ZM252.544,467.17l.843,27.855-39.478-20.658,38.635-7.198ZM314.94,450.513l-16.012,37.705-42.346-22.026,58.358-15.679ZM317.45,450.186l48.694,13.514-64.677,24.123,15.983-37.637ZM373.793,424.927l20.631,18.037-23.477,18.211,2.845-36.248ZM429.778,386.3l23.785-4.542-52.127,54.178,28.343-49.636ZM457.787,375.788l-.163-26.816,21.941-13.407-21.778,40.223ZM459.716,345.141l26.632-44.761-4.898,31.481-21.734,13.281ZM493.679,248.478l3.106,32.91-7.038,9.723,3.932-42.634ZM477.504,166.03l6.087,5.707,6.087,44.085-12.174-49.791ZM446.657,115.749l5.727-2.873,16.556,37.52-22.282-34.647ZM406.595,89.484l10.051-14.391,24.603,36.489-34.654-22.098ZM405.035,87.911l-26.203-36.137,36.269,21.727-10.065,14.41ZM346.018,50.072l-.161-15.71,25.241,13.041-25.08,2.669ZM343.831,49.649l-57.689-23.705,57.524,7.574.165,16.131ZM229.715,23.165l9.186-7.881,30.455,7.487-39.641.394ZM179.557,41.979l17.86-19.239,24.696,2.22-42.556,17.019ZM174.944,43.745l-27.044,2.466,44.404-21.167-17.36,18.701ZM100.572,74.828l2.991-6.692,24.819-12.336-27.81,19.028ZM67.995,127.295l-1.805-17.506,26.996-25.777-25.192,43.283ZM66.118,130.376l-22.387,25.382,20.626-42.465,1.761,17.083ZM32.766,209.712l-14.291,2.659,18.877-42.866-4.586,40.207ZM32.292,212.015l-13.672,55.085-.868-52.379,14.54-2.706ZM44.38,349.151l-16.248-13.373-7.782-50.134,24.029,63.506ZM67.163,395.487l-10.378-3.417-6.942-31.084,17.321,34.501ZM111.518,438.258l-34.48-18.772-5.534-18.607,40.014,37.379ZM117.807,444.162l14.929,19.034-45.633-35.75,30.704,16.716ZM123.392,447.749l47.467,30.627-31.062-9.711-16.405-20.916ZM210.475,475.029l36.889,19.303-64.129-12.639,27.24-6.664ZM254.744,467.691l41.295,21.48-40.45,6.415-.845-27.895ZM364.356,466.69l-16.765,14.465-37.721,5.858,54.486-20.322ZM395.342,445.01l1.396,9.025-21.672,6.703,20.275-15.728ZM451.572,386.971l-22.291,39.599-28.361,13.046,50.652-52.644ZM457.786,380.371l14.927-27.57-15.954,37.818,1.027-10.249ZM489.332,295.404l5.635-7.785-9.059,29.788,3.424-22.004ZM494.755,236.648h0s-.002-.019-.002-.019c0-.003-.001-.006-.002-.009,0-.008-.002-.016-.003-.024,0-.005,0-.009,0-.014l-.08-.578.561-7.38.572,19.11-1.046-11.087ZM493.256,225.781l-5.639-40.845,6.983,23.174-1.343,17.671ZM476.483,162.085l-10.291-23.323,14.401,27.176-4.11-3.853ZM445.453,113.916l-20.551-30.48,26.217,27.637-5.666,2.843ZM376.8,48.017l1.374-.993,15.8,11.281-17.174-10.288ZM374.726,46.826l-10.683-5.52,11.872,4.66-1.189.859ZM284.547,23.538l20.019-4.114,30.124,10.716-50.143-6.602ZM278.016,22.658l-27.259-6.701,45.707,2.91-18.448,3.791ZM226.376,23.158l-21.263-1.911,29.75-5.37-8.487,7.281ZM151.346,42.155l12.165-9.118,19.611-6.029-31.776,15.147ZM141.36,46.917l-10.551,5.245,16.222-9.495-5.671,4.251ZM97.09,77.27l-12.517,11.952,14.312-15.968-1.795,4.016ZM38.46,161.618l-5.564,2.061,21.622-35.121-16.057,33.06ZM31.209,166.626l6.006-2.225-15.187,34.487,9.181-32.262ZM16.255,256.114l.318,19.195-1.113,3.49.795-22.685ZM17.299,280.213l5.477,35.282-7.549-28.787,2.072-6.495ZM45.867,353.197l7.033,31.489-22.446-44.174,15.413,12.685ZM68.431,398.197l4.882,16.416-14.537-19.594,9.655,3.179ZM177.475,482.726l2.037,3.247-21.337-9.282,19.3,6.034ZM182.953,487.356l-2.504-3.993,46.414,9.148-43.91-5.155ZM296.648,491.279l-4.88,5.524-25.48-.71,30.36-4.815ZM300.03,490.744l30.372-4.716-34.886,9.827,4.514-5.11ZM370.208,464.52l17.812-5.509-31.409,17.241,13.597-11.731ZM398.74,452.699l-1.399-9.04,26.027-11.972-24.628,21.012ZM455.116,385.123l-1.218,12.149-17.118,20.424,18.335-32.572ZM483.298,333.326l4.398-2.119-20.131,39.412,15.733-37.292ZM489.155,328.086l-4.937,2.378,9.925-32.637-4.988,30.258Z" fill="url(#b)"/>
  <path id="e" data-name="globe-lines-edge" d="M498.996,281.762c.001-.024.002-.047.002-.07,0-.01.002-.02.002-.03v-.009s0-.003,0-.004l-2.206-73.69c0-.011-.003-.02-.004-.031-.001-.018-.002-.036-.004-.054-.003-.026-.008-.051-.013-.076-.006-.033-.012-.065-.021-.097-.002-.008-.002-.015-.005-.023l-11.08-36.771s-.002-.006-.003-.008v-.005c-.004-.008-.009-.015-.011-.024-.007-.02-.014-.04-.022-.06-.01-.027-.022-.053-.034-.079-.005-.011-.008-.022-.014-.033l-31.699-59.819c-.006-.011-.014-.019-.02-.03-.012-.021-.024-.041-.038-.062-.012-.018-.024-.035-.036-.052-.008-.01-.015-.021-.023-.032-.011-.013-.023-.024-.034-.036-.008-.009-.013-.019-.022-.028l-36.257-38.221c-.005-.006-.012-.01-.017-.016-.008-.008-.017-.017-.025-.025-.021-.02-.045-.037-.068-.055-.017-.013-.03-.029-.048-.042l-.006-.004s-.005-.003-.007-.005l-38.48-27.475c-.006-.004-.013-.006-.018-.011-.012-.008-.024-.017-.037-.025-.026-.016-.053-.028-.08-.042-.027-.014-.054-.029-.082-.041-.006-.003-.012-.007-.018-.009l-33.399-13.11s-.002,0-.003-.001l-.02-.008c-.005-.002-.011-.003-.016-.005-.006-.002-.011-.006-.017-.008l-.007-.002s-.003,0-.004-.001l-40.092-14.262c-.013-.004-.025-.005-.038-.009-.025-.008-.051-.015-.077-.022-.024-.006-.047-.011-.071-.015-.025-.004-.049-.006-.073-.009-.013-.001-.025-.005-.038-.006l-66.029-4.203s-.009,0-.014,0c-.006,0-.012-.001-.017-.001-.027,0-.054.003-.081.004-.037.001-.073.002-.109.007-.009.001-.018.002-.027.003-.005,0-.01,0-.014.001l-41.635,7.515c-.009.002-.016.005-.025.007-.013.003-.025.003-.038.006-.009.002-.018.006-.027.009-.025.007-.05.012-.074.02l-33.935,10.433s-.008.004-.012.005c-.025.008-.05.02-.075.03-.029.012-.059.024-.087.038-.014.007-.029.014-.043.021-.005.003-.01.004-.015.007l-60.282,35.283s-.007.006-.012.008c-.017.011-.033.023-.05.035-.015.01-.031.019-.046.031-.014.011-.027.023-.041.035-.012.01-.025.018-.036.029-.015.014-.028.031-.043.046-.011.011-.023.019-.033.03l-.015.016s0,0,0,0l-37.661,42.017c-.006.006-.009.014-.015.02-.009.01-.018.02-.027.031-.009.011-.017.023-.025.034-.012.016-.022.032-.033.048-.005.008-.012.014-.017.022l-.013.021s-.001.002-.002.003l-34.724,56.404c-.006.011-.01.022-.016.033-.011.02-.022.039-.033.059-.011.022-.02.045-.029.068-.011.026-.02.052-.029.078-.004.012-.01.022-.013.034l-13.665,48.021c-.002.007-.002.013-.004.02-.003.012-.007.023-.01.035-.001.004-.003.009-.004.013-.001.005,0,.01-.002.015-.005.025-.006.051-.009.076-.003.027-.009.053-.01.08,0,.007-.003.014-.003.021l-2.555,72.859c0,.016.003.031.003.046,0,.023,0,.045,0,.068.002.023.005.045.008.068.004.03.01.059.016.089.003.014.003.028.007.043l.008.03h0s13.019,49.647,13.019,49.647c0,0,0,.001,0,.002.002.007.004.013.006.02.004.013.009.025.013.038.012.036.027.07.042.104,0,0,0,.001,0,.002.008.017.012.035.02.052l.005.009s.002.003.003.005l28.729,56.541s.004.005.006.008c.005.01.012.018.018.028.018.032.036.063.057.092.006.009.01.018.016.027l20.254,27.299s0,.001.001.002v.002s.004.004.006.006l.006.008s.007.006.009.01c.008.011.016.022.025.032.018.022.04.041.06.062.016.016.028.034.044.05l28.025,25.697c.022.02.047.035.07.053.019.015.035.033.056.047l35.001,23.679c.008.005.016.007.024.011.003.002.005.003.008.005.027.017.055.034.084.049.015.008.029.016.044.022.006.003.01.007.016.009l43.16,18.774c.014.006.029.008.043.014.031.012.063.023.096.032.017.005.033.01.05.014.026.006.051.01.077.014.015.002.029.008.044.01l72.229,8.479c.026.003.052.003.078.005.006,0,.012.002.019.002l37.714,1.05c.009,0,.017,0,.026,0,.001,0,.002,0,.004,0,.003,0,.007-.001.011-.001.072,0,.143-.008.211-.022.015-.003.029-.01.044-.013,0,0,0,0,0,0,.011-.003.021-.001.031-.004l55.819-15.723c.011-.003.021-.009.032-.013.016-.005.033-.008.049-.014.015-.006.029-.014.044-.021.01-.004.02-.01.03-.014.022-.01.044-.018.065-.03.003-.002.006-.002.009-.003l.023-.013s.002-.001.004-.002l49.862-27.37c.005-.003.01-.006.015-.009.007-.004.014-.008.021-.012.029-.017.055-.038.082-.058,0,0,0,0,0,0,.022-.016.046-.029.067-.047.001,0,.002-.002.003-.003l32.099-27.386c.012-.011.021-.023.033-.034.014-.013.029-.025.042-.039.014-.014.027-.029.04-.044.004-.005.009-.008.013-.012l24.886-29.692s.003-.004.005-.006h0c.004-.005.006-.01.01-.015.033-.04.061-.084.088-.129.009-.016.021-.03.03-.046.002-.004.005-.008.007-.013,0,0,0,0,0,0l35.189-68.891c.008-.016.012-.034.02-.05.012-.027.027-.053.037-.082.004-.013.006-.026.01-.038.009-.029.016-.059.023-.088.004-.02.012-.038.015-.058l7.767-47.114s0-.001,0-.002l.002-.01c.002-.009,0-.018.002-.028.002-.013.005-.026.006-.04.001-.014,0-.027.002-.041ZM104.825,445.067l-7.26-6.657,16.328,12.791-9.067-6.134ZM210.762,472.74l-25.51-11.928,60.381,5.432-34.871,6.496ZM220.065,255.523l-66.977,7.051,41.302-69.396,25.674,62.345ZM196.687,193.025l81.828,40.99-56.28,21.048-25.548-62.038ZM220.678,257.648l7.785,61.742-74.51-54.717,66.726-7.025ZM227.487,321.376l-80.938,25.472,5.446-80.91,75.492,55.438ZM223.008,258.678l62.734,41.659-54.967,19.943-7.767-61.602ZM224.008,256.726l56.288-21.052,6.524,62.763-62.812-41.711ZM310.492,184.223l52.167-24.635-5.882,58.6-46.285-33.966ZM354.99,219.58l-71.714,13.1,25.461-47.043,46.253,33.943ZM281.233,231.874l-46.718-85.792,72.376,38.385-25.658,47.408ZM278.615,231.63l-82.364-41.258,35.406-44.975,46.958,86.233ZM151.435,261.088l-10.496-40.067,50.67-27.434-40.174,67.501ZM144.496,344.861l-40.028-65.69,45.378-13.786-5.349,79.476ZM226.232,324.053l-40.723,43.503-37.284-18.953,78.007-24.549ZM286.527,302.369l-14.524,52.311-39.962-32.543,54.486-19.768ZM282.588,236.615l60.539,47.757-54.031,14.861-6.509-62.618ZM283.803,234.797l72.503-13.244-11.553,61.326-60.95-48.082ZM358.923,218.659l5.816-57.949,33.495,45.494-39.311,12.455ZM398.964,208.257l1.853,66.361-41.334-53.852,39.482-12.509ZM309.514,182.276l1.393-49.255,50.518,24.742-51.911,24.514ZM307.331,182.234l-72.103-38.24,73.507-11.42-1.404,49.66ZM195.049,188.374l-13.514-49.178,48.213,5.1-34.699,44.078ZM193.288,190.201l-51.144,27.69,37.627-76.876,13.516,49.186ZM149.719,263.148l-44.419,13.495,33.946-53.474,10.473,39.979ZM141.674,344.422l-55.457-39.293,16.542-24.57,38.915,63.863ZM146.15,349.992l37.27,18.946-45.845,25.32,8.575-44.266ZM229.964,323.256l40.025,32.594-81.335,11.536,41.31-44.13ZM288.705,302.683l59.074,57.125-73.758-4.239,14.684-52.886ZM290.273,301.167l54.22-14.914,4.871,72.055-59.091-57.142ZM358.293,222.797l41.683,54.306-53.135,6.486,11.452-60.792ZM401.159,208.68l35.202,19.896-33.358,46.131-1.844-66.027ZM401.531,206.387l21.799-35.87,13,55.538-34.799-19.668ZM399.928,204.825l-33.525-45.534,55.612,9.19-22.087,36.343ZM311.786,131.026l39.376-35.647,11.303,60.467-50.679-24.821ZM233.876,142.001l24.981-44.333,48.125,32.975-73.105,11.358ZM181.727,137.028l28.318-57.585,20.227,62.72-48.545-5.135ZM139.571,218.188l-34.321-57.298,72.746-21.208-38.425,78.506ZM103.249,275.804l-16.601-66.768,51.279,12.142-34.678,54.626ZM84.963,303.087l-15.223-37.829,31.432,13.755-16.209,24.074ZM144.149,348.846l-8.596,44.374-47.49-84.113,56.086,39.739ZM185.084,370.508l13.023,43.983-59.285-18.434,46.262-25.55ZM271.196,357.878l-12.911,57.16-69.522-45.468,82.433-11.692ZM347.986,362l-33.425,30.271-38.878-34.426,72.303,4.155ZM346.779,287.7l51.462,52.003-46.611,19.759-4.851-71.762ZM347.829,285.661l53.044-6.475-1.742,58.316-51.302-51.841ZM437.543,230.662l21.188,71.353-55.059-24.512,33.871-46.841ZM425.536,170.366l34.557,26.207-21.608,29.115-12.949-55.322ZM366.043,157.025l32.078-36.748,23.7,45.966-55.778-9.218ZM364.596,155.367l-11.227-60.061,43.269,23.355-32.042,36.707ZM309.769,129.912l-47.911-32.829,87.094-2.643-39.183,35.471ZM232.098,140.715l-20.087-62.287,44.923,18.213-24.835,44.074ZM179.872,135.855l-23.261-31.537,51.248-25.375-27.986,56.912ZM178.256,137.338l-71.248,20.771,47.865-52.474,23.384,31.703ZM137.405,218.817l-50.777-12.023,17.169-44.084,33.608,56.107ZM101.211,276.653l-32.147-14.068,15.972-50.985,16.175,65.053ZM83.286,304.767l-27.651,10.112,12.328-48.19,15.323,38.079ZM133.02,393.172l-60.829-37.698,12.881-47.225,47.947,84.923ZM194.957,415.791l-57.542,9.127-.249-27.096,57.792,17.969ZM187.634,371.435l67.649,44.243-54.733-.622-12.916-43.621ZM273.266,358.617l39.277,34.78-52.012,21.599,12.734-56.379ZM350.17,362.962l20.758,57.532-54.443-27.025,33.685-30.507ZM352.02,361.662l46.335-19.642-25.527,77.315-20.809-57.673ZM403.044,279.608l55.049,24.507-56.797,34.004,1.748-58.512ZM439.905,230.951l35.993,25.621-15.361,43.857-20.631-69.478ZM439.496,227.985l21.633-29.149,14.256,54.697-35.889-25.548ZM425.06,167.271l10.045-31.148,23.925,56.91-33.97-25.761ZM423.551,164.838l-22.889-44.393,32.956,13.173-10.068,31.22ZM355.725,94.103l47.929-3.13-6.035,25.742-41.894-22.612ZM260.826,94.937l33.745-41.852,54.08,39.187-87.825,2.665ZM258.833,93.935l-17.374-45.51,50.772,4.09-33.397,41.42ZM256.579,94.147l-44.384-17.994,27.208-26.997,17.176,44.992ZM156.864,101.762l19.085-55.05,32.395,29.561-51.48,25.49ZM105.663,156.348l13.976-57.202,33.168,5.518-47.144,51.684ZM84.922,205.164l-17.922-28.127,34.631-14.778-16.71,42.905ZM83.965,207.722l-15.319,48.9-2.058-76.173,17.377,27.273ZM66.327,264.281l-12.492,48.831-19.613-48.785,32.105-.046ZM33.725,262.151l1.047-47.94,30.959,47.894-32.006.046ZM83.11,307.15l-12.415,45.515-15.174-35.426,27.589-10.089ZM132.933,395.682l-37.7,5.34-21.55-42.059,59.25,36.72ZM134.98,397.591l.246,26.707-37.322-21.456,37.077-5.251ZM197.855,417.536l-19.084,39.95-39.769-30.615,58.852-9.335ZM200.08,417.94l50.425,46.556-69.671-6.267,19.245-40.288ZM202.553,417.257l55.234.627-5.038,45.716-50.196-46.344ZM313.542,395.34l2.107,51.647-54.146-30.036,52.039-21.611ZM315.734,395.528l54.632,27.119-52.525,24.554-2.108-51.672ZM400.463,342.598l27.12,42.413-52.683,35.012,25.563-77.424ZM402.351,341.502l52.217,7.674-25.423,34.229-26.794-41.904ZM403.324,339.445l55.852-33.439-3.632,41.114-52.22-7.675ZM477.092,259.761l9.863,34.506-24.749,7.996,14.886-42.501ZM463.97,201.082l28.286,35.627-14.532,17.144-13.754-52.771ZM437.5,136.189l36.737,26.908-12.632,30.429-24.105-57.338ZM399.631,117.688l5.922-25.258,26.459,38.201-32.381-12.943ZM352.793,92.113l-6.377-38.592,55.258,35.4-48.881,3.192ZM350.367,90.824l-52.664-38.161,46.311-.287,6.353,38.448ZM243.238,46.384l34.38-21.102,14.751,25.059-49.132-3.958ZM210.224,75.037l-31.833-29.048,58.885,2.205-27.052,26.842ZM154.231,102.694l-33.061-5.5,51.811-48.585-18.75,54.086ZM102.937,158.307l-33.824-27.463,48.001-30.562-14.177,58.025ZM101.5,159.947l-34.949,14.914,1.704-41.906,33.245,26.993ZM66.536,259.332l-31.401-48.578,29.237-31.514,2.164,80.091ZM52.932,316.716l-5.959,29.716-11.76-73.791,17.719,44.075ZM54.446,320.268l14.716,34.356-21.015-2.946,6.299-31.41ZM92.626,400.717l-22.185-4.268,1.412-36.275,20.773,40.542ZM134.533,426.413l-15.76,15.154-21.163-36.381,36.924,21.227ZM136.414,427.628l37.844,29.133-53.574-14.008,15.73-15.125ZM259.909,418.557l54.028,29.971-59.081,15.873,5.052-45.844ZM371.64,424.455l-2.958,37.689-48.734-13.525,51.692-24.164ZM425.851,388.778l-30,52.538-21.186-18.522,51.185-34.016ZM455.458,351.636l.167,27.511-24.005,4.584,23.838-32.096ZM461.475,304.787l24.406-7.885-27.843,46.796,3.437-38.911ZM478.407,256.419l13.855-16.345-4.52,49.004-9.335-32.659ZM462.865,196.183l12.439-29.963,16.12,65.933-28.559-35.97ZM436.399,132.683l8.739-15.263,26.341,40.958-35.08-25.695ZM434.882,130.944l-25.852-37.325,34.593,22.059-8.741,15.265ZM348.136,52.036l26.172-2.785,26.475,36.513-52.647-33.727ZM294.995,50.503l-14.417-24.491,58.93,24.215-44.513.276ZM240.214,45.684l-11.609-20.331,45.471-.452-33.862,20.783ZM237.905,46.04l-57.274-2.145,45.629-18.248,11.645,20.394ZM122.154,93.284l20.508-44.41,29.742-2.712-50.25,47.122ZM118.469,96.06l-18.747-18.009,39.565-27.071-20.818,45.081ZM117.063,97.732l-46.612,29.678,27.794-47.755,18.818,18.077ZM64.371,174.756l-23.394-12.578,25.061-28.414-1.667,40.992ZM63.633,176.832l-28.413,30.625,4.933-43.249,23.48,12.624ZM31.529,262.717l-12.013,9.831,12.937-52.123-.924,42.292ZM31.831,265.287l12.261,76.937-25.127-66.408,12.866-10.529ZM69.796,356.912l-1.407,36.155-19.632-39.105,21.04,2.95ZM93.921,403.183l19.943,34.283-41.045-38.342,21.102,4.059ZM178.046,460.002l-.867,19.859-52.341-33.772,53.208,13.913ZM180.194,460.85l27.162,12.701-28.016,6.854.854-19.554ZM252.544,467.17l.843,27.855-39.478-20.658,38.635-7.198ZM314.94,450.513l-16.012,37.705-42.346-22.026,58.358-15.679ZM317.45,450.186l48.694,13.514-64.677,24.123,15.983-37.637ZM373.793,424.927l20.631,18.037-23.477,18.211,2.845-36.248ZM429.778,386.3l23.785-4.542-52.127,54.178,28.343-49.636ZM457.787,375.788l-.163-26.816,21.941-13.407-21.778,40.223ZM459.716,345.141l26.632-44.761-4.898,31.481-21.734,13.281ZM493.679,248.478l3.106,32.91-7.038,9.723,3.932-42.634ZM477.504,166.03l6.087,5.707,6.087,44.085-12.174-49.791ZM446.657,115.749l5.727-2.873,16.556,37.52-22.282-34.647ZM406.595,89.484l10.051-14.391,24.603,36.489-34.654-22.098ZM405.035,87.911l-26.203-36.137,36.269,21.727-10.065,14.41ZM346.018,50.072l-.161-15.71,25.241,13.041-25.08,2.669ZM343.831,49.649l-57.689-23.705,57.524,7.574.165,16.131ZM229.715,23.165l9.186-7.881,30.455,7.487-39.641.394ZM179.557,41.979l17.86-19.239,24.696,2.22-42.556,17.019ZM174.944,43.745l-27.044,2.466,44.404-21.167-17.36,18.701ZM100.572,74.828l2.991-6.692,24.819-12.336-27.81,19.028ZM67.995,127.295l-1.805-17.506,26.996-25.777-25.192,43.283ZM66.118,130.376l-22.387,25.382,20.626-42.465,1.761,17.083ZM32.766,209.712l-14.291,2.659,18.877-42.866-4.586,40.207ZM32.292,212.015l-13.672,55.085-.868-52.379,14.54-2.706ZM44.38,349.151l-16.248-13.373-7.782-50.134,24.029,63.506ZM67.163,395.487l-10.378-3.417-6.942-31.084,17.321,34.501ZM111.518,438.258l-34.48-18.772-5.534-18.607,40.014,37.379ZM117.807,444.162l14.929,19.034-45.633-35.75,30.704,16.716ZM123.392,447.749l47.467,30.627-31.062-9.711-16.405-20.916ZM210.475,475.029l36.889,19.303-64.129-12.639,27.24-6.664ZM254.744,467.691l41.295,21.48-40.45,6.415-.845-27.895ZM364.356,466.69l-16.765,14.465-37.721,5.858,54.486-20.322ZM395.342,445.01l1.396,9.025-21.672,6.703,20.275-15.728ZM451.572,386.971l-22.291,39.599-28.361,13.046,50.652-52.644ZM457.786,380.371l14.927-27.57-15.954,37.818,1.027-10.249ZM489.332,295.404l5.635-7.785-9.059,29.788,3.424-22.004ZM494.755,236.648h0s-.002-.019-.002-.019c0-.003-.001-.006-.002-.009,0-.008-.002-.016-.003-.024,0-.005,0-.009,0-.014l-.08-.578.561-7.38.572,19.11-1.046-11.087ZM493.256,225.781l-5.639-40.845,6.983,23.174-1.343,17.671ZM476.483,162.085l-10.291-23.323,14.401,27.176-4.11-3.853ZM445.453,113.916l-20.551-30.48,26.217,27.637-5.666,2.843ZM376.8,48.017l1.374-.993,15.8,11.281-17.174-10.288ZM374.726,46.826l-10.683-5.52,11.872,4.66-1.189.859ZM284.547,23.538l20.019-4.114,30.124,10.716-50.143-6.602ZM278.016,22.658l-27.259-6.701,45.707,2.91-18.448,3.791ZM226.376,23.158l-21.263-1.911,29.75-5.37-8.487,7.281ZM151.346,42.155l12.165-9.118,19.611-6.029-31.776,15.147ZM141.36,46.917l-10.551,5.245,16.222-9.495-5.671,4.251ZM97.09,77.27l-12.517,11.952,14.312-15.968-1.795,4.016ZM38.46,161.618l-5.564,2.061,21.622-35.121-16.057,33.06ZM31.209,166.626l6.006-2.225-15.187,34.487,9.181-32.262ZM16.255,256.114l.318,19.195-1.113,3.49.795-22.685ZM17.299,280.213l5.477,35.282-7.549-28.787,2.072-6.495ZM45.867,353.197l7.033,31.489-22.446-44.174,15.413,12.685ZM68.431,398.197l4.882,16.416-14.537-19.594,9.655,3.179ZM177.475,482.726l2.037,3.247-21.337-9.282,19.3,6.034ZM182.953,487.356l-2.504-3.993,46.414,9.148-43.91-5.155ZM296.648,491.279l-4.88,5.524-25.48-.71,30.36-4.815ZM300.03,490.744l30.372-4.716-34.886,9.827,4.514-5.11ZM370.208,464.52l17.812-5.509-31.409,17.241,13.597-11.731ZM398.74,452.699l-1.399-9.04,26.027-11.972-24.628,21.012ZM455.116,385.123l-1.218,12.149-17.118,20.424,18.335-32.572ZM483.298,333.326l4.398-2.119-20.131,39.412,15.733-37.292ZM489.155,328.086l-4.937,2.378,9.925-32.637-4.988,30.258Z" fill="url(#d)"/>
</svg>