<?xml version="1.0" encoding="UTF-8"?>
<svg id="a" data-name="Layer 1" xmlns="http://www.w3.org/2000/svg" width="512" height="512" xmlns:xlink="http://www.w3.org/1999/xlink" viewBox="0 0 512 512">
  <defs>
    <radialGradient id="b" cx="340.864" cy="118.347" fx="340.864" fy="118.347" r="409.071" gradientUnits="userSpaceOnUse">
      <stop offset="0" stop-color="#0cf"/>
      <stop offset=".51" stop-color="#0090ed"/>
      <stop offset=".718" stop-color="#336de9"/>
      <stop offset="1" stop-color="#7542e5"/>
    </radialGradient>
    <radialGradient id="c" cx="293.376" cy="192.278" fx="293.376" fy="192.278" r="345.116" gradientTransform="translate(624.81 61.379) rotate(123.864) scale(1 1.052)" gradientUnits="userSpaceOnUse">
      <stop offset=".205" stop-color="#7542e5" stop-opacity="0"/>
      <stop offset=".312" stop-color="#713fdd" stop-opacity=".053"/>
      <stop offset=".444" stop-color="#6539c7" stop-opacity=".207"/>
      <stop offset=".591" stop-color="#522ea3" stop-opacity=".46"/>
      <stop offset=".746" stop-color="#381f70" stop-opacity=".81"/>
      <stop offset=".781" stop-color="#321c64" stop-opacity=".9"/>
      <stop offset=".882" stop-color="#331c66" stop-opacity=".881"/>
      <stop offset=".918" stop-color="#381f70" stop-opacity=".813"/>
      <stop offset=".944" stop-color="#412481" stop-opacity=".695"/>
      <stop offset=".965" stop-color="#4d2b99" stop-opacity=".526"/>
      <stop offset=".982" stop-color="#5e34b8" stop-opacity=".309"/>
      <stop offset=".998" stop-color="#7140de" stop-opacity=".043"/>
      <stop offset="1" stop-color="#7542e5" stop-opacity="0"/>
    </radialGradient>
    <radialGradient id="d" cx="233.957" cy="293.098" fx="233.957" fy="293.098" r="287.011" gradientUnits="userSpaceOnUse">
      <stop offset=".541" stop-color="#3fe1b0" stop-opacity="0"/>
      <stop offset=".601" stop-color="#3fe1b0" stop-opacity=".017"/>
      <stop offset=".665" stop-color="#40e3b1" stop-opacity=".067"/>
      <stop offset=".732" stop-color="#42e6b2" stop-opacity=".151"/>
      <stop offset=".799" stop-color="#46ebb4" stop-opacity=".268"/>
      <stop offset=".868" stop-color="#4af0b6" stop-opacity=".419"/>
      <stop offset=".936" stop-color="#4ef7b9" stop-opacity=".601"/>
      <stop offset="1" stop-color="#54ffbd" stop-opacity=".8"/>
    </radialGradient>
    <radialGradient id="e" cx="368.195" cy="159.1" fx="368.195" fy="159.1" r="400.659" gradientUnits="userSpaceOnUse">
      <stop offset=".854" stop-color="#592acb" stop-opacity="0"/>
      <stop offset=".914" stop-color="#814dde" stop-opacity=".092"/>
      <stop offset="1" stop-color="#c689ff" stop-opacity=".25"/>
    </radialGradient>
  </defs>
  <g>
    <polygon points="398.669 455.686 430.879 428.205 455.787 398.484 491.232 329.09 499 281.971 496.774 207.617 485.724 170.943 453.793 110.683 417.412 72.33 378.825 44.778 345.214 31.584 304.854 17.225 238.475 13 196.677 20.545 162.663 31.002 102.049 66.482 64.234 108.674 29.239 165.518 15.571 213.549 13 286.878 26.044 336.618 55.042 393.692 75.306 421.005 103.422 446.787 138.612 470.593 181.796 489.379 254.797 497.949 292.515 499 348.483 483.234 398.669 455.686" fill="url(#b)"/>
    <polygon points="398.669 455.686 430.879 428.205 455.787 398.484 491.232 329.09 499 281.971 496.774 207.617 485.724 170.943 453.793 110.683 417.412 72.33 378.825 44.778 345.214 31.584 304.854 17.225 238.475 13 196.677 20.545 162.663 31.002 102.049 66.482 64.234 108.674 29.239 165.518 15.571 213.549 13 286.878 26.044 336.618 55.042 393.692 75.306 421.005 103.422 446.787 138.612 470.593 181.796 489.379 254.797 497.949 292.515 499 348.483 483.234 398.669 455.686" fill="url(#c)"/>
    <polygon points="398.669 455.686 430.879 428.205 455.787 398.484 491.232 329.09 499 281.971 496.774 207.617 485.724 170.943 453.793 110.683 417.412 72.33 378.825 44.778 345.214 31.584 304.854 17.225 238.475 13 196.677 20.545 162.663 31.002 102.049 66.482 64.234 108.674 29.239 165.518 15.571 213.549 13 286.878 26.044 336.618 55.042 393.692 75.306 421.005 103.422 446.787 138.612 470.593 181.796 489.379 254.797 497.949 292.515 499 348.483 483.234 398.669 455.686" fill="url(#d)"/>
    <polygon points="398.669 455.686 430.879 428.205 455.787 398.484 491.232 329.09 499 281.971 496.774 207.617 485.724 170.943 453.793 110.683 417.412 72.33 378.825 44.778 345.214 31.584 304.854 17.225 238.475 13 196.677 20.545 162.663 31.002 102.049 66.482 64.234 108.674 29.239 165.518 15.571 213.549 13 286.878 26.044 336.618 55.042 393.692 75.306 421.005 103.422 446.787 138.612 470.593 181.796 489.379 254.797 497.949 292.515 499 348.483 483.234 398.669 455.686" fill="url(#e)"/>
  </g>
  <g>
    <polygon points="135.795 426.962 178.829 460.091 199.479 416.861 135.795 426.962" fill="#3a1b73"/>
    <polygon points="258.502 95.375 352.309 92.528 294.546 50.672 258.502 95.375" fill="#0fbae2"/>
    <polygon points="345.341 50.357 294.546 50.672 352.309 92.528 345.341 50.357" fill="#27c7d6"/>
    <polygon points="405.723 89.04 375.358 47.163 417.387 72.341 405.723 89.04" fill="#44ddca"/>
    <polygon points="445.937 114.684 405.723 89.04 417.387 72.341 445.937 114.684" fill="#42d4cb"/>
    <polygon points="405.723 89.04 398.997 117.729 435.776 132.43 405.723 89.04" fill="#2ac4d5"/>
    <polygon points="405.723 89.04 445.937 114.684 435.776 132.43 405.723 89.04" fill="#3dc9cc"/>
    <polygon points="352.309 92.528 405.723 89.04 398.997 117.729 352.309 92.528" fill="#1ec4dc"/>
    <polygon points="352.309 92.528 310.106 130.734 364.423 157.337 352.309 92.528" fill="#00c9ed"/>
    <polygon points="258.502 95.375 352.309 92.528 310.106 130.734 258.502 95.375" fill="#00c2ed"/>
    <polygon points="398.997 117.729 424.541 167.272 435.776 132.43 398.997 117.729" fill="#28bad5"/>
    <polygon points="424.541 167.272 435.776 132.43 462.538 196.088 424.541 167.272" fill="#2babd4"/>
    <polygon points="435.776 132.43 476.563 162.305 462.538 196.088 435.776 132.43" fill="#39afcd"/>
    <polygon points="445.937 114.684 453.808 110.735 476.563 162.305 445.937 114.684" fill="#35b9d0"/>
    <polygon points="476.563 162.305 485.65 170.825 453.808 110.735 476.563 162.305" fill="#47b4c6"/>
    <polygon points="476.563 162.304 445.937 114.684 435.777 132.43 476.563 162.304" fill="#36b6cf"/>
    <polygon points="417.387 72.34 445.937 114.684 453.808 110.735 417.387 72.34" fill="#45d5ca"/>
    <polygon points="494.738 236.645 485.65 170.825 496.784 207.775 494.589 236.645 494.738 236.645" fill="#44a0c4"/>
    <polygon points="476.563 162.305 494.738 236.645 485.65 170.825 476.563 162.305" fill="#47b4c6"/>
    <polygon points="462.538 196.088 494.738 236.645 476.563 162.305 462.538 196.088" fill="#3ca4c9"/>
    <polygon points="494.589 236.645 496.784 207.775 499 281.811 494.738 236.645 494.589 236.645" fill="#4782b9"/>
    <polygon points="489.341 295.155 499 281.811 494.738 236.645 489.341 295.155" fill="#477cb7"/>
    <polygon points="491.196 329.15 483.473 332.871 499 281.811 491.196 329.15" fill="#495fa9"/>
    <polygon points="483.473 332.871 499 281.811 489.341 295.155 483.473 332.871" fill="#4372b8"/>
    <polygon points="489.341 295.155 494.738 236.645 478.195 256.161 489.341 295.155" fill="#4184c1"/>
    <polygon points="483.473 332.871 489.341 295.155 457.434 348.783 483.473 332.871" fill="#485bac"/>
    <polygon points="462.538 196.088 494.738 236.645 478.195 256.161 462.538 196.088" fill="#4192c3"/>
    <polygon points="489.341 295.155 478.195 256.161 461.373 304.191 489.341 295.155" fill="#4170bb"/>
    <polygon points="455.848 398.353 483.473 332.871 457.627 380.608 455.848 398.353" fill="#443e93"/>
    <polygon points="457.627 380.608 483.473 332.871 457.434 348.783 457.627 380.608" fill="#484da3"/>
    <polygon points="483.473 332.872 455.848 398.353 491.196 329.151 483.473 332.872" fill="#4855a4"/>
    <polygon points="430.845 428.186 455.848 398.353 457.627 380.608 430.845 428.186" fill="#413587"/>
    <polygon points="398.6 455.696 430.845 428.186 396.769 443.861 398.6 455.696" fill="#351967"/>
    <polygon points="210.412 474.859 177.835 482.829 178.829 460.091 210.412 474.859" fill="#49278c"/>
    <polygon points="29.293 165.391 38.274 162.064 15.566 213.629 29.293 165.391" fill="#3c2679"/>
    <polygon points="15.566 213.629 32.757 210.43 38.274 162.064 15.566 213.629" fill="#392272"/>
    <polygon points="16.592 275.558 15.566 213.629 32.757 210.43 16.592 275.558" fill="#321762"/>
    <polygon points="398.998 117.729 364.424 157.337 424.541 167.272 398.998 117.729" fill="#09b7e4"/>
    <polygon points="97.288 77.104 141.42 46.907 102.035 66.484 97.288 77.104" fill="#466cb2"/>
    <polygon points="102.035 66.484 162.588 31.041 141.42 46.907 102.035 66.484" fill="#4294c3"/>
    <polygon points="141.42 46.907 196.714 20.549 162.588 31.041 141.42 46.907" fill="#4595c1"/>
    <polygon points="352.309 92.528 364.424 157.337 398.998 117.729 352.309 92.528" fill="#00c3e9"/>
    <polygon points="175.097 43.836 226.606 23.236 196.714 20.549 175.097 43.836" fill="#42a4c6"/>
    <polygon points="238.537 13 196.714 20.549 226.606 23.236 238.537 13" fill="#46b9c8"/>
    <polygon points="375.357 47.162 345.341 50.357 405.723 89.04 375.357 47.162" fill="#39d1ce"/>
    <polygon points="278.094 22.724 345.147 31.553 304.864 17.222 278.094 22.724" fill="#44d3ca"/>
    <polygon points="375.358 47.163 345.148 31.553 378.721 44.732 375.358 47.163" fill="#43e6c8"/>
    <polygon points="26.086 336.719 45.907 353.032 16.593 275.557 26.086 336.719" fill="#472888"/>
    <polygon points="299.668 490.786 317.093 449.753 253.586 466.816 299.668 490.786" fill="#3c1e76"/>
    <polygon points="317.093 449.753 370.179 464.486 373.402 423.43 317.093 449.753" fill="#351966"/>
    <polygon points="396.769 443.86 373.402 423.43 429.859 385.91 396.769 443.86" fill="#3e277f"/>
    <path d="M378.721,44.732l-3.363,2.43,42.03,25.178-38.666-27.608ZM345.341,50.357l30.017-3.195-30.21-15.609.193,18.804Z" fill="#3cd3cd"/>
    <polygon points="238.537 13 278.094 22.724 304.864 17.222 238.537 13" fill="#44bcc9"/>
    <polygon points="345.147 31.553 278.094 22.724 345.341 50.357 345.147 31.553" fill="#41d7cb"/>
    <polygon points="278.094 22.724 294.546 50.672 345.34 50.357 278.094 22.724" fill="#2fc5d1"/>
    <polygon points="278.094 22.724 294.546 50.672 239.752 46.258 278.094 22.724" fill="#34bdd0"/>
    <polygon points="226.606 23.236 239.752 46.258 278.094 22.724 226.606 23.236" fill="#3ab7cb"/>
    <polygon points="175.097 43.836 226.606 23.236 239.752 46.258 175.097 43.836" fill="#38a6cc"/>
    <polygon points="141.42 46.907 175.097 43.836 196.714 20.549 141.42 46.907" fill="#4294c3"/>
    <polygon points="175.097 43.836 210.049 75.731 239.751 46.258 175.097 43.836" fill="#2f97d2"/>
    <polygon points="175.097 43.836 118.2 97.192 141.42 46.907 175.097 43.836" fill="#4182c0"/>
    <polygon points="118.2 97.192 154.506 103.232 175.097 43.836 118.2 97.192" fill="#3477ca"/>
    <polygon points="154.506 103.232 175.097 43.836 210.049 75.731 154.506 103.232" fill="#2986d6"/>
    <polygon points="64.189 108.708 66.402 130.172 97.288 77.104 64.189 108.708" fill="#464d9f"/>
    <polygon points="38.274 162.064 64.189 108.708 66.402 130.172 38.274 162.064" fill="#463f96"/>
    <polygon points="66.402 130.172 97.288 77.104 118.2 97.192 66.402 130.172" fill="#465ab0"/>
    <polygon points="64.531 176.181 66.402 130.172 38.274 162.064 64.531 176.181" fill="#453895"/>
    <polygon points="64.531 176.181 66.402 130.172 102.902 159.807 64.531 176.181" fill="#4640a7"/>
    <polygon points="102.902 159.807 118.2 97.192 66.402 130.172 102.902 159.807" fill="#4452b6"/>
    <polygon points="102.902 159.807 118.2 97.192 154.506 103.232 102.902 159.807" fill="#3761c7"/>
    <polygon points="32.757 210.43 38.274 162.064 64.531 176.181 32.757 210.43" fill="#402c85"/>
    <polygon points="299.668 490.786 348.484 483.206 370.179 464.486 299.668 490.786" fill="#3c2378"/>
    <polygon points="13 286.817 16.593 275.557 15.566 213.629 13 286.817" fill="#442683"/>
    <polygon points="45.907 353.032 70.09 356.423 53.156 316.886 45.907 353.032" fill="#3d1d78"/>
    <polygon points="68.473 397.981 93.888 402.87 70.09 356.423 68.473 397.981" fill="#452386"/>
    <polygon points="26.086 336.719 54.952 393.53 45.907 353.032 26.086 336.719" fill="#4c2b8f"/>
    <polygon points="13 286.817 26.086 336.719 16.593 275.557 13 286.817" fill="#492c8b"/>
    <polygon points="70.09 356.423 45.907 353.032 68.473 397.981 70.09 356.423" fill="#422283"/>
    <polygon points="31.602 263.274 45.907 353.032 53.156 316.886 31.602 263.274" fill="#391b70"/>
    <polygon points="32.757 210.43 66.883 263.224 64.531 176.181 32.757 210.43" fill="#402685"/>
    <polygon points="31.603 263.274 53.156 316.886 66.883 263.224 31.603 263.274" fill="#341967"/>
    <polygon points="53.156 316.886 66.883 263.224 83.946 305.626 53.156 316.886" fill="#381b70"/>
    <polygon points="70.09 356.423 135.519 396.973 83.946 305.626 70.09 356.423" fill="#321762"/>
    <polygon points="54.952 393.53 68.473 397.981 45.907 353.032 54.952 393.53" fill="#502e95"/>
    <polygon points="199.479 416.861 178.829 460.091 253.586 466.816 199.479 416.861" fill="#38196f"/>
    <polygon points="373.402 423.43 370.179 464.486 396.769 443.861 373.402 423.43" fill="#381d70"/>
    <polygon points="31.602 263.274 66.882 263.224 32.757 210.43 31.602 263.274" fill="#371c6e"/>
    <polygon points="314.833 394.357 317.093 449.753 373.402 423.43 314.833 394.357" fill="#402588"/>
    <polygon points="314.833 394.357 351.071 361.538 373.402 423.43 314.833 394.357" fill="#4235a6"/>
    <polygon points="373.402 423.43 400.796 340.459 351.071 361.538 373.402 423.43" fill="#4339ad"/>
    <polygon points="429.859 385.91 373.402 423.43 400.796 340.459 429.859 385.91" fill="#42339d"/>
    <polygon points="38.274 162.064 64.189 108.708 29.293 165.391 38.274 162.064" fill="#3f2f82"/>
    <polygon points="438.779 228.102 461.373 304.191 478.196 256.161 438.779 228.102" fill="#367cc9"/>
    <polygon points="478.195 256.161 462.538 196.088 438.779 228.102 478.195 256.161" fill="#338ccd"/>
    <polygon points="400.796 340.459 461.373 304.191 402.66 278.052 400.796 340.459" fill="#2d60d0"/>
    <polygon points="400.796 340.459 345.896 284.981 351.071 361.538 400.796 340.459" fill="#275fd4"/>
    <polygon points="314.833 394.357 272.683 357.034 351.071 361.538 314.833 394.357" fill="#4043bb"/>
    <polygon points="70.09 356.423 83.946 305.627 53.156 316.886 70.09 356.423" fill="#321762"/>
    <polygon points="272.683 357.034 259.017 417.537 314.833 394.357 272.683 357.034" fill="#4630a4"/>
    <polygon points="259.017 417.537 272.683 357.034 185.429 369.409 259.017 417.537" fill="#4733aa"/>
    <polygon points="66.883 263.224 84.387 207.346 64.531 176.181 66.883 263.224" fill="#45309d"/>
    <polygon points="102.902 159.807 179.717 137.413 139.143 220.311 102.902 159.807" fill="#1f69da"/>
    <polygon points="400.796 340.459 345.896 284.981 402.66 278.052 400.796 340.459" fill="#1c6edb"/>
    <polygon points="461.373 304.191 438.779 228.102 402.66 278.052 461.373 304.191" fill="#2d70d2"/>
    <polygon points="351.071 361.538 288.289 300.827 345.896 284.981 351.071 361.538" fill="#1b6dda"/>
    <polygon points="272.683 357.034 351.071 361.538 288.289 300.827 272.683 357.034" fill="#2c58ca"/>
    <polygon points="272.683 357.034 229.745 322.067 288.289 300.827 272.683 357.034" fill="#2c5acd"/>
    <polygon points="97.288 77.104 102.035 66.484 64.189 108.708 97.288 77.104" fill="#4854a5"/>
    <polygon points="424.541 167.272 438.779 228.102 462.538 196.088 424.541 167.272" fill="#2b9cd4"/>
    <polygon points="102.902 159.807 139.143 220.311 84.387 207.346 102.902 159.807" fill="#3e46bf"/>
    <polygon points="84.387 207.346 139.143 220.311 102.114 278.641 84.387 207.346" fill="#423cb4"/>
    <polygon points="179.717 137.413 210.049 75.731 154.506 103.232 179.717 137.413" fill="#1e82db"/>
    <polygon points="66.883 263.224 102.114 278.641 83.946 305.626 66.883 263.224" fill="#41248a"/>
    <polygon points="144.855 348.783 150.567 263.921 102.114 278.641 144.855 348.783" fill="#4438b0"/>
    <polygon points="144.855 348.783 229.745 322.067 150.567 263.921 144.855 348.783" fill="#3d46bf"/>
    <polygon points="229.745 322.067 221.473 256.456 150.567 263.921 229.745 322.067" fill="#1f67d8"/>
    <polygon points="221.473 256.456 281.349 234.062 288.289 300.827 221.473 256.456" fill="#0b87e6"/>
    <polygon points="185.429 369.409 272.683 357.034 229.745 322.067 185.429 369.409" fill="#3e46bf"/>
    <polygon points="185.429 369.409 144.855 348.783 229.745 322.067 185.429 369.409" fill="#4338ab"/>
    <polygon points="179.717 137.413 231.715 142.913 210.049 75.731 179.717 137.413" fill="#0493ea"/>
    <polygon points="258.502 95.375 210.049 75.731 231.715 142.913 258.502 95.375" fill="#01a1e9"/>
    <polygon points="258.502 95.375 310.106 130.734 231.715 142.913 258.502 95.375" fill="#00aef1"/>
    <polygon points="231.715 142.913 308.609 183.694 281.349 234.062 231.715 142.913" fill="#00a9f0"/>
    <polygon points="308.609 183.694 310.106 130.734 231.715 142.913 308.609 183.694" fill="#00b6f6"/>
    <polygon points="308.609 183.694 310.106 130.734 364.423 157.337 308.609 183.694" fill="#00c1f7"/>
    <polygon points="231.715 142.913 281.349 234.062 194.292 190.452 231.715 142.913" fill="#0099ec"/>
    <polygon points="221.473 256.456 281.349 234.062 194.292 190.452 221.473 256.456" fill="#088ce8"/>
    <polygon points="281.349 234.062 358.131 220.036 308.609 183.694 281.349 234.062" fill="#00a9f1"/>
    <polygon points="364.423 157.337 358.131 220.036 308.609 183.694 364.423 157.337" fill="#00b3f5"/>
    <polygon points="364.423 157.337 400.664 206.56 358.131 220.036 364.423 157.337" fill="#00aaf1"/>
    <polygon points="424.541 167.272 364.423 157.337 400.664 206.56 424.541 167.272" fill="#01ade8"/>
    <polygon points="118.2 97.192 141.42 46.907 97.288 77.104 118.2 97.192" fill="#456ab7"/>
    <polygon points="424.541 167.272 400.664 206.56 438.779 228.102 424.541 167.272" fill="#1498e1"/>
    <polygon points="402.66 278.052 438.779 228.102 400.664 206.56 402.66 278.052" fill="#128de1"/>
    <polygon points="402.66 278.052 400.664 206.56 358.131 220.036 402.66 278.052" fill="#009aea"/>
    <polygon points="102.902 159.807 179.717 137.413 154.506 103.233 102.902 159.807" fill="#2470d8"/>
    <polygon points="281.349 234.062 345.896 284.981 358.13 220.036 281.349 234.062" fill="#019bec"/>
    <polygon points="288.289 300.827 345.896 284.981 281.349 234.062 288.289 300.827" fill="#0a8ae6"/>
    <polygon points="179.717 137.413 194.292 190.452 231.715 142.913 179.717 137.413" fill="#068de8"/>
    <polygon points="179.717 137.413 139.143 220.311 194.292 190.452 179.717 137.413" fill="#1279e1"/>
    <polygon points="194.292 190.452 150.567 263.921 221.473 256.456 194.292 190.452" fill="#1675df"/>
    <polygon points="221.473 256.456 229.745 322.067 288.289 300.827 221.473 256.456" fill="#1771dd"/>
    <polygon points="150.567 263.92 194.292 190.452 139.143 220.311 150.567 263.92" fill="#2164d6"/>
    <polygon points="102.114 278.641 139.143 220.311 150.567 263.921 102.114 278.641" fill="#4044bd"/>
    <polygon points="138.62 470.568 177.835 482.829 117.908 444.162 138.62 470.568" fill="#522f9a"/>
    <polygon points="135.795 426.962 199.479 416.861 135.519 396.973 135.795 426.962" fill="#331865"/>
    <polygon points="253.586 466.816 259.017 417.537 199.479 416.861 253.586 466.816" fill="#341867"/>
    <polygon points="317.093 449.753 299.668 490.786 370.179 464.486 317.093 449.753" fill="#371b6e"/>
    <polygon points="66.883 263.224 84.387 207.346 102.114 278.641 66.883 263.224" fill="#452a98"/>
    <polygon points="84.387 207.346 102.902 159.807 64.531 176.181 84.387 207.346" fill="#463cab"/>
    <polygon points="358.13 220.036 345.896 284.981 402.66 278.052 358.13 220.036" fill="#088be7"/>
    <polygon points="102.114 278.641 83.946 305.627 144.854 348.783 102.114 278.641" fill="#442590"/>
    <polygon points="83.946 305.627 135.519 396.973 144.854 348.783 83.946 305.627" fill="#3e1f80"/>
    <polygon points="185.428 369.409 144.854 348.783 135.519 396.973 185.428 369.409" fill="#3d207e"/>
    <polygon points="185.428 369.409 135.519 396.973 199.479 416.861 185.428 369.409" fill="#391d72"/>
    <polygon points="185.428 369.409 199.479 416.861 259.017 417.537 185.428 369.409" fill="#402284"/>
    <polygon points="259.017 417.537 253.586 466.816 317.093 449.753 259.017 417.537" fill="#361a68"/>
    <polygon points="259.017 417.537 317.093 449.753 314.833 394.357 259.017 417.537" fill="#412084"/>
    <polygon points="178.829 460.091 117.908 444.162 177.835 482.829 178.829 460.091" fill="#48278a"/>
    <polygon points="178.829 460.091 135.795 426.962 117.908 444.162 178.829 460.091" fill="#462587"/>
    <polygon points="253.586 466.816 254.529 497.945 299.668 490.786 253.586 466.816" fill="#432484"/>
    <polygon points="253.586 466.816 178.829 460.091 210.412 474.86 253.586 466.816" fill="#412280"/>
    <polygon points="253.586 466.816 210.412 474.86 254.529 497.945 253.586 466.816" fill="#432384"/>
    <polygon points="210.412 474.86 177.835 482.829 254.529 497.945 210.412 474.86" fill="#45278a"/>
    <polygon points="177.835 482.829 138.62 470.568 181.974 489.427 177.835 482.829" fill="#46298b"/>
    <polygon points="177.835 482.829 181.974 489.427 254.529 497.945 177.835 482.829" fill="#46298b"/>
    <polygon points="93.888 402.87 68.473 397.981 117.908 444.162 93.888 402.87" fill="#4a268d"/>
    <polygon points="68.473 397.981 54.952 393.53 75.31 420.969 68.473 397.981" fill="#4e2892"/>
    <polygon points="68.473 397.981 75.31 420.969 117.908 444.162 68.473 397.981" fill="#4e2893"/>
    <polygon points="75.31 420.969 138.62 470.568 117.908 444.162 75.31 420.969" fill="#4e2a93"/>
    <polygon points="75.31 420.969 103.461 446.783 138.62 470.568 75.31 420.969" fill="#4f2b94"/>
    <polygon points="70.09 356.423 93.888 402.87 135.519 396.973 70.09 356.423" fill="#3c1b75"/>
    <polygon points="93.888 402.87 135.795 426.962 135.519 396.973 93.888 402.87" fill="#3a1b72"/>
    <polygon points="93.888 402.87 117.908 444.162 135.795 426.962 93.888 402.87" fill="#451f86"/>
    <polygon points="254.529 497.945 292.413 499 299.668 490.786 254.529 497.945" fill="#442c87"/>
    <polygon points="292.413 499 348.484 483.206 299.668 490.786 292.413 499" fill="#442a86"/>
    <polygon points="457.433 348.783 400.796 340.459 429.859 385.91 457.433 348.783" fill="#4341a3"/>
    <polygon points="457.433 348.783 429.859 385.91 457.627 380.608 457.433 348.783" fill="#403696"/>
    <polygon points="396.769 443.861 430.845 428.186 457.627 380.608 396.769 443.861" fill="#3d287e"/>
    <polygon points="429.859 385.91 396.769 443.861 457.627 380.608 429.859 385.91" fill="#43338c"/>
    <polygon points="461.373 304.191 400.796 340.459 457.433 348.783 461.373 304.191" fill="#4259ba"/>
    <polygon points="461.373 304.191 457.433 348.783 489.341 295.154 461.373 304.191" fill="#4355b6"/>
    <polygon points="32.757 210.43 16.593 275.557 31.602 263.274 32.757 210.43" fill="#351966"/>
    <polygon points="16.593 275.557 45.907 353.032 31.602 263.274 16.593 275.557" fill="#3c2074"/>
    <polygon points="345.341 50.357 352.309 92.528 405.723 89.04 345.341 50.357" fill="#28c7d6"/>
    <polygon points="239.751 46.258 258.502 95.375 294.546 50.672 239.751 46.258" fill="#19aadd"/>
    <polygon points="239.751 46.258 210.049 75.731 258.502 95.375 239.751 46.258" fill="#1aa7dd"/>
    <polygon points="370.179 464.486 348.484 483.206 398.6 455.696 370.179 464.486" fill="#371e6d"/>
    <polygon points="396.769 443.861 370.179 464.486 398.6 455.696 396.769 443.861" fill="#321762"/>
    <polygon points="238.537 13 226.606 23.236 278.094 22.724 238.537 13" fill="#44bcc9"/>
  </g>
</svg>