<svg width="1024" height="1024" viewBox="0 0 1024 1024" fill="none" xmlns="http://www.w3.org/2000/svg">
<g filter="url(#filter0_d_3690_1614)">
<rect x="100" y="100" width="824" height="824" rx="184" fill="#20123A"/>
</g>
<path d="M840.847 379.631C825.424 342.533 794.187 302.483 769.659 289.825C789.622 328.961 801.176 368.22 805.591 397.519C805.591 397.577 805.613 397.72 805.66 398.11C765.535 298.098 697.496 257.77 641.938 169.962C639.132 165.522 636.319 161.07 633.579 156.377C632.183 153.981 630.88 151.532 629.672 149.036C627.363 144.579 625.583 139.869 624.366 135C624.375 134.769 624.297 134.544 624.148 134.368C623.999 134.192 623.789 134.078 623.56 134.049C623.343 133.986 623.112 133.986 622.894 134.049C622.844 134.066 622.77 134.124 622.717 134.145C622.639 134.176 622.54 134.247 622.457 134.292C622.497 134.239 622.58 134.12 622.605 134.092C533.465 186.297 503.225 282.872 500.446 331.189C464.85 333.636 430.817 346.751 402.783 368.824C399.848 366.345 396.78 364.028 393.592 361.884C385.503 333.587 385.16 303.637 392.596 275.162C356.143 291.76 327.79 317.997 307.177 341.165H307.013C292.946 323.347 293.938 264.571 294.74 252.299C294.572 251.539 284.246 257.659 282.894 258.582C270.48 267.442 258.876 277.384 248.215 288.29C236.084 300.593 225 313.885 215.078 328.029C215.078 328.047 215.068 328.068 215.062 328.085C215.062 328.066 215.072 328.047 215.078 328.029C192.26 360.365 176.076 396.903 167.463 435.53C167.294 436.3 167.15 437.097 166.985 437.872C166.318 440.997 163.914 456.625 163.493 460.021C163.46 460.282 163.446 460.533 163.415 460.794C160.307 476.952 158.382 493.315 157.656 509.753C157.656 510.358 157.619 510.958 157.619 511.564C157.625 707.523 316.503 866.375 512.478 866.375C687.99 866.375 833.719 738.965 862.25 571.609C862.851 567.067 863.332 562.501 863.862 557.92C870.916 497.07 863.079 433.113 840.847 379.631ZM431.846 657.363C433.506 658.156 435.065 659.023 436.769 659.783C436.84 659.832 436.938 659.887 437.01 659.931C435.276 659.102 433.554 658.246 431.846 657.363V657.363ZM805.688 398.197L805.641 397.853C805.659 397.978 805.681 398.11 805.7 398.235L805.688 398.197Z" fill="url(#paint0_linear_3690_1614)"/>
<path d="M840.847 379.631C825.424 342.534 794.187 302.483 769.659 289.825C789.622 328.961 801.176 368.22 805.591 397.519C805.591 397.434 805.607 397.59 805.644 397.853C805.662 397.978 805.684 398.11 805.703 398.235C839.184 489 820.944 581.297 794.66 637.697C753.997 724.962 655.545 814.397 501.45 810.035C334.96 805.321 188.287 681.787 160.907 519.988C155.918 494.473 160.907 481.518 163.418 460.802C160.36 476.772 159.195 481.385 157.659 509.76C157.659 510.366 157.622 510.965 157.622 511.572C157.625 707.524 316.503 866.375 512.478 866.375C687.99 866.375 833.719 738.965 862.249 571.609C862.85 567.067 863.332 562.502 863.862 557.92C870.915 497.071 863.079 433.113 840.847 379.631Z" fill="url(#paint1_radial_3690_1614)"/>
<path d="M840.847 379.631C825.424 342.534 794.187 302.483 769.659 289.825C789.622 328.961 801.176 368.22 805.591 397.519C805.591 397.434 805.607 397.59 805.644 397.853C805.662 397.978 805.684 398.11 805.703 398.235C839.184 489 820.944 581.297 794.66 637.697C753.997 724.962 655.545 814.397 501.45 810.035C334.96 805.321 188.287 681.787 160.907 519.988C155.918 494.473 160.907 481.518 163.418 460.802C160.36 476.772 159.195 481.385 157.659 509.76C157.659 510.366 157.622 510.965 157.622 511.572C157.625 707.524 316.503 866.375 512.478 866.375C687.99 866.375 833.719 738.965 862.249 571.609C862.85 567.067 863.332 562.502 863.862 557.92C870.915 497.071 863.079 433.113 840.847 379.631Z" fill="url(#paint2_radial_3690_1614)"/>
<path d="M668.4 421.339C669.174 421.882 669.877 422.423 670.605 422.963C661.699 407.157 650.609 392.686 637.663 379.977C527.356 269.684 608.738 140.83 622.463 134.286C622.503 134.233 622.586 134.114 622.611 134.085C533.471 186.291 503.231 282.865 500.452 331.183C504.586 330.896 508.709 330.55 512.917 330.55C579.437 330.55 637.375 367.124 668.4 421.339V421.339Z" fill="url(#paint3_radial_3690_1614)"/>
<path d="M513.14 443.361C512.56 452.188 481.373 482.627 470.467 482.627C369.561 482.627 353.181 543.661 353.181 543.661C357.651 595.06 393.434 637.385 436.771 659.782C438.748 660.804 440.749 661.727 442.751 662.639C446.184 664.159 449.66 665.58 453.174 666.9C468.033 672.161 483.598 675.163 499.348 675.806C676.21 684.101 710.475 464.371 582.84 400.563C615.526 394.878 649.455 408.024 668.402 421.333C637.377 367.123 579.439 330.548 512.92 330.548C508.712 330.548 504.591 330.895 500.455 331.182C464.859 333.629 430.826 346.744 402.792 368.816C408.202 373.394 414.309 379.513 427.176 392.187C451.247 415.911 513.009 440.478 513.14 443.361V443.361Z" fill="url(#paint4_radial_3690_1614)"/>
<path d="M513.14 443.361C512.56 452.188 481.373 482.627 470.467 482.627C369.561 482.627 353.181 543.661 353.181 543.661C357.651 595.06 393.434 637.385 436.771 659.782C438.748 660.804 440.749 661.727 442.751 662.639C446.184 664.159 449.66 665.58 453.174 666.9C468.033 672.161 483.598 675.163 499.348 675.806C676.21 684.101 710.475 464.371 582.84 400.563C615.526 394.878 649.455 408.024 668.402 421.333C637.377 367.123 579.439 330.548 512.92 330.548C508.712 330.548 504.591 330.895 500.455 331.182C464.859 333.629 430.826 346.744 402.792 368.816C408.202 373.394 414.309 379.513 427.176 392.187C451.247 415.911 513.009 440.478 513.14 443.361V443.361Z" fill="url(#paint5_radial_3690_1614)"/>
<path d="M386.24 357.014C388.711 358.608 391.163 360.232 393.595 361.887C385.506 333.59 385.163 303.64 392.599 275.165C356.146 291.763 327.793 318 307.18 341.167C308.886 341.119 360.357 340.193 386.24 357.014V357.014Z" fill="url(#paint6_radial_3690_1614)"/>
<path d="M160.907 519.988C188.287 681.787 334.96 805.321 501.45 810.035C655.545 814.397 753.997 724.956 794.66 637.697C820.943 581.292 839.184 489.007 805.703 398.235L805.691 398.197L805.644 397.853C805.607 397.59 805.585 397.433 805.591 397.519C805.591 397.577 805.613 397.72 805.66 398.11C818.246 480.297 776.439 559.917 711.085 613.753L710.888 614.215C583.542 717.904 461.683 676.774 437.01 659.938C435.276 659.104 433.553 658.246 431.842 657.365C357.597 621.884 326.926 554.244 333.503 496.236C270.812 496.236 249.436 443.362 249.436 443.362C249.436 443.362 305.721 403.23 379.902 438.133C448.607 470.46 513.129 443.365 513.137 443.362C513.005 440.48 451.244 415.913 427.167 392.19C414.302 379.515 408.193 373.404 402.783 368.819C399.848 366.34 396.78 364.023 393.591 361.879C391.157 360.229 388.705 358.605 386.237 357.007C360.355 340.186 308.883 341.111 307.177 341.156H307.013C292.946 323.338 293.938 264.562 294.74 252.29C294.572 251.53 284.246 257.65 282.894 258.573C270.48 267.434 258.876 277.375 248.215 288.282C236.084 300.586 224.999 313.882 215.078 328.029C215.078 328.047 215.068 328.068 215.062 328.085C215.062 328.066 215.072 328.047 215.078 328.029C192.26 360.365 176.076 396.903 167.463 435.53C167.293 436.3 154.691 491.406 160.907 519.988V519.988Z" fill="url(#paint7_radial_3690_1614)"/>
<path d="M637.663 379.976C650.61 392.685 661.699 407.156 670.605 422.962C672.559 424.43 674.384 425.893 675.933 427.321C756.379 501.444 714.229 606.28 711.085 613.751C776.439 559.916 818.247 480.295 805.661 398.108C765.535 298.098 697.496 257.77 641.938 169.962C639.132 165.522 636.319 161.07 633.579 156.377C632.184 153.981 630.88 151.532 629.672 149.036C627.364 144.579 625.583 139.869 624.367 135C624.375 134.769 624.297 134.544 624.148 134.368C623.999 134.192 623.789 134.078 623.56 134.049C623.343 133.986 623.112 133.986 622.895 134.049C622.844 134.066 622.77 134.124 622.717 134.145C622.639 134.176 622.54 134.247 622.457 134.292C608.739 140.831 527.357 269.684 637.663 379.976V379.976Z" fill="url(#paint8_radial_3690_1614)"/>
<path d="M675.932 427.321C674.383 425.893 672.558 424.43 670.605 422.962C669.883 422.419 669.174 421.878 668.4 421.338C649.453 408.028 615.525 394.882 582.838 400.567C710.474 464.375 676.208 684.105 499.346 675.81C483.596 675.167 468.031 672.165 453.172 666.905C449.658 665.583 446.183 664.162 442.749 662.643C440.747 661.731 438.746 660.808 436.769 659.786C436.84 659.835 436.937 659.89 437.01 659.934C461.683 676.767 583.542 717.899 710.888 614.211L711.085 613.749C714.228 606.286 756.378 501.446 675.932 427.321V427.321Z" fill="url(#paint9_radial_3690_1614)"/>
<path d="M353.179 543.662C353.179 543.662 369.559 482.628 470.466 482.628C481.374 482.628 512.561 452.189 513.138 443.362C513.716 434.535 448.612 470.46 379.904 438.134C305.723 403.231 249.438 443.362 249.438 443.362C249.438 443.362 270.814 496.236 333.504 496.236C326.929 554.245 357.6 621.892 431.843 657.365C433.503 658.158 435.062 659.024 436.766 659.785C393.432 637.387 357.649 595.061 353.179 543.662V543.662Z" fill="url(#paint10_radial_3690_1614)"/>
<path d="M840.847 379.631C825.424 342.533 794.187 302.483 769.659 289.825C789.622 328.961 801.176 368.22 805.591 397.519C805.591 397.577 805.613 397.72 805.66 398.11C765.535 298.098 697.496 257.77 641.938 169.962C639.132 165.522 636.319 161.07 633.579 156.377C632.183 153.981 630.88 151.532 629.672 149.036C627.363 144.579 625.583 139.869 624.366 135C624.375 134.769 624.297 134.544 624.148 134.368C623.999 134.192 623.789 134.078 623.56 134.049C623.343 133.986 623.112 133.986 622.894 134.049C622.844 134.066 622.77 134.124 622.717 134.145C622.639 134.176 622.54 134.247 622.457 134.292C622.497 134.239 622.58 134.12 622.605 134.092C533.465 186.297 503.225 282.872 500.446 331.189C504.58 330.903 508.703 330.556 512.911 330.556C579.435 330.556 637.372 367.13 668.393 421.341C649.446 408.031 615.517 394.885 582.831 400.57C710.466 464.378 676.201 684.108 499.338 675.813C483.589 675.17 468.024 672.168 453.165 666.908C449.651 665.586 446.175 664.165 442.742 662.646C440.74 661.734 438.739 660.811 436.762 659.789C436.833 659.838 436.93 659.893 437.002 659.937C435.268 659.102 433.545 658.244 431.834 657.363C433.494 658.156 435.053 659.023 436.757 659.783C393.42 637.387 357.637 595.061 353.168 543.662C353.168 543.662 369.547 482.628 470.454 482.628C481.363 482.628 512.549 452.189 513.127 443.362C512.995 440.48 451.234 415.913 427.157 392.19C414.291 379.515 408.183 373.404 402.773 368.819C399.838 366.34 396.769 364.023 393.581 361.879C385.493 333.582 385.149 303.633 392.586 275.158C356.133 291.756 327.78 317.993 307.167 341.16H307.003C292.936 323.343 293.928 264.567 294.73 252.295C294.561 251.534 284.236 257.655 282.883 258.578C270.47 267.438 258.865 277.38 248.205 288.286C236.077 300.59 224.996 313.884 215.078 328.029C215.078 328.047 215.068 328.068 215.062 328.085C215.062 328.066 215.072 328.047 215.078 328.029C192.26 360.365 176.076 396.903 167.463 435.53C167.294 436.3 167.15 437.097 166.985 437.872C166.318 440.997 163.314 456.85 162.895 460.251C162.862 460.512 162.926 459.991 162.895 460.251C160.156 476.634 158.409 493.167 157.662 509.76C157.662 510.365 157.625 510.965 157.625 511.572C157.625 707.523 316.503 866.375 512.478 866.375C687.99 866.375 833.719 738.965 862.249 571.609C862.85 567.067 863.332 562.501 863.862 557.92C870.915 497.07 863.079 433.113 840.847 379.631ZM805.644 397.853C805.662 397.978 805.684 398.11 805.703 398.235L805.691 398.197L805.644 397.853V397.853Z" fill="url(#paint11_linear_3690_1614)"/>
<defs>
<filter id="filter0_d_3690_1614" x="78" y="89" width="868" height="868" filterUnits="userSpaceOnUse" color-interpolation-filters="sRGB">
<feFlood flood-opacity="0" result="BackgroundImageFix"/>
<feColorMatrix in="SourceAlpha" type="matrix" values="0 0 0 0 0 0 0 0 0 0 0 0 0 0 0 0 0 0 127 0" result="hardAlpha"/>
<feOffset dy="11"/>
<feGaussianBlur stdDeviation="11"/>
<feColorMatrix type="matrix" values="0 0 0 0 0 0 0 0 0 0 0 0 0 0 0 0 0 0 0.28 0"/>
<feBlend mode="normal" in2="BackgroundImageFix" result="effect1_dropShadow_3690_1614"/>
<feBlend mode="normal" in="SourceGraphic" in2="effect1_dropShadow_3690_1614" result="shape"/>
</filter>
<linearGradient id="paint0_linear_3690_1614" x1="776.008" y1="247.52" x2="206.222" y2="797.161" gradientUnits="userSpaceOnUse">
<stop offset="0.05" stop-color="#FFF44F"/>
<stop offset="0.37" stop-color="#FF980E"/>
<stop offset="0.53" stop-color="#FF3647"/>
<stop offset="0.7" stop-color="#E31587"/>
</linearGradient>
<radialGradient id="paint1_radial_3690_1614" cx="0" cy="0" r="1" gradientUnits="userSpaceOnUse" gradientTransform="translate(648.72 215.64) scale(725.763 737.985)">
<stop offset="0.13" stop-color="#FFBD4F"/>
<stop offset="0.28" stop-color="#FF980E"/>
<stop offset="0.47" stop-color="#FF3750"/>
<stop offset="0.78" stop-color="#EB0878"/>
<stop offset="0.86" stop-color="#E50080"/>
</radialGradient>
<radialGradient id="paint2_radial_3690_1614" cx="0" cy="0" r="1" gradientUnits="userSpaceOnUse" gradientTransform="translate(438.277 520.445) scale(743.907 737.985)">
<stop offset="0.3" stop-color="#960E18"/>
<stop offset="0.35" stop-color="#B11927" stop-opacity="0.74"/>
<stop offset="0.43" stop-color="#DB293D" stop-opacity="0.34"/>
<stop offset="0.5" stop-color="#F5334B" stop-opacity="0.09"/>
<stop offset="0.53" stop-color="#FF3750" stop-opacity="0"/>
</radialGradient>
<radialGradient id="paint3_radial_3690_1614" cx="0" cy="0" r="1" gradientUnits="userSpaceOnUse" gradientTransform="translate(582.125 99.4201) scale(238.214 404.429)">
<stop offset="0.13" stop-color="#FFF44F"/>
<stop offset="0.53" stop-color="#FF980E"/>
</radialGradient>
<radialGradient id="paint4_radial_3690_1614" cx="0" cy="0" r="1" gradientUnits="userSpaceOnUse" gradientTransform="translate(424.925 710.963) scale(315.221 345.486)">
<stop offset="0.35" stop-color="#3A8EE6"/>
<stop offset="0.67" stop-color="#9059FF"/>
<stop offset="1" stop-color="#C139E6"/>
</radialGradient>
<radialGradient id="paint5_radial_3690_1614" cx="0" cy="0" r="1" gradientUnits="userSpaceOnUse" gradientTransform="translate(478.786 444.559) scale(167.382 203.837)">
<stop offset="0.21" stop-color="#9059FF" stop-opacity="0"/>
<stop offset="0.97" stop-color="#6E008B" stop-opacity="0.6"/>
</radialGradient>
<radialGradient id="paint6_radial_3690_1614" cx="0" cy="0" r="1" gradientUnits="userSpaceOnUse" gradientTransform="translate(488.65 188.444) scale(250.602 251.492)">
<stop offset="0.1" stop-color="#FFE226"/>
<stop offset="0.79" stop-color="#FF7139"/>
</radialGradient>
<radialGradient id="paint7_radial_3690_1614" cx="0" cy="0" r="1" gradientUnits="userSpaceOnUse" gradientTransform="translate(717.518 23.4602) scale(1196.43 1004.33)">
<stop offset="0.11" stop-color="#FFF44F"/>
<stop offset="0.46" stop-color="#FF980E"/>
<stop offset="0.72" stop-color="#FF3647"/>
<stop offset="0.9" stop-color="#E31587"/>
</radialGradient>
<radialGradient id="paint8_radial_3690_1614" cx="0" cy="0" r="1" gradientTransform="matrix(82.839 370.435 -1664.2 82.2098 273.191 355.13)" gradientUnits="userSpaceOnUse">
<stop stop-color="#FFF44F"/>
<stop offset="0.3" stop-color="#FF980E"/>
<stop offset="0.57" stop-color="#FF3647"/>
<stop offset="0.74" stop-color="#E31587"/>
</radialGradient>
<radialGradient id="paint9_radial_3690_1614" cx="0" cy="0" r="1" gradientUnits="userSpaceOnUse" gradientTransform="translate(491.227 278.899) scale(686.924 674.856)">
<stop offset="0.14" stop-color="#FFF44F"/>
<stop offset="0.48" stop-color="#FF980E"/>
<stop offset="0.66" stop-color="#FF3647"/>
<stop offset="0.9" stop-color="#E31587"/>
</radialGradient>
<radialGradient id="paint10_radial_3690_1614" cx="0" cy="0" r="1" gradientUnits="userSpaceOnUse" gradientTransform="translate(669.519 318.368) scale(825.659 738.651)">
<stop offset="0.09" stop-color="#FFF44F"/>
<stop offset="0.63" stop-color="#FF980E"/>
</radialGradient>
<linearGradient id="paint11_linear_3690_1614" x1="724.625" y1="236.534" x2="268.994" y2="734.363" gradientUnits="userSpaceOnUse">
<stop offset="0.17" stop-color="#FFF44F" stop-opacity="0.8"/>
<stop offset="0.6" stop-color="#FFF44F" stop-opacity="0"/>
</linearGradient>
</defs>
</svg>
