<svg width="257" height="256" viewBox="0 0 257 256" fill="none" xmlns="http://www.w3.org/2000/svg">
<path d="M128 248C194.274 248 248 194.274 248 128C248 61.7258 194.274 8 128 8C61.7258 8 8 61.7258 8 128C8 194.274 61.7258 248 128 248Z" fill="#8000D7"/>
<path d="M213.094 97.5113C213.523 89.014 207.772 81.4352 199.472 79.5469C178.916 74.8777 157.389 80.6713 141.948 95.0308L139.305 97.4855C136.224 100.352 132.172 101.94 127.967 101.94C123.752 101.94 119.701 100.344 116.62 97.477L114.036 95.0737C98.5948 80.6884 77.0426 74.8863 56.469 79.5555H56.4518C48.1949 81.4438 42.4614 88.9883 42.8562 97.4684V97.5199C40.7362 105.888 44.0063 136.787 45.8603 141.645C49.5854 161.275 65.6271 176.038 84.8533 176.038C94.4577 176.038 103.153 172.201 110.028 166.073L114.216 162.485C121.95 155.868 133.322 155.773 141.159 162.271L147.459 167.472V167.446C154.085 172.776 162.205 176.038 171.097 176.038C190.323 176.038 206.365 161.275 210.09 141.645C211.944 136.779 215.334 106.008 213.094 97.5113ZM109.032 130.479C104.458 135.654 97.3588 138.985 89.3765 138.985C81.3943 138.985 74.2961 135.654 69.7213 130.479C67.318 127.767 67.318 123.492 69.7213 120.771C74.2961 115.596 81.3943 112.266 89.3765 112.266C97.3588 112.266 104.458 115.596 109.032 120.771C111.436 123.492 111.436 127.767 109.032 130.479ZM186.28 130.479C181.705 135.654 174.607 138.985 166.625 138.985C158.643 138.985 151.544 135.654 146.97 130.479C144.566 127.767 144.566 123.492 146.97 120.771C151.544 115.596 158.643 112.266 166.625 112.266C174.607 112.266 181.705 115.596 186.28 120.771C188.683 123.492 188.683 127.767 186.28 130.479Z" fill="white"/>
<path d="M248.873 171.614C246.323 165.48 241.158 158.858 237.102 156.765C240.403 163.236 242.313 169.727 243.043 174.571C243.043 174.581 243.047 174.605 243.055 174.669C236.42 158.133 225.171 151.465 215.984 136.946C215.521 136.212 215.055 135.476 214.602 134.7C214.372 134.304 214.156 133.899 213.956 133.486C213.575 132.749 213.28 131.971 213.079 131.165C213.081 131.127 213.068 131.09 213.043 131.061C213.018 131.032 212.984 131.013 212.946 131.008C212.91 130.998 212.872 130.998 212.836 131.008C212.827 131.011 212.815 131.021 212.806 131.024C212.793 131.029 212.777 131.041 212.763 131.049C212.77 131.04 212.784 131.02 212.788 131.015C198.049 139.647 193.049 155.615 192.59 163.604C186.704 164.009 181.077 166.177 176.442 169.827C175.956 169.417 175.449 169.034 174.922 168.679C173.585 164.001 173.528 159.049 174.757 154.341C168.73 157.085 164.042 161.423 160.634 165.254H160.607C158.281 162.308 158.445 152.589 158.577 150.56C158.55 150.434 156.842 151.446 156.619 151.599C154.566 153.064 152.647 154.708 150.885 156.511C148.879 158.545 147.046 160.743 145.406 163.082C145.406 163.085 145.404 163.088 145.403 163.091C145.403 163.088 145.405 163.085 145.406 163.082C141.633 168.428 138.957 174.47 137.533 180.856C137.505 180.984 137.481 181.115 137.454 181.244C137.344 181.76 136.946 184.344 136.876 184.906C136.871 184.949 136.869 184.99 136.864 185.034C136.35 187.705 136.031 190.411 135.911 193.129C135.911 193.229 135.905 193.328 135.905 193.428C135.906 225.829 162.176 252.094 194.579 252.094C223.599 252.094 247.694 231.028 252.412 203.356C252.511 202.605 252.591 201.85 252.678 201.093C253.844 191.032 252.549 180.457 248.873 171.614ZM181.247 217.535C181.521 217.666 181.779 217.809 182.061 217.935C182.073 217.943 182.089 217.952 182.101 217.96C181.814 217.823 181.529 217.681 181.247 217.535ZM243.06 174.684L243.052 174.627C243.055 174.647 243.058 174.669 243.062 174.69L243.06 174.684Z" fill="url(#paint0_linear_3692_1590)"/>
<path d="M248.873 171.614C246.323 165.48 241.158 158.858 237.103 156.765C240.404 163.236 242.314 169.727 243.044 174.571C243.044 174.557 243.047 174.583 243.053 174.626C243.056 174.647 243.059 174.669 243.063 174.69C248.598 189.697 245.583 204.958 241.237 214.283C234.513 228.712 218.235 243.5 192.756 242.778C165.228 241.999 140.977 221.573 136.449 194.821C135.625 190.602 136.449 188.46 136.865 185.035C136.359 187.675 136.166 188.438 135.912 193.13C135.912 193.23 135.906 193.329 135.906 193.429C135.907 225.829 162.176 252.094 194.58 252.094C223.599 252.094 247.695 231.027 252.412 203.356C252.511 202.605 252.591 201.85 252.679 201.093C253.845 191.031 252.549 180.457 248.873 171.614Z" fill="url(#paint1_radial_3692_1590)"/>
<path d="M248.873 171.614C246.323 165.48 241.158 158.858 237.103 156.765C240.404 163.236 242.314 169.727 243.044 174.571C243.044 174.557 243.047 174.583 243.053 174.626C243.056 174.647 243.059 174.669 243.063 174.69C248.598 189.697 245.583 204.958 241.237 214.283C234.513 228.712 218.235 243.5 192.756 242.778C165.228 241.999 140.977 221.573 136.449 194.821C135.625 190.602 136.449 188.46 136.865 185.035C136.359 187.675 136.166 188.438 135.912 193.13C135.912 193.23 135.906 193.329 135.906 193.429C135.907 225.829 162.176 252.094 194.58 252.094C223.599 252.094 247.695 231.027 252.412 203.356C252.511 202.605 252.591 201.85 252.679 201.093C253.845 191.031 252.549 180.457 248.873 171.614Z" fill="url(#paint2_radial_3692_1590)"/>
<path d="M220.36 178.51C220.488 178.6 220.604 178.689 220.725 178.778C219.252 176.165 217.418 173.772 215.278 171.671C197.039 153.435 210.495 132.129 212.765 131.047C212.771 131.039 212.785 131.019 212.789 131.014C198.05 139.646 193.05 155.614 192.591 163.603C193.274 163.556 193.956 163.498 194.652 163.498C205.651 163.498 215.23 169.546 220.36 178.51Z" fill="url(#paint3_radial_3692_1590)"/>
<path d="M194.688 182.151C194.593 183.61 189.436 188.643 187.633 188.643C170.948 188.643 168.24 198.735 168.24 198.735C168.979 207.233 174.896 214.232 182.061 217.935C182.388 218.104 182.719 218.256 183.05 218.407C183.618 218.659 184.192 218.894 184.773 219.112C187.23 219.982 189.804 220.478 192.408 220.584C221.651 221.956 227.317 185.625 206.213 175.074C211.617 174.135 217.227 176.308 220.36 178.509C215.23 169.545 205.651 163.498 194.652 163.498C193.956 163.498 193.275 163.555 192.591 163.603C186.705 164.007 181.078 166.176 176.443 169.825C177.338 170.582 178.347 171.594 180.475 173.69C184.455 177.612 194.667 181.674 194.688 182.151Z" fill="url(#paint4_radial_3692_1590)"/>
<path d="M194.688 182.151C194.593 183.61 189.436 188.643 187.633 188.643C170.948 188.643 168.24 198.735 168.24 198.735C168.979 207.233 174.896 214.232 182.061 217.935C182.388 218.104 182.719 218.256 183.05 218.407C183.618 218.659 184.192 218.894 184.773 219.112C187.23 219.982 189.804 220.478 192.408 220.584C221.651 221.956 227.317 185.625 206.213 175.074C211.617 174.135 217.227 176.308 220.36 178.509C215.23 169.545 205.651 163.498 194.652 163.498C193.956 163.498 193.275 163.555 192.591 163.603C186.705 164.007 181.078 166.176 176.443 169.825C177.338 170.582 178.347 171.594 180.475 173.69C184.455 177.612 194.667 181.674 194.688 182.151Z" fill="url(#paint5_radial_3692_1590)"/>
<path d="M173.707 167.874C174.115 168.138 174.521 168.406 174.923 168.68C173.586 164.001 173.529 159.049 174.758 154.341C168.731 157.085 164.043 161.423 160.635 165.254C160.917 165.246 169.427 165.093 173.707 167.874Z" fill="url(#paint6_radial_3692_1590)"/>
<path d="M136.449 194.821C140.976 221.573 165.227 241.999 192.755 242.778C218.234 243.5 234.512 228.711 241.236 214.283C245.582 204.957 248.598 189.698 243.062 174.69L243.06 174.683L243.052 174.627C243.046 174.583 243.042 174.557 243.043 174.571C243.043 174.581 243.047 174.605 243.055 174.669C245.136 188.258 238.223 201.423 227.417 210.324L227.385 210.401C206.329 227.545 186.18 220.744 182.101 217.961C181.814 217.823 181.529 217.681 181.246 217.535C168.97 211.669 163.899 200.485 164.986 190.894C154.621 190.894 151.086 182.151 151.086 182.151C151.086 182.151 160.393 175.516 172.658 181.287C184.018 186.632 194.687 182.152 194.688 182.151C194.666 181.675 184.454 177.613 180.473 173.69C178.346 171.595 177.336 170.584 176.441 169.826C175.956 169.416 175.449 169.033 174.922 168.679C174.519 168.406 174.114 168.137 173.706 167.873C169.426 165.092 160.916 165.245 160.634 165.252H160.606C158.281 162.306 158.445 152.588 158.577 150.559C158.549 150.433 156.842 151.445 156.618 151.597C154.566 153.062 152.647 154.706 150.885 156.51C148.879 158.544 147.046 160.742 145.406 163.082C145.406 163.085 145.404 163.088 145.403 163.091C145.403 163.088 145.405 163.085 145.406 163.082C141.633 168.428 138.957 174.469 137.533 180.856C137.505 180.983 135.421 190.095 136.449 194.821Z" fill="url(#paint7_radial_3692_1590)"/>
<path d="M215.278 171.671C217.419 173.772 219.252 176.165 220.725 178.778C221.048 179.021 221.35 179.263 221.606 179.499C234.907 191.755 227.938 209.089 227.418 210.324C238.224 201.423 245.136 188.258 243.055 174.669C236.421 158.133 225.171 151.465 215.985 136.946C215.521 136.212 215.056 135.476 214.603 134.7C214.372 134.304 214.157 133.899 213.957 133.486C213.575 132.749 213.281 131.971 213.08 131.165C213.081 131.127 213.068 131.09 213.043 131.061C213.019 131.032 212.984 131.013 212.946 131.008C212.91 130.998 212.872 130.998 212.836 131.008C212.828 131.011 212.816 131.021 212.807 131.024C212.794 131.029 212.778 131.041 212.764 131.049C210.496 132.13 197.04 153.435 215.278 171.671Z" fill="url(#paint8_radial_3692_1590)"/>
<path d="M221.605 179.499C221.349 179.263 221.047 179.021 220.724 178.778C220.604 178.688 220.487 178.599 220.359 178.51C217.227 176.309 211.617 174.135 206.212 175.075C227.316 185.626 221.65 221.957 192.407 220.585C189.803 220.479 187.23 219.983 184.773 219.113C184.192 218.894 183.617 218.659 183.049 218.408C182.718 218.257 182.387 218.105 182.061 217.936C182.072 217.944 182.088 217.953 182.1 217.96C186.18 220.743 206.329 227.544 227.385 210.4L227.417 210.324C227.937 209.09 234.906 191.755 221.605 179.499Z" fill="url(#paint9_radial_3692_1590)"/>
<path d="M168.24 198.735C168.24 198.735 170.948 188.644 187.633 188.644C189.436 188.644 194.593 183.611 194.688 182.151C194.784 180.692 184.019 186.632 172.659 181.287C160.393 175.516 151.087 182.151 151.087 182.151C151.087 182.151 154.621 190.894 164.987 190.894C163.9 200.485 168.971 211.67 181.247 217.535C181.521 217.666 181.779 217.81 182.061 217.935C174.896 214.232 168.979 207.234 168.24 198.735Z" fill="url(#paint10_radial_3692_1590)"/>
<path d="M248.873 171.614C246.323 165.48 241.158 158.858 237.102 156.765C240.403 163.236 242.313 169.727 243.043 174.571C243.043 174.581 243.047 174.605 243.055 174.669C236.42 158.133 225.171 151.465 215.984 136.946C215.521 136.212 215.055 135.476 214.602 134.7C214.372 134.304 214.156 133.899 213.956 133.486C213.575 132.749 213.28 131.971 213.079 131.165C213.081 131.127 213.068 131.09 213.043 131.061C213.018 131.032 212.984 131.013 212.946 131.008C212.91 130.998 212.872 130.998 212.836 131.008C212.827 131.011 212.815 131.021 212.806 131.024C212.793 131.029 212.777 131.041 212.763 131.049C212.77 131.04 212.784 131.02 212.788 131.015C198.049 139.647 193.049 155.615 192.59 163.604C193.273 163.557 193.955 163.499 194.651 163.499C205.65 163.499 215.229 169.547 220.359 178.51C217.226 176.309 211.616 174.136 206.211 175.076C227.315 185.626 221.65 221.957 192.406 220.586C189.802 220.479 187.229 219.983 184.772 219.113C184.191 218.895 183.616 218.66 183.049 218.409C182.718 218.258 182.387 218.105 182.06 217.936C182.072 217.944 182.088 217.953 182.1 217.961C181.813 217.823 181.528 217.681 181.245 217.535C181.52 217.666 181.777 217.809 182.059 217.935C174.894 214.232 168.977 207.234 168.238 198.735C168.238 198.735 170.946 188.644 187.631 188.644C189.434 188.644 194.591 183.611 194.686 182.151C194.665 181.675 184.453 177.613 180.472 173.69C178.344 171.595 177.334 170.584 176.44 169.826C175.955 169.416 175.447 169.033 174.92 168.679C173.583 164 173.526 159.048 174.756 154.34C168.728 157.084 164.04 161.422 160.632 165.253H160.605C158.279 162.307 158.443 152.589 158.576 150.559C158.548 150.434 156.841 151.446 156.617 151.598C154.564 153.063 152.646 154.707 150.883 156.51C148.878 158.545 147.046 160.743 145.406 163.082C145.406 163.085 145.404 163.088 145.403 163.091C145.403 163.088 145.405 163.085 145.406 163.082C141.633 168.428 138.957 174.47 137.533 180.856C137.505 180.984 137.481 181.115 137.454 181.244C137.344 181.76 136.847 184.382 136.778 184.944C136.783 184.901 136.772 184.987 136.778 184.944C136.325 187.653 136.036 190.386 135.912 193.13C135.912 193.23 135.906 193.329 135.906 193.429C135.906 225.829 162.176 252.094 194.579 252.094C223.599 252.094 247.694 231.028 252.412 203.356C252.511 202.605 252.591 201.85 252.678 201.093C253.844 191.032 252.549 180.457 248.873 171.614ZM243.052 174.627C243.055 174.647 243.059 174.669 243.062 174.69L243.06 174.684L243.052 174.627Z" fill="url(#paint11_linear_3692_1590)"/>
<defs>
<linearGradient id="paint0_linear_3692_1590" x1="247.186" y1="162.092" x2="145.668" y2="226.04" gradientUnits="userSpaceOnUse">
<stop stop-color="#3FE1B0"/>
<stop offset="0.406" stop-color="#00B3F4"/>
<stop offset="0.421" stop-color="#03B0F4"/>
<stop offset="0.818" stop-color="#5561E9"/>
<stop offset="1" stop-color="#7542E5"/>
</linearGradient>
<radialGradient id="paint1_radial_3692_1590" cx="0" cy="0" r="1" gradientUnits="userSpaceOnUse" gradientTransform="translate(236.299 144.44) scale(122.32 122.3)">
<stop offset="0.108" stop-color="#3FE1B0"/>
<stop offset="0.122" stop-color="#3BDCB3"/>
<stop offset="0.254" stop-color="#1BB3D3"/>
<stop offset="0.358" stop-color="#0799E6"/>
<stop offset="0.42" stop-color="#0090ED"/>
<stop offset="0.487" stop-color="#2482F1"/>
<stop offset="0.64" stop-color="#7165FB"/>
<stop offset="0.71" stop-color="#9059FF"/>
<stop offset="0.795" stop-color="#7D49ED"/>
<stop offset="0.86" stop-color="#7542E5"/>
</radialGradient>
<radialGradient id="paint2_radial_3692_1590" cx="0" cy="0" r="1" gradientUnits="userSpaceOnUse" gradientTransform="translate(191.602 194.44) scale(122.32 122.3)">
<stop offset="0.3" stop-color="#45278D"/>
<stop offset="0.341" stop-color="#562896" stop-opacity="0.787"/>
<stop offset="0.43" stop-color="#782AA9" stop-opacity="0.364"/>
<stop offset="0.495" stop-color="#8D2BB5" stop-opacity="0.1"/>
<stop offset="0.53" stop-color="#952BB9" stop-opacity="0"/>
</radialGradient>
<radialGradient id="paint3_radial_3692_1590" cx="0" cy="0" r="1" gradientUnits="userSpaceOnUse" gradientTransform="translate(206.349 116.685) scale(88.6156 88.6013)">
<stop offset="0.132" stop-color="#3FE1B0"/>
<stop offset="0.289" stop-color="#28D0C8"/>
<stop offset="0.526" stop-color="#00B3F4"/>
</radialGradient>
<radialGradient id="paint4_radial_3692_1590" cx="0" cy="0" r="1" gradientUnits="userSpaceOnUse" gradientTransform="translate(178.072 226.386) scale(58.2419 58.2325)">
<stop offset="0.287" stop-color="#0060DF"/>
<stop offset="0.417" stop-color="#2357E1"/>
<stop offset="0.604" stop-color="#4F4CE3"/>
<stop offset="0.748" stop-color="#6B45E4"/>
<stop offset="0.833" stop-color="#7542E5"/>
</radialGradient>
<radialGradient id="paint5_radial_3692_1590" cx="0" cy="0" r="1" gradientTransform="matrix(30.0129 -7.26046 8.50539 35.152 193.296 179.182)" gradientUnits="userSpaceOnUse">
<stop offset="0.206" stop-color="#45278D" stop-opacity="0"/>
<stop offset="0.251" stop-color="#44268A" stop-opacity="0.055"/>
<stop offset="0.725" stop-color="#371F6F" stop-opacity="0.591"/>
<stop offset="0.956" stop-color="#321C64" stop-opacity="0.8"/>
</radialGradient>
<radialGradient id="paint6_radial_3692_1590" cx="0" cy="0" r="1" gradientUnits="userSpaceOnUse" gradientTransform="translate(190.058 139.436) scale(41.8991 41.8924)">
<stop stop-color="#00DDFF"/>
<stop offset="0.235" stop-color="#00D6FD"/>
<stop offset="0.572" stop-color="#00C3F8"/>
<stop offset="0.792" stop-color="#00B3F4"/>
</radialGradient>
<radialGradient id="paint7_radial_3692_1590" cx="0" cy="0" r="1" gradientUnits="userSpaceOnUse" gradientTransform="translate(222.991 112.865) scale(178.765 178.736)">
<stop offset="0.126" stop-color="#3FE1B0"/>
<stop offset="0.429" stop-color="#00DDFF"/>
<stop offset="0.479" stop-color="#1EC1FF"/>
<stop offset="0.624" stop-color="#7077FF"/>
<stop offset="0.69" stop-color="#9059FF"/>
<stop offset="0.904" stop-color="#B833E1"/>
</radialGradient>
<radialGradient id="paint8_radial_3692_1590" cx="0" cy="0" r="1" gradientTransform="matrix(13.7055 130.213 -85.4431 8.99623 205.597 132.295)" gradientUnits="userSpaceOnUse">
<stop stop-color="#54FFBD"/>
<stop offset="0.095" stop-color="#4CF3B8"/>
<stop offset="0.197" stop-color="#3FE1B0"/>
<stop offset="0.257" stop-color="#33D8BD"/>
<stop offset="0.369" stop-color="#12C0E1"/>
<stop offset="0.423" stop-color="#00B3F4"/>
<stop offset="0.737" stop-color="#0060DF"/>
</radialGradient>
<radialGradient id="paint9_radial_3692_1590" cx="0" cy="0" r="1" gradientUnits="userSpaceOnUse" gradientTransform="translate(189.07 154.953) scale(111.606 111.588)">
<stop offset="0.137" stop-color="#3FE1B0"/>
<stop offset="0.435" stop-color="#00DDFF"/>
<stop offset="0.484" stop-color="#1EC1FF"/>
<stop offset="0.622" stop-color="#7077FF"/>
<stop offset="0.685" stop-color="#9059FF"/>
</radialGradient>
<radialGradient id="paint10_radial_3692_1590" cx="0" cy="0" r="1" gradientUnits="userSpaceOnUse" gradientTransform="translate(218.531 161.484) scale(122.152 122.132)">
<stop offset="0.094" stop-color="#54FFBD"/>
<stop offset="0.242" stop-color="#41F7CC"/>
<stop offset="0.543" stop-color="#0FE3F3"/>
<stop offset="0.626" stop-color="#00DDFF"/>
</radialGradient>
<linearGradient id="paint11_linear_3692_1590" x1="239.931" y1="149.255" x2="157.06" y2="232.126" gradientUnits="userSpaceOnUse">
<stop offset="0.167" stop-color="#54FFBD" stop-opacity="0.8"/>
<stop offset="0.236" stop-color="#43F8CA" stop-opacity="0.639"/>
<stop offset="0.361" stop-color="#27EDE1" stop-opacity="0.368"/>
<stop offset="0.466" stop-color="#12E4F1" stop-opacity="0.169"/>
<stop offset="0.545" stop-color="#05DFFB" stop-opacity="0.046"/>
<stop offset="0.589" stop-color="#00DDFF" stop-opacity="0"/>
</linearGradient>
</defs>
</svg>
