<svg width="257" height="256" viewBox="0 0 257 256" fill="none" xmlns="http://www.w3.org/2000/svg">
<path d="M128 248C194.274 248 248 194.274 248 128C248 61.7258 194.274 8 128 8C61.7258 8 8 61.7258 8 128C8 194.274 61.7258 248 128 248Z" fill="#8000D7"/>
<path d="M213.094 97.5113C213.523 89.014 207.772 81.4352 199.472 79.5469C178.916 74.8777 157.389 80.6713 141.948 95.0308L139.305 97.4855C136.224 100.352 132.172 101.94 127.967 101.94C123.752 101.94 119.701 100.344 116.62 97.477L114.036 95.0737C98.5948 80.6884 77.0426 74.8863 56.469 79.5555H56.4518C48.1949 81.4438 42.4614 88.9883 42.8562 97.4684V97.5199C40.7362 105.888 44.0063 136.787 45.8603 141.645C49.5854 161.275 65.6271 176.038 84.8533 176.038C94.4577 176.038 103.153 172.201 110.028 166.073L114.216 162.485C121.95 155.868 133.322 155.773 141.159 162.271L147.459 167.472V167.446C154.085 172.776 162.205 176.038 171.097 176.038C190.323 176.038 206.365 161.275 210.09 141.645C211.944 136.779 215.334 106.008 213.094 97.5113ZM109.032 130.479C104.458 135.654 97.3588 138.985 89.3765 138.985C81.3943 138.985 74.2961 135.654 69.7213 130.479C67.318 127.767 67.318 123.492 69.7213 120.771C74.2961 115.596 81.3943 112.266 89.3765 112.266C97.3588 112.266 104.458 115.596 109.032 120.771C111.436 123.492 111.436 127.767 109.032 130.479ZM186.28 130.479C181.705 135.654 174.607 138.985 166.625 138.985C158.643 138.985 151.544 135.654 146.97 130.479C144.566 127.767 144.566 123.492 146.97 120.771C151.544 115.596 158.643 112.266 166.625 112.266C174.607 112.266 181.705 115.596 186.28 120.771C188.683 123.492 188.683 127.767 186.28 130.479Z" fill="white"/>
<path d="M167.797 201.581L171.493 211.829L177.048 219.323L190.089 221.811L196.328 222.342L206.979 219.681L211.568 215.282L167.797 201.581Z" fill="#09204D"/>
<path d="M222.988 186.463L221.682 182.131L217.948 175.086L213.678 170.585L209.144 167.348L205.208 165.803L200.484 164.123L192.707 163.628L187.803 164.513L183.802 165.743L176.701 169.898L172.264 174.849L168.172 181.494L166.562 187.149L166.262 195.73L167.796 201.58L171.181 208.241L173.568 211.458L176.869 214.484L180.991 217.273L186.075 219.484L194.582 220.482L199.024 220.606L205.599 218.754L211.475 215.529L215.256 212.304L218.187 208.806L222.332 200.693L223.247 195.143L222.988 186.463Z" fill="#09204D"/>
<path d="M192.85 167.527L189.367 170.983L195.049 173.286L199.275 168.045L192.85 167.527Z" fill="#0E56D7"/>
<path d="M195.048 173.286L206.047 172.952L199.274 168.045L195.048 173.286Z" fill="#1053D1"/>
<path d="M205.23 168.008L199.274 168.045L206.047 172.952L212.311 172.543L205.23 168.008Z" fill="#0B4FBF"/>
<path d="M212.311 172.543L208.75 167.633L213.678 170.585L212.311 172.543Z" fill="#0B48B0"/>
<path d="M217.026 175.549L212.311 172.543L213.678 170.585L217.026 175.549Z" fill="#0C45A7"/>
<path d="M212.31 172.543L211.521 175.906L215.834 177.63L212.31 172.543Z" fill="#0F46AF"/>
<path d="M212.311 172.543L217.026 175.55L215.834 177.63L212.311 172.543Z" fill="#0C47AD"/>
<path d="M206.047 172.952L212.31 172.543L211.521 175.906L206.047 172.952Z" fill="#0E4FC3"/>
<path d="M206.047 172.952L201.099 177.431L207.468 180.55L206.047 172.952Z" fill="#174DCA"/>
<path d="M195.048 173.286L206.047 172.952L201.099 177.431L195.048 173.286Z" fill="#1650D4"/>
<path d="M211.521 175.906L214.517 181.715L215.834 177.63L211.521 175.906Z" fill="#1246B2"/>
<path d="M214.517 181.715L215.834 177.63L218.972 185.093L214.517 181.715Z" fill="#133EA1"/>
<path d="M215.834 177.63L220.616 181.132L218.972 185.093L215.834 177.63Z" fill="#103D98"/>
<path d="M217.025 175.55L217.948 175.086L220.616 181.133L217.025 175.55Z" fill="#0B3785"/>
<path d="M220.617 181.133L221.683 182.131L217.949 175.086L220.617 181.133Z" fill="#0B3685"/>
<path d="M220.616 181.132L217.025 175.55L215.834 177.631L220.616 181.132ZM213.678 170.585L217.025 175.55L217.948 175.086L213.678 170.585Z" fill="#0C3B91"/>
<path d="M222.747 189.848L221.682 182.131L222.987 186.463L222.73 189.848H222.747Z" fill="#0B3279"/>
<path d="M220.617 181.133L222.748 189.848L221.683 182.132L220.617 181.133Z" fill="#0F388D"/>
<path d="M218.973 185.094L222.748 189.848L220.617 181.133L218.973 185.094Z" fill="#0D3481"/>
<path d="M222.73 189.848L222.988 186.463L223.248 195.143L222.748 189.848H222.73Z" fill="#0B2E71"/>
<path d="M222.115 196.708L223.248 195.143L222.748 189.848L222.115 196.708Z" fill="#0E2F77"/>
<path d="M222.332 200.694L221.427 201.13L223.247 195.144L222.332 200.694Z" fill="#0E2969"/>
<path d="M221.427 201.13L223.247 195.144L222.115 196.708L221.427 201.13Z" fill="#0C2A69"/>
<path d="M222.115 196.708L222.748 189.848L220.809 192.136L222.115 196.708Z" fill="#123180"/>
<path d="M221.427 201.13L222.115 196.708L218.374 202.995L221.427 201.13Z" fill="#112B70"/>
<path d="M218.973 185.093L222.748 189.848L220.809 192.136L218.973 185.093Z" fill="#12378C"/>
<path d="M222.115 196.708L220.808 192.136L218.836 197.767L222.115 196.708Z" fill="#122E7B"/>
<path d="M218.188 208.807L221.427 201.13L218.396 206.726L218.188 208.807Z" fill="#11296C"/>
<path d="M218.397 206.726L221.427 201.13L218.374 202.995L218.397 206.726Z" fill="#142A72"/>
<path d="M221.427 201.13L218.188 208.808L222.332 200.693L221.427 201.13ZM215.256 212.304L218.188 208.808L218.397 206.727L215.256 212.304ZM211.476 215.53L215.256 212.304L211.261 214.142L211.476 215.53Z" fill="#112768"/>
<path d="M189.41 217.776L185.59 218.711L185.706 216.045L189.41 217.776Z" fill="#1C226A"/>
<path d="M168.172 181.495L169.225 181.104L166.562 187.15L168.172 181.495Z" fill="#182B7A"/>
<path d="M166.562 187.15L168.578 186.775L169.225 181.104L166.562 187.15Z" fill="#1F308D"/>
<path d="M166.683 194.41L166.562 187.149L168.578 186.774L166.683 194.41Z" fill="#1E2B7F"/>
<path d="M211.521 175.906L207.468 180.55L214.517 181.715L211.521 175.906ZM176.146 171.144L181.321 167.604L176.703 169.898L176.146 171.144Z" fill="#1346B5"/>
<path d="M176.701 169.898L183.801 165.743L181.319 167.603L176.701 169.898Z" fill="#1244AC"/>
<path d="M181.32 167.603L187.804 164.513L183.802 165.743L181.32 167.603Z" fill="#0E4AB6"/>
<path d="M206.048 172.952L207.469 180.55L211.523 175.906L206.048 172.952ZM185.27 167.243L191.309 164.828L187.804 164.513L185.27 167.243Z" fill="#0E4BBA"/>
<path d="M192.707 163.628L187.803 164.513L191.308 164.828L192.707 163.628Z" fill="#0A4EBC"/>
<path d="M197.346 164.768L191.309 164.828L192.708 163.628" fill="#0C54CC"/>
<path d="M208.75 167.633L205.23 168.008L212.311 172.543L208.75 167.633ZM197.346 164.768L205.207 165.803L200.484 164.123L197.346 164.768Z" fill="#0B4BB4"/>
<path d="M208.75 167.633L205.208 165.803L209.145 167.348L208.75 167.633Z" fill="#0C3889"/>
<path d="M167.797 201.581L170.121 203.494L166.684 194.412L167.797 201.581ZM199.875 219.644L201.918 214.834L194.472 216.835L199.875 219.644ZM201.918 214.834L208.144 216.562L208.522 211.748L201.918 214.834Z" fill="#202575"/>
<path d="M211.26 214.142L208.521 211.747L215.14 207.348L211.26 214.142Z" fill="#1B2773"/>
<path d="M215.141 207.348L211.261 214.142L215.256 212.304L218.397 206.726L215.141 207.348Z" fill="#15276D"/>
<path d="M209.145 167.348L208.75 167.633L213.678 170.585L209.145 167.348ZM205.23 168.007L208.75 167.633L205.208 165.802L205.23 168.007Z" fill="#0C409D"/>
<path d="M192.707 163.628L197.346 164.768L200.485 164.123L192.707 163.628ZM205.207 165.803L197.346 164.768L205.231 168.008L205.207 165.803Z" fill="#0B4CB7"/>
<path d="M197.346 164.768L199.275 168.045L205.23 168.008L197.346 164.768Z" fill="#0B55CE"/>
<path d="M197.345 164.768L199.274 168.045L192.85 167.527L197.345 164.768Z" fill="#0A52C5"/>
<path d="M191.309 164.828L192.85 167.527L197.346 164.768L191.309 164.828Z" fill="#0951C4"/>
<path d="M185.269 167.243L191.308 164.828L192.85 167.527L185.269 167.243Z" fill="#0B50C4"/>
<path d="M181.32 167.603L185.269 167.243L187.804 164.513L181.32 167.603ZM185.269 167.243L189.367 170.983L192.85 167.527L185.269 167.243Z" fill="#0F4DBF"/>
<path d="M185.269 167.243L178.598 173.499L181.32 167.603L185.269 167.243Z" fill="#1546B6"/>
<path d="M178.598 173.499L182.855 174.207L185.269 167.243L178.598 173.499Z" fill="#1549BD"/>
<path d="M182.854 174.207L185.269 167.243L189.367 170.982L182.854 174.207Z" fill="#144BC3"/>
<path d="M172.264 174.849L172.523 177.365L176.145 171.144L172.264 174.849Z" fill="#173794"/>
<path d="M169.226 181.104L172.264 174.849L172.524 177.365L169.226 181.104Z" fill="#192F84"/>
<path d="M172.523 177.365L176.145 171.144L178.597 173.499L172.523 177.365Z" fill="#1A389B"/>
<path d="M172.304 182.759L172.524 177.365L169.226 181.104L172.304 182.759Z" fill="#1D3089"/>
<path d="M172.305 182.759L172.524 177.365L176.804 180.84L172.305 182.759Z" fill="#1E389F"/>
<path d="M176.803 180.84L178.597 173.499L172.523 177.365L176.803 180.84Z" fill="#1C40AF"/>
<path d="M176.803 180.84L178.597 173.499L182.854 174.207L176.803 180.84Z" fill="#1E41B7"/>
<path d="M168.578 186.775L169.225 181.104L172.304 182.76L168.578 186.775Z" fill="#192C7D"/>
<path d="M199.875 219.643L205.599 218.754L208.143 216.56L199.875 219.643ZM166.262 195.73L166.683 194.41L166.562 187.149L166.262 195.73ZM168.578 186.774L166.683 194.41L170.12 203.492L168.443 192.969L168.578 186.774Z" fill="#162467"/>
<path d="M170.12 203.494L172.956 203.891L170.97 199.256L170.12 203.494Z" fill="#1A236A"/>
<path d="M211.261 214.142L208.143 216.56L205.599 218.754L211.476 215.529L211.261 214.142ZM194.583 220.482L199.025 220.606L205.599 218.754L199.875 219.643L194.583 220.482ZM172.767 208.764L175.747 209.337L172.956 203.893L172.767 208.764Z" fill="#132668"/>
<path d="M185.706 216.045L180.66 212.161L178.563 214.177L185.589 218.71L185.706 216.045ZM167.796 201.581L171.181 208.242L170.12 203.494L167.796 201.581ZM166.262 195.731L167.796 201.581L166.683 194.411L166.262 195.731ZM194.471 216.834L185.707 216.045L189.41 217.777L185.589 218.71L180.99 217.273L186.074 219.484L194.581 220.483L199.874 219.643L194.471 216.834ZM172.956 203.891L170.12 203.494L172.766 208.763L172.956 203.891ZM168.443 192.97L170.12 203.493L170.97 199.255L168.443 192.97ZM175.746 209.336L172.766 208.763L171.181 208.241L173.568 211.458L176.869 214.484L180.991 217.273L178.563 214.177L175.746 209.336Z" fill="#1B2268"/>
<path d="M168.578 186.775L172.58 192.964L172.304 182.759L168.578 186.775Z" fill="#212A81"/>
<path d="M168.443 192.97L170.971 199.255L172.58 192.964L168.443 192.97Z" fill="#21267A"/>
<path d="M170.971 199.255L172.58 192.964L174.581 197.935L170.971 199.255Z" fill="#262781"/>
<path d="M172.956 203.891L180.628 208.645L174.581 197.936L172.956 203.891Z" fill="#272379"/>
<path d="M171.181 208.241L172.767 208.763L170.121 203.493L171.181 208.241ZM188.128 210.976L185.707 216.044L194.471 216.832L188.128 210.976ZM172.957 203.89L175.747 209.334L178.563 214.175L180.661 212.159L180.628 208.643L172.957 203.89Z" fill="#1E226D"/>
<path d="M208.521 211.747L208.143 216.56L211.26 214.142L208.521 211.747ZM195.109 211.056L194.472 216.833L201.918 214.833L201.653 208.339L195.109 211.056Z" fill="#222475"/>
<path d="M168.443 192.97L172.58 192.964L168.579 186.774L168.443 192.97ZM201.654 208.338L201.919 214.832L208.521 211.746L201.654 208.338Z" fill="#23277D"/>
<path d="M201.653 208.338L205.903 204.49L208.521 211.747L201.653 208.338Z" fill="#1E2776"/>
<path d="M208.521 211.747L211.733 202.02L205.902 204.491L208.521 211.747Z" fill="#222B86"/>
<path d="M215.14 207.348L208.521 211.747L211.732 202.02L215.14 207.348Z" fill="#192974"/>
<path d="M218.374 202.995L211.732 202.019L215.14 207.348L218.396 206.726L218.374 202.995Z" fill="#172A75"/>
<path d="M218.835 197.767L211.732 202.019L218.374 202.995L222.115 196.708L218.835 197.767Z" fill="#172D7D"/>
<path d="M169.225 181.104L172.264 174.849L168.172 181.494L169.225 181.104ZM216.186 188.846L218.835 197.767L220.808 192.136L216.186 188.846Z" fill="#18338A"/>
<path d="M220.808 192.136L218.972 185.093L216.187 188.846L220.808 192.136Z" fill="#153791"/>
<path d="M211.732 202.019L218.835 197.767L211.951 194.703L211.732 202.019Z" fill="#1B318B"/>
<path d="M211.732 202.019L205.295 195.515L205.902 204.49L211.732 202.019Z" fill="#242D8D"/>
<path d="M201.653 208.338L196.711 203.962L205.902 204.49L201.653 208.338Z" fill="#2A2B8F"/>
<path d="M172.956 203.891L174.581 197.936L170.971 199.255L172.956 203.891ZM196.711 203.962L195.109 211.056L201.654 208.338L196.711 203.962Z" fill="#27267F"/>
<path d="M186.48 205.413L181.722 202.995L180.628 208.645L188.127 210.977L195.109 211.056L186.48 205.413Z" fill="#2D2381"/>
<path d="M195.109 211.056L196.711 203.962L186.48 205.413L195.109 211.056Z" fill="#2F2485"/>
<path d="M172.581 192.964L174.633 186.413L172.305 182.759L172.581 192.964Z" fill="#233196"/>
<path d="M176.803 180.839L185.81 178.214L181.052 187.933L176.803 180.839Z" fill="#293CB7"/>
<path d="M211.732 202.019L205.295 195.515L211.951 194.703L211.732 202.019Z" fill="#25339C"/>
<path d="M218.835 197.767L216.186 188.847L211.951 194.703L218.835 197.767Z" fill="#19348F"/>
<path d="M205.903 204.49L198.541 197.373L205.296 195.515L205.903 204.49Z" fill="#2A309A"/>
<path d="M196.711 203.963L205.902 204.491L198.541 197.373L196.711 203.963Z" fill="#302B96"/>
<path d="M196.71 203.963L191.676 199.863L198.54 197.373L196.71 203.963Z" fill="#3630A7"/>
<path d="M176.145 171.144L176.701 169.898L172.264 174.849L176.145 171.144ZM214.516 181.715L216.186 188.847L218.972 185.093L214.516 181.715Z" fill="#173DA2"/>
<path d="M176.804 180.84L181.053 187.933L174.633 186.413L176.804 180.84Z" fill="#2A36A8"/>
<path d="M174.633 186.413L181.053 187.933L176.711 194.772L174.633 186.413Z" fill="#312E9F"/>
<path d="M185.811 178.214L189.367 170.982L182.854 174.207L185.811 178.214Z" fill="#184DCD"/>
<path d="M172.58 192.964L176.711 194.771L174.581 197.935L172.58 192.964Z" fill="#272986"/>
<path d="M176.71 194.772L174.58 197.936L180.627 208.645L181.722 202.995L176.71 194.772Z" fill="#2C2584"/>
<path d="M181.722 202.995L182.392 193.046L176.711 194.772L181.722 202.995Z" fill="#32268B"/>
<path d="M181.723 202.995L191.677 199.863L182.393 193.046L181.723 202.995Z" fill="#372999"/>
<path d="M191.677 199.863L190.707 192.171L182.393 193.046L191.677 199.863Z" fill="#392DA5"/>
<path d="M190.706 192.17L197.727 189.545L198.541 197.373L190.706 192.17Z" fill="#3338BC"/>
<path d="M186.48 205.414L196.711 203.963L191.677 199.863L186.48 205.414Z" fill="#362896"/>
<path d="M186.48 205.414L181.723 202.995L191.677 199.863L186.48 205.414Z" fill="#35268F"/>
<path d="M185.811 178.214L191.907 178.859L189.367 170.982L185.811 178.214Z" fill="#2648D3"/>
<path d="M195.048 173.285L189.367 170.982L191.907 178.859L195.048 173.285Z" fill="#1057DC"/>
<path d="M195.048 173.286L201.099 177.431L191.907 178.859L195.048 173.286Z" fill="#1653DA"/>
<path d="M191.907 178.859L200.923 183.64L197.727 189.545L191.907 178.859Z" fill="#2B46D5"/>
<path d="M200.923 183.64L201.099 177.431L191.907 178.859L200.923 183.64Z" fill="#244AD7"/>
<path d="M200.924 183.64L201.099 177.431L207.468 180.55L200.924 183.64Z" fill="#2547CF"/>
<path d="M191.907 178.859L197.727 189.545L187.52 184.433L191.907 178.859Z" fill="#333CC5"/>
<path d="M190.707 192.171L197.727 189.545L187.52 184.433L190.707 192.171Z" fill="#3833B6"/>
<path d="M197.727 189.545L206.729 187.901L200.923 183.64L197.727 189.545Z" fill="#2A41C6"/>
<path d="M207.468 180.55L206.73 187.901L200.924 183.64L207.468 180.55Z" fill="#2045C1"/>
<path d="M207.468 180.55L211.718 186.321L206.73 187.901L207.468 180.55Z" fill="#1B43B7"/>
<path d="M214.517 181.715L207.468 180.55L211.717 186.321L214.517 181.715Z" fill="#1742AF"/>
<path d="M178.598 173.499L181.32 167.604L176.145 171.144L178.598 173.499ZM214.517 181.715L211.718 186.323L216.187 188.848L214.517 181.715Z" fill="#1740A9"/>
<path d="M211.951 194.703L216.186 188.847L211.717 186.321L211.951 194.703Z" fill="#1B3CA4"/>
<path d="M211.952 194.703L211.718 186.321L206.73 187.901L211.952 194.703Z" fill="#1F3DAD"/>
<path d="M176.804 180.84L185.811 178.214L182.855 174.207L176.804 180.84ZM197.727 189.545L205.295 195.515L206.729 187.901L197.727 189.545Z" fill="#2543C3"/>
<path d="M198.54 197.373L205.295 195.515L197.727 189.545L198.54 197.373Z" fill="#2E37B2"/>
<path d="M185.811 178.214L187.52 184.432L191.907 178.859L185.811 178.214Z" fill="#2D40C7"/>
<path d="M185.81 178.214L181.053 187.933L187.519 184.432L185.81 178.214Z" fill="#3537B8"/>
<path d="M187.52 184.433L182.393 193.046L190.707 192.171L187.52 184.433Z" fill="#3931B0"/>
<path d="M190.706 192.171L191.676 199.863L198.541 197.373L190.706 192.171ZM182.392 193.046L187.519 184.433L181.053 187.934L182.392 193.046Z" fill="#3735B8"/>
<path d="M176.711 194.772L181.053 187.933L182.392 193.046L176.711 194.772Z" fill="#342892"/>
<path d="M180.991 217.273L185.589 218.71L178.562 214.177L180.991 217.273ZM180.66 212.161L185.706 216.044L188.127 210.976L180.627 208.645L180.66 212.161ZM194.471 216.833L195.108 211.056L188.127 210.976L194.471 216.833ZM201.917 214.833L199.874 219.642L208.142 216.559L201.917 214.833Z" fill="#232372"/>
<path d="M172.58 192.964L174.632 186.413L176.711 194.772L172.58 192.964Z" fill="#2A2F96"/>
<path d="M174.633 186.413L176.804 180.84L172.305 182.76L174.633 186.413ZM206.73 187.901L205.296 195.515L211.952 194.703L206.73 187.901Z" fill="#2636A5"/>
<path d="M223.375 195.151V195.138L223.115 186.459V186.45C223.115 186.446 223.115 186.444 223.114 186.441C223.112 186.438 223.112 186.433 223.111 186.429V186.426L221.806 182.096V182.093L221.804 182.086C221.804 182.083 221.801 182.08 221.8 182.077L221.798 182.073L218.064 175.028L218.062 175.025L218.058 175.017L218.053 175.011L218.051 175.008L218.047 175.003L218.044 175L213.771 170.497L213.769 170.495L213.766 170.492C213.764 170.49 213.761 170.488 213.758 170.486L213.752 170.481L209.22 167.245H209.218L209.214 167.242C209.211 167.241 209.207 167.239 209.204 167.237C209.201 167.236 209.198 167.234 209.194 167.233H209.192L205.259 165.689H205.252L200.53 164.009H200.526L200.517 164.007L200.508 164.005H200.495L192.718 163.51H192.705C192.7 163.51 192.696 163.51 192.692 163.51H192.687L187.783 164.395H187.772L187.764 164.397L183.767 165.626L183.758 165.63C183.754 165.631 183.751 165.633 183.748 165.634L183.742 165.637H183.741L176.641 169.792H176.639L176.633 169.796L176.628 169.8L176.623 169.804L176.619 169.807L176.614 169.813L176.61 169.816L176.608 169.818L172.172 174.766L172.171 174.769L172.167 174.772L172.165 174.777L172.161 174.782L172.159 174.785L172.157 174.787L168.063 181.427L168.061 181.431L168.057 181.438L168.053 181.446C168.053 181.449 168.051 181.452 168.05 181.455L168.048 181.459L166.439 187.115V187.133C166.438 187.136 166.438 187.14 166.437 187.143V187.145L166.137 195.726V195.747C166.137 195.751 166.138 195.754 166.139 195.758V195.766L167.672 201.613V201.615L167.674 201.62C167.675 201.624 167.677 201.628 167.678 201.632C167.678 201.634 167.68 201.636 167.681 201.638L171.065 208.297L171.067 208.3C171.069 208.304 171.071 208.307 171.074 208.311L171.075 208.314L173.461 211.529L173.464 211.533C173.466 211.536 173.469 211.538 173.471 211.54C173.473 211.542 173.475 211.544 173.477 211.546L176.777 214.573C176.78 214.576 176.783 214.578 176.786 214.58L176.792 214.585L180.915 217.374L180.917 217.375L180.927 217.381L180.933 217.383H180.934L186.018 219.594L186.023 219.596C186.027 219.598 186.03 219.599 186.034 219.6L186.04 219.601L186.049 219.603H186.054L194.562 220.602H194.573L199.015 220.726H199.02C199.028 220.725 199.036 220.725 199.044 220.723L199.05 220.721H199.053L205.628 218.87L205.632 218.868L205.637 218.867L205.642 218.864L205.646 218.862L205.654 218.859L205.656 218.858L211.53 215.635H211.531L211.534 215.633C211.537 215.631 211.54 215.629 211.543 215.627L211.551 215.621L215.332 212.396L215.336 212.392L215.341 212.388L215.345 212.382H215.347L218.278 208.885L218.279 208.884C218.283 208.879 218.287 208.874 218.29 208.868L218.293 208.863V208.862L222.447 200.751C222.447 200.749 222.448 200.747 222.449 200.745L222.453 200.736V200.731C222.454 200.727 222.455 200.724 222.456 200.72C222.456 200.718 222.457 200.716 222.458 200.714L223.373 195.165V195.155L223.375 195.151ZM176.948 214.384L176.094 213.6L178.017 215.106L176.948 214.384ZM189.426 217.643L186.421 216.238L193.533 216.877L189.426 217.643ZM190.522 192.061L182.633 192.891L187.498 184.718L190.522 192.061ZM187.768 184.701L197.406 189.528L190.777 192.007L187.768 184.701ZM190.593 192.311L191.51 199.583L182.734 193.137L190.593 192.311ZM191.395 199.817L181.863 202.816L182.504 193.288L191.395 199.817ZM190.868 192.433L198.257 197.34L191.782 199.688L190.868 192.433ZM190.985 192.203L197.615 189.724L198.384 197.115L190.985 192.203ZM201.172 183.664L207.317 180.763L206.624 187.665L201.172 183.664ZM206.414 187.828L197.966 189.371L200.966 183.832L206.414 187.828ZM197.726 189.276L192.224 179.173L200.75 183.693L197.726 189.276ZM197.418 189.247L187.717 184.389L191.887 179.091L197.418 189.247ZM182.439 192.716L181.203 187.998L187.171 184.767L182.439 192.716ZM181.621 202.582L176.906 194.846L182.251 193.222L181.621 202.582ZM191.248 200.131L186.452 205.255L182.06 203.023L191.248 200.131ZM198.35 197.578L196.639 203.738L191.932 199.905L198.35 197.578ZM197.886 189.834L205.016 195.458L198.652 197.208L197.886 189.834ZM198.029 189.62L206.569 188.06L205.208 195.282L198.029 189.62ZM206.877 187.719L207.561 180.895L211.506 186.253L206.877 187.719ZM211.593 186.494L211.811 194.31L206.943 187.968L211.593 186.494ZM201.057 183.435L201.221 177.634L207.17 180.548L201.057 183.435ZM200.8 183.429L192.308 178.926L200.966 177.581L200.8 183.429ZM187.575 184.153L185.984 178.361L191.662 178.962L187.575 184.153ZM187.368 184.368L181.344 187.629L185.776 178.575L187.368 184.368ZM182.236 192.959L177.004 194.548L181.003 188.251L182.236 192.959ZM181.289 202.53L174.757 197.903L176.705 195.009L181.289 202.53ZM181.816 203.186L186.206 205.417L180.806 208.4L181.816 203.186ZM191.688 200.037L196.402 203.876L186.822 205.234L191.688 200.037ZM198.606 197.614L205.564 204.341L196.877 203.842L198.606 197.614ZM198.791 197.435L205.177 195.679L205.751 204.165L198.791 197.435ZM206.803 188.206L211.712 194.602L205.454 195.366L206.803 188.206ZM211.852 186.543L215.998 188.887L212.069 194.32L211.852 186.543ZM211.895 186.273L214.463 182.049L215.994 188.59L211.895 186.273ZM211.707 186.089L207.758 180.727L214.308 181.809L211.707 186.089ZM201.325 177.398L205.964 173.2L207.295 180.321L201.325 177.398ZM192.148 178.692L195.091 173.471L200.759 177.354L192.148 178.692ZM186.006 178.106L189.342 171.324L191.724 178.711L186.006 178.106ZM181.041 187.665L176.998 180.917L185.568 178.419L181.041 187.665ZM176.763 194.45L174.808 186.586L180.847 188.016L176.763 194.45ZM174.609 197.663L172.816 193.207L176.518 194.827L174.609 197.663ZM181.58 203.052L180.568 208.276L174.974 198.371L181.58 203.052ZM186.402 205.603L187.936 210.783L180.953 208.612L186.402 205.603ZM196.544 204.115L195.023 210.847L186.835 205.492L196.544 204.115ZM205.589 204.601L201.652 208.165L197.073 204.111L205.589 204.601ZM205.447 195.851L211.508 201.975L206.018 204.302L205.447 195.851ZM205.57 195.611L211.818 194.848L211.613 201.716L205.57 195.611ZM216.137 189.133L218.633 197.537L212.147 194.65L216.137 189.133ZM214.723 182.032L218.793 185.119L216.248 188.548L214.723 182.032ZM207.716 180.461L211.494 176.133L214.285 181.547L207.716 180.461ZM207.545 180.266L206.223 173.193L211.319 175.943L207.545 180.266ZM201.087 177.268L195.444 173.402L205.702 173.091L201.087 177.268ZM191.939 178.54L189.573 171.205L194.864 173.35L191.939 178.54ZM185.787 177.968L183.047 174.254L189.083 171.266L185.787 177.968ZM185.596 178.143L177.205 180.589L182.843 174.408L185.596 178.143ZM180.785 187.737L174.803 186.321L176.826 181.13L180.785 187.737ZM176.522 194.549L172.736 192.892L174.615 186.888L176.522 194.549ZM174.411 197.86L171.154 199.051L172.606 193.375L174.411 197.86ZM180.268 208.271L173.104 203.831L174.621 198.27L180.268 208.271ZM187.563 210.935L180.786 212.009L180.757 208.818L187.563 210.935ZM186.701 205.71L194.67 210.923L188.225 210.849L186.701 205.71ZM196.787 204.201L201.413 208.297L195.288 210.842L196.787 204.201ZM205.844 204.713L208.289 211.489L201.878 208.307L205.844 204.713ZM206.062 204.56L211.52 202.247L208.513 211.353L206.062 204.56ZM212.072 194.897L218.556 197.783L211.866 201.787L212.072 194.897ZM216.414 189.166L220.653 192.184L218.844 197.349L216.414 189.166ZM216.365 188.817L218.913 185.384L220.592 191.826L216.365 188.817ZM214.665 181.667L215.848 177.998L218.666 184.701L214.665 181.667ZM214.487 181.38L211.791 176.152L215.673 177.704L214.487 181.38ZM206.5 173.051L212.145 172.682L211.435 175.714L206.5 173.051ZM195.323 173.148L199.297 168.219L205.667 172.834L195.323 173.148ZM195.088 173.03L193.042 167.671L199.023 168.152L195.088 173.03ZM194.823 173.055L189.595 170.935L192.799 167.756L194.823 173.055ZM183.078 173.952L185.326 167.468L189.141 170.95L183.078 173.952ZM177.048 180.38L178.694 173.643L182.6 174.293L177.048 180.38ZM174.605 186.129L172.494 182.817L176.573 181.076L174.605 186.129ZM174.492 186.43L172.688 192.189L172.445 183.218L174.492 186.43ZM172.415 193.091L170.943 198.842L168.633 193.097L172.415 193.091ZM168.574 192.841L168.696 187.195L172.343 192.834L168.574 192.841ZM174.391 198.14L172.928 203.5L171.141 199.328L174.391 198.14ZM180.259 208.567L175.819 209.195L173.281 204.242L180.259 208.567ZM180.5 208.791L180.529 211.937L176.135 209.41L180.5 208.791ZM187.906 211.14L185.658 215.845L180.974 212.241L187.906 211.14ZM188.168 211.188L194.107 216.671L185.901 215.933L188.168 211.188ZM188.459 211.107L194.965 211.181L194.371 216.565L188.459 211.107ZM201.531 208.527L201.779 214.61L195.403 211.072L201.531 208.527ZM201.789 208.55L208.224 211.743L202.037 214.635L201.789 208.55ZM211.769 202.316L214.963 207.311L208.758 211.434L211.769 202.316ZM211.991 202.187L218.141 203.09L215.148 207.123L211.991 202.187ZM212.105 201.945L218.684 198.007L218.256 202.848L212.105 201.945ZM220.794 192.56L221.956 196.624L219.041 197.566L220.794 192.56ZM219.249 185.65L222.58 189.845L220.869 191.864L219.249 185.65ZM216.131 178.008L220.458 181.177L218.971 184.76L216.131 178.008ZM211.671 175.829L212.368 172.854L215.485 177.353L211.671 175.829ZM206.153 172.817L205.402 168.272L211.91 172.441L206.153 172.817ZM205.867 172.665L199.666 168.17L205.121 168.137L205.867 172.665ZM193.249 167.432L197.299 164.946L199.036 167.898L193.249 167.432ZM189.361 170.806L185.613 167.384L192.549 167.645L189.361 170.806ZM182.766 174.063L178.875 173.415L184.977 167.693L182.766 174.063ZM176.726 180.612L172.742 177.378L178.396 173.779L176.726 180.612ZM176.557 180.805L172.44 182.562L172.641 177.627L176.557 180.805ZM172.439 192.51L168.74 186.789L172.183 183.078L172.439 192.51ZM170.836 199.268L170.134 202.768L168.749 194.076L170.836 199.268ZM171.015 199.686L172.748 203.732L170.273 203.385L171.015 199.686ZM175.512 209.161L172.899 208.658L173.066 204.385L175.512 209.161ZM180.448 212.187L178.592 213.971L176.099 209.686L180.448 212.187ZM180.669 212.33L185.126 215.761L178.816 214.111L180.669 212.33ZM195.215 211.262L201.58 214.791L194.622 216.661L195.215 211.262ZM208.374 211.956L208.025 216.395L202.288 214.802L208.374 211.956ZM214.759 207.755L211.226 213.942L208.731 211.762L214.759 207.755ZM218.247 203.38L218.267 206.62L215.439 207.16L218.247 203.38ZM218.955 197.863L221.83 196.935L218.55 202.446L218.955 197.863ZM220.949 192.167L222.581 190.242L222.049 196.013L220.949 192.167ZM219.118 185.073L220.583 181.544L222.482 189.309L219.118 185.073ZM216.002 177.594L217.031 175.797L220.134 180.62L216.002 177.594ZM215.823 177.39L212.779 172.995L216.853 175.593L215.823 177.39ZM205.606 168.097L208.689 167.768L211.807 172.068L205.606 168.097ZM199.347 167.916L197.649 165.032L204.59 167.883L199.347 167.916ZM192.895 167.349L191.528 164.954L196.884 164.901L192.895 167.349ZM192.623 167.391L185.877 167.138L191.251 164.989L192.623 167.391ZM178.989 172.954L181.405 167.724L184.908 167.405L178.989 172.954ZM178.555 173.281L176.347 171.16L181.008 167.972L178.555 173.281ZM178.39 173.478L172.9 176.973L176.174 171.349L178.39 173.478ZM172.184 182.549L169.428 181.068L172.38 177.722L172.184 182.549ZM172.097 182.793L168.75 186.4L169.331 181.307L172.097 182.793ZM168.315 192.908L166.901 194.066L168.424 187.927L168.315 192.908ZM168.351 193.211L169.795 202.271L166.835 194.452L168.351 193.211ZM172.823 204.002L172.657 208.259L170.344 203.654L172.823 204.002ZM175.664 209.451L178.013 213.488L173.179 208.972L175.664 209.451ZM185.573 216.143L185.47 218.481L179.306 214.504L185.573 216.143ZM185.826 216.242L189.024 217.738L185.724 218.545L185.826 216.242ZM194.346 216.987L194.446 220.267L189.796 217.834L194.346 216.987ZM201.695 215.025L199.809 219.466L194.821 216.872L201.695 215.025ZM201.99 214.987L207.726 216.578L200.108 219.419L201.99 214.987ZM208.626 212.012L211.057 214.136L208.293 216.28L208.626 212.012ZM215.221 207.463L218.024 206.928L211.884 213.308L215.221 207.463ZM218.52 206.225L218.5 203.067L221.085 201.487L218.52 206.225ZM218.747 202.615L221.884 197.344L221.309 201.051L218.747 202.615ZM222.747 191.231L223.113 195.107L222.284 196.252L222.747 191.231ZM220.843 181.522L221.56 182.194L222.277 187.385L220.843 181.522ZM217.209 175.6L217.884 175.262L219.834 179.681L217.209 175.6ZM212.493 172.507L213.677 170.812L216.574 175.109L212.493 172.507ZM212.309 172.321L209.221 168.066L213.494 170.624L212.309 172.321ZM205.357 167.865L205.338 166.015L208.311 167.551L205.357 167.865ZM205.099 167.815L198.304 165.023L205.08 165.915L205.099 167.815ZM191.658 164.696L192.74 163.768L196.327 164.65L191.658 164.696ZM185.75 166.912L187.854 164.646L190.762 164.908L185.75 166.912ZM185.207 167.12L182.021 167.41L187.251 164.917L185.207 167.12ZM176.447 170.78L176.799 169.992L179.723 168.539L176.447 170.78ZM172.61 176.959L172.397 174.898L175.579 171.862L172.61 176.959ZM172.389 177.322L169.752 180.312L172.182 175.31L172.389 177.322ZM168.461 186.666L166.776 186.979L169 181.931L168.461 186.666ZM168.405 186.937L166.793 193.424L166.691 187.256L168.405 186.937ZM169.829 203.087L167.915 201.512L166.998 195.608L169.829 203.087ZM172.512 208.544L171.29 208.142L170.472 204.481L172.512 208.544ZM177.737 213.581L173.676 211.371L173.024 209.18L177.737 213.581ZM178.477 214.277L180.235 216.518L174.86 212.308L178.477 214.277ZM179.135 214.699L184.726 218.306L181.067 217.163L179.135 214.699ZM189.392 217.912L193.738 220.185L186.185 218.696L189.392 217.912ZM194.606 217.048L199.47 219.577L194.706 220.333L194.606 217.048ZM207.517 216.93L205.542 218.633L201.099 219.323L207.517 216.93ZM211.166 214.377L211.331 215.439L208.778 216.229L211.166 214.377ZM217.789 207.541L215.164 212.204L211.823 213.74L217.789 207.541ZM218.521 206.763L220.279 203.516L218.399 207.97L218.521 206.763ZM222.237 196.757L222.901 195.84L221.834 199.348L222.237 196.757ZM222.875 189.838V189.83L222.866 189.762L222.932 188.893L223 191.143L222.875 189.838ZM222.699 188.558L222.035 183.748L222.857 186.478L222.699 188.558ZM220.723 181.057L219.511 178.31L221.208 181.51L220.723 181.057ZM217.069 175.385L214.648 171.796L217.736 175.051L217.069 175.385ZM208.982 167.624L209.144 167.507L211.005 168.835L208.982 167.624ZM208.738 167.484L207.48 166.833L208.878 167.382L208.738 167.484ZM198.117 164.74L200.475 164.256L204.023 165.518L198.117 164.74ZM197.347 164.636L194.137 163.847L199.52 164.189L197.347 164.636ZM191.265 164.695L188.761 164.47L192.265 163.838L191.265 164.695ZM182.427 166.933L183.86 165.858L186.17 165.148L182.427 166.933ZM181.251 167.494L180.008 168.112L181.919 166.994L181.251 167.494ZM176.037 171.068L174.563 172.476L176.249 170.596L176.037 171.068ZM169.132 181.002L168.476 181.246L171.023 177.11L169.132 181.002ZM168.277 181.592L168.985 181.33L167.197 185.391L168.277 181.592ZM166.516 192.131L166.553 194.391L166.423 194.802L166.516 192.131ZM166.638 194.969L167.283 199.124L166.394 195.734L166.638 194.969ZM170.003 203.564L170.831 207.273L168.189 202.069L170.003 203.564ZM172.66 208.864L173.235 210.797L171.526 208.49L172.66 208.864ZM185.504 218.819L185.744 219.201L183.232 218.109L185.504 218.819ZM186.149 219.364L185.854 218.894L191.321 219.971L186.149 219.364ZM199.541 219.826L198.967 220.477L195.966 220.394L199.541 219.826ZM199.939 219.763L203.516 219.207L199.407 220.365L199.939 219.763ZM208.205 216.675L210.302 216.026L206.603 218.056L208.205 216.675ZM211.565 215.283L211.4 214.218L214.466 212.808L211.565 215.283ZM218.206 207.324L218.062 208.755L216.046 211.16L218.206 207.324ZM221.526 201.224L222.044 200.974L219.673 205.616L221.526 201.224ZM222.216 200.607L221.635 200.887L222.803 197.043L222.216 200.607Z" fill="url(#paint0_radial_3692_1571)"/>
<path d="M223.375 195.151V195.138L223.115 186.459V186.45C223.115 186.446 223.115 186.444 223.114 186.441C223.112 186.438 223.112 186.433 223.111 186.429V186.426L221.806 182.096V182.093L221.804 182.086C221.804 182.083 221.801 182.08 221.8 182.077L221.798 182.073L218.064 175.028L218.062 175.025L218.058 175.017L218.053 175.011L218.051 175.008L218.047 175.003L218.044 175L213.771 170.497L213.769 170.495L213.766 170.492C213.764 170.49 213.761 170.488 213.758 170.486L213.752 170.481L209.22 167.245H209.218L209.214 167.242C209.211 167.241 209.207 167.239 209.204 167.237C209.201 167.236 209.198 167.234 209.194 167.233H209.192L205.259 165.689H205.252L200.53 164.009H200.526L200.517 164.007L200.508 164.005H200.495L192.718 163.51H192.705C192.7 163.51 192.696 163.51 192.692 163.51H192.687L187.783 164.395H187.772L187.764 164.397L183.767 165.626L183.758 165.63C183.754 165.631 183.751 165.633 183.748 165.634L183.742 165.637H183.741L176.641 169.792H176.639L176.633 169.796L176.628 169.8L176.623 169.804L176.619 169.807L176.614 169.813L176.61 169.816L176.608 169.818L172.172 174.766L172.171 174.769L172.167 174.772L172.165 174.777L172.161 174.782L172.159 174.785L172.157 174.787L168.063 181.427L168.061 181.431L168.057 181.438L168.053 181.446C168.053 181.449 168.051 181.452 168.05 181.455L168.048 181.459L166.439 187.115V187.133C166.438 187.136 166.438 187.14 166.437 187.143V187.145L166.137 195.726V195.747C166.137 195.751 166.138 195.754 166.139 195.758V195.766L167.672 201.613V201.615L167.674 201.62C167.675 201.624 167.677 201.628 167.678 201.632C167.678 201.634 167.68 201.636 167.681 201.638L171.065 208.297L171.067 208.3C171.069 208.304 171.071 208.307 171.074 208.311L171.075 208.314L173.461 211.529L173.464 211.533C173.466 211.536 173.469 211.538 173.471 211.54C173.473 211.542 173.475 211.544 173.477 211.546L176.777 214.573C176.78 214.576 176.783 214.578 176.786 214.58L176.792 214.585L180.915 217.374L180.917 217.375L180.927 217.381L180.933 217.383H180.934L186.018 219.594L186.023 219.596C186.027 219.598 186.03 219.599 186.034 219.6L186.04 219.601L186.049 219.603H186.054L194.562 220.602H194.573L199.015 220.726H199.02C199.028 220.725 199.036 220.725 199.044 220.723L199.05 220.721H199.053L205.628 218.87L205.632 218.868L205.637 218.867L205.642 218.864L205.646 218.862L205.654 218.859L205.656 218.858L211.53 215.635H211.531L211.534 215.633C211.537 215.631 211.54 215.629 211.543 215.627L211.551 215.621L215.332 212.396L215.336 212.392L215.341 212.388L215.345 212.382H215.347L218.278 208.885L218.279 208.884C218.283 208.879 218.287 208.874 218.29 208.868L218.293 208.863V208.862L222.447 200.751C222.447 200.749 222.448 200.747 222.449 200.745L222.453 200.736V200.731C222.454 200.727 222.455 200.724 222.456 200.72C222.456 200.718 222.457 200.716 222.458 200.714L223.373 195.165V195.155L223.375 195.151ZM176.948 214.384L176.094 213.6L178.017 215.106L176.948 214.384ZM189.426 217.643L186.421 216.238L193.533 216.877L189.426 217.643ZM190.522 192.061L182.633 192.891L187.498 184.718L190.522 192.061ZM187.768 184.701L197.406 189.528L190.777 192.007L187.768 184.701ZM190.593 192.311L191.51 199.583L182.734 193.137L190.593 192.311ZM191.395 199.817L181.863 202.816L182.504 193.288L191.395 199.817ZM190.868 192.433L198.257 197.34L191.782 199.688L190.868 192.433ZM190.985 192.203L197.615 189.724L198.384 197.115L190.985 192.203ZM201.172 183.664L207.317 180.763L206.624 187.665L201.172 183.664ZM206.414 187.828L197.966 189.371L200.966 183.832L206.414 187.828ZM197.726 189.276L192.224 179.173L200.75 183.693L197.726 189.276ZM197.418 189.247L187.717 184.389L191.887 179.091L197.418 189.247ZM182.439 192.716L181.203 187.998L187.171 184.767L182.439 192.716ZM181.621 202.582L176.906 194.846L182.251 193.222L181.621 202.582ZM191.248 200.131L186.452 205.255L182.06 203.023L191.248 200.131ZM198.35 197.578L196.639 203.738L191.932 199.905L198.35 197.578ZM197.886 189.834L205.016 195.458L198.652 197.208L197.886 189.834ZM198.029 189.62L206.569 188.06L205.208 195.282L198.029 189.62ZM206.877 187.719L207.561 180.895L211.506 186.253L206.877 187.719ZM211.593 186.494L211.811 194.31L206.943 187.968L211.593 186.494ZM201.057 183.435L201.221 177.634L207.17 180.548L201.057 183.435ZM200.8 183.429L192.308 178.926L200.966 177.581L200.8 183.429ZM187.575 184.153L185.984 178.361L191.662 178.962L187.575 184.153ZM187.368 184.368L181.344 187.629L185.776 178.575L187.368 184.368ZM182.236 192.959L177.004 194.548L181.003 188.251L182.236 192.959ZM181.289 202.53L174.757 197.903L176.705 195.009L181.289 202.53ZM181.816 203.186L186.206 205.417L180.806 208.4L181.816 203.186ZM191.688 200.037L196.402 203.876L186.822 205.234L191.688 200.037ZM198.606 197.614L205.564 204.341L196.877 203.842L198.606 197.614ZM198.791 197.435L205.177 195.679L205.751 204.165L198.791 197.435ZM206.803 188.206L211.712 194.602L205.454 195.366L206.803 188.206ZM211.852 186.543L215.998 188.887L212.069 194.32L211.852 186.543ZM211.895 186.273L214.463 182.049L215.994 188.59L211.895 186.273ZM211.707 186.089L207.758 180.727L214.308 181.809L211.707 186.089ZM201.325 177.398L205.964 173.2L207.295 180.321L201.325 177.398ZM192.148 178.692L195.091 173.471L200.759 177.354L192.148 178.692ZM186.006 178.106L189.342 171.324L191.724 178.711L186.006 178.106ZM181.041 187.665L176.998 180.917L185.568 178.419L181.041 187.665ZM176.763 194.45L174.808 186.586L180.847 188.016L176.763 194.45ZM174.609 197.663L172.816 193.207L176.518 194.827L174.609 197.663ZM181.58 203.052L180.568 208.276L174.974 198.371L181.58 203.052ZM186.402 205.603L187.936 210.783L180.953 208.612L186.402 205.603ZM196.544 204.115L195.023 210.847L186.835 205.492L196.544 204.115ZM205.589 204.601L201.652 208.165L197.073 204.111L205.589 204.601ZM205.447 195.851L211.508 201.975L206.018 204.302L205.447 195.851ZM205.57 195.611L211.818 194.848L211.613 201.716L205.57 195.611ZM216.137 189.133L218.633 197.537L212.147 194.65L216.137 189.133ZM214.723 182.032L218.793 185.119L216.248 188.548L214.723 182.032ZM207.716 180.461L211.494 176.133L214.285 181.547L207.716 180.461ZM207.545 180.266L206.223 173.193L211.319 175.943L207.545 180.266ZM201.087 177.268L195.444 173.402L205.702 173.091L201.087 177.268ZM191.939 178.54L189.573 171.205L194.864 173.35L191.939 178.54ZM185.787 177.968L183.047 174.254L189.083 171.266L185.787 177.968ZM185.596 178.143L177.205 180.589L182.843 174.408L185.596 178.143ZM180.785 187.737L174.803 186.321L176.826 181.13L180.785 187.737ZM176.522 194.549L172.736 192.892L174.615 186.888L176.522 194.549ZM174.411 197.86L171.154 199.051L172.606 193.375L174.411 197.86ZM180.268 208.271L173.104 203.831L174.621 198.27L180.268 208.271ZM187.563 210.935L180.786 212.009L180.757 208.818L187.563 210.935ZM186.701 205.71L194.67 210.923L188.225 210.849L186.701 205.71ZM196.787 204.201L201.413 208.297L195.288 210.842L196.787 204.201ZM205.844 204.713L208.289 211.489L201.878 208.307L205.844 204.713ZM206.062 204.56L211.52 202.247L208.513 211.353L206.062 204.56ZM212.072 194.897L218.556 197.783L211.866 201.787L212.072 194.897ZM216.414 189.166L220.653 192.184L218.844 197.349L216.414 189.166ZM216.365 188.817L218.913 185.384L220.592 191.826L216.365 188.817ZM214.665 181.667L215.848 177.998L218.666 184.701L214.665 181.667ZM214.487 181.38L211.791 176.152L215.673 177.704L214.487 181.38ZM206.5 173.051L212.145 172.682L211.435 175.714L206.5 173.051ZM195.323 173.148L199.297 168.219L205.667 172.834L195.323 173.148ZM195.088 173.03L193.042 167.671L199.023 168.152L195.088 173.03ZM194.823 173.055L189.595 170.935L192.799 167.756L194.823 173.055ZM183.078 173.952L185.326 167.468L189.141 170.95L183.078 173.952ZM177.048 180.38L178.694 173.643L182.6 174.293L177.048 180.38ZM174.605 186.129L172.494 182.817L176.573 181.076L174.605 186.129ZM174.492 186.43L172.688 192.189L172.445 183.218L174.492 186.43ZM172.415 193.091L170.943 198.842L168.633 193.097L172.415 193.091ZM168.574 192.841L168.696 187.195L172.343 192.834L168.574 192.841ZM174.391 198.14L172.928 203.5L171.141 199.328L174.391 198.14ZM180.259 208.567L175.819 209.195L173.281 204.242L180.259 208.567ZM180.5 208.791L180.529 211.937L176.135 209.41L180.5 208.791ZM187.906 211.14L185.658 215.845L180.974 212.241L187.906 211.14ZM188.168 211.188L194.107 216.671L185.901 215.933L188.168 211.188ZM188.459 211.107L194.965 211.181L194.371 216.565L188.459 211.107ZM201.531 208.527L201.779 214.61L195.403 211.072L201.531 208.527ZM201.789 208.55L208.224 211.743L202.037 214.635L201.789 208.55ZM211.769 202.316L214.963 207.311L208.758 211.434L211.769 202.316ZM211.991 202.187L218.141 203.09L215.148 207.123L211.991 202.187ZM212.105 201.945L218.684 198.007L218.256 202.848L212.105 201.945ZM220.794 192.56L221.956 196.624L219.041 197.566L220.794 192.56ZM219.249 185.65L222.58 189.845L220.869 191.864L219.249 185.65ZM216.131 178.008L220.458 181.177L218.971 184.76L216.131 178.008ZM211.671 175.829L212.368 172.854L215.485 177.353L211.671 175.829ZM206.153 172.817L205.402 168.272L211.91 172.441L206.153 172.817ZM205.867 172.665L199.666 168.17L205.121 168.137L205.867 172.665ZM193.249 167.432L197.299 164.946L199.036 167.898L193.249 167.432ZM189.361 170.806L185.613 167.384L192.549 167.645L189.361 170.806ZM182.766 174.063L178.875 173.415L184.977 167.693L182.766 174.063ZM176.726 180.612L172.742 177.378L178.396 173.779L176.726 180.612ZM176.557 180.805L172.44 182.562L172.641 177.627L176.557 180.805ZM172.439 192.51L168.74 186.789L172.183 183.078L172.439 192.51ZM170.836 199.268L170.134 202.768L168.749 194.076L170.836 199.268ZM171.015 199.686L172.748 203.732L170.273 203.385L171.015 199.686ZM175.512 209.161L172.899 208.658L173.066 204.385L175.512 209.161ZM180.448 212.187L178.592 213.971L176.099 209.686L180.448 212.187ZM180.669 212.33L185.126 215.761L178.816 214.111L180.669 212.33ZM195.215 211.262L201.58 214.791L194.622 216.661L195.215 211.262ZM208.374 211.956L208.025 216.395L202.288 214.802L208.374 211.956ZM214.759 207.755L211.226 213.942L208.731 211.762L214.759 207.755ZM218.247 203.38L218.267 206.62L215.439 207.16L218.247 203.38ZM218.955 197.863L221.83 196.935L218.55 202.446L218.955 197.863ZM220.949 192.167L222.581 190.242L222.049 196.013L220.949 192.167ZM219.118 185.073L220.583 181.544L222.482 189.309L219.118 185.073ZM216.002 177.594L217.031 175.797L220.134 180.62L216.002 177.594ZM215.823 177.39L212.779 172.995L216.853 175.593L215.823 177.39ZM205.606 168.097L208.689 167.768L211.807 172.068L205.606 168.097ZM199.347 167.916L197.649 165.032L204.59 167.883L199.347 167.916ZM192.895 167.349L191.528 164.954L196.884 164.901L192.895 167.349ZM192.623 167.391L185.877 167.138L191.251 164.989L192.623 167.391ZM178.989 172.954L181.405 167.724L184.908 167.405L178.989 172.954ZM178.555 173.281L176.347 171.16L181.008 167.972L178.555 173.281ZM178.39 173.478L172.9 176.973L176.174 171.349L178.39 173.478ZM172.184 182.549L169.428 181.068L172.38 177.722L172.184 182.549ZM172.097 182.793L168.75 186.4L169.331 181.307L172.097 182.793ZM168.315 192.908L166.901 194.066L168.424 187.927L168.315 192.908ZM168.351 193.211L169.795 202.271L166.835 194.452L168.351 193.211ZM172.823 204.002L172.657 208.259L170.344 203.654L172.823 204.002ZM175.664 209.451L178.013 213.488L173.179 208.972L175.664 209.451ZM185.573 216.143L185.47 218.481L179.306 214.504L185.573 216.143ZM185.826 216.242L189.024 217.738L185.724 218.545L185.826 216.242ZM194.346 216.987L194.446 220.267L189.796 217.834L194.346 216.987ZM201.695 215.025L199.809 219.466L194.821 216.872L201.695 215.025ZM201.99 214.987L207.726 216.578L200.108 219.419L201.99 214.987ZM208.626 212.012L211.057 214.136L208.293 216.28L208.626 212.012ZM215.221 207.463L218.024 206.928L211.884 213.308L215.221 207.463ZM218.52 206.225L218.5 203.067L221.085 201.487L218.52 206.225ZM218.747 202.615L221.884 197.344L221.309 201.051L218.747 202.615ZM222.747 191.231L223.113 195.107L222.284 196.252L222.747 191.231ZM220.843 181.522L221.56 182.194L222.277 187.385L220.843 181.522ZM217.209 175.6L217.884 175.262L219.834 179.681L217.209 175.6ZM212.493 172.507L213.677 170.812L216.574 175.109L212.493 172.507ZM212.309 172.321L209.221 168.066L213.494 170.624L212.309 172.321ZM205.357 167.865L205.338 166.015L208.311 167.551L205.357 167.865ZM205.099 167.815L198.304 165.023L205.08 165.915L205.099 167.815ZM191.658 164.696L192.74 163.768L196.327 164.65L191.658 164.696ZM185.75 166.912L187.854 164.646L190.762 164.908L185.75 166.912ZM185.207 167.12L182.021 167.41L187.251 164.917L185.207 167.12ZM176.447 170.78L176.799 169.992L179.723 168.539L176.447 170.78ZM172.61 176.959L172.397 174.898L175.579 171.862L172.61 176.959ZM172.389 177.322L169.752 180.312L172.182 175.31L172.389 177.322ZM168.461 186.666L166.776 186.979L169 181.931L168.461 186.666ZM168.405 186.937L166.793 193.424L166.691 187.256L168.405 186.937ZM169.829 203.087L167.915 201.512L166.998 195.608L169.829 203.087ZM172.512 208.544L171.29 208.142L170.472 204.481L172.512 208.544ZM177.737 213.581L173.676 211.371L173.024 209.18L177.737 213.581ZM178.477 214.277L180.235 216.518L174.86 212.308L178.477 214.277ZM179.135 214.699L184.726 218.306L181.067 217.163L179.135 214.699ZM189.392 217.912L193.738 220.185L186.185 218.696L189.392 217.912ZM194.606 217.048L199.47 219.577L194.706 220.333L194.606 217.048ZM207.517 216.93L205.542 218.633L201.099 219.323L207.517 216.93ZM211.166 214.377L211.331 215.439L208.778 216.229L211.166 214.377ZM217.789 207.541L215.164 212.204L211.823 213.74L217.789 207.541ZM218.521 206.763L220.279 203.516L218.399 207.97L218.521 206.763ZM222.237 196.757L222.901 195.84L221.834 199.348L222.237 196.757ZM222.875 189.838V189.83L222.866 189.762L222.932 188.893L223 191.143L222.875 189.838ZM222.699 188.558L222.035 183.748L222.857 186.478L222.699 188.558ZM220.723 181.057L219.511 178.31L221.208 181.51L220.723 181.057ZM217.069 175.385L214.648 171.796L217.736 175.051L217.069 175.385ZM208.982 167.624L209.144 167.507L211.005 168.835L208.982 167.624ZM208.738 167.484L207.48 166.833L208.878 167.382L208.738 167.484ZM198.117 164.74L200.475 164.256L204.023 165.518L198.117 164.74ZM197.347 164.636L194.137 163.847L199.52 164.189L197.347 164.636ZM191.265 164.695L188.761 164.47L192.265 163.838L191.265 164.695ZM182.427 166.933L183.86 165.858L186.17 165.148L182.427 166.933ZM181.251 167.494L180.008 168.112L181.919 166.994L181.251 167.494ZM176.037 171.068L174.563 172.476L176.249 170.596L176.037 171.068ZM169.132 181.002L168.476 181.246L171.023 177.11L169.132 181.002ZM168.277 181.592L168.985 181.33L167.197 185.391L168.277 181.592ZM166.516 192.131L166.553 194.391L166.423 194.802L166.516 192.131ZM166.638 194.969L167.283 199.124L166.394 195.734L166.638 194.969ZM170.003 203.564L170.831 207.273L168.189 202.069L170.003 203.564ZM172.66 208.864L173.235 210.797L171.526 208.49L172.66 208.864ZM185.504 218.819L185.744 219.201L183.232 218.109L185.504 218.819ZM186.149 219.364L185.854 218.894L191.321 219.971L186.149 219.364ZM199.541 219.826L198.967 220.477L195.966 220.394L199.541 219.826ZM199.939 219.763L203.516 219.207L199.407 220.365L199.939 219.763ZM208.205 216.675L210.302 216.026L206.603 218.056L208.205 216.675ZM211.565 215.283L211.4 214.218L214.466 212.808L211.565 215.283ZM218.206 207.324L218.062 208.755L216.046 211.16L218.206 207.324ZM221.526 201.224L222.044 200.974L219.673 205.616L221.526 201.224ZM222.216 200.607L221.635 200.887L222.803 197.043L222.216 200.607Z" fill="url(#paint1_radial_3692_1571)"/>
<path d="M248.938 171.615C246.386 165.481 241.215 158.859 237.155 156.767C240.459 163.236 242.372 169.729 243.103 174.573C243.103 174.559 243.105 174.585 243.111 174.628C243.114 174.649 243.118 174.67 243.121 174.691C248.663 189.698 245.644 204.959 241.293 214.284C234.562 228.713 218.265 243.5 192.756 242.778C165.195 241.999 140.917 221.574 136.384 194.822C135.558 190.603 136.384 188.461 136.799 185.036C136.293 187.677 136.1 188.439 135.847 193.131C135.847 193.231 135.841 193.33 135.841 193.43C135.841 225.829 162.14 252.094 194.582 252.094C208.43 252.1 221.834 247.212 232.428 238.294C243.022 229.377 250.125 217.003 252.481 203.357C252.581 202.606 252.661 201.851 252.749 201.094C253.916 191.033 252.619 180.458 248.938 171.615Z" fill="url(#paint2_radial_3692_1571)"/>
<path d="M248.938 171.615C246.386 165.481 241.215 158.859 237.155 156.767C240.459 163.236 242.372 169.729 243.103 174.573C243.103 174.559 243.105 174.585 243.111 174.628C243.114 174.649 243.118 174.67 243.121 174.691C248.663 189.698 245.644 204.959 241.293 214.284C234.562 228.713 218.265 243.5 192.756 242.778C165.195 241.999 140.917 221.574 136.384 194.822C135.558 190.603 136.384 188.461 136.799 185.036C136.293 187.677 136.1 188.439 135.847 193.131C135.847 193.231 135.841 193.33 135.841 193.43C135.841 225.829 162.14 252.094 194.582 252.094C208.43 252.1 221.834 247.212 232.428 238.294C243.022 229.377 250.125 217.003 252.481 203.357C252.581 202.606 252.661 201.851 252.749 201.094C253.916 191.033 252.619 180.458 248.938 171.615Z" fill="url(#paint3_radial_3692_1571)"/>
<path d="M136.384 194.822C140.916 221.574 165.194 241.999 192.756 242.778C218.264 243.5 234.561 228.712 241.293 214.284C245.644 204.958 248.663 189.699 243.121 174.691L243.119 174.685L243.111 174.628C243.105 174.585 243.101 174.559 243.102 174.573C243.102 174.583 243.106 174.606 243.114 174.67C245.197 188.259 238.276 201.424 227.458 210.325C227.439 210.371 227.425 210.401 227.425 210.401C206.345 227.545 186.173 220.745 182.088 217.961C181.802 217.823 181.517 217.682 181.234 217.536C168.944 211.669 163.867 200.486 164.955 190.895C154.578 190.895 151.039 182.152 151.039 182.152C151.039 182.152 160.356 175.517 172.636 181.288C184.009 186.633 194.69 182.153 194.691 182.152C194.669 181.676 184.446 177.614 180.46 173.692C178.33 171.596 177.319 170.586 176.423 169.827C175.938 169.418 175.43 169.035 174.902 168.68C174.499 168.407 174.093 168.139 173.684 167.874C169.4 165.093 160.88 165.246 160.599 165.253H160.571C158.243 162.308 158.407 152.59 158.54 150.561C158.512 150.435 156.802 151.447 156.578 151.599C154.523 153.064 152.602 154.709 150.837 156.513C148.828 158.546 146.993 160.744 145.351 163.083C145.351 163.086 145.349 163.089 145.348 163.092C145.348 163.089 145.35 163.086 145.351 163.083C141.574 168.428 138.895 174.469 137.469 180.856C137.441 180.985 135.355 190.096 136.384 194.822Z" fill="url(#paint4_radial_3692_1571)"/>
<path d="M215.304 171.672C217.447 173.773 219.282 176.166 220.757 178.78C221.08 179.022 221.382 179.264 221.639 179.5C234.955 191.756 227.978 209.09 227.458 210.325C238.276 201.424 245.197 188.259 243.113 174.671C236.471 158.135 225.208 151.467 216.01 136.949C215.545 136.215 215.08 135.478 214.627 134.703C214.395 134.306 214.18 133.902 213.98 133.489C213.598 132.752 213.304 131.973 213.103 131.168C213.105 131.13 213.092 131.093 213.067 131.064C213.042 131.034 213.008 131.016 212.97 131.011C212.934 131 212.896 131 212.859 131.011C212.851 131.014 212.839 131.023 212.83 131.027C212.817 131.032 212.801 131.043 212.787 131.051C210.515 132.132 197.044 153.437 215.304 171.672Z" fill="url(#paint5_linear_3692_1571)"/>
<path d="M192.708 163.628L200.485 164.123L205.208 165.803L209.145 167.348L213.678 170.585L217.949 175.086L219.433 177.886C219.632 178.008 220.043 178.273 220.393 178.51C220.521 178.6 220.637 178.69 220.759 178.779C219.284 176.165 217.448 173.773 215.306 171.672C197.045 153.437 210.516 132.132 212.788 131.049C212.795 131.04 212.809 131.02 212.813 131.016C198.057 139.647 193.051 155.615 192.591 163.604L192.589 163.649L192.708 163.628Z" fill="url(#paint6_linear_3692_1571)"/>
<path d="M173.685 167.876C174.094 168.139 174.5 168.408 174.902 168.681C173.563 164.003 173.506 159.051 174.737 154.343C168.703 157.087 164.01 161.425 160.598 165.256C160.88 165.248 169.4 165.094 173.685 167.876Z" fill="url(#paint7_radial_3692_1571)"/>
<path d="M168.211 198.736C168.211 198.736 170.923 188.645 187.627 188.645C189.433 188.645 194.595 183.612 194.691 182.152C194.787 180.692 184.009 186.633 172.636 181.288C160.356 175.517 151.039 182.152 151.039 182.152C151.039 182.152 154.578 190.894 164.955 190.894C163.866 200.485 168.944 211.669 181.234 217.535C181.509 217.667 181.767 217.81 182.049 217.935C174.875 214.232 168.951 207.234 168.211 198.736Z" fill="url(#paint8_radial_3692_1571)"/>
<path d="M221.639 179.5C221.383 179.264 221.081 179.022 220.757 178.78C220.638 178.69 220.521 178.601 220.391 178.511C217.255 176.311 211.638 174.137 206.228 175.077C227.356 185.627 221.684 221.958 192.406 220.585C189.799 220.479 187.223 219.982 184.763 219.113C184.181 218.894 183.606 218.659 183.038 218.408C182.706 218.257 182.375 218.104 182.048 217.935C182.06 217.944 182.076 217.953 182.088 217.96C186.172 220.743 206.344 227.544 227.425 210.4C227.425 210.4 227.438 210.369 227.457 210.323C227.979 209.091 234.956 191.756 221.639 179.5Z" fill="url(#paint9_radial_3692_1571)"/>
<path d="M248.934 171.613C246.381 165.479 241.21 158.857 237.149 156.764C240.454 163.234 242.367 169.726 243.098 174.57C243.098 174.58 243.101 174.603 243.109 174.668C236.468 158.132 225.204 151.464 216.006 136.946C215.542 136.212 215.076 135.476 214.622 134.7C214.391 134.304 214.175 133.899 213.976 133.486C213.594 132.75 213.3 131.971 213.099 131.167C213.101 131.129 213.088 131.091 213.063 131.062C213.038 131.033 213.004 131.014 212.966 131.01C212.93 130.999 212.892 130.999 212.856 131.01C212.847 131.013 212.835 131.022 212.826 131.026C212.813 131.031 212.797 131.042 212.783 131.05C212.79 131.041 212.804 131.021 212.808 131.017C198.052 139.649 193.049 155.663 192.589 163.652L192.708 163.631L200.485 164.126L204.862 165.683L209.145 167.351L213.679 170.588L217.944 175.087C217.944 175.087 219.413 177.842 219.434 177.889C216.029 175.864 211.082 174.233 206.226 175.076C227.354 185.626 221.682 221.957 192.405 220.584C189.797 220.478 187.22 219.981 184.759 219.11C184.177 218.892 183.602 218.657 183.034 218.406C182.702 218.255 182.371 218.102 182.044 217.933C182.055 217.942 182.072 217.951 182.083 217.959C181.797 217.821 181.512 217.679 181.229 217.533C181.504 217.664 181.762 217.808 182.044 217.933C174.87 214.23 168.947 207.232 168.207 198.734C168.207 198.734 170.918 188.643 187.622 188.643C189.428 188.643 194.59 183.61 194.686 182.15C194.664 181.674 184.44 177.612 180.455 173.689C178.325 171.593 177.314 170.583 176.418 169.825C175.933 169.415 175.425 169.032 174.897 168.678C173.558 163.999 173.501 159.047 174.732 154.339C168.698 157.083 164.004 161.422 160.592 165.252H160.565C158.237 162.306 158.401 152.588 158.533 150.559C158.506 150.433 156.796 151.445 156.572 151.598C154.518 153.063 152.597 154.707 150.832 156.51C148.824 158.544 146.989 160.741 145.346 163.08C141.57 168.425 138.891 174.466 137.465 180.853C137.437 180.98 137.413 181.112 137.385 181.24C137.275 181.757 136.778 184.378 136.708 184.941C136.714 184.897 136.703 184.984 136.708 184.941C136.255 187.649 135.966 190.383 135.842 193.126C135.842 193.226 135.836 193.326 135.836 193.426C135.836 225.825 162.135 252.089 194.576 252.089C208.424 252.095 221.828 247.208 232.422 238.291C243.017 229.374 250.119 217 252.477 203.354C252.576 202.603 252.656 201.849 252.744 201.091C253.911 191.03 252.614 180.455 248.934 171.613ZM243.106 174.625C243.109 174.646 243.113 174.668 243.116 174.689L243.114 174.683C243.111 174.662 243.109 174.644 243.106 174.625Z" fill="url(#paint10_linear_3692_1571)"/>
<path d="M194.69 182.153C194.69 182.153 194.441 182.257 193.982 182.414C192.835 184.354 188.756 188.054 187.195 188.048C170.492 187.975 167.737 197.957 167.737 197.957C168.042 201.368 169.164 204.656 171.009 207.542C169.449 204.845 168.495 201.84 168.212 198.737C168.212 198.737 170.923 188.645 187.627 188.645C189.434 188.645 194.595 183.613 194.691 182.153H194.69Z" fill="url(#paint11_linear_3692_1571)"/>
<path d="M243.121 174.691L243.118 174.685C243.116 174.665 243.113 174.647 243.11 174.628C243.109 174.609 243.106 174.591 243.102 174.573C243.105 174.605 243.109 174.638 243.113 174.67C242.719 173.691 242.298 172.722 241.852 171.765C241.702 171.444 241.542 171.144 241.388 170.831C241.095 170.229 240.802 169.626 240.495 169.05C240.306 168.695 240.107 168.358 239.913 168.012C239.629 167.505 239.348 166.995 239.055 166.506C238.84 166.149 238.619 165.807 238.401 165.459C238.115 165.005 237.831 164.548 237.538 164.108C237.307 163.759 237.069 163.421 236.834 163.081C236.542 162.66 236.251 162.239 235.955 161.829C235.709 161.49 235.459 161.159 235.21 160.828C234.914 160.433 234.615 160.04 234.313 159.65C234.054 159.319 233.794 158.991 233.532 158.665C233.229 158.287 232.923 157.912 232.616 157.537C232.348 157.214 232.079 156.891 231.808 156.57C231.662 156.396 231.515 156.217 231.369 156.043C231.432 156.118 231.494 156.197 231.557 156.273C226.467 150.269 220.944 144.736 216.011 136.949C215.545 136.215 215.081 135.479 214.628 134.703C214.396 134.307 214.18 133.902 213.981 133.489C213.649 132.829 213.378 132.14 213.173 131.43C213.162 131.392 213.144 131.335 213.137 131.306C213.117 131.228 213.105 131.169 213.105 131.169C213.106 131.131 213.093 131.094 213.068 131.065C213.044 131.036 213.009 131.017 212.971 131.012C212.935 131.002 212.897 131.002 212.861 131.012C212.853 131.015 212.84 131.025 212.831 131.028C212.822 131.032 212.802 131.045 212.788 131.051C212.659 131.123 212.54 131.211 212.432 131.313C212.403 131.338 212.375 131.363 212.347 131.389C212.183 131.543 212.028 131.707 211.882 131.879C211.877 131.885 211.872 131.889 211.866 131.896C211.867 131.894 211.869 131.894 211.87 131.893C208.351 136.029 199.364 154.008 213.848 170.134C200.288 154.18 208.833 136.939 212.547 132.423C212.744 133.031 212.986 133.624 213.27 134.197C213.47 134.61 213.686 135.015 213.917 135.411C214.37 136.188 214.835 136.924 215.301 137.657C224.499 152.175 235.761 158.843 242.404 175.379C242.399 175.347 242.396 175.314 242.393 175.281C242.397 175.3 242.399 175.318 242.401 175.337C242.404 175.355 242.406 175.374 242.409 175.394L242.411 175.4C247.953 190.407 244.934 205.667 240.583 214.992C238.248 219.945 235.093 224.468 231.253 228.371C235.412 224.311 238.812 219.541 241.293 214.284C245.644 204.958 248.662 189.698 243.121 174.691Z" fill="url(#paint12_linear_3692_1571)"/>
<path d="M212.788 131.049C212.795 131.04 212.809 131.02 212.813 131.016C199.521 138.791 194.141 152.518 192.868 161.005C194.33 153.164 199.356 141.187 210.62 133.626C211.547 132.162 212.364 131.252 212.788 131.049Z" fill="url(#paint13_linear_3692_1571)"/>
<path d="M227.425 210.401C227.425 210.401 227.438 210.371 227.458 210.325C227.979 209.091 234.956 191.756 221.639 179.5C221.382 179.264 221.081 179.022 220.757 178.78C220.637 178.69 220.52 178.6 220.391 178.511C217.36 176.384 212.013 174.284 206.774 174.993L206.761 174.995C206.583 175.019 206.405 175.046 206.227 175.077C227.117 185.508 221.807 221.14 193.387 220.616C193.464 220.62 193.541 220.626 193.618 220.629C222.429 221.756 228.105 186.428 208.089 175.351C212.427 175.309 216.622 176.893 219.213 178.564C219.345 178.649 219.466 178.733 219.589 178.818C219.921 179.048 220.232 179.278 220.498 179.504C234.285 191.23 227.992 208.823 227.52 210.077C227.511 210.103 227.501 210.129 227.491 210.155" fill="url(#paint14_linear_3692_1571)"/>
<path d="M172.794 181.874C182.407 186.039 191.33 183.392 194.034 182.397C191.544 183.255 182.344 185.85 172.638 181.288C161.599 176.1 152.956 180.937 151.321 181.968L151.317 181.971L151.239 182.019L151.232 182.024C151.208 182.039 151.187 182.053 151.168 182.066L151.164 182.068C151.148 182.079 151.131 182.089 151.115 182.1L151.109 182.104L151.078 182.125L151.07 182.131L151.049 182.146L151.041 182.151L151.068 182.215L151.073 182.225C151.082 182.245 151.093 182.271 151.107 182.301L151.113 182.315C151.13 182.352 151.147 182.388 151.164 182.424L151.169 182.433C151.289 182.684 151.417 182.93 151.554 183.171V183.172C152.857 185.478 156.787 190.893 164.956 190.893C163.9 200.197 168.646 210.998 180.149 216.992C169.155 210.657 164.536 199.161 165.82 190.018C157.333 189.793 153.537 184.706 152.451 182.547C155.56 180.862 163.394 177.802 172.794 181.874Z" fill="url(#paint15_linear_3692_1571)"/>
<path d="M174.893 168.648C174.801 168.594 174.705 168.538 174.606 168.481C174.708 168.549 174.807 168.616 174.902 168.68C174.899 168.669 174.896 168.659 174.893 168.648ZM174.833 168.432C173.563 163.826 173.53 158.965 174.737 154.342C169.017 156.943 164.504 160.977 161.143 164.653C164.343 161.535 168.49 158.189 173.54 155.897C173.227 158.295 172.958 163.203 174.833 168.432Z" fill="url(#paint16_linear_3692_1571)"/>
<path d="M137.8 200.971C137.784 200.915 137.77 200.859 137.754 200.802C137.184 198.836 136.727 196.839 136.384 194.821C135.936 192.763 136.079 189.873 136.384 187.256C136.157 188.615 136.015 189.995 135.847 193.13C135.847 193.23 135.841 193.329 135.841 193.43C135.841 219.069 152.313 240.863 175.262 248.843C155.368 241.224 140.63 222.992 137.8 200.971Z" fill="url(#paint17_linear_3692_1571)"/>
<path d="M137.33 195.058C136.301 190.333 138.387 181.221 138.415 181.093C139.841 174.706 142.52 168.665 146.297 163.32L146.294 163.329C146.294 163.326 146.296 163.323 146.297 163.32C147.94 160.981 149.775 158.783 151.783 156.75C153.548 154.946 155.469 153.303 157.523 151.838C157.605 151.784 157.687 151.733 157.771 151.683C157.751 156.146 158.004 163.676 160.072 166.145H160.099C160.382 166.13 168.931 165.753 173.305 168.421C173.722 168.674 174.136 168.931 174.548 169.193C175.087 169.534 175.607 169.903 176.105 170.3C177.024 171.034 178.066 172.018 180.258 174.057C183.432 177.009 190.355 179.946 193.344 181.345C190.432 179.878 183.56 176.743 180.46 173.693C178.33 171.597 177.319 170.587 176.424 169.829C175.938 169.419 175.43 169.036 174.902 168.681C174.499 168.408 174.093 168.14 173.685 167.876C169.401 165.094 160.88 165.247 160.599 165.255H160.571C158.443 162.562 158.397 154.216 158.506 151.25C158.511 151.136 158.515 151.031 158.52 150.933L158.525 150.828C158.526 150.799 158.528 150.77 158.529 150.741C158.533 150.677 158.536 150.615 158.54 150.562C158.538 150.554 158.53 150.552 158.517 150.552C158.512 150.552 158.505 150.554 158.499 150.555C158.487 150.557 158.475 150.559 158.463 150.563C158.453 150.566 158.441 150.57 158.43 150.574C158.398 150.585 158.366 150.598 158.335 150.613L158.278 150.638C158.237 150.657 158.197 150.677 158.157 150.697L158.084 150.734L158.024 150.765L157.936 150.811L157.888 150.838C157.37 151.116 156.713 151.51 156.579 151.601C154.524 153.065 152.602 154.709 150.837 156.512C148.828 158.546 146.993 160.744 145.351 163.083C145.351 163.086 145.349 163.089 145.348 163.092C145.348 163.089 145.35 163.086 145.351 163.083C141.574 168.428 138.895 174.469 137.469 180.856C137.441 180.983 135.355 190.094 136.384 194.821C140.241 217.587 158.399 235.768 180.711 241.162C158.834 235.489 141.132 217.502 137.33 195.058Z" fill="url(#paint18_linear_3692_1571)"/>
<path d="M248.938 171.615C246.686 166.203 242.395 160.413 238.628 157.687L238.524 157.614C238.407 157.532 238.291 157.452 238.176 157.375C238.132 157.345 238.088 157.316 238.044 157.288C237.934 157.217 237.825 157.149 237.716 157.084C237.674 157.06 237.632 157.032 237.59 157.008C237.447 156.924 237.301 156.844 237.154 156.767C237.313 157.078 237.465 157.388 237.618 157.699C237.712 157.892 237.805 158.085 237.898 158.278C240.747 164.239 242.429 170.106 243.103 174.573C243.103 174.583 243.106 174.606 243.114 174.671C245.197 188.26 238.277 201.424 227.458 210.325C227.439 210.371 227.426 210.402 227.426 210.402C213.979 221.339 200.902 222.53 192.134 221.237C200.871 222.869 214.652 222.181 228.845 210.638L228.878 210.562C239.696 201.661 246.617 188.496 244.533 174.907C244.529 174.875 244.525 174.842 244.522 174.81C243.924 170.844 242.53 165.775 240.232 160.518C242.804 163.242 244.969 166.325 246.657 169.67C250.819 178.156 252.697 188.478 252.086 198.433C252.04 199.183 252.002 199.929 251.944 200.673C248.754 228.139 225.829 250.195 196.821 251.821C192.95 252.039 189.066 251.881 185.225 251.349C188.319 251.845 191.448 252.094 194.582 252.094C223.635 252.094 247.759 231.028 252.481 203.357C252.581 202.606 252.66 201.851 252.748 201.094C253.916 191.033 252.619 180.458 248.938 171.615ZM243.121 174.691L243.119 174.685L243.111 174.628C243.114 174.649 243.118 174.67 243.121 174.691Z" fill="url(#paint19_linear_3692_1571)"/>
<defs>
<radialGradient id="paint0_radial_3692_1571" cx="0" cy="0" r="1" gradientUnits="userSpaceOnUse" gradientTransform="translate(194.446 192.117) scale(28.6554 28.6508)">
<stop stop-color="#00DDFF" stop-opacity="0.4"/>
<stop offset="1" stop-color="#7542E5" stop-opacity="0.15"/>
</radialGradient>
<radialGradient id="paint1_radial_3692_1571" cx="0" cy="0" r="1" gradientUnits="userSpaceOnUse" gradientTransform="translate(194.011 193.634) scale(29.1171 29.1125)">
<stop offset="0.915" stop-color="#7542E5" stop-opacity="0"/>
<stop offset="0.929" stop-color="#6A51E7" stop-opacity="0.037"/>
<stop offset="0.953" stop-color="#4C78EE" stop-opacity="0.139"/>
<stop offset="0.984" stop-color="#1DB7F9" stop-opacity="0.302"/>
<stop offset="1" stop-color="#00DDFF" stop-opacity="0.4"/>
</radialGradient>
<radialGradient id="paint2_radial_3692_1571" cx="0" cy="0" r="1" gradientUnits="userSpaceOnUse" gradientTransform="translate(237.079 144.443) scale(122.455 122.297)">
<stop stop-color="#80EBFF"/>
<stop offset="0.082" stop-color="#4DE5FF"/>
<stop offset="0.161" stop-color="#23E1FF"/>
<stop offset="0.222" stop-color="#09DEFF"/>
<stop offset="0.259" stop-color="#00DDFF"/>
<stop offset="0.26" stop-color="#00DCFF"/>
<stop offset="0.38" stop-color="#00B3F5"/>
<stop offset="0.473" stop-color="#0099EF"/>
<stop offset="0.53" stop-color="#0090ED"/>
<stop offset="0.86" stop-color="#0060DF"/>
</radialGradient>
<radialGradient id="paint3_radial_3692_1571" cx="0" cy="0" r="1" gradientUnits="userSpaceOnUse" gradientTransform="translate(192.332 194.441) scale(122.455 122.297)">
<stop offset="0.3" stop-color="#321C64" stop-opacity="0.8"/>
<stop offset="0.371" stop-color="#212F83" stop-opacity="0.511"/>
<stop offset="0.475" stop-color="#0A47AC" stop-opacity="0.141"/>
<stop offset="0.53" stop-color="#0250BB" stop-opacity="0"/>
</radialGradient>
<radialGradient id="paint4_radial_3692_1571" cx="0" cy="0" r="1" gradientUnits="userSpaceOnUse" gradientTransform="translate(223.758 112.868) scale(178.963 178.733)">
<stop stop-color="#80EBFF"/>
<stop offset="0.008" stop-color="#76E7FE"/>
<stop offset="0.035" stop-color="#57D9FB"/>
<stop offset="0.067" stop-color="#3BCDF9"/>
<stop offset="0.103" stop-color="#25C3F7"/>
<stop offset="0.144" stop-color="#14BCF6"/>
<stop offset="0.196" stop-color="#09B7F5"/>
<stop offset="0.268" stop-color="#02B4F4"/>
<stop offset="0.469" stop-color="#00B3F4"/>
<stop offset="0.687" stop-color="#0080E7"/>
<stop offset="0.844" stop-color="#0060DF"/>
<stop offset="0.995" stop-color="#592ACB"/>
</radialGradient>
<linearGradient id="paint5_linear_3692_1571" x1="210.589" y1="122.911" x2="243.396" y2="221.645" gradientUnits="userSpaceOnUse">
<stop stop-color="#AAF2FF"/>
<stop offset="0.035" stop-color="#9EF1FF"/>
<stop offset="0.098" stop-color="#7EEDFF"/>
<stop offset="0.183" stop-color="#4BE6FF"/>
<stop offset="0.284" stop-color="#04DEFF"/>
<stop offset="0.29" stop-color="#00DDFF"/>
<stop offset="0.609" stop-color="#0090ED"/>
<stop offset="0.894" stop-color="#0250BB"/>
</linearGradient>
<linearGradient id="paint6_linear_3692_1571" x1="197.236" y1="130.889" x2="216.883" y2="190.018" gradientUnits="userSpaceOnUse">
<stop stop-color="#AAF2FF"/>
<stop offset="0.035" stop-color="#9EF1FF"/>
<stop offset="0.098" stop-color="#7EEDFF"/>
<stop offset="0.183" stop-color="#4BE6FF"/>
<stop offset="0.284" stop-color="#04DEFF"/>
<stop offset="0.29" stop-color="#00DDFF"/>
<stop offset="0.74" stop-color="#0090ED"/>
<stop offset="1" stop-color="#0250BB"/>
</linearGradient>
<radialGradient id="paint7_radial_3692_1571" cx="0" cy="0" r="1" gradientUnits="userSpaceOnUse" gradientTransform="translate(190.787 139.439) scale(41.9464 41.8924)">
<stop stop-color="#00DDFF"/>
<stop offset="0.156" stop-color="#00D6FD"/>
<stop offset="0.382" stop-color="#00C3F9"/>
<stop offset="0.648" stop-color="#00A4F2"/>
<stop offset="0.792" stop-color="#0090ED"/>
</radialGradient>
<radialGradient id="paint8_radial_3692_1571" cx="0" cy="0" r="1" gradientUnits="userSpaceOnUse" gradientTransform="translate(219.291 161.485) scale(122.287 122.129)">
<stop offset="0.286" stop-color="#80EBFF"/>
<stop offset="1" stop-color="#00B3F4"/>
</radialGradient>
<radialGradient id="paint9_radial_3692_1571" cx="0" cy="0" r="1" gradientUnits="userSpaceOnUse" gradientTransform="translate(189.797 154.954) scale(111.729 111.585)">
<stop offset="0.181" stop-color="#AAF2FF"/>
<stop offset="0.427" stop-color="#00DDFF"/>
<stop offset="0.448" stop-color="#00D2FC"/>
<stop offset="0.613" stop-color="#0080E7"/>
<stop offset="0.689" stop-color="#0060DF"/>
</radialGradient>
<linearGradient id="paint10_linear_3692_1571" x1="239.94" y1="149.241" x2="157.035" y2="232.146" gradientUnits="userSpaceOnUse">
<stop offset="0.239" stop-color="#80EBFF" stop-opacity="0.5"/>
<stop offset="0.261" stop-color="#76EAFF" stop-opacity="0.459"/>
<stop offset="0.359" stop-color="#4CE5FF" stop-opacity="0.295"/>
<stop offset="0.455" stop-color="#2BE2FF" stop-opacity="0.167"/>
<stop offset="0.546" stop-color="#13DFFF" stop-opacity="0.075"/>
<stop offset="0.631" stop-color="#05DEFF" stop-opacity="0.019"/>
<stop offset="0.704" stop-color="#00DDFF" stop-opacity="0"/>
</linearGradient>
<linearGradient id="paint11_linear_3692_1571" x1="184.247" y1="177.653" x2="173.156" y2="223.098" gradientUnits="userSpaceOnUse">
<stop stop-color="#BFF3FF" stop-opacity="0.9"/>
<stop offset="1" stop-color="#80EBFF" stop-opacity="0.5"/>
</linearGradient>
<linearGradient id="paint12_linear_3692_1571" x1="228.104" y1="129.443" x2="221.241" y2="266.212" gradientUnits="userSpaceOnUse">
<stop stop-color="#BFF3FF"/>
<stop offset="1" stop-color="#00DDFF" stop-opacity="0"/>
</linearGradient>
<linearGradient id="paint13_linear_3692_1571" x1="203.653" y1="129.811" x2="201.448" y2="173.757" gradientUnits="userSpaceOnUse">
<stop stop-color="#BFF3FF"/>
<stop offset="1" stop-color="#AAF2FF" stop-opacity="0.5"/>
</linearGradient>
<linearGradient id="paint14_linear_3692_1571" x1="213.369" y1="173.934" x2="210.056" y2="239.965" gradientUnits="userSpaceOnUse">
<stop stop-color="#BFF3FF"/>
<stop offset="1" stop-color="#00DDFF" stop-opacity="0"/>
</linearGradient>
<linearGradient id="paint15_linear_3692_1571" x1="171.927" y1="172.589" x2="175.754" y2="233.439" gradientUnits="userSpaceOnUse">
<stop stop-color="#BFF3FF" stop-opacity="0.8"/>
<stop offset="0.999" stop-color="#80EBFF" stop-opacity="0.2"/>
</linearGradient>
<linearGradient id="paint16_linear_3692_1571" x1="177.99" y1="150.987" x2="164.201" y2="172.677" gradientUnits="userSpaceOnUse">
<stop stop-color="#BFF3FF" stop-opacity="0.8"/>
<stop offset="1" stop-color="#80EBFF" stop-opacity="0.2"/>
</linearGradient>
<linearGradient id="paint17_linear_3692_1571" x1="157.266" y1="186.869" x2="153.023" y2="271.435" gradientUnits="userSpaceOnUse">
<stop stop-color="#00DDFF" stop-opacity="0.4"/>
<stop offset="1" stop-color="#00DDFF" stop-opacity="0"/>
</linearGradient>
<linearGradient id="paint18_linear_3692_1571" x1="164.355" y1="139.367" x2="165.136" y2="239.976" gradientUnits="userSpaceOnUse">
<stop stop-color="#BFF3FF"/>
<stop offset="1" stop-color="#00DDFF" stop-opacity="0"/>
</linearGradient>
<linearGradient id="paint19_linear_3692_1571" x1="222.692" y1="153.694" x2="215.751" y2="292.007" gradientUnits="userSpaceOnUse">
<stop stop-color="#BFF3FF" stop-opacity="0.8"/>
<stop offset="1" stop-color="#00DDFF" stop-opacity="0"/>
</linearGradient>
</defs>
</svg>
