<svg width="1024" height="1024" viewBox="0 0 1024 1024" fill="none" xmlns="http://www.w3.org/2000/svg">
<g filter="url(#filter0_d_3692_2473)">
<rect x="100" y="100" width="824" height="824" rx="184" fill="#20123A"/>
</g>
<path d="M840.847 379.631C825.424 342.533 794.187 302.483 769.659 289.825C789.622 328.961 801.176 368.22 805.591 397.519C805.591 397.577 805.613 397.72 805.66 398.11C765.535 298.098 697.496 257.77 641.938 169.962C639.132 165.522 636.319 161.07 633.579 156.377C632.183 153.981 630.88 151.532 629.672 149.036C627.363 144.579 625.583 139.869 624.366 135C624.375 134.769 624.297 134.544 624.148 134.368C623.999 134.192 623.789 134.078 623.56 134.049C623.343 133.986 623.112 133.986 622.894 134.049C622.844 134.066 622.77 134.124 622.717 134.145C622.639 134.176 622.54 134.247 622.457 134.292C622.497 134.239 622.58 134.12 622.605 134.092C533.465 186.297 503.225 282.872 500.446 331.189C464.85 333.636 430.817 346.751 402.783 368.824C399.848 366.345 396.78 364.028 393.592 361.884C385.503 333.587 385.16 303.637 392.596 275.162C356.143 291.76 327.79 317.997 307.177 341.165H307.013C292.946 323.347 293.938 264.571 294.74 252.299C294.572 251.539 284.246 257.659 282.894 258.582C270.48 267.442 258.876 277.384 248.215 288.29C236.084 300.593 225 313.885 215.078 328.029C215.078 328.047 215.068 328.068 215.062 328.085C215.062 328.066 215.072 328.047 215.078 328.029C192.26 360.365 176.076 396.903 167.463 435.53C167.294 436.3 167.15 437.097 166.985 437.872C166.318 440.997 163.914 456.625 163.493 460.021C163.46 460.282 163.446 460.533 163.415 460.794C160.307 476.952 158.382 493.315 157.656 509.753C157.656 510.358 157.619 510.958 157.619 511.564C157.625 707.523 316.503 866.375 512.478 866.375C687.99 866.375 833.719 738.965 862.25 571.609C862.85 567.067 863.332 562.501 863.862 557.92C870.915 497.07 863.079 433.113 840.847 379.631ZM431.846 657.363C433.506 658.156 435.065 659.023 436.769 659.783C436.84 659.832 436.938 659.887 437.01 659.931C435.276 659.102 433.554 658.246 431.846 657.363ZM805.688 398.197L805.641 397.853C805.659 397.978 805.681 398.11 805.7 398.235L805.688 398.197Z" fill="url(#paint0_linear_3692_2473)"/>
<path d="M840.847 379.631C825.424 342.534 794.187 302.483 769.659 289.825C789.622 328.961 801.176 368.22 805.591 397.519C805.591 397.434 805.607 397.59 805.644 397.853C805.662 397.978 805.684 398.11 805.703 398.235C839.184 489 820.944 581.297 794.66 637.697C753.997 724.962 655.546 814.397 501.45 810.035C334.96 805.321 188.287 681.787 160.907 519.988C155.918 494.473 160.907 481.518 163.418 460.802C160.36 476.772 159.195 481.385 157.659 509.76C157.659 510.366 157.622 510.965 157.622 511.572C157.625 707.524 316.503 866.375 512.478 866.375C687.99 866.375 833.719 738.966 862.25 571.609C862.85 567.067 863.332 562.502 863.862 557.92C870.915 497.071 863.079 433.113 840.847 379.631Z" fill="url(#paint1_radial_3692_2473)"/>
<path d="M840.847 379.631C825.424 342.534 794.187 302.483 769.659 289.825C789.622 328.961 801.176 368.22 805.591 397.519C805.591 397.434 805.607 397.59 805.644 397.853C805.662 397.978 805.684 398.11 805.703 398.235C839.184 489 820.944 581.297 794.66 637.697C753.997 724.962 655.546 814.397 501.45 810.035C334.96 805.321 188.287 681.787 160.907 519.988C155.918 494.473 160.907 481.518 163.418 460.802C160.36 476.772 159.195 481.385 157.659 509.76C157.659 510.366 157.622 510.965 157.622 511.572C157.625 707.524 316.503 866.375 512.478 866.375C687.99 866.375 833.719 738.966 862.25 571.609C862.85 567.067 863.332 562.502 863.862 557.92C870.915 497.071 863.079 433.113 840.847 379.631Z" fill="url(#paint2_radial_3692_2473)"/>
<path d="M668.401 421.339C669.175 421.882 669.877 422.423 670.605 422.963C661.7 407.157 650.61 392.686 637.663 379.977C527.357 269.684 608.739 140.83 622.463 134.286C622.503 134.233 622.586 134.114 622.611 134.085C533.471 186.291 503.231 282.865 500.452 331.183C504.587 330.896 508.709 330.55 512.917 330.55C579.438 330.55 637.375 367.124 668.401 421.339Z" fill="url(#paint3_radial_3692_2473)"/>
<path d="M513.14 443.361C512.559 452.188 481.373 482.627 470.467 482.627C369.56 482.627 353.181 543.661 353.181 543.661C357.65 595.06 393.433 637.385 436.77 659.782C438.747 660.804 440.748 661.727 442.75 662.639C446.183 664.159 449.659 665.58 453.173 666.9C468.033 672.161 483.597 675.163 499.347 675.806C676.21 684.101 710.475 464.371 582.839 400.563C615.526 394.878 649.454 408.024 668.402 421.333C637.376 367.123 579.439 330.548 512.92 330.548C508.711 330.548 504.59 330.895 500.454 331.182C464.858 333.629 430.825 346.744 402.792 368.816C408.202 373.394 414.309 379.513 427.176 392.187C451.247 415.911 513.008 440.478 513.14 443.361Z" fill="url(#paint4_radial_3692_2473)"/>
<path d="M513.14 443.361C512.559 452.188 481.373 482.627 470.467 482.627C369.56 482.627 353.181 543.661 353.181 543.661C357.65 595.06 393.433 637.385 436.77 659.782C438.747 660.804 440.748 661.727 442.75 662.639C446.183 664.159 449.659 665.58 453.173 666.9C468.033 672.161 483.597 675.163 499.347 675.806C676.21 684.101 710.475 464.371 582.839 400.563C615.526 394.878 649.454 408.024 668.402 421.333C637.376 367.123 579.439 330.548 512.92 330.548C508.711 330.548 504.59 330.895 500.454 331.182C464.858 333.629 430.825 346.744 402.792 368.816C408.202 373.394 414.309 379.513 427.176 392.187C451.247 415.911 513.008 440.478 513.14 443.361Z" fill="url(#paint5_radial_3692_2473)"/>
<path d="M386.239 357.014C388.711 358.608 391.162 360.232 393.594 361.887C385.506 333.59 385.162 303.64 392.599 275.165C356.145 291.763 327.793 318 307.18 341.167C308.885 341.119 360.357 340.193 386.239 357.014Z" fill="url(#paint6_radial_3692_2473)"/>
<path d="M160.907 519.988C188.287 681.787 334.96 805.321 501.45 810.035C655.545 814.397 753.997 724.956 794.66 637.697C820.943 581.292 839.184 489.007 805.703 398.235L805.691 398.197L805.644 397.853C805.607 397.59 805.585 397.433 805.591 397.519C805.591 397.577 805.613 397.72 805.66 398.11C818.246 480.297 776.439 559.917 711.085 613.753L710.888 614.215C583.542 717.904 461.683 676.774 437.01 659.938C435.276 659.104 433.553 658.246 431.842 657.365C357.597 621.884 326.926 554.244 333.503 496.236C270.812 496.236 249.436 443.362 249.436 443.362C249.436 443.362 305.721 403.23 379.902 438.133C448.607 470.46 513.129 443.365 513.137 443.362C513.005 440.48 451.244 415.913 427.167 392.19C414.302 379.515 408.193 373.404 402.783 368.819C399.848 366.34 396.78 364.023 393.591 361.879C391.157 360.229 388.705 358.605 386.237 357.007C360.355 340.186 308.883 341.111 307.177 341.156H307.013C292.946 323.338 293.938 264.562 294.74 252.29C294.572 251.53 284.246 257.65 282.894 258.573C270.48 267.434 258.876 277.375 248.215 288.282C236.084 300.586 224.999 313.882 215.078 328.029C215.078 328.047 215.068 328.068 215.062 328.085C215.062 328.066 215.072 328.047 215.078 328.029C192.26 360.365 176.076 396.903 167.463 435.53C167.293 436.3 154.691 491.406 160.907 519.988Z" fill="url(#paint7_radial_3692_2473)"/>
<path d="M637.663 379.976C650.609 392.685 661.699 407.156 670.605 422.962C672.558 424.43 674.383 425.893 675.932 427.321C756.378 501.444 714.228 606.28 711.085 613.751C776.439 559.916 818.246 480.295 805.66 398.108C765.534 298.098 697.496 257.77 641.937 169.962C639.132 165.522 636.319 161.07 633.578 156.377C632.183 153.981 630.88 151.532 629.671 149.036C627.363 144.579 625.583 139.869 624.366 135C624.375 134.769 624.297 134.544 624.147 134.368C623.998 134.192 623.789 134.078 623.56 134.049C623.342 133.986 623.112 133.986 622.894 134.049C622.844 134.066 622.77 134.124 622.717 134.145C622.639 134.176 622.54 134.247 622.457 134.292C608.738 140.831 527.356 269.684 637.663 379.976Z" fill="url(#paint8_radial_3692_2473)"/>
<path d="M675.933 427.321C674.384 425.893 672.559 424.43 670.605 422.962C669.883 422.419 669.175 421.878 668.401 421.338C649.454 408.028 615.525 394.882 582.838 400.567C710.474 464.375 676.209 684.105 499.346 675.81C483.596 675.167 468.032 672.165 453.173 666.905C449.659 665.583 446.183 664.162 442.75 662.643C440.747 661.731 438.747 660.808 436.77 659.786C436.84 659.835 436.938 659.89 437.01 659.934C461.684 676.767 583.543 717.899 710.889 614.211L711.085 613.749C714.229 606.286 756.379 501.446 675.933 427.321Z" fill="url(#paint9_radial_3692_2473)"/>
<path d="M353.179 543.662C353.179 543.662 369.559 482.628 470.466 482.628C481.374 482.628 512.561 452.189 513.138 443.362C513.716 434.535 448.612 470.46 379.904 438.134C305.723 403.231 249.438 443.362 249.438 443.362C249.438 443.362 270.814 496.236 333.504 496.236C326.929 554.245 357.6 621.892 431.843 657.365C433.503 658.158 435.062 659.024 436.766 659.785C393.432 637.387 357.649 595.061 353.179 543.662Z" fill="url(#paint10_radial_3692_2473)"/>
<path d="M840.847 379.631C825.424 342.533 794.187 302.483 769.659 289.825C789.622 328.961 801.176 368.22 805.591 397.519C805.591 397.577 805.613 397.72 805.66 398.11C765.535 298.098 697.496 257.77 641.937 169.962C639.132 165.522 636.319 161.07 633.579 156.377C632.183 153.981 630.88 151.532 629.672 149.036C627.363 144.579 625.583 139.869 624.366 135C624.375 134.769 624.297 134.544 624.148 134.368C623.999 134.192 623.789 134.078 623.56 134.049C623.343 133.986 623.112 133.986 622.894 134.049C622.844 134.066 622.77 134.124 622.717 134.145C622.639 134.176 622.54 134.247 622.457 134.292C622.497 134.239 622.58 134.12 622.605 134.092C533.465 186.297 503.225 282.872 500.446 331.189C504.58 330.903 508.703 330.556 512.911 330.556C579.435 330.556 637.372 367.13 668.393 421.341C649.446 408.031 615.517 394.885 582.831 400.57C710.466 464.378 676.201 684.108 499.338 675.813C483.589 675.17 468.024 672.168 453.165 666.908C449.651 665.586 446.175 664.165 442.742 662.646C440.74 661.734 438.739 660.811 436.762 659.789C436.833 659.838 436.93 659.893 437.002 659.937C435.268 659.102 433.545 658.244 431.834 657.363C433.494 658.156 435.053 659.023 436.757 659.783C393.42 637.387 357.637 595.061 353.168 543.662C353.168 543.662 369.547 482.628 470.454 482.628C481.363 482.628 512.549 452.189 513.127 443.362C512.995 440.48 451.234 415.913 427.157 392.19C414.291 379.515 408.183 373.404 402.773 368.819C399.838 366.34 396.769 364.023 393.581 361.879C385.493 333.582 385.149 303.633 392.586 275.158C356.133 291.756 327.78 317.993 307.167 341.16H307.003C292.936 323.343 293.928 264.567 294.73 252.295C294.561 251.534 284.236 257.655 282.883 258.578C270.47 267.438 258.865 277.38 248.205 288.286C236.077 300.59 224.996 313.884 215.078 328.029C215.078 328.047 215.068 328.068 215.062 328.085C215.062 328.066 215.072 328.047 215.078 328.029C192.26 360.365 176.076 396.903 167.463 435.53C167.294 436.3 167.15 437.097 166.985 437.872C166.318 440.997 163.314 456.85 162.895 460.251C162.926 459.991 162.862 460.512 162.895 460.251C160.156 476.634 158.409 493.167 157.662 509.76C157.662 510.365 157.625 510.965 157.625 511.572C157.625 707.523 316.503 866.375 512.478 866.375C687.99 866.375 833.719 738.965 862.249 571.609C862.85 567.067 863.332 562.501 863.862 557.92C870.915 497.07 863.079 433.113 840.847 379.631ZM805.644 397.853C805.662 397.978 805.684 398.11 805.703 398.235L805.691 398.197L805.644 397.853Z" fill="url(#paint11_linear_3692_2473)"/>
<defs>
<filter id="filter0_d_3692_2473" x="78" y="89" width="868" height="868" filterUnits="userSpaceOnUse" color-interpolation-filters="sRGB">
<feFlood flood-opacity="0" result="BackgroundImageFix"/>
<feColorMatrix in="SourceAlpha" type="matrix" values="0 0 0 0 0 0 0 0 0 0 0 0 0 0 0 0 0 0 127 0" result="hardAlpha"/>
<feOffset dy="11"/>
<feGaussianBlur stdDeviation="11"/>
<feColorMatrix type="matrix" values="0 0 0 0 0 0 0 0 0 0 0 0 0 0 0 0 0 0 0.28 0"/>
<feBlend mode="normal" in2="BackgroundImageFix" result="effect1_dropShadow_3692_2473"/>
<feBlend mode="normal" in="SourceGraphic" in2="effect1_dropShadow_3692_2473" result="shape"/>
</filter>
<linearGradient id="paint0_linear_3692_2473" x1="830.642" y1="322.043" x2="216.662" y2="708.802" gradientUnits="userSpaceOnUse">
<stop stop-color="#3FE1B0"/>
<stop offset="0.406" stop-color="#00B3F4"/>
<stop offset="0.421" stop-color="#03B0F4"/>
<stop offset="0.818" stop-color="#5561E9"/>
<stop offset="1" stop-color="#7542E5"/>
</linearGradient>
<radialGradient id="paint1_radial_3692_2473" cx="0" cy="0" r="1" gradientUnits="userSpaceOnUse" gradientTransform="translate(764.798 215.285) scale(739.791 739.671)">
<stop offset="0.108" stop-color="#3FE1B0"/>
<stop offset="0.122" stop-color="#3BDCB3"/>
<stop offset="0.254" stop-color="#1BB3D3"/>
<stop offset="0.358" stop-color="#0799E6"/>
<stop offset="0.42" stop-color="#0090ED"/>
<stop offset="0.487" stop-color="#2482F1"/>
<stop offset="0.64" stop-color="#7165FB"/>
<stop offset="0.71" stop-color="#9059FF"/>
<stop offset="0.795" stop-color="#7D49ED"/>
<stop offset="0.86" stop-color="#7542E5"/>
</radialGradient>
<radialGradient id="paint2_radial_3692_2473" cx="0" cy="0" r="1" gradientUnits="userSpaceOnUse" gradientTransform="translate(494.472 517.682) scale(739.791 739.671)">
<stop offset="0.3" stop-color="#45278D"/>
<stop offset="0.341" stop-color="#562896" stop-opacity="0.787"/>
<stop offset="0.43" stop-color="#782AA9" stop-opacity="0.364"/>
<stop offset="0.495" stop-color="#8D2BB5" stop-opacity="0.1"/>
<stop offset="0.53" stop-color="#952BB9" stop-opacity="0"/>
</radialGradient>
<radialGradient id="paint3_radial_3692_2473" cx="0" cy="0" r="1" gradientUnits="userSpaceOnUse" gradientTransform="translate(583.662 47.4239) scale(535.947 535.86)">
<stop offset="0.132" stop-color="#3FE1B0"/>
<stop offset="0.289" stop-color="#28D0C8"/>
<stop offset="0.526" stop-color="#00B3F4"/>
</radialGradient>
<radialGradient id="paint4_radial_3692_2473" cx="0" cy="0" r="1" gradientUnits="userSpaceOnUse" gradientTransform="translate(412.643 710.892) scale(352.247 352.19)">
<stop offset="0.287" stop-color="#0060DF"/>
<stop offset="0.417" stop-color="#2357E1"/>
<stop offset="0.604" stop-color="#4F4CE3"/>
<stop offset="0.748" stop-color="#6B45E4"/>
<stop offset="0.833" stop-color="#7542E5"/>
</radialGradient>
<radialGradient id="paint5_radial_3692_2473" cx="0" cy="0" r="1" gradientTransform="matrix(181.518 -43.9112 51.4406 212.599 504.718 425.402)" gradientUnits="userSpaceOnUse">
<stop offset="0.206" stop-color="#45278D" stop-opacity="0"/>
<stop offset="0.251" stop-color="#44268A" stop-opacity="0.055"/>
<stop offset="0.725" stop-color="#371F6F" stop-opacity="0.591"/>
<stop offset="0.956" stop-color="#321C64" stop-opacity="0.8"/>
</radialGradient>
<radialGradient id="paint6_radial_3692_2473" cx="0" cy="0" r="1" gradientUnits="userSpaceOnUse" gradientTransform="translate(485.132 185.019) scale(253.406 253.365)">
<stop stop-color="#00DDFF"/>
<stop offset="0.235" stop-color="#00D6FD"/>
<stop offset="0.572" stop-color="#00C3F8"/>
<stop offset="0.792" stop-color="#00B3F4"/>
</radialGradient>
<radialGradient id="paint7_radial_3692_2473" cx="0" cy="0" r="1" gradientUnits="userSpaceOnUse" gradientTransform="translate(684.316 24.3176) scale(1081.17 1080.99)">
<stop offset="0.126" stop-color="#3FE1B0"/>
<stop offset="0.429" stop-color="#00DDFF"/>
<stop offset="0.479" stop-color="#1EC1FF"/>
<stop offset="0.624" stop-color="#7077FF"/>
<stop offset="0.69" stop-color="#9059FF"/>
<stop offset="0.904" stop-color="#B833E1"/>
</radialGradient>
<radialGradient id="paint8_radial_3692_2473" cx="0" cy="0" r="1" gradientTransform="matrix(82.891 787.529 -516.76 54.4092 579.11 141.831)" gradientUnits="userSpaceOnUse">
<stop stop-color="#54FFBD"/>
<stop offset="0.095" stop-color="#4CF3B8"/>
<stop offset="0.197" stop-color="#3FE1B0"/>
<stop offset="0.257" stop-color="#33D8BD"/>
<stop offset="0.369" stop-color="#12C0E1"/>
<stop offset="0.423" stop-color="#00B3F4"/>
<stop offset="0.737" stop-color="#0060DF"/>
</radialGradient>
<radialGradient id="paint9_radial_3692_2473" cx="0" cy="0" r="1" gradientUnits="userSpaceOnUse" gradientTransform="translate(479.163 278.864) scale(674.992 674.884)">
<stop offset="0.137" stop-color="#3FE1B0"/>
<stop offset="0.435" stop-color="#00DDFF"/>
<stop offset="0.484" stop-color="#1EC1FF"/>
<stop offset="0.622" stop-color="#7077FF"/>
<stop offset="0.685" stop-color="#9059FF"/>
</radialGradient>
<radialGradient id="paint10_radial_3692_2473" cx="0" cy="0" r="1" gradientUnits="userSpaceOnUse" gradientTransform="translate(657.342 318.366) scale(738.774 738.655)">
<stop offset="0.094" stop-color="#54FFBD"/>
<stop offset="0.242" stop-color="#41F7CC"/>
<stop offset="0.543" stop-color="#0FE3F3"/>
<stop offset="0.626" stop-color="#00DDFF"/>
</radialGradient>
<linearGradient id="paint11_linear_3692_2473" x1="786.765" y1="244.406" x2="285.562" y2="745.607" gradientUnits="userSpaceOnUse">
<stop offset="0.167" stop-color="#54FFBD" stop-opacity="0.8"/>
<stop offset="0.236" stop-color="#43F8CA" stop-opacity="0.639"/>
<stop offset="0.361" stop-color="#27EDE1" stop-opacity="0.368"/>
<stop offset="0.466" stop-color="#12E4F1" stop-opacity="0.169"/>
<stop offset="0.545" stop-color="#05DFFB" stop-opacity="0.046"/>
<stop offset="0.589" stop-color="#00DDFF" stop-opacity="0"/>
</linearGradient>
</defs>
</svg>
