<svg width="1024" height="1024" viewBox="0 0 1024 1024" fill="none" xmlns="http://www.w3.org/2000/svg">
<g filter="url(#filter0_d_3692_2493)">
<rect x="100" y="100" width="824" height="824" rx="184" fill="#20123A"/>
</g>
<path d="M331.046 769.833L395.895 819.757L427.014 754.609L331.046 769.833Z" fill="#3A1B73"/>
<path d="M515.957 270.138L657.32 265.848L570.274 202.771L515.957 270.138Z" fill="#0FBAE2"/>
<path d="M646.819 202.297L570.274 202.772L657.321 265.848L646.819 202.297Z" fill="#27C7D6"/>
<path d="M737.812 260.592L692.054 197.483L755.389 235.425L737.812 260.592Z" fill="#44DDCA"/>
<path d="M798.414 299.236L737.812 260.592L755.39 235.425L798.414 299.236Z" fill="#42D4CB"/>
<path d="M737.812 260.592L727.677 303.826L783.101 325.98L737.812 260.592Z" fill="#2AC4D5"/>
<path d="M737.812 260.592L798.414 299.236L783.102 325.98L737.812 260.592Z" fill="#3DC9CC"/>
<path d="M657.32 265.848L737.812 260.592L727.677 303.826L657.32 265.848Z" fill="#1EC4DC"/>
<path d="M657.32 265.848L593.722 323.424L675.575 363.514L657.32 265.848Z" fill="#00C9ED"/>
<path d="M515.957 270.138L657.32 265.848L593.722 323.424L515.957 270.138Z" fill="#00C2ED"/>
<path d="M727.677 303.825L766.169 378.485L783.101 325.98L727.677 303.825Z" fill="#28BAD5"/>
<path d="M766.17 378.485L783.102 325.979L823.43 421.91L766.17 378.485Z" fill="#2BABD4"/>
<path d="M783.102 325.979L844.563 370.998L823.429 421.91L783.102 325.979Z" fill="#39AFCD"/>
<path d="M798.413 299.236L810.274 293.286L844.563 370.999L798.413 299.236Z" fill="#35B9D0"/>
<path d="M844.563 370.999L858.258 383.839L810.274 293.286L844.563 370.999Z" fill="#47B4C6"/>
<path d="M844.563 370.999L798.414 299.236L783.102 325.98L844.563 370.999Z" fill="#36B6CF"/>
<path d="M755.389 235.425L798.413 299.236L810.274 293.286L755.389 235.425Z" fill="#45D5CA"/>
<path d="M871.951 483.028L858.258 383.839L875.035 439.523L871.728 483.028H871.951Z" fill="#44A0C4"/>
<path d="M844.563 370.999L871.952 483.028L858.259 383.839L844.563 370.999Z" fill="#47B4C6"/>
<path d="M823.429 421.91L871.952 483.028L844.563 370.999L823.429 421.91Z" fill="#3CA4C9"/>
<path d="M871.729 483.028L875.035 439.523L878.375 551.093L871.951 483.028H871.729Z" fill="#4782B9"/>
<path d="M863.82 571.201L878.375 551.093L871.952 483.028L863.82 571.201Z" fill="#477CB7"/>
<path d="M866.614 622.432L854.976 628.04L878.375 551.093L866.614 622.432Z" fill="#495FA9"/>
<path d="M854.976 628.04L878.375 551.093L863.82 571.201L854.976 628.04Z" fill="#4372B8"/>
<path d="M863.821 571.201L871.952 483.028L847.023 512.438L863.821 571.201Z" fill="#4184C1"/>
<path d="M854.976 628.04L863.821 571.201L815.736 652.018L854.976 628.04Z" fill="#485BAC"/>
<path d="M823.429 421.911L871.952 483.029L847.023 512.439L823.429 421.911Z" fill="#4192C3"/>
<path d="M863.821 571.201L847.023 512.438L821.674 584.82L863.821 571.201Z" fill="#4170BB"/>
<path d="M813.348 726.719L854.976 628.04L816.029 699.978L813.348 726.719Z" fill="#443E93"/>
<path d="M816.029 699.978L854.976 628.04L815.736 652.018L816.029 699.978Z" fill="#484DA3"/>
<path d="M854.978 628.04L813.348 726.719L866.615 622.432L854.978 628.04Z" fill="#4855A4"/>
<path d="M775.67 771.677L813.347 726.719L816.029 699.977L775.67 771.677Z" fill="#413587"/>
<path d="M727.079 813.135L775.67 771.677L724.319 795.298L727.079 813.135Z" fill="#351967"/>
<path d="M443.489 842.013L394.397 854.022L395.895 819.757L443.489 842.013Z" fill="#49278C"/>
<path d="M170.554 375.65L184.087 370.637L149.867 448.344L170.554 375.65Z" fill="#3C2679"/>
<path d="M149.867 448.344L175.773 443.523L184.087 370.637L149.867 448.344Z" fill="#392272"/>
<path d="M151.413 541.669L149.867 448.344L175.773 443.523L151.413 541.669Z" fill="#321762"/>
<path d="M727.677 303.825L675.575 363.514L766.17 378.485L727.677 303.825Z" fill="#09B7E4"/>
<path d="M273.017 242.604L339.521 197.098L280.171 226.6L273.017 242.604Z" fill="#466CB2"/>
<path d="M280.171 226.6L371.421 173.188L339.523 197.098L280.171 226.6Z" fill="#4294C3"/>
<path d="M339.522 197.098L422.846 157.377L371.421 173.188L339.522 197.098Z" fill="#4595C1"/>
<path d="M657.32 265.848L675.575 363.514L727.677 303.825L657.32 265.848Z" fill="#00C3E9"/>
<path d="M390.272 192.47L467.892 161.427L422.847 157.377L390.272 192.47Z" fill="#42A4C6"/>
<path d="M485.872 146L422.847 157.377L467.892 161.426L485.872 146Z" fill="#46B9C8"/>
<path d="M692.052 197.482L646.819 202.297L737.812 260.592L692.052 197.482Z" fill="#39D1CE"/>
<path d="M545.481 160.655L646.529 173.96L585.824 152.364L545.481 160.655Z" fill="#44D3CA"/>
<path d="M692.054 197.483L646.528 173.958L697.121 193.82L692.054 197.483Z" fill="#43E6C8"/>
<path d="M165.72 633.837L195.591 658.422L151.415 541.668L165.72 633.837Z" fill="#472888"/>
<path d="M577.992 866.013L604.251 804.179L508.549 829.892L577.992 866.013Z" fill="#3C1E76"/>
<path d="M604.251 804.179L684.25 826.381L689.105 764.51L604.251 804.179Z" fill="#351966"/>
<path d="M724.319 795.298L689.106 764.51L774.183 707.968L724.319 795.298Z" fill="#3E277F"/>
<path d="M697.121 193.82L692.052 197.482L755.397 235.429L697.121 193.82ZM646.819 202.297L692.052 197.482L646.528 173.96L646.819 202.297Z" fill="#3CD3CD"/>
<path d="M485.872 146L545.481 160.655L585.824 152.364L485.872 146Z" fill="#44BCC9"/>
<path d="M646.529 173.96L545.481 160.655L646.819 202.297L646.529 173.96Z" fill="#41D7CB"/>
<path d="M545.482 160.655L570.274 202.771L646.819 202.297L545.482 160.655Z" fill="#2FC5D1"/>
<path d="M545.482 160.655L570.273 202.771L487.701 196.119L545.482 160.655Z" fill="#34BDD0"/>
<path d="M467.893 161.426L487.702 196.119L545.483 160.655L467.893 161.426Z" fill="#3AB7CB"/>
<path d="M390.271 192.471L467.892 161.426L487.701 196.119L390.271 192.471Z" fill="#38A6CC"/>
<path d="M339.521 197.098L390.272 192.47L422.847 157.377L339.521 197.098Z" fill="#4294C3"/>
<path d="M390.272 192.47L442.941 240.534L487.702 196.119L390.272 192.47Z" fill="#2F97D2"/>
<path d="M390.27 192.47L304.529 272.876L339.522 197.098L390.27 192.47Z" fill="#4182C0"/>
<path d="M304.529 272.876L359.24 281.978L390.27 192.47L304.529 272.876Z" fill="#3477CA"/>
<path d="M359.24 281.978L390.27 192.47L442.942 240.534L359.24 281.978Z" fill="#2986D6"/>
<path d="M223.139 290.231L226.473 322.576L273.017 242.604L223.139 290.231Z" fill="#464D9F"/>
<path d="M184.087 370.637L223.139 290.23L226.473 322.576L184.087 370.637Z" fill="#463F96"/>
<path d="M226.473 322.576L273.017 242.604L304.53 272.876L226.473 322.576Z" fill="#465AB0"/>
<path d="M223.654 391.911L226.473 322.576L184.087 370.637L223.654 391.911Z" fill="#453895"/>
<path d="M223.654 391.911L226.473 322.576L281.476 367.236L223.654 391.911Z" fill="#4640A7"/>
<path d="M281.476 367.236L304.53 272.876L226.473 322.576L281.476 367.236Z" fill="#4452B6"/>
<path d="M281.477 367.236L304.53 272.876L359.241 281.978L281.477 367.236Z" fill="#3761C7"/>
<path d="M175.773 443.523L184.086 370.637L223.654 391.911L175.773 443.523Z" fill="#402C85"/>
<path d="M577.992 866.013L651.556 854.591L684.25 826.381L577.992 866.013Z" fill="#3C2378"/>
<path d="M146 558.637L151.415 541.668L149.867 448.344L146 558.637Z" fill="#442683"/>
<path d="M195.589 658.422L232.032 663.532L206.512 603.95L195.589 658.422Z" fill="#3D1D78"/>
<path d="M229.594 726.159L267.894 733.526L232.03 663.532L229.594 726.159Z" fill="#452386"/>
<path d="M165.72 633.837L209.219 719.451L195.591 658.422L165.72 633.837Z" fill="#4C2B8F"/>
<path d="M146 558.637L165.719 633.837L151.415 541.668L146 558.637Z" fill="#492C8B"/>
<path d="M232.031 663.532L195.591 658.422L229.595 726.159L232.031 663.532Z" fill="#422283"/>
<path d="M174.032 523.158L195.59 658.422L206.512 603.95L174.032 523.158Z" fill="#391B70"/>
<path d="M175.773 443.523L227.198 523.083L223.654 391.911L175.773 443.523Z" fill="#402685"/>
<path d="M174.032 523.158L206.512 603.95L227.197 523.083L174.032 523.158Z" fill="#341967"/>
<path d="M206.513 603.95L227.198 523.083L252.911 586.983L206.513 603.95Z" fill="#381B70"/>
<path d="M232.032 663.532L330.63 724.64L252.911 586.983L232.032 663.532Z" fill="#321762"/>
<path d="M209.219 719.451L229.595 726.159L195.591 658.422L209.219 719.451Z" fill="#502E95"/>
<path d="M427.013 754.609L395.895 819.757L508.549 829.892L427.013 754.609Z" fill="#38196F"/>
<path d="M689.105 764.51L684.25 826.381L724.319 795.298L689.105 764.51Z" fill="#381D70"/>
<path d="M174.032 523.158L227.197 523.083L175.772 443.524L174.032 523.158Z" fill="#371C6E"/>
<path d="M600.845 720.697L604.251 804.179L689.105 764.51L600.845 720.697Z" fill="#402588"/>
<path d="M600.847 720.697L655.454 671.241L689.107 764.51L600.847 720.697Z" fill="#4235A6"/>
<path d="M689.106 764.51L730.387 639.475L655.454 671.241L689.106 764.51Z" fill="#4339AD"/>
<path d="M774.183 707.968L689.106 764.51L730.387 639.475L774.183 707.968Z" fill="#42339D"/>
<path d="M184.086 370.637L223.139 290.23L170.554 375.65L184.086 370.637Z" fill="#3F2F82"/>
<path d="M787.625 470.156L821.672 584.818L847.024 512.439L787.625 470.156Z" fill="#367CC9"/>
<path d="M847.023 512.439L823.429 421.911L787.625 470.156L847.023 512.439Z" fill="#338CCD"/>
<path d="M730.387 639.474L821.674 584.819L733.197 545.428L730.387 639.474Z" fill="#2D60D0"/>
<path d="M730.387 639.475L647.656 555.87L655.454 671.241L730.387 639.475Z" fill="#275FD4"/>
<path d="M600.846 720.697L537.327 664.452L655.454 671.241L600.846 720.697Z" fill="#4043BB"/>
<path d="M232.031 663.532L252.912 586.983L206.513 603.95L232.031 663.532Z" fill="#321762"/>
<path d="M537.328 664.452L516.733 755.63L600.844 720.697L537.328 664.452Z" fill="#4630A4"/>
<path d="M516.734 755.63L537.327 664.452L405.841 683.103L516.734 755.63Z" fill="#4733AA"/>
<path d="M227.198 523.083L253.577 438.876L223.654 391.911L227.198 523.083Z" fill="#45309D"/>
<path d="M281.477 367.236L397.233 333.488L336.09 458.414L281.477 367.236Z" fill="#1F69DA"/>
<path d="M730.387 639.474L647.656 555.87L733.196 545.428L730.387 639.474Z" fill="#1C6EDB"/>
<path d="M821.673 584.82L787.625 470.156L733.196 545.428L821.673 584.82Z" fill="#2D70D2"/>
<path d="M655.454 671.241L560.845 579.749L647.656 555.87L655.454 671.241Z" fill="#1B6DDA"/>
<path d="M537.327 664.452L655.454 671.241L560.844 579.749L537.327 664.452Z" fill="#2C58CA"/>
<path d="M537.327 664.452L472.623 611.758L560.845 579.749L537.327 664.452Z" fill="#2C5ACD"/>
<path d="M273.017 242.604L280.171 226.6L223.139 290.231L273.017 242.604Z" fill="#4854A5"/>
<path d="M766.17 378.485L787.626 470.156L823.43 421.911L766.17 378.485Z" fill="#2B9CD4"/>
<path d="M281.476 367.236L336.089 458.414L253.576 438.876L281.476 367.236Z" fill="#3E46BF"/>
<path d="M253.576 438.876L336.089 458.414L280.289 546.317L253.576 438.876Z" fill="#423CB4"/>
<path d="M397.232 333.488L442.942 240.534L359.24 281.978L397.232 333.488Z" fill="#1E82DB"/>
<path d="M227.197 523.083L280.289 546.317L252.91 586.983L227.197 523.083Z" fill="#41248A"/>
<path d="M344.698 652.018L353.305 524.133L280.289 546.317L344.698 652.018Z" fill="#4438B0"/>
<path d="M344.698 652.018L472.623 611.758L353.305 524.133L344.698 652.018Z" fill="#3D46BF"/>
<path d="M472.623 611.758L460.156 512.883L353.305 524.133L472.623 611.758Z" fill="#1F67D8"/>
<path d="M460.156 512.883L550.388 479.136L560.845 579.749L460.156 512.883Z" fill="#0B87E6"/>
<path d="M405.841 683.102L537.327 664.452L472.623 611.758L405.841 683.102Z" fill="#3E46BF"/>
<path d="M405.841 683.102L344.698 652.018L472.623 611.758L405.841 683.102Z" fill="#4338AB"/>
<path d="M397.232 333.488L475.591 341.778L442.942 240.534L397.232 333.488Z" fill="#0493EA"/>
<path d="M515.957 270.138L442.942 240.534L475.591 341.778L515.957 270.138Z" fill="#01A1E9"/>
<path d="M515.957 270.138L593.722 323.424L475.591 341.778L515.957 270.138Z" fill="#00AEF1"/>
<path d="M475.591 341.777L591.466 403.233L550.388 479.136L475.591 341.777Z" fill="#00A9F0"/>
<path d="M591.466 403.234L593.722 323.424L475.591 341.777L591.466 403.234Z" fill="#00B6F6"/>
<path d="M591.466 403.234L593.722 323.424L675.575 363.514L591.466 403.234Z" fill="#00C1F7"/>
<path d="M475.591 341.777L550.387 479.136L419.196 413.417L475.591 341.777Z" fill="#0099EC"/>
<path d="M460.156 512.883L550.387 479.136L419.196 413.417L460.156 512.883Z" fill="#088CE8"/>
<path d="M550.388 479.136L666.093 457.999L591.466 403.233L550.388 479.136Z" fill="#00A9F1"/>
<path d="M675.575 363.514L666.093 457.999L591.466 403.233L675.575 363.514Z" fill="#00B3F5"/>
<path d="M675.575 363.514L730.189 437.692L666.093 457.999L675.575 363.514Z" fill="#00AAF1"/>
<path d="M766.17 378.485L675.575 363.514L730.189 437.692L766.17 378.485Z" fill="#01ADE8"/>
<path d="M304.529 272.877L339.521 197.098L273.017 242.604L304.529 272.877Z" fill="#456AB7"/>
<path d="M766.17 378.485L730.188 437.692L787.626 470.156L766.17 378.485Z" fill="#1498E1"/>
<path d="M733.196 545.428L787.625 470.156L730.188 437.692L733.196 545.428Z" fill="#128DE1"/>
<path d="M733.197 545.428L730.189 437.692L666.093 457.999L733.197 545.428Z" fill="#009AEA"/>
<path d="M281.478 367.235L397.233 333.488L359.242 281.979L281.478 367.235Z" fill="#2470D8"/>
<path d="M550.388 479.136L647.656 555.87L666.093 457.999L550.388 479.136Z" fill="#019BEC"/>
<path d="M560.845 579.749L647.656 555.87L550.388 479.136L560.845 579.749Z" fill="#0A8AE6"/>
<path d="M397.232 333.488L419.196 413.417L475.591 341.777L397.232 333.488Z" fill="#068DE8"/>
<path d="M397.233 333.488L336.09 458.414L419.197 413.417L397.233 333.488Z" fill="#1279E1"/>
<path d="M419.196 413.417L353.305 524.133L460.156 512.883L419.196 413.417Z" fill="#1675DF"/>
<path d="M460.158 512.884L472.623 611.758L560.845 579.749L460.158 512.884Z" fill="#1771DD"/>
<path d="M353.305 524.133L419.198 413.417L336.09 458.414L353.305 524.133Z" fill="#2164D6"/>
<path d="M280.289 546.317L336.09 458.414L353.305 524.133L280.289 546.317Z" fill="#4044BD"/>
<path d="M335.302 835.546L394.397 854.022L304.091 795.752L335.302 835.546Z" fill="#522F9A"/>
<path d="M331.045 769.833L427.013 754.609L330.629 724.64L331.045 769.833Z" fill="#331865"/>
<path d="M508.549 829.892L516.734 755.63L427.014 754.609L508.549 829.892Z" fill="#341867"/>
<path d="M604.251 804.179L577.992 866.013L684.25 826.381L604.251 804.179Z" fill="#371B6E"/>
<path d="M227.197 523.083L253.576 438.876L280.289 546.317L227.197 523.083Z" fill="#452A98"/>
<path d="M253.577 438.876L281.478 367.235L223.654 391.911L253.577 438.876Z" fill="#463CAB"/>
<path d="M666.093 457.999L647.656 555.87L733.196 545.428L666.093 457.999Z" fill="#088BE7"/>
<path d="M280.289 546.317L252.912 586.983L344.697 652.02L280.289 546.317Z" fill="#442590"/>
<path d="M252.912 586.983L330.629 724.64L344.697 652.02L252.912 586.983Z" fill="#3E1F80"/>
<path d="M405.839 683.101L344.696 652.02L330.629 724.64L405.839 683.101Z" fill="#3D207E"/>
<path d="M405.839 683.101L330.629 724.64L427.013 754.61L405.839 683.101Z" fill="#391D72"/>
<path d="M405.84 683.101L427.014 754.61L516.734 755.63L405.84 683.101Z" fill="#402284"/>
<path d="M516.733 755.63L508.549 829.892L604.251 804.179L516.733 755.63Z" fill="#361A68"/>
<path d="M516.733 755.63L604.251 804.179L600.844 720.697L516.733 755.63Z" fill="#412084"/>
<path d="M395.895 819.757L304.091 795.752L394.397 854.024L395.895 819.757Z" fill="#48278A"/>
<path d="M395.895 819.757L331.045 769.833L304.091 795.753L395.895 819.757Z" fill="#462587"/>
<path d="M508.549 829.892L509.969 876.802L577.992 866.013L508.549 829.892Z" fill="#432484"/>
<path d="M508.549 829.892L395.895 819.757L443.489 842.013L508.549 829.892Z" fill="#412280"/>
<path d="M508.55 829.892L443.489 842.013L509.97 876.802L508.55 829.892Z" fill="#432384"/>
<path d="M443.489 842.013L394.397 854.024L509.969 876.802L443.489 842.013Z" fill="#45278A"/>
<path d="M394.398 854.024L335.303 835.546L400.635 863.967L394.398 854.024Z" fill="#46298B"/>
<path d="M394.397 854.023L400.634 863.967L509.969 876.802L394.397 854.023Z" fill="#46298B"/>
<path d="M267.894 733.526L229.594 726.159L304.091 795.753L267.894 733.526Z" fill="#4A268D"/>
<path d="M229.594 726.159L209.219 719.451L239.897 760.802L229.594 726.159Z" fill="#4E2892"/>
<path d="M229.594 726.159L239.897 760.802L304.091 795.753L229.594 726.159Z" fill="#4E2893"/>
<path d="M239.897 760.802L335.303 835.546L304.091 795.752L239.897 760.802Z" fill="#4E2A93"/>
<path d="M239.897 760.802L282.321 799.702L335.303 835.546L239.897 760.802Z" fill="#4F2B94"/>
<path d="M232.03 663.532L267.894 733.526L330.629 724.64L232.03 663.532Z" fill="#3C1B75"/>
<path d="M267.895 733.526L331.046 769.833L330.629 724.64L267.895 733.526Z" fill="#3A1B72"/>
<path d="M267.895 733.526L304.091 795.753L331.046 769.833L267.895 733.526Z" fill="#451F86"/>
<path d="M509.97 876.802L567.06 878.393L577.992 866.013L509.97 876.802Z" fill="#442C87"/>
<path d="M567.06 878.393L651.556 854.59L577.992 866.013L567.06 878.393Z" fill="#442A86"/>
<path d="M815.736 652.02L730.387 639.473L774.185 707.968L815.736 652.02Z" fill="#4341A3"/>
<path d="M815.737 652.02L774.185 707.968L816.029 699.977L815.737 652.02Z" fill="#403696"/>
<path d="M724.319 795.298L775.67 771.677L816.029 699.977L724.319 795.298Z" fill="#3D287E"/>
<path d="M774.184 707.968L724.319 795.298L816.029 699.977L774.184 707.968Z" fill="#43338C"/>
<path d="M821.672 584.818L730.387 639.473L815.736 652.02L821.672 584.818Z" fill="#4259BA"/>
<path d="M821.672 584.818L815.736 652.019L863.821 571.201L821.672 584.818Z" fill="#4355B6"/>
<path d="M175.772 443.524L151.415 541.669L174.033 523.158L175.772 443.524Z" fill="#351966"/>
<path d="M151.415 541.668L195.591 658.422L174.033 523.158L151.415 541.668Z" fill="#3C2074"/>
<path d="M646.819 202.297L657.321 265.848L737.812 260.592L646.819 202.297Z" fill="#28C7D6"/>
<path d="M487.701 196.119L515.957 270.138L570.273 202.773L487.701 196.119Z" fill="#19AADD"/>
<path d="M487.702 196.119L442.941 240.534L515.957 270.138L487.702 196.119Z" fill="#1AA7DD"/>
<path d="M684.25 826.381L651.556 854.591L727.079 813.135L684.25 826.381Z" fill="#371E6D"/>
<path d="M724.319 795.298L684.25 826.381L727.079 813.135L724.319 795.298Z" fill="#321762"/>
<path d="M485.873 146L467.893 161.426L545.483 160.655L485.873 146Z" fill="#44BCC9"/>
<path d="M878.375 551.02V550.913V550.848L875.05 439.799V439.753V439.672C875.05 439.644 875.037 439.597 875.029 439.558C875.022 439.52 875.011 439.459 874.998 439.411V439.377L858.301 383.963V383.951C858.297 383.939 858.292 383.927 858.286 383.915C858.276 383.885 858.265 383.855 858.252 383.825C858.237 383.785 858.22 383.746 858.201 383.707C858.201 383.691 858.189 383.673 858.182 383.657L810.39 293.503C810.381 293.486 810.369 293.475 810.36 293.458C810.326 293.399 810.289 293.342 810.248 293.287L810.214 293.238L810.162 293.184C810.145 293.164 810.143 293.156 810.13 293.142L755.497 235.543L755.47 235.519L755.433 235.483C755.401 235.453 755.366 235.426 755.33 235.4C755.295 235.373 755.286 235.356 755.259 235.336H755.25L755.239 235.328L697.248 193.917L697.22 193.903L697.164 193.864C697.125 193.841 697.084 193.823 697.044 193.801C697.004 193.779 696.962 193.756 696.92 193.739L696.892 193.725L646.562 173.969L646.531 173.957H646.507L646.482 173.945H646.472L586.045 152.436C586.026 152.436 586.007 152.436 585.988 152.423C585.968 152.41 585.911 152.399 585.871 152.39L585.765 152.367C585.728 152.367 585.691 152.358 585.654 152.354C585.617 152.349 585.617 152.346 585.596 152.345L486.095 146.009H486.052C486.011 146.009 485.97 146.012 485.93 146.016C485.875 146.017 485.82 146.02 485.766 146.027H485.702L422.96 157.352L422.923 157.364C422.904 157.364 422.885 157.364 422.867 157.372L422.826 157.386C422.788 157.396 422.751 157.403 422.714 157.417L371.569 173.145H371.551C371.514 173.157 371.477 173.175 371.439 173.191C371.4 173.207 371.35 173.226 371.307 173.248C371.264 173.271 371.263 173.268 371.242 173.279L371.22 173.29L280.379 226.47L280.367 226.481L280.292 226.535C280.268 226.548 280.245 226.564 280.222 226.58C280.2 226.597 280.181 226.616 280.16 226.634C280.14 226.651 280.124 226.66 280.106 226.676C280.088 226.693 280.063 226.722 280.041 226.746C280.019 226.769 280.007 226.774 279.992 226.79L279.97 226.815L223.209 290.135C223.201 290.145 223.196 290.157 223.187 290.166L223.147 290.213L223.109 290.265C223.091 290.288 223.075 290.313 223.06 290.338C223.051 290.349 223.043 290.359 223.035 290.371L223.016 290.402L170.685 375.406C170.676 375.422 170.669 375.438 170.662 375.455C170.624 375.515 170.593 375.58 170.569 375.647C170.555 375.681 170.538 375.725 170.524 375.765C170.524 375.783 170.509 375.797 170.505 375.817L149.911 448.183V448.212C149.911 448.23 149.901 448.246 149.897 448.266V448.307C149.889 448.344 149.888 448.382 149.882 448.421C149.876 448.459 149.87 448.502 149.867 448.542V448.573L146 558.37V558.541C146 558.575 146.007 558.609 146.012 558.643C146.018 558.688 146.026 558.733 146.037 558.777C146.037 558.8 146.037 558.82 146.047 558.842L146.059 558.888L165.678 633.703L165.687 633.732C165.692 633.751 165.698 633.77 165.706 633.788C165.724 633.842 165.744 633.894 165.768 633.945C165.78 633.971 165.786 633.998 165.799 634.023V634.045L209.092 719.25L209.101 719.263C209.108 719.278 209.12 719.29 209.127 719.305C209.154 719.353 209.183 719.4 209.215 719.445C209.223 719.457 209.228 719.472 209.238 719.485L239.76 760.624L239.768 760.632L239.776 760.644L239.79 760.659L239.828 760.708C239.855 760.742 239.887 760.77 239.918 760.802C239.949 760.835 239.96 760.854 239.985 760.876L282.214 799.602C282.247 799.631 282.284 799.653 282.319 799.682C282.355 799.71 282.372 799.73 282.403 799.751L335.148 835.434C335.159 835.44 335.171 835.446 335.183 835.451H335.196C335.238 835.476 335.278 835.503 335.322 835.525L335.388 835.559L335.413 835.572L400.452 863.865C400.474 863.874 400.496 863.877 400.517 863.885C400.565 863.904 400.614 863.921 400.664 863.934L400.74 863.955C400.778 863.964 400.816 863.97 400.855 863.975C400.893 863.981 400.898 863.987 400.921 863.99L509.766 876.768H509.912L566.767 878.384H566.828C566.935 878.384 567.042 878.373 567.147 878.351C567.169 878.351 567.191 878.337 567.213 878.331H567.259L651.376 854.636C651.392 854.636 651.407 854.621 651.423 854.617C651.439 854.613 651.473 854.605 651.498 854.596C651.523 854.588 651.541 854.574 651.563 854.565L651.609 854.543C651.641 854.528 651.675 854.517 651.708 854.499H651.721L651.755 854.48L726.894 813.233L726.917 813.22L726.948 813.202C726.99 813.176 727.03 813.145 727.07 813.115C727.104 813.09 727.141 813.071 727.172 813.044L775.543 771.775C775.562 771.758 775.575 771.739 775.593 771.723C775.611 771.707 775.636 771.686 775.656 771.664L775.717 771.599L775.736 771.58L813.241 726.84V726.831L813.256 726.81C813.304 726.748 813.348 726.683 813.389 726.615C813.402 726.592 813.42 726.57 813.433 726.546L813.445 726.525L866.472 622.707C866.484 622.682 866.493 622.657 866.502 622.631C866.523 622.591 866.542 622.55 866.558 622.507C866.558 622.488 866.567 622.469 866.573 622.45C866.587 622.406 866.599 622.361 866.608 622.315C866.608 622.286 866.626 622.258 866.63 622.228L878.335 551.228V551.213C878.334 551.199 878.334 551.184 878.335 551.17C878.335 551.151 878.335 551.13 878.344 551.111C878.353 551.092 878.375 551.04 878.375 551.02ZM284.375 797.117L273.435 787.085L298.039 806.361L284.375 797.117ZM444.016 838.819L405.58 820.844L496.57 829.028L444.016 838.819ZM458.043 511.477L357.113 522.108L419.353 417.529L458.043 511.477ZM422.813 417.295L546.123 479.065L461.305 510.785L422.813 417.295ZM458.968 514.68L470.696 607.73L358.414 525.273L458.968 514.68ZM469.227 610.715L347.263 649.106L355.47 527.176L469.227 610.715ZM462.478 516.232L557.014 579.011L474.179 609.065L462.478 516.232ZM463.984 513.29L548.806 481.565L558.636 576.148L463.984 513.29ZM594.311 404.025L672.923 366.901L664.064 455.211L594.311 404.025ZM661.368 457.308L553.298 477.05L591.666 406.157L661.368 457.308ZM550.219 475.834L479.817 346.547L588.885 404.391L550.219 475.834ZM546.275 475.467L422.157 413.29L475.511 345.516L546.275 475.467ZM354.618 519.86L338.796 459.483L415.154 418.139L354.618 519.86ZM344.161 646.106L283.84 547.113L352.223 526.337L344.161 646.106ZM467.332 614.748L405.965 680.307L349.776 651.746L467.332 614.748ZM558.194 582.07L536.307 660.902L476.081 611.864L558.194 582.07ZM552.258 482.98L643.488 554.949L562.066 577.345L552.258 482.98ZM554.089 480.242L663.355 460.283L645.945 552.7L554.089 480.242ZM667.292 455.92L676.056 368.593L726.533 437.151L667.292 455.92ZM727.631 440.245L730.423 540.251L668.13 459.099L727.631 440.245ZM592.834 401.094L594.933 326.866L671.06 364.152L592.834 401.094ZM589.546 401.03L480.884 343.406L591.655 326.195L589.546 401.03ZM420.341 410.282L399.969 336.177L472.624 343.855L420.341 410.282ZM417.683 413.036L340.607 454.765L397.307 338.914L417.683 413.036ZM352.028 522.975L285.092 543.304L336.248 462.72L352.028 522.975ZM339.905 645.455L256.332 586.244L281.261 549.218L339.905 645.455ZM346.65 653.847L402.814 682.398L333.727 720.555L346.65 653.847ZM472.952 613.558L533.268 662.676L410.7 680.061L472.952 613.558ZM561.472 582.55L650.493 668.634L539.344 662.246L561.472 582.55ZM563.835 580.267L645.543 557.793L652.883 666.379L563.835 580.267ZM666.338 462.164L729.151 544.001L649.08 553.776L666.338 462.164ZM730.934 440.89L783.981 470.873L733.713 540.391L730.934 440.89ZM731.494 437.435L764.345 383.381L783.934 467.075L731.494 437.435ZM729.078 435.081L678.559 366.46L762.363 380.31L729.078 435.081ZM596.254 323.868L655.591 270.145L672.625 361.268L596.254 323.868ZM478.848 340.406L516.501 273.597L589.022 323.289L478.848 340.406ZM400.264 332.908L442.937 246.127L473.417 340.646L400.264 332.908ZM336.738 455.214L285.017 368.868L394.643 336.908L336.738 455.214ZM282.003 542.036L256.983 441.422L334.262 459.719L282.003 542.036ZM254.443 583.155L231.503 526.147L278.87 546.876L254.443 583.155ZM343.628 652.111L330.674 718.982L259.115 592.226L343.628 652.111ZM405.315 684.755L424.94 751.036L335.608 723.256L405.315 684.755ZM535.08 665.722L515.625 751.86L410.858 683.34L535.08 665.722ZM650.798 671.934L600.43 717.552L541.843 665.672L650.798 671.934ZM648.981 559.965L726.53 638.332L656.3 668.111L648.981 559.965ZM650.564 556.892L730.497 547.135L727.872 635.017L650.564 556.892ZM785.758 474.009L817.688 581.542L734.72 544.602L785.758 474.009ZM767.668 383.145L819.744 422.638L787.181 466.514L767.668 383.145ZM678.016 363.04L726.357 307.669L762.071 376.939L678.016 363.04ZM675.835 360.542L658.916 270.04L724.12 305.235L675.835 360.542ZM593.215 322.182L521.011 272.717L652.257 268.73L593.215 322.182ZM476.168 338.461L445.899 244.596L513.595 272.041L476.168 338.461ZM397.467 331.137L362.414 283.613L439.638 245.37L397.467 331.137ZM395.031 333.371L287.664 364.674L359.793 285.597L395.031 333.371ZM333.472 456.159L256.953 438.043L282.826 371.61L333.472 456.159ZM278.929 543.321L230.486 522.12L254.554 445.287L278.929 543.321ZM251.917 585.686L210.25 600.924L228.826 528.303L251.917 585.686ZM326.863 718.915L235.198 662.104L254.61 590.934L326.863 718.915ZM420.198 752.999L333.485 766.756L333.11 725.923L420.198 752.999ZM409.163 686.155L511.107 752.829L428.627 751.891L409.163 686.155ZM538.206 666.837L597.394 719.255L519.015 751.805L538.206 666.837ZM654.095 673.387L685.375 760.086L603.334 719.358L654.095 673.387ZM656.891 671.427L726.716 641.827L688.242 758.339L656.891 671.427ZM733.781 547.773L816.736 584.706L731.147 635.943L733.781 547.773ZM789.328 474.448L843.568 513.057L820.418 579.15L789.328 474.448ZM788.712 469.978L821.312 426.051L842.796 508.477L788.712 469.978ZM766.957 378.483L782.094 331.543L818.147 417.305L766.957 378.483ZM764.68 374.818L730.189 307.918L779.848 327.774L764.68 374.818ZM662.466 268.221L734.692 263.496L725.598 302.29L662.466 268.221ZM519.461 269.477L570.312 206.408L651.808 265.463L519.461 269.477ZM516.458 267.973L490.275 199.385L566.785 205.548L516.458 267.973ZM513.062 268.292L446.173 241.175L487.175 200.49L513.062 268.292ZM362.796 279.763L391.552 196.803L440.37 241.35L362.796 279.763ZM285.637 362.03L306.699 275.827L356.68 284.143L285.637 362.03ZM254.38 435.588L227.375 393.2L279.562 370.931L254.38 435.588ZM252.937 439.442L229.855 513.134L226.755 398.343L252.937 439.442ZM226.359 524.676L207.536 598.264L177.981 524.747L226.359 524.676ZM177.231 521.466L178.809 449.221L225.469 521.397L177.231 521.466ZM251.65 589.277L232.941 657.868L210.083 604.481L251.65 589.277ZM326.731 722.694L269.921 730.741L237.446 667.358L326.731 722.694ZM329.816 725.571L330.186 765.818L273.944 733.481L329.816 725.571ZM424.564 755.628L395.806 815.832L335.886 769.695L424.564 755.628ZM427.917 756.237L503.905 826.395L398.922 816.945L427.917 756.237ZM431.644 755.203L514.879 756.148L507.285 825.041L431.644 755.203ZM598.9 722.178L602.075 800.009L520.48 754.745L598.9 722.178ZM602.203 722.463L684.532 763.33L605.379 800.331L602.203 722.463ZM729.884 642.698L770.753 706.614L691.362 759.373L729.884 642.698ZM732.73 641.047L811.419 652.611L773.108 704.195L732.73 641.047ZM734.196 637.946L818.36 587.554L812.889 649.517L734.196 637.946ZM845.362 517.863L860.224 569.863L822.929 581.912L845.362 517.863ZM825.586 429.436L868.213 483.126L846.313 508.966L825.586 429.436ZM785.697 331.644L841.059 372.195L822.022 418.051L785.697 331.644ZM728.632 303.763L737.555 265.7L777.422 323.267L728.632 303.763ZM658.053 265.225L648.439 207.065L731.71 260.411L658.053 265.225ZM654.398 263.282L575.031 205.773L644.82 205.339L654.398 263.282ZM492.955 196.309L544.765 164.51L566.995 202.275L492.955 196.309ZM443.205 239.49L395.235 195.714L483.976 199.038L443.205 239.49ZM358.827 281.167L309.013 272.879L387.089 199.663L358.827 281.167ZM281.531 364.976L230.558 323.589L302.894 277.534L281.531 364.976ZM279.365 367.446L226.697 389.921L229.266 326.77L279.365 367.446ZM226.675 517.217L179.356 444.012L223.415 396.521L226.675 517.217ZM206.176 603.694L197.195 648.483L179.477 537.282L206.176 603.694ZM208.456 609.047L230.632 660.821L198.964 656.381L208.456 609.047ZM265.991 730.285L232.561 723.854L234.688 669.189L265.991 730.285ZM329.144 769.007L305.393 791.844L273.5 737.019L329.144 769.007ZM331.977 770.838L389.005 814.744L308.274 793.629L331.977 770.838ZM518.078 757.17L599.495 802.335L510.458 826.255L518.078 757.17ZM686.451 766.057L681.992 822.852L608.552 802.475L686.451 766.057ZM768.144 712.293L722.936 791.467L691.01 763.56L768.144 712.293ZM812.76 656.321L813.012 697.781L776.836 704.688L812.76 656.321ZM821.827 585.72L858.604 573.837L816.646 644.359L821.827 585.72ZM847.342 512.831L868.222 488.199L861.411 562.046L847.342 512.831ZM823.921 422.052L842.666 376.899L866.957 476.258L823.921 422.052ZM784.039 326.359L797.208 303.359L836.903 365.079L784.039 326.359ZM781.752 323.74L742.794 267.493L794.924 300.735L781.752 323.74ZM651.032 204.826L690.472 200.63L730.369 255.654L651.032 204.826ZM570.955 202.517L549.23 165.603L638.033 202.095L570.955 202.517ZM488.403 195.255L470.904 164.613L539.427 163.931L488.403 195.255ZM484.924 195.791L398.616 192.559L467.372 165.056L484.924 195.791ZM310.489 266.987L341.394 200.061L386.213 195.976L310.489 266.987ZM304.936 271.17L276.685 244.03L336.308 203.234L304.936 271.17ZM302.818 273.69L232.575 318.414L274.461 246.448L302.818 273.69ZM223.413 389.763L188.16 370.808L225.925 327.988L223.413 389.763ZM222.301 392.892L179.481 439.043L186.916 373.867L222.301 392.892ZM173.923 522.32L155.819 537.134L175.31 458.581L173.923 522.32ZM174.377 526.191L192.854 642.134L154.988 542.057L174.377 526.191ZM231.589 664.267L229.469 718.753L199.883 659.823L231.589 664.267ZM267.943 733.998L297.997 785.656L236.144 727.881L267.943 733.998ZM394.715 819.617L393.408 849.545L314.533 798.651L394.715 819.617ZM397.952 820.895L438.884 840.035L396.666 850.37L397.952 820.895ZM506.98 830.419L508.251 872.396L448.76 841.266L506.98 830.419ZM601.007 805.318L576.877 862.142L513.065 828.948L601.007 805.318ZM604.789 804.824L678.174 825.189L580.7 861.551L604.789 804.824ZM689.691 766.759L720.781 793.941L685.407 821.388L689.691 766.759ZM774.057 708.55L809.899 701.704L731.346 783.349L774.057 708.55ZM816.265 692.708L816.02 652.297L849.089 632.093L816.265 692.708ZM819.172 646.524L859.305 579.07L851.922 626.51L819.172 646.524ZM870.351 500.855L875.031 550.45L864.426 565.103L870.351 500.855ZM845.978 376.608L855.155 385.212L864.327 451.647L845.978 376.608ZM799.497 300.841L808.128 296.51L833.081 353.052L799.497 300.841ZM739.126 261.26L754.273 239.573L791.349 294.561L739.126 261.26ZM736.773 258.889L697.288 204.43L751.943 237.173L736.773 258.889ZM647.841 201.867L647.597 178.198L685.633 197.851L647.841 201.867ZM644.544 201.229L557.61 165.507L644.296 176.921L644.544 201.229ZM472.577 161.319L486.42 149.442L532.315 160.724L472.577 161.319ZM396.992 189.669L423.905 160.675L461.115 164.021L396.992 189.669ZM390.04 192.327L349.287 196.044L416.202 164.15L390.04 192.327ZM277.966 239.18L282.474 229.095L319.876 210.505L277.966 239.18ZM228.874 318.241L226.154 291.859L266.836 253.014L228.874 318.241ZM226.046 322.883L192.311 361.134L223.393 297.139L226.046 322.883ZM175.787 442.441L154.251 446.448L182.697 381.85L175.787 442.441ZM175.072 445.912L154.47 528.924L153.161 449.989L175.072 445.912ZM193.288 652.573L168.804 632.421L157.074 556.87L193.288 652.573ZM227.62 722.4L211.982 717.251L201.519 670.408L227.62 722.4ZM294.461 786.855L242.502 758.567L234.163 730.525L294.461 786.855ZM303.938 795.752L326.436 824.436L257.668 770.561L303.938 795.752ZM312.354 801.158L383.885 847.312L337.078 832.678L312.354 801.158ZM443.583 842.269L499.175 871.357L402.535 852.309L443.583 842.269ZM510.295 831.211L572.524 863.58L511.567 873.247L510.295 831.211ZM675.475 829.702L650.211 851.5L593.363 860.327L675.475 829.702ZM722.168 797.025L724.272 810.624L691.615 820.725L722.168 797.025ZM806.909 709.567L773.319 769.241L730.571 788.904L806.909 709.567ZM816.274 699.621L838.762 658.081L814.72 715.076L816.274 699.621ZM863.812 571.578L872.303 559.845L858.653 604.732L863.812 571.578ZM871.983 483.034V482.957V482.937L871.863 482.066L872.708 470.944L873.57 499.737L871.983 483.034ZM869.725 466.658L861.226 405.104L871.75 440.028L869.725 466.658ZM844.442 370.668L828.938 335.526L850.644 376.48L844.442 370.668ZM797.684 298.078L766.713 252.146L806.221 293.795L797.684 298.078ZM694.226 198.769L696.293 197.274L720.101 214.273L694.226 198.769ZM691.101 196.975L675.007 188.658L692.898 195.68L691.101 196.975ZM555.206 161.88L585.373 155.679L630.769 171.829L555.206 161.88ZM545.364 160.551L504.286 150.453L573.17 154.84L545.364 160.551ZM467.55 161.304L435.508 158.425L480.34 150.332L467.55 161.304ZM354.479 189.937L372.812 176.196L402.365 167.109L354.479 189.937ZM339.43 197.113L323.53 205.015L347.976 190.707L339.43 197.113ZM272.719 242.855L253.857 260.869L275.425 236.801L272.719 242.855ZM184.367 369.965L175.982 373.066L208.565 320.138L184.367 369.965ZM173.44 377.512L182.492 374.158L159.605 426.133L173.44 377.512ZM150.905 512.368L151.384 541.293L149.706 546.553L150.905 512.368ZM152.478 548.691L160.732 601.861L149.362 558.479L152.478 548.691ZM195.528 658.671L206.126 706.125L172.302 639.554L195.528 658.671ZM229.531 726.484L236.888 751.222L214.982 721.691L229.531 726.484ZM393.854 853.873L396.924 858.768L364.77 844.78L393.854 853.873ZM402.11 860.851L398.336 854.834L468.28 868.619L402.11 860.851ZM573.441 866.757L566.088 875.082L527.697 874.013L573.441 866.757ZM578.538 865.95L624.312 858.843L571.746 873.651L578.538 865.95ZM684.293 826.431L711.135 818.128L663.804 844.116L684.293 826.431ZM727.289 808.618L725.182 794.995L764.402 776.953L727.289 808.618ZM812.244 706.781L810.409 725.09L784.613 755.867L812.244 706.781ZM854.713 628.725L861.341 625.531L831.004 684.925L854.713 628.725ZM863.54 620.828L856.1 624.415L871.056 575.232L863.54 620.828Z" fill="url(#paint0_radial_3692_2493)"/>
<path d="M878.375 551.02V550.913V550.848L875.05 439.799V439.753V439.672C875.05 439.644 875.037 439.597 875.029 439.558C875.022 439.52 875.011 439.459 874.998 439.411V439.377L858.301 383.963V383.951C858.297 383.939 858.292 383.927 858.286 383.915C858.276 383.885 858.265 383.855 858.252 383.825C858.237 383.785 858.22 383.746 858.201 383.707C858.201 383.691 858.189 383.673 858.182 383.657L810.39 293.503C810.381 293.486 810.369 293.475 810.36 293.458C810.326 293.399 810.289 293.342 810.248 293.287L810.214 293.238L810.162 293.184C810.145 293.164 810.143 293.156 810.13 293.142L755.497 235.543L755.47 235.519L755.433 235.483C755.401 235.453 755.366 235.426 755.33 235.4C755.295 235.373 755.286 235.356 755.259 235.336H755.25L755.239 235.328L697.248 193.917L697.22 193.903L697.164 193.864C697.125 193.841 697.084 193.823 697.044 193.801C697.004 193.779 696.962 193.756 696.92 193.739L696.892 193.725L646.562 173.969L646.531 173.957H646.507L646.482 173.945H646.472L586.045 152.436C586.026 152.436 586.007 152.436 585.988 152.423C585.968 152.41 585.911 152.399 585.871 152.39L585.765 152.367C585.728 152.367 585.691 152.358 585.654 152.354C585.617 152.349 585.617 152.346 585.596 152.345L486.095 146.009H486.052C486.011 146.009 485.97 146.012 485.93 146.016C485.875 146.017 485.82 146.02 485.766 146.027H485.702L422.96 157.352L422.923 157.364C422.904 157.364 422.885 157.364 422.867 157.372L422.826 157.386C422.788 157.396 422.751 157.403 422.714 157.417L371.569 173.145H371.551C371.514 173.157 371.477 173.175 371.439 173.191C371.4 173.207 371.35 173.226 371.307 173.248C371.264 173.271 371.263 173.268 371.242 173.279L371.22 173.29L280.379 226.47L280.367 226.481L280.292 226.535C280.268 226.548 280.245 226.564 280.222 226.58C280.2 226.597 280.181 226.616 280.16 226.634C280.14 226.651 280.124 226.66 280.106 226.676C280.088 226.693 280.063 226.722 280.041 226.746C280.019 226.769 280.007 226.774 279.992 226.79L279.97 226.815L223.209 290.135C223.201 290.145 223.196 290.157 223.187 290.166L223.147 290.213L223.109 290.265C223.091 290.288 223.075 290.313 223.06 290.338C223.051 290.349 223.043 290.359 223.035 290.371L223.016 290.402L170.685 375.406C170.676 375.422 170.669 375.438 170.662 375.455C170.624 375.515 170.593 375.58 170.569 375.647C170.555 375.681 170.538 375.725 170.524 375.765C170.524 375.783 170.509 375.797 170.505 375.817L149.911 448.183V448.212C149.911 448.23 149.901 448.246 149.897 448.266V448.307C149.889 448.344 149.888 448.382 149.882 448.421C149.876 448.459 149.87 448.502 149.867 448.542V448.573L146 558.37V558.541C146 558.575 146.007 558.609 146.012 558.643C146.018 558.688 146.026 558.733 146.037 558.777C146.037 558.8 146.037 558.82 146.047 558.842L146.059 558.888L165.678 633.703L165.687 633.732C165.692 633.751 165.698 633.77 165.706 633.788C165.724 633.842 165.744 633.894 165.768 633.945C165.78 633.971 165.786 633.998 165.799 634.023V634.045L209.092 719.25L209.101 719.263C209.108 719.278 209.12 719.29 209.127 719.305C209.154 719.353 209.183 719.4 209.215 719.445C209.223 719.457 209.228 719.472 209.238 719.485L239.76 760.624L239.768 760.632L239.776 760.644L239.79 760.659L239.828 760.708C239.855 760.742 239.887 760.77 239.918 760.802C239.949 760.835 239.96 760.854 239.985 760.876L282.214 799.602C282.247 799.631 282.284 799.653 282.319 799.682C282.355 799.71 282.372 799.73 282.403 799.751L335.148 835.434C335.159 835.44 335.171 835.446 335.183 835.451H335.196C335.238 835.476 335.278 835.503 335.322 835.525L335.388 835.559L335.413 835.572L400.452 863.865C400.474 863.874 400.496 863.877 400.517 863.885C400.565 863.904 400.614 863.921 400.664 863.934L400.74 863.955C400.778 863.964 400.816 863.97 400.855 863.975C400.893 863.981 400.898 863.987 400.921 863.99L509.766 876.768H509.912L566.767 878.384H566.828C566.935 878.384 567.042 878.373 567.147 878.351C567.169 878.351 567.191 878.337 567.213 878.331H567.259L651.376 854.636C651.392 854.636 651.407 854.621 651.423 854.617C651.439 854.613 651.473 854.605 651.498 854.596C651.523 854.588 651.541 854.574 651.563 854.565L651.609 854.543C651.641 854.528 651.675 854.517 651.708 854.499H651.721L651.755 854.48L726.894 813.233L726.917 813.22L726.948 813.202C726.99 813.176 727.03 813.145 727.07 813.115C727.104 813.09 727.141 813.071 727.172 813.044L775.543 771.775C775.562 771.758 775.575 771.739 775.593 771.723C775.611 771.707 775.636 771.686 775.656 771.664L775.717 771.599L775.736 771.58L813.241 726.84V726.831L813.256 726.81C813.304 726.748 813.348 726.683 813.389 726.615C813.402 726.592 813.42 726.57 813.433 726.546L813.445 726.525L866.472 622.707C866.484 622.682 866.493 622.657 866.502 622.631C866.523 622.591 866.542 622.55 866.558 622.507C866.558 622.488 866.567 622.469 866.573 622.45C866.587 622.406 866.599 622.361 866.608 622.315C866.608 622.286 866.626 622.258 866.63 622.228L878.335 551.228V551.213C878.334 551.199 878.334 551.184 878.335 551.17C878.335 551.151 878.335 551.13 878.344 551.111C878.353 551.092 878.375 551.04 878.375 551.02ZM284.375 797.117L273.435 787.085L298.039 806.361L284.375 797.117ZM444.016 838.819L405.58 820.844L496.57 829.028L444.016 838.819ZM458.043 511.477L357.113 522.108L419.353 417.529L458.043 511.477ZM422.813 417.295L546.123 479.065L461.305 510.785L422.813 417.295ZM458.968 514.68L470.696 607.73L358.414 525.273L458.968 514.68ZM469.227 610.715L347.263 649.106L355.47 527.176L469.227 610.715ZM462.478 516.232L557.014 579.011L474.179 609.065L462.478 516.232ZM463.984 513.29L548.806 481.565L558.636 576.148L463.984 513.29ZM594.311 404.025L672.923 366.901L664.064 455.211L594.311 404.025ZM661.368 457.308L553.298 477.05L591.666 406.157L661.368 457.308ZM550.219 475.834L479.817 346.547L588.885 404.391L550.219 475.834ZM546.275 475.467L422.157 413.29L475.511 345.516L546.275 475.467ZM354.618 519.86L338.796 459.483L415.154 418.139L354.618 519.86ZM344.161 646.106L283.84 547.113L352.223 526.337L344.161 646.106ZM467.332 614.748L405.965 680.307L349.776 651.746L467.332 614.748ZM558.194 582.07L536.307 660.902L476.081 611.864L558.194 582.07ZM552.258 482.98L643.488 554.949L562.066 577.345L552.258 482.98ZM554.089 480.242L663.355 460.283L645.945 552.7L554.089 480.242ZM667.292 455.92L676.056 368.593L726.533 437.151L667.292 455.92ZM727.631 440.245L730.423 540.251L668.13 459.099L727.631 440.245ZM592.834 401.094L594.933 326.866L671.06 364.152L592.834 401.094ZM589.546 401.03L480.884 343.406L591.655 326.195L589.546 401.03ZM420.341 410.282L399.969 336.177L472.624 343.855L420.341 410.282ZM417.683 413.036L340.607 454.765L397.307 338.914L417.683 413.036ZM352.028 522.975L285.092 543.304L336.248 462.72L352.028 522.975ZM339.905 645.455L256.332 586.244L281.261 549.218L339.905 645.455ZM346.65 653.847L402.814 682.398L333.727 720.555L346.65 653.847ZM472.952 613.558L533.268 662.676L410.7 680.061L472.952 613.558ZM561.472 582.55L650.493 668.634L539.344 662.246L561.472 582.55ZM563.835 580.267L645.543 557.793L652.883 666.379L563.835 580.267ZM666.338 462.164L729.151 544.001L649.08 553.776L666.338 462.164ZM730.934 440.89L783.981 470.873L733.713 540.391L730.934 440.89ZM731.494 437.435L764.345 383.381L783.934 467.075L731.494 437.435ZM729.078 435.081L678.559 366.46L762.363 380.31L729.078 435.081ZM596.254 323.868L655.591 270.145L672.625 361.268L596.254 323.868ZM478.848 340.406L516.501 273.597L589.022 323.289L478.848 340.406ZM400.264 332.908L442.937 246.127L473.417 340.646L400.264 332.908ZM336.738 455.214L285.017 368.868L394.643 336.908L336.738 455.214ZM282.003 542.036L256.983 441.422L334.262 459.719L282.003 542.036ZM254.443 583.155L231.503 526.147L278.87 546.876L254.443 583.155ZM343.628 652.111L330.674 718.982L259.115 592.226L343.628 652.111ZM405.315 684.755L424.94 751.036L335.608 723.256L405.315 684.755ZM535.08 665.722L515.625 751.86L410.858 683.34L535.08 665.722ZM650.798 671.934L600.43 717.552L541.843 665.672L650.798 671.934ZM648.981 559.965L726.53 638.332L656.3 668.111L648.981 559.965ZM650.564 556.892L730.497 547.135L727.872 635.017L650.564 556.892ZM785.758 474.009L817.688 581.542L734.72 544.602L785.758 474.009ZM767.668 383.145L819.744 422.638L787.181 466.514L767.668 383.145ZM678.016 363.04L726.357 307.669L762.071 376.939L678.016 363.04ZM675.835 360.542L658.916 270.04L724.12 305.235L675.835 360.542ZM593.215 322.182L521.011 272.717L652.257 268.73L593.215 322.182ZM476.168 338.461L445.899 244.596L513.595 272.041L476.168 338.461ZM397.467 331.137L362.414 283.613L439.638 245.37L397.467 331.137ZM395.031 333.371L287.664 364.674L359.793 285.597L395.031 333.371ZM333.472 456.159L256.953 438.043L282.826 371.61L333.472 456.159ZM278.929 543.321L230.486 522.12L254.554 445.287L278.929 543.321ZM251.917 585.686L210.25 600.924L228.826 528.303L251.917 585.686ZM326.863 718.915L235.198 662.104L254.61 590.934L326.863 718.915ZM420.198 752.999L333.485 766.756L333.11 725.923L420.198 752.999ZM409.163 686.155L511.107 752.829L428.627 751.891L409.163 686.155ZM538.206 666.837L597.394 719.255L519.015 751.805L538.206 666.837ZM654.095 673.387L685.375 760.086L603.334 719.358L654.095 673.387ZM656.891 671.427L726.716 641.827L688.242 758.339L656.891 671.427ZM733.781 547.773L816.736 584.706L731.147 635.943L733.781 547.773ZM789.328 474.448L843.568 513.057L820.418 579.15L789.328 474.448ZM788.712 469.978L821.312 426.051L842.796 508.477L788.712 469.978ZM766.957 378.483L782.094 331.543L818.147 417.305L766.957 378.483ZM764.68 374.818L730.189 307.918L779.848 327.774L764.68 374.818ZM662.466 268.221L734.692 263.496L725.598 302.29L662.466 268.221ZM519.461 269.477L570.312 206.408L651.808 265.463L519.461 269.477ZM516.458 267.973L490.275 199.385L566.785 205.548L516.458 267.973ZM513.062 268.292L446.173 241.175L487.175 200.49L513.062 268.292ZM362.796 279.763L391.552 196.803L440.37 241.35L362.796 279.763ZM285.637 362.03L306.699 275.827L356.68 284.143L285.637 362.03ZM254.38 435.588L227.375 393.2L279.562 370.931L254.38 435.588ZM252.937 439.442L229.855 513.134L226.755 398.343L252.937 439.442ZM226.359 524.676L207.536 598.264L177.981 524.747L226.359 524.676ZM177.231 521.466L178.809 449.221L225.469 521.397L177.231 521.466ZM251.65 589.277L232.941 657.868L210.083 604.481L251.65 589.277ZM326.731 722.694L269.921 730.741L237.446 667.358L326.731 722.694ZM329.816 725.571L330.186 765.818L273.944 733.481L329.816 725.571ZM424.564 755.628L395.806 815.832L335.886 769.695L424.564 755.628ZM427.917 756.237L503.905 826.395L398.922 816.945L427.917 756.237ZM431.644 755.203L514.879 756.148L507.285 825.041L431.644 755.203ZM598.9 722.178L602.075 800.009L520.48 754.745L598.9 722.178ZM602.203 722.463L684.532 763.33L605.379 800.331L602.203 722.463ZM729.884 642.698L770.753 706.614L691.362 759.373L729.884 642.698ZM732.73 641.047L811.419 652.611L773.108 704.195L732.73 641.047ZM734.196 637.946L818.36 587.554L812.889 649.517L734.196 637.946ZM845.362 517.863L860.224 569.863L822.929 581.912L845.362 517.863ZM825.586 429.436L868.213 483.126L846.313 508.966L825.586 429.436ZM785.697 331.644L841.059 372.195L822.022 418.051L785.697 331.644ZM728.632 303.763L737.555 265.7L777.422 323.267L728.632 303.763ZM658.053 265.225L648.439 207.065L731.71 260.411L658.053 265.225ZM654.398 263.282L575.031 205.773L644.82 205.339L654.398 263.282ZM492.955 196.309L544.765 164.51L566.995 202.275L492.955 196.309ZM443.205 239.49L395.235 195.714L483.976 199.038L443.205 239.49ZM358.827 281.167L309.013 272.879L387.089 199.663L358.827 281.167ZM281.531 364.976L230.558 323.589L302.894 277.534L281.531 364.976ZM279.365 367.446L226.697 389.921L229.266 326.77L279.365 367.446ZM226.675 517.217L179.356 444.012L223.415 396.521L226.675 517.217ZM206.176 603.694L197.195 648.483L179.477 537.282L206.176 603.694ZM208.456 609.047L230.632 660.821L198.964 656.381L208.456 609.047ZM265.991 730.285L232.561 723.854L234.688 669.189L265.991 730.285ZM329.144 769.007L305.393 791.844L273.5 737.019L329.144 769.007ZM331.977 770.838L389.005 814.744L308.274 793.629L331.977 770.838ZM518.078 757.17L599.495 802.335L510.458 826.255L518.078 757.17ZM686.451 766.057L681.992 822.852L608.552 802.475L686.451 766.057ZM768.144 712.293L722.936 791.467L691.01 763.56L768.144 712.293ZM812.76 656.321L813.012 697.781L776.836 704.688L812.76 656.321ZM821.827 585.72L858.604 573.837L816.646 644.359L821.827 585.72ZM847.342 512.831L868.222 488.199L861.411 562.046L847.342 512.831ZM823.921 422.052L842.666 376.899L866.957 476.258L823.921 422.052ZM784.039 326.359L797.208 303.359L836.903 365.079L784.039 326.359ZM781.752 323.74L742.794 267.493L794.924 300.735L781.752 323.74ZM651.032 204.826L690.472 200.63L730.369 255.654L651.032 204.826ZM570.955 202.517L549.23 165.603L638.033 202.095L570.955 202.517ZM488.403 195.255L470.904 164.613L539.427 163.931L488.403 195.255ZM484.924 195.791L398.616 192.559L467.372 165.056L484.924 195.791ZM310.489 266.987L341.394 200.061L386.213 195.976L310.489 266.987ZM304.936 271.17L276.685 244.03L336.308 203.234L304.936 271.17ZM302.818 273.69L232.575 318.414L274.461 246.448L302.818 273.69ZM223.413 389.763L188.16 370.808L225.925 327.988L223.413 389.763ZM222.301 392.892L179.481 439.043L186.916 373.867L222.301 392.892ZM173.923 522.32L155.819 537.134L175.31 458.581L173.923 522.32ZM174.377 526.191L192.854 642.134L154.988 542.057L174.377 526.191ZM231.589 664.267L229.469 718.753L199.883 659.823L231.589 664.267ZM267.943 733.998L297.997 785.656L236.144 727.881L267.943 733.998ZM394.715 819.617L393.408 849.545L314.533 798.651L394.715 819.617ZM397.952 820.895L438.884 840.035L396.666 850.37L397.952 820.895ZM506.98 830.419L508.251 872.396L448.76 841.266L506.98 830.419ZM601.007 805.318L576.877 862.142L513.065 828.948L601.007 805.318ZM604.789 804.824L678.174 825.189L580.7 861.551L604.789 804.824ZM689.691 766.759L720.781 793.941L685.407 821.388L689.691 766.759ZM774.057 708.55L809.899 701.704L731.346 783.349L774.057 708.55ZM816.265 692.708L816.02 652.297L849.089 632.093L816.265 692.708ZM819.172 646.524L859.305 579.07L851.922 626.51L819.172 646.524ZM870.351 500.855L875.031 550.45L864.426 565.103L870.351 500.855ZM845.978 376.608L855.155 385.212L864.327 451.647L845.978 376.608ZM799.497 300.841L808.128 296.51L833.081 353.052L799.497 300.841ZM739.126 261.26L754.273 239.573L791.349 294.561L739.126 261.26ZM736.773 258.889L697.288 204.43L751.943 237.173L736.773 258.889ZM647.841 201.867L647.597 178.198L685.633 197.851L647.841 201.867ZM644.544 201.229L557.61 165.507L644.296 176.921L644.544 201.229ZM472.577 161.319L486.42 149.442L532.315 160.724L472.577 161.319ZM396.992 189.669L423.905 160.675L461.115 164.021L396.992 189.669ZM390.04 192.327L349.287 196.044L416.202 164.15L390.04 192.327ZM277.966 239.18L282.474 229.095L319.876 210.505L277.966 239.18ZM228.874 318.241L226.154 291.859L266.836 253.014L228.874 318.241ZM226.046 322.883L192.311 361.134L223.393 297.139L226.046 322.883ZM175.787 442.441L154.251 446.448L182.697 381.85L175.787 442.441ZM175.072 445.912L154.47 528.924L153.161 449.989L175.072 445.912ZM193.288 652.573L168.804 632.421L157.074 556.87L193.288 652.573ZM227.62 722.4L211.982 717.251L201.519 670.408L227.62 722.4ZM294.461 786.855L242.502 758.567L234.163 730.525L294.461 786.855ZM303.938 795.752L326.436 824.436L257.668 770.561L303.938 795.752ZM312.354 801.158L383.885 847.312L337.078 832.678L312.354 801.158ZM443.583 842.269L499.175 871.357L402.535 852.309L443.583 842.269ZM510.295 831.211L572.524 863.58L511.567 873.247L510.295 831.211ZM675.475 829.702L650.211 851.5L593.363 860.327L675.475 829.702ZM722.168 797.025L724.272 810.624L691.615 820.725L722.168 797.025ZM806.909 709.567L773.319 769.241L730.571 788.904L806.909 709.567ZM816.274 699.621L838.762 658.081L814.72 715.076L816.274 699.621ZM863.812 571.578L872.303 559.845L858.653 604.732L863.812 571.578ZM871.983 483.034V482.957V482.937L871.863 482.066L872.708 470.944L873.57 499.737L871.983 483.034ZM869.725 466.658L861.226 405.104L871.75 440.028L869.725 466.658ZM844.442 370.668L828.938 335.526L850.644 376.48L844.442 370.668ZM797.684 298.078L766.713 252.146L806.221 293.795L797.684 298.078ZM694.226 198.769L696.293 197.274L720.101 214.273L694.226 198.769ZM691.101 196.975L675.007 188.658L692.898 195.68L691.101 196.975ZM555.206 161.88L585.373 155.679L630.769 171.829L555.206 161.88ZM545.364 160.551L504.286 150.453L573.17 154.84L545.364 160.551ZM467.55 161.304L435.508 158.425L480.34 150.332L467.55 161.304ZM354.479 189.937L372.812 176.196L402.365 167.109L354.479 189.937ZM339.43 197.113L323.53 205.015L347.976 190.707L339.43 197.113ZM272.719 242.855L253.857 260.869L275.425 236.801L272.719 242.855ZM184.367 369.965L175.982 373.066L208.565 320.138L184.367 369.965ZM173.44 377.512L182.492 374.158L159.605 426.133L173.44 377.512ZM150.905 512.368L151.384 541.293L149.706 546.553L150.905 512.368ZM152.478 548.691L160.732 601.861L149.362 558.479L152.478 548.691ZM195.528 658.671L206.126 706.125L172.302 639.554L195.528 658.671ZM229.531 726.484L236.888 751.222L214.982 721.691L229.531 726.484ZM393.854 853.873L396.924 858.768L364.77 844.78L393.854 853.873ZM402.11 860.851L398.336 854.834L468.28 868.619L402.11 860.851ZM573.441 866.757L566.088 875.082L527.697 874.013L573.441 866.757ZM578.538 865.95L624.312 858.843L571.746 873.651L578.538 865.95ZM684.293 826.431L711.135 818.128L663.804 844.116L684.293 826.431ZM727.289 808.618L725.182 794.995L764.402 776.953L727.289 808.618ZM812.244 706.781L810.409 725.09L784.613 755.867L812.244 706.781ZM854.713 628.725L861.341 625.531L831.004 684.925L854.713 628.725ZM863.54 620.828L856.1 624.415L871.056 575.232L863.54 620.828Z" fill="url(#paint1_radial_3692_2493)"/>
<defs>
<filter id="filter0_d_3692_2493" x="78" y="89" width="868" height="868" filterUnits="userSpaceOnUse" color-interpolation-filters="sRGB">
<feFlood flood-opacity="0" result="BackgroundImageFix"/>
<feColorMatrix in="SourceAlpha" type="matrix" values="0 0 0 0 0 0 0 0 0 0 0 0 0 0 0 0 0 0 127 0" result="hardAlpha"/>
<feOffset dy="11"/>
<feGaussianBlur stdDeviation="11"/>
<feColorMatrix type="matrix" values="0 0 0 0 0 0 0 0 0 0 0 0 0 0 0 0 0 0 0.28 0"/>
<feBlend mode="normal" in2="BackgroundImageFix" result="effect1_dropShadow_3692_2493"/>
<feBlend mode="normal" in="SourceGraphic" in2="effect1_dropShadow_3692_2493" result="shape"/>
</filter>
<radialGradient id="paint0_radial_3692_2493" cx="0" cy="0" r="1" gradientUnits="userSpaceOnUse" gradientTransform="translate(477.939 540.947) scale(416.422)">
<stop offset="0.467" stop-color="#00DDFF" stop-opacity="0.2"/>
<stop offset="0.606" stop-color="#06DFFA" stop-opacity="0.214"/>
<stop offset="0.748" stop-color="#18E7EC" stop-opacity="0.256"/>
<stop offset="0.889" stop-color="#35F2D5" stop-opacity="0.326"/>
<stop offset="1" stop-color="#54FFBD" stop-opacity="0.4"/>
</radialGradient>
<radialGradient id="paint1_radial_3692_2493" cx="0" cy="0" r="1" gradientUnits="userSpaceOnUse" gradientTransform="translate(549.326 449.32) scale(444.818)">
<stop offset="0.434" stop-color="#7542E5" stop-opacity="0"/>
<stop offset="0.561" stop-color="#7844E6" stop-opacity="0.013"/>
<stop offset="0.665" stop-color="#804BE8" stop-opacity="0.053"/>
<stop offset="0.761" stop-color="#8D57ED" stop-opacity="0.12"/>
<stop offset="0.852" stop-color="#A068F3" stop-opacity="0.214"/>
<stop offset="0.939" stop-color="#B97EFB" stop-opacity="0.335"/>
<stop offset="0.978" stop-color="#C689FF" stop-opacity="0.4"/>
</radialGradient>
</defs>
</svg>
