<svg width="257" height="256" viewBox="0 0 257 256" fill="none" xmlns="http://www.w3.org/2000/svg">
<path d="M128 248C194.274 248 248 194.274 248 128C248 61.7258 194.274 8 128 8C61.7258 8 8 61.7258 8 128C8 194.274 61.7258 248 128 248Z" fill="#8000D7"/>
<path d="M213.094 97.5113C213.523 89.014 207.772 81.4352 199.472 79.5469C178.916 74.8777 157.389 80.6713 141.948 95.0308L139.305 97.4855C136.224 100.352 132.172 101.94 127.967 101.94C123.752 101.94 119.701 100.344 116.62 97.477L114.036 95.0737C98.5948 80.6884 77.0426 74.8863 56.469 79.5555H56.4518C48.1949 81.4438 42.4614 88.9883 42.8562 97.4684V97.5199C40.7362 105.888 44.0063 136.787 45.8603 141.645C49.5854 161.275 65.6271 176.038 84.8533 176.038C94.4577 176.038 103.153 172.201 110.028 166.073L114.216 162.485C121.95 155.868 133.322 155.773 141.159 162.271L147.459 167.472V167.446C154.085 172.776 162.205 176.038 171.097 176.038C190.323 176.038 206.365 161.275 210.09 141.645C211.944 136.779 215.334 106.008 213.094 97.5113ZM109.032 130.479C104.458 135.654 97.3588 138.985 89.3765 138.985C81.3943 138.985 74.2961 135.654 69.7213 130.479C67.318 127.767 67.318 123.492 69.7213 120.771C74.2961 115.596 81.3943 112.266 89.3765 112.266C97.3588 112.266 104.458 115.596 109.032 120.771C111.436 123.492 111.436 127.767 109.032 130.479ZM186.28 130.479C181.705 135.654 174.607 138.985 166.625 138.985C158.643 138.985 151.544 135.654 146.97 130.479C144.566 127.767 144.566 123.492 146.97 120.771C151.544 115.596 158.643 112.266 166.625 112.266C174.607 112.266 181.705 115.596 186.28 120.771C188.683 123.492 188.683 127.767 186.28 130.479Z" fill="white"/>
<path d="M164.55 236.099L175.272 244.353L180.417 233.582L164.55 236.099Z" fill="#3A1B73"/>
<path d="M195.123 153.477L218.497 152.768L204.104 142.338L195.123 153.477Z" fill="#0FBAE2"/>
<path d="M216.761 142.26L204.104 142.338L218.497 152.768L216.761 142.26Z" fill="#27C7D6"/>
<path d="M231.806 151.898L224.24 141.464L234.712 147.737L231.806 151.898Z" fill="#44DDCA"/>
<path d="M241.826 158.288L231.806 151.898L234.712 147.737L241.826 158.288Z" fill="#42D4CB"/>
<path d="M231.806 151.898L230.13 159.047L239.294 162.71L231.806 151.898Z" fill="#2AC4D5"/>
<path d="M231.806 151.898L241.826 158.288L239.294 162.71L231.806 151.898Z" fill="#3DC9CC"/>
<path d="M218.497 152.768L231.806 151.898L230.13 159.047L218.497 152.768Z" fill="#1EC4DC"/>
<path d="M218.497 152.768L207.981 162.287L221.515 168.916L218.497 152.768Z" fill="#00C9ED"/>
<path d="M195.123 153.477L218.497 152.768L207.981 162.287L195.123 153.477Z" fill="#00C2ED"/>
<path d="M230.13 159.047L236.494 171.391L239.294 162.71L230.13 159.047Z" fill="#28BAD5"/>
<path d="M236.494 171.391L239.294 162.71L245.962 178.572L236.494 171.391Z" fill="#2BABD4"/>
<path d="M239.294 162.71L249.456 170.154L245.962 178.572L239.294 162.71Z" fill="#39AFCD"/>
<path d="M241.826 158.288L243.787 157.304L249.457 170.154L241.826 158.288Z" fill="#35B9D0"/>
<path d="M249.457 170.154L251.721 172.277L243.787 157.304L249.457 170.154Z" fill="#47B4C6"/>
<path d="M249.456 170.154L241.826 158.288L239.294 162.71L249.456 170.154Z" fill="#36B6CF"/>
<path d="M234.712 147.737L241.826 158.288L243.787 157.304L234.712 147.737Z" fill="#45D5CA"/>
<path d="M253.985 188.677L251.721 172.277L254.495 181.484L253.948 188.677H253.985Z" fill="#44A0C4"/>
<path d="M249.456 170.154L253.985 188.677L251.72 172.277L249.456 170.154Z" fill="#47B4C6"/>
<path d="M245.962 178.572L253.985 188.677L249.456 170.154L245.962 178.572Z" fill="#3CA4C9"/>
<path d="M253.948 188.677L254.495 181.484L255.047 199.931L253.985 188.677H253.948Z" fill="#4782B9"/>
<path d="M252.641 203.256L255.047 199.931L253.985 188.677L252.641 203.256Z" fill="#477CB7"/>
<path d="M253.102 211.727L251.178 212.654L255.047 199.932L253.102 211.727Z" fill="#495FA9"/>
<path d="M251.178 212.654L255.047 199.932L252.64 203.256L251.178 212.654Z" fill="#4372B8"/>
<path d="M252.641 203.256L253.985 188.677L249.863 193.54L252.641 203.256Z" fill="#4184C1"/>
<path d="M251.177 212.654L252.64 203.256L244.689 216.618L251.177 212.654Z" fill="#485BAC"/>
<path d="M245.962 178.572L253.985 188.677L249.863 193.54L245.962 178.572Z" fill="#4192C3"/>
<path d="M252.641 203.256L249.863 193.54L245.672 205.508L252.641 203.256Z" fill="#4170BB"/>
<path d="M244.295 228.97L251.178 212.654L244.738 224.549L244.295 228.97Z" fill="#443E93"/>
<path d="M244.738 224.549L251.177 212.654L244.689 216.619L244.738 224.549Z" fill="#484DA3"/>
<path d="M251.178 212.654L244.295 228.97L253.102 211.727L251.178 212.654Z" fill="#4855A4"/>
<path d="M238.065 236.404L244.295 228.97L244.739 224.548L238.065 236.404Z" fill="#413587"/>
<path d="M230.031 243.258L238.065 236.403L229.574 240.309L230.031 243.258Z" fill="#351967"/>
<path d="M183.141 248.033L175.024 250.019L175.272 244.354L183.141 248.033Z" fill="#49278C"/>
<path d="M138.013 170.923L140.251 170.094L134.593 182.942L138.013 170.923Z" fill="#3C2679"/>
<path d="M134.593 182.942L138.876 182.145L140.251 170.094L134.593 182.942Z" fill="#392272"/>
<path d="M134.848 198.373L134.593 182.943L138.876 182.146L134.848 198.373Z" fill="#321762"/>
<path d="M230.13 159.047L221.516 168.916L236.495 171.391L230.13 159.047Z" fill="#09B7E4"/>
<path d="M154.955 148.925L165.951 141.4L156.138 146.278L154.955 148.925Z" fill="#466CB2"/>
<path d="M156.138 146.279L171.225 137.447L165.951 141.401L156.138 146.279Z" fill="#4294C3"/>
<path d="M165.951 141.401L179.728 134.833L171.225 137.447L165.951 141.401Z" fill="#4595C1"/>
<path d="M218.497 152.768L221.515 168.916L230.13 159.047L218.497 152.768Z" fill="#00C3E9"/>
<path d="M174.342 140.635L187.176 135.503L179.728 134.833L174.342 140.635Z" fill="#42A4C6"/>
<path d="M190.149 132.952L179.729 134.833L187.177 135.502L190.149 132.952Z" fill="#46B9C8"/>
<path d="M224.24 141.464L216.761 142.26L231.806 151.899L224.24 141.464Z" fill="#39D1CE"/>
<path d="M200.005 135.375L216.712 137.575L206.675 134.004L200.005 135.375Z" fill="#44D3CA"/>
<path d="M224.24 141.464L216.713 137.575L225.078 140.859L224.24 141.464Z" fill="#43E6C8"/>
<path d="M137.214 213.613L142.153 217.677L134.849 198.373L137.214 213.613Z" fill="#472888"/>
<path d="M205.38 252.001L209.722 241.777L193.898 246.029L205.38 252.001Z" fill="#3C1E76"/>
<path d="M209.723 241.778L222.95 245.449L223.753 235.219L209.723 241.778Z" fill="#351966"/>
<path d="M229.574 240.309L223.752 235.219L237.819 225.87L229.574 240.309Z" fill="#3E277F"/>
<path d="M225.078 140.858L224.24 141.464L234.714 147.738L225.078 140.858ZM216.761 142.26L224.24 141.464L216.713 137.575L216.761 142.26Z" fill="#3CD3CD"/>
<path d="M190.148 132.952L200.004 135.375L206.675 134.004L190.148 132.952Z" fill="#44BCC9"/>
<path d="M216.712 137.575L200.005 135.375L216.76 142.26L216.712 137.575Z" fill="#41D7CB"/>
<path d="M200.005 135.375L204.104 142.339L216.76 142.26L200.005 135.375Z" fill="#2FC5D1"/>
<path d="M200.005 135.375L204.104 142.339L190.451 141.239L200.005 135.375Z" fill="#34BDD0"/>
<path d="M187.176 135.502L190.451 141.239L200.005 135.375L187.176 135.502Z" fill="#3AB7CB"/>
<path d="M174.342 140.635L187.176 135.502L190.451 141.238L174.342 140.635Z" fill="#38A6CC"/>
<path d="M165.951 141.401L174.343 140.635L179.729 134.833L165.951 141.401Z" fill="#4294C3"/>
<path d="M174.342 140.635L183.05 148.582L190.451 141.239L174.342 140.635Z" fill="#2F97D2"/>
<path d="M174.342 140.635L160.165 153.93L165.951 141.4L174.342 140.635Z" fill="#4182C0"/>
<path d="M160.165 153.93L169.211 155.435L174.342 140.635L160.165 153.93Z" fill="#3477CA"/>
<path d="M169.211 155.435L174.342 140.635L183.051 148.582L169.211 155.435Z" fill="#2986D6"/>
<path d="M146.707 156.799L147.258 162.147L154.954 148.924L146.707 156.799Z" fill="#464D9F"/>
<path d="M140.25 170.094L146.707 156.799L147.258 162.147L140.25 170.094Z" fill="#463F96"/>
<path d="M147.259 162.147L154.955 148.924L160.165 153.93L147.259 162.147Z" fill="#465AB0"/>
<path d="M146.792 173.612L147.258 162.147L140.25 170.094L146.792 173.612Z" fill="#453895"/>
<path d="M146.793 173.612L147.259 162.147L156.354 169.532L146.793 173.612Z" fill="#4640A7"/>
<path d="M156.353 169.531L160.165 153.93L147.259 162.147L156.353 169.531Z" fill="#4452B6"/>
<path d="M156.354 169.531L160.165 153.93L169.211 155.435L156.354 169.531Z" fill="#3761C7"/>
<path d="M138.876 182.145L140.25 170.094L146.793 173.611L138.876 182.145Z" fill="#402C85"/>
<path d="M205.381 252.002L217.544 250.113L222.95 245.449L205.381 252.002Z" fill="#3C2378"/>
<path d="M133.953 201.179L134.848 198.373L134.593 182.942L133.953 201.179Z" fill="#442683"/>
<path d="M142.152 217.677L148.178 218.522L143.958 208.671L142.152 217.677Z" fill="#3D1D78"/>
<path d="M147.775 228.877L154.108 230.095L148.178 218.522L147.775 228.877Z" fill="#452386"/>
<path d="M137.214 213.613L144.406 227.769L142.153 217.678L137.214 213.613Z" fill="#4C2B8F"/>
<path d="M133.953 201.179L137.214 213.613L134.848 198.373L133.953 201.179Z" fill="#492C8B"/>
<path d="M148.177 218.523L142.152 217.678L147.775 228.878L148.177 218.523Z" fill="#422283"/>
<path d="M138.588 195.312L142.152 217.677L143.958 208.671L138.588 195.312Z" fill="#391B70"/>
<path d="M138.876 182.145L147.379 195.3L146.793 173.611L138.876 182.145Z" fill="#402685"/>
<path d="M138.588 195.312L143.958 208.671L147.378 195.3L138.588 195.312Z" fill="#341967"/>
<path d="M143.959 208.671L147.379 195.3L151.631 205.865L143.959 208.671Z" fill="#381B70"/>
<path d="M148.178 218.522L164.48 228.626L151.63 205.865L148.178 218.522Z" fill="#321762"/>
<path d="M144.406 227.769L147.775 228.878L142.152 217.678L144.406 227.769Z" fill="#502E95"/>
<path d="M180.417 233.582L175.271 244.353L193.898 246.029L180.417 233.582Z" fill="#38196F"/>
<path d="M223.752 235.219L222.949 245.449L229.574 240.309L223.752 235.219Z" fill="#381D70"/>
<path d="M138.588 195.313L147.378 195.3L138.875 182.146L138.588 195.313Z" fill="#371C6E"/>
<path d="M209.159 227.975L209.722 241.778L223.752 235.219L209.159 227.975Z" fill="#402588"/>
<path d="M209.159 227.975L218.188 219.797L223.752 235.219L209.159 227.975Z" fill="#4235A6"/>
<path d="M223.753 235.219L230.578 214.545L218.188 219.797L223.753 235.219Z" fill="#4339AD"/>
<path d="M237.819 225.87L223.752 235.219L230.577 214.545L237.819 225.87Z" fill="#42339D"/>
<path d="M140.25 170.094L146.707 156.799L138.013 170.923L140.25 170.094Z" fill="#3F2F82"/>
<path d="M240.042 186.549L245.671 205.508L249.863 193.54L240.042 186.549Z" fill="#367CC9"/>
<path d="M249.863 193.54L245.962 178.572L240.042 186.549L249.863 193.54Z" fill="#338CCD"/>
<path d="M230.578 214.545L245.672 205.508L231.043 198.995L230.578 214.545Z" fill="#2D60D0"/>
<path d="M230.577 214.545L216.898 200.721L218.188 219.797L230.577 214.545Z" fill="#275FD4"/>
<path d="M209.159 227.975L198.656 218.675L218.188 219.797L209.159 227.975Z" fill="#4043BB"/>
<path d="M148.178 218.522L151.631 205.865L143.959 208.671L148.178 218.522Z" fill="#321762"/>
<path d="M198.657 218.675L195.252 233.75L209.159 227.975L198.657 218.675Z" fill="#4630A4"/>
<path d="M195.251 233.75L198.656 218.675L176.916 221.759L195.251 233.75Z" fill="#4733AA"/>
<path d="M147.379 195.3L151.74 181.377L146.793 173.611L147.379 195.3Z" fill="#45309D"/>
<path d="M156.354 169.532L175.493 163.952L165.384 184.607L156.354 169.532Z" fill="#1F69DA"/>
<path d="M230.577 214.545L216.898 200.721L231.042 198.995L230.577 214.545Z" fill="#1C6EDB"/>
<path d="M245.672 205.508L240.042 186.549L231.043 198.995L245.672 205.508Z" fill="#2D70D2"/>
<path d="M218.188 219.797L202.545 204.669L216.899 200.721L218.188 219.797Z" fill="#1B6DDA"/>
<path d="M198.656 218.675L218.188 219.797L202.545 204.669L198.656 218.675Z" fill="#2C58CA"/>
<path d="M198.656 218.675L187.958 209.962L202.545 204.669L198.656 218.675Z" fill="#2C5ACD"/>
<path d="M154.954 148.925L156.137 146.278L146.707 156.799L154.954 148.925Z" fill="#4854A5"/>
<path d="M236.494 171.392L240.042 186.549L245.962 178.572L236.494 171.392Z" fill="#2B9CD4"/>
<path d="M156.353 169.532L165.383 184.607L151.74 181.377L156.353 169.532Z" fill="#3E46BF"/>
<path d="M151.74 181.377L165.383 184.607L156.157 199.142L151.74 181.377Z" fill="#423CB4"/>
<path d="M175.493 163.951L183.051 148.582L169.211 155.435L175.493 163.951Z" fill="#1E82DB"/>
<path d="M147.379 195.3L156.157 199.141L151.63 205.865L147.379 195.3Z" fill="#41248A"/>
<path d="M166.807 216.619L168.23 195.474L156.157 199.142L166.807 216.619Z" fill="#4438B0"/>
<path d="M166.807 216.619L187.958 209.962L168.23 195.474L166.807 216.619Z" fill="#3D46BF"/>
<path d="M187.958 209.962L185.897 193.613L168.229 195.473L187.958 209.962Z" fill="#1F67D8"/>
<path d="M185.896 193.614L200.816 188.034L202.545 204.669L185.896 193.614Z" fill="#0B87E6"/>
<path d="M176.916 221.758L198.656 218.675L187.958 209.962L176.916 221.758Z" fill="#3E46BF"/>
<path d="M176.916 221.758L166.807 216.619L187.958 209.962L176.916 221.758Z" fill="#4338AB"/>
<path d="M175.493 163.951L188.449 165.322L183.051 148.582L175.493 163.951Z" fill="#0493EA"/>
<path d="M195.123 153.477L183.051 148.582L188.449 165.322L195.123 153.477Z" fill="#01A1E9"/>
<path d="M195.124 153.477L207.981 162.288L188.449 165.322L195.124 153.477Z" fill="#00AEF1"/>
<path d="M188.449 165.322L207.608 175.484L200.816 188.034L188.449 165.322Z" fill="#00A9F0"/>
<path d="M207.608 175.484L207.981 162.288L188.449 165.322L207.608 175.484Z" fill="#00B6F6"/>
<path d="M207.608 175.484L207.981 162.288L221.515 168.916L207.608 175.484Z" fill="#00C1F7"/>
<path d="M188.449 165.322L200.817 188.034L179.125 177.167L188.449 165.322Z" fill="#0099EC"/>
<path d="M185.897 193.614L200.817 188.034L179.125 177.167L185.897 193.614Z" fill="#088CE8"/>
<path d="M200.816 188.033L219.948 184.539L207.608 175.483L200.816 188.033Z" fill="#00A9F1"/>
<path d="M221.515 168.916L219.948 184.539L207.608 175.483L221.515 168.916Z" fill="#00B3F5"/>
<path d="M221.515 168.916L230.545 181.181L219.947 184.539L221.515 168.916Z" fill="#00AAF1"/>
<path d="M236.495 171.391L221.516 168.916L230.546 181.181L236.495 171.391Z" fill="#01ADE8"/>
<path d="M160.166 153.93L165.951 141.4L154.955 148.925L160.166 153.93Z" fill="#456AB7"/>
<path d="M236.494 171.392L230.545 181.181L240.042 186.549L236.494 171.392Z" fill="#1498E1"/>
<path d="M231.042 198.995L240.042 186.549L230.545 181.181L231.042 198.995Z" fill="#128DE1"/>
<path d="M231.042 198.995L230.545 181.181L219.947 184.539L231.042 198.995Z" fill="#009AEA"/>
<path d="M156.354 169.531L175.493 163.952L169.211 155.435L156.354 169.531Z" fill="#2470D8"/>
<path d="M200.816 188.034L216.899 200.721L219.948 184.539L200.816 188.034Z" fill="#019BEC"/>
<path d="M202.545 204.669L216.899 200.721L200.816 188.034L202.545 204.669Z" fill="#0A8AE6"/>
<path d="M175.493 163.952L179.125 177.167L188.449 165.322L175.493 163.952Z" fill="#068DE8"/>
<path d="M175.493 163.952L165.384 184.607L179.125 177.167L175.493 163.952Z" fill="#1279E1"/>
<path d="M179.124 177.167L168.229 195.474L185.897 193.614L179.124 177.167Z" fill="#1675DF"/>
<path d="M185.897 193.614L187.958 209.962L202.545 204.669L185.897 193.614Z" fill="#1771DD"/>
<path d="M168.23 195.474L179.125 177.167L165.384 184.607L168.23 195.474Z" fill="#2164D6"/>
<path d="M156.157 199.142L165.384 184.607L168.23 195.474L156.157 199.142Z" fill="#4044BD"/>
<path d="M165.253 246.964L175.024 250.019L160.093 240.384L165.253 246.964Z" fill="#522F9A"/>
<path d="M164.549 236.099L180.417 233.582L164.48 228.626L164.549 236.099Z" fill="#331865"/>
<path d="M193.898 246.029L195.252 233.75L180.417 233.582L193.898 246.029Z" fill="#341867"/>
<path d="M209.723 241.777L205.381 252.001L222.95 245.448L209.723 241.777Z" fill="#371B6E"/>
<path d="M147.379 195.3L151.74 181.377L156.157 199.142L147.379 195.3Z" fill="#452A98"/>
<path d="M151.74 181.377L156.354 169.531L146.793 173.611L151.74 181.377Z" fill="#463CAB"/>
<path d="M219.947 184.539L216.898 200.721L231.042 198.995L219.947 184.539Z" fill="#088BE7"/>
<path d="M156.157 199.142L151.631 205.865L166.807 216.619L156.157 199.142Z" fill="#442590"/>
<path d="M151.631 205.865L164.481 228.626L166.807 216.619L151.631 205.865Z" fill="#3E1F80"/>
<path d="M176.916 221.758L166.806 216.619L164.48 228.626L176.916 221.758Z" fill="#3D207E"/>
<path d="M176.916 221.758L164.48 228.626L180.417 233.581L176.916 221.758Z" fill="#391D72"/>
<path d="M176.916 221.758L180.417 233.581L195.252 233.75L176.916 221.758Z" fill="#402284"/>
<path d="M195.252 233.75L193.898 246.029L209.722 241.777L195.252 233.75Z" fill="#361A68"/>
<path d="M195.252 233.75L209.722 241.778L209.159 227.975L195.252 233.75Z" fill="#412084"/>
<path d="M175.272 244.353L160.093 240.384L175.024 250.019L175.272 244.353Z" fill="#48278A"/>
<path d="M175.272 244.353L164.55 236.099L160.093 240.384L175.272 244.353Z" fill="#462587"/>
<path d="M193.898 246.029L194.133 253.786L205.38 252.002L193.898 246.029Z" fill="#432484"/>
<path d="M193.898 246.029L175.271 244.354L183.141 248.033L193.898 246.029Z" fill="#412280"/>
<path d="M193.898 246.029L183.141 248.033L194.133 253.786L193.898 246.029Z" fill="#432384"/>
<path d="M183.141 248.033L175.024 250.019L194.134 253.785L183.141 248.033Z" fill="#45278A"/>
<path d="M175.024 250.019L165.253 246.964L176.055 251.663L175.024 250.019Z" fill="#46298B"/>
<path d="M175.024 250.019L176.056 251.663L194.134 253.785L175.024 250.019Z" fill="#46298B"/>
<path d="M154.108 230.095L147.775 228.877L160.093 240.384L154.108 230.095Z" fill="#4A268D"/>
<path d="M147.775 228.878L144.406 227.769L149.479 234.606L147.775 228.878Z" fill="#4E2892"/>
<path d="M147.775 228.877L149.479 234.605L160.093 240.384L147.775 228.877Z" fill="#4E2893"/>
<path d="M149.479 234.605L165.253 246.964L160.093 240.384L149.479 234.605Z" fill="#4E2A93"/>
<path d="M149.479 234.605L156.493 241.037L165.253 246.964L149.479 234.605Z" fill="#4F2B94"/>
<path d="M148.178 218.522L154.108 230.095L164.48 228.626L148.178 218.522Z" fill="#3C1B75"/>
<path d="M154.107 230.096L164.549 236.099L164.48 228.626L154.107 230.096Z" fill="#3A1B72"/>
<path d="M154.107 230.096L160.092 240.385L164.549 236.099L154.107 230.096Z" fill="#451F86"/>
<path d="M194.133 253.785L203.572 254.048L205.38 252.001L194.133 253.785Z" fill="#442C87"/>
<path d="M203.572 254.048L217.543 250.113L205.38 252.001L203.572 254.048Z" fill="#442A86"/>
<path d="M244.69 216.619L230.578 214.544L237.82 225.87L244.69 216.619Z" fill="#4341A3"/>
<path d="M244.69 216.619L237.819 225.87L244.738 224.549L244.69 216.619Z" fill="#403696"/>
<path d="M229.574 240.309L238.065 236.404L244.738 224.548L229.574 240.309Z" fill="#3D287E"/>
<path d="M237.819 225.87L229.574 240.309L244.738 224.548L237.819 225.87Z" fill="#43338C"/>
<path d="M245.672 205.508L230.578 214.545L244.69 216.619L245.672 205.508Z" fill="#4259BA"/>
<path d="M245.671 205.507L244.689 216.619L252.64 203.256L245.671 205.507Z" fill="#4355B6"/>
<path d="M138.876 182.146L134.849 198.373L138.588 195.313L138.876 182.146Z" fill="#351966"/>
<path d="M134.849 198.373L142.153 217.677L138.588 195.312L134.849 198.373Z" fill="#3C2074"/>
<path d="M216.761 142.26L218.497 152.768L231.806 151.898L216.761 142.26Z" fill="#28C7D6"/>
<path d="M190.451 141.238L195.123 153.477L204.104 142.338L190.451 141.238Z" fill="#19AADD"/>
<path d="M190.452 141.238L183.051 148.582L195.124 153.477L190.452 141.238Z" fill="#1AA7DD"/>
<path d="M222.95 245.448L217.544 250.113L230.031 243.258L222.95 245.448Z" fill="#371E6D"/>
<path d="M229.574 240.309L222.949 245.448L230.031 243.258L229.574 240.309Z" fill="#321762"/>
<path d="M190.149 132.952L187.176 135.502L200.005 135.375L190.149 132.952Z" fill="#44BCC9"/>
<path d="M255.047 199.919V199.902V199.891L254.497 181.53V181.522V181.509C254.497 181.504 254.495 181.496 254.494 181.49C254.492 181.483 254.491 181.473 254.489 181.465V181.46L251.728 172.297V172.295C251.727 172.293 251.726 172.291 251.725 172.29C251.724 172.285 251.722 172.28 251.72 172.275C251.717 172.268 251.714 172.261 251.711 172.255C251.711 172.252 251.709 172.25 251.708 172.247L243.806 157.34C243.804 157.338 243.802 157.336 243.801 157.333C243.795 157.323 243.789 157.314 243.782 157.305L243.777 157.297L243.768 157.288C243.765 157.284 243.765 157.283 243.763 157.281L234.73 147.757L234.725 147.753L234.719 147.747C234.714 147.742 234.708 147.738 234.702 147.733C234.696 147.729 234.695 147.726 234.69 147.723H234.689L234.687 147.721L225.099 140.875L225.094 140.872L225.085 140.866C225.078 140.862 225.072 140.859 225.065 140.855C225.058 140.852 225.051 140.848 225.044 140.845L225.04 140.843L216.718 137.576L216.713 137.574H216.709L216.705 137.572H216.703L206.712 134.016C206.709 134.016 206.706 134.016 206.702 134.014C206.699 134.011 206.69 134.01 206.683 134.008L206.666 134.004C206.659 134.004 206.653 134.003 206.647 134.002C206.641 134.001 206.641 134.001 206.638 134.001L190.186 132.953H190.179C190.172 132.953 190.165 132.954 190.158 132.954C190.149 132.954 190.14 132.955 190.131 132.956H190.121L179.747 134.829L179.741 134.831C179.738 134.831 179.734 134.831 179.731 134.832L179.725 134.834C179.718 134.836 179.712 134.837 179.706 134.839L171.25 137.44H171.247C171.24 137.442 171.234 137.445 171.228 137.448C171.222 137.45 171.213 137.453 171.206 137.457C171.199 137.461 171.199 137.46 171.196 137.462L171.192 137.464L156.172 146.257L156.17 146.259L156.157 146.268C156.153 146.27 156.15 146.272 156.146 146.275C156.142 146.278 156.139 146.281 156.136 146.284C156.132 146.287 156.13 146.288 156.127 146.291C156.124 146.294 156.12 146.299 156.116 146.302C156.112 146.306 156.11 146.307 156.108 146.31L156.104 146.314L146.719 156.783C146.718 156.785 146.717 156.787 146.716 156.789L146.709 156.796L146.703 156.805C146.7 156.809 146.697 156.813 146.695 156.817C146.693 156.819 146.692 156.821 146.69 156.823L146.687 156.828L138.035 170.883C138.033 170.885 138.032 170.888 138.031 170.891C138.025 170.901 138.019 170.911 138.015 170.922C138.013 170.928 138.01 170.935 138.008 170.942C138.008 170.945 138.006 170.947 138.005 170.95L134.6 182.916V182.921C134.6 182.924 134.598 182.926 134.597 182.929V182.936C134.596 182.942 134.596 182.949 134.595 182.955C134.594 182.961 134.593 182.969 134.593 182.975V182.98L133.953 201.135V201.163C133.953 201.168 133.954 201.174 133.955 201.18C133.956 201.187 133.957 201.195 133.959 201.202C133.959 201.206 133.959 201.209 133.961 201.213L133.963 201.22L137.207 213.59L137.208 213.595C137.209 213.598 137.21 213.601 137.211 213.604C137.214 213.613 137.218 213.622 137.222 213.63C137.224 213.635 137.225 213.639 137.227 213.643V213.647L144.385 227.735L144.386 227.737C144.388 227.74 144.39 227.742 144.391 227.744C144.395 227.752 144.4 227.76 144.405 227.767C144.407 227.769 144.407 227.772 144.409 227.774L149.456 234.576L149.457 234.577L149.458 234.579L149.461 234.582L149.467 234.59C149.471 234.595 149.477 234.6 149.482 234.605C149.487 234.611 149.489 234.614 149.493 234.618L156.475 241.021C156.481 241.026 156.487 241.029 156.493 241.034C156.499 241.039 156.501 241.042 156.507 241.045L165.228 246.945C165.229 246.946 165.231 246.947 165.233 246.948H165.236C165.242 246.952 165.249 246.957 165.256 246.96L165.267 246.966L165.271 246.968L176.025 251.646C176.029 251.648 176.032 251.648 176.036 251.65C176.044 251.653 176.052 251.655 176.06 251.658L176.073 251.661C176.079 251.663 176.085 251.664 176.092 251.665C176.098 251.666 176.099 251.667 176.103 251.667L194.1 253.78H194.124L203.524 254.047H203.534C203.552 254.047 203.57 254.045 203.587 254.042C203.591 254.042 203.594 254.039 203.598 254.038H203.606L217.514 250.12C217.517 250.12 217.519 250.118 217.522 250.117C217.524 250.116 217.53 250.115 217.534 250.114C217.538 250.112 217.541 250.11 217.545 250.109L217.552 250.105C217.558 250.103 217.563 250.101 217.569 250.098H217.571L217.577 250.094L230 243.275L230.004 243.272L230.009 243.27C230.016 243.265 230.023 243.26 230.03 243.255C230.035 243.251 230.041 243.248 230.046 243.243L238.044 236.42C238.047 236.417 238.05 236.414 238.052 236.411C238.055 236.408 238.06 236.405 238.063 236.401L238.073 236.391L238.076 236.387L244.277 228.99V228.989L244.28 228.985C244.288 228.975 244.295 228.964 244.302 228.953C244.304 228.949 244.307 228.945 244.309 228.941L244.311 228.938L253.079 211.772C253.081 211.768 253.082 211.764 253.084 211.76C253.087 211.753 253.09 211.746 253.093 211.739C253.093 211.736 253.094 211.733 253.095 211.73C253.098 211.722 253.1 211.715 253.101 211.708C253.101 211.703 253.104 211.698 253.105 211.693L255.04 199.954V199.951C255.04 199.949 255.04 199.946 255.04 199.944C255.04 199.941 255.04 199.938 255.042 199.934C255.043 199.931 255.047 199.923 255.047 199.919ZM156.833 240.61L155.024 238.951L159.092 242.138L156.833 240.61ZM183.228 247.505L176.873 244.533L191.918 245.886L183.228 247.505ZM185.548 193.381L168.859 195.139L179.15 177.847L185.548 193.381ZM179.722 177.809L200.111 188.022L186.087 193.267L179.722 177.809ZM185.7 193.911L187.64 209.296L169.074 195.662L185.7 193.911ZM187.397 209.79L167.231 216.137L168.588 195.977L187.397 209.79ZM186.281 194.167L201.912 204.547L188.216 209.517L186.281 194.167ZM186.53 193.681L200.555 188.435L202.18 204.074L186.53 193.681ZM208.079 175.615L221.077 169.476L219.612 184.078L208.079 175.615ZM219.166 184.425L201.297 187.689L207.641 175.967L219.166 184.425ZM200.788 187.488L189.148 166.111L207.181 175.675L200.788 187.488ZM200.136 187.427L179.614 177.146L188.436 165.94L200.136 187.427ZM168.447 194.767L165.831 184.784L178.456 177.948L168.447 194.767ZM166.718 215.641L156.744 199.273L168.051 195.838L166.718 215.641ZM187.083 210.456L176.937 221.296L167.646 216.574L187.083 210.456ZM202.107 205.053L198.488 218.088L188.53 209.979L202.107 205.053ZM201.125 188.669L216.21 200.569L202.747 204.272L201.125 188.669ZM201.428 188.217L219.495 184.917L216.616 200.197L201.428 188.217ZM220.146 184.195L221.595 169.756L229.941 181.092L220.146 184.195ZM230.122 181.603L230.584 198.139L220.284 184.721L230.122 181.603ZM207.834 175.13L208.181 162.857L220.769 169.022L207.834 175.13ZM207.291 175.119L189.324 165.592L207.639 162.746L207.291 175.119ZM179.314 176.649L175.945 164.396L187.958 165.666L179.314 176.649ZM178.874 177.104L166.13 184.004L175.505 164.849L178.874 177.104ZM168.019 195.282L156.951 198.644L165.409 185.319L168.019 195.282ZM166.014 215.533L152.196 205.743L156.318 199.621L166.014 215.533ZM167.129 216.921L176.416 221.642L164.993 227.951L167.129 216.921ZM188.013 210.26L197.986 218.381L177.72 221.255L188.013 210.26ZM202.649 205.133L217.368 219.366L198.99 218.31L202.649 205.133ZM203.04 204.755L216.55 201.039L217.763 218.993L203.04 204.755ZM219.988 185.228L230.374 198.759L217.134 200.375L219.988 185.228ZM230.668 181.71L239.439 186.667L231.128 198.162L230.668 181.71ZM230.761 181.139L236.193 172.201L239.432 186.04L230.761 181.139ZM230.362 180.75L222.009 169.403L235.865 171.693L230.362 180.75ZM208.4 162.361L218.211 153.478L221.027 168.545L208.4 162.361ZM188.988 165.095L195.213 154.049L207.204 162.265L188.988 165.095ZM175.994 163.856L183.05 149.507L188.09 165.135L175.994 163.856ZM165.49 184.078L156.939 169.802L175.065 164.517L165.49 184.078ZM156.44 198.434L152.303 181.798L165.081 184.823L156.44 198.434ZM151.884 205.233L148.091 195.807L155.922 199.234L151.884 205.233ZM166.63 216.634L164.488 227.691L152.656 206.732L166.63 216.634ZM176.829 222.031L180.074 232.991L165.304 228.397L176.829 222.031ZM198.285 218.885L195.068 233.127L177.746 221.798L198.285 218.885ZM217.418 219.912L209.09 227.454L199.403 218.876L217.418 219.912ZM217.118 201.398L229.94 214.356L218.328 219.28L217.118 201.398ZM217.38 200.89L230.596 199.277L230.162 213.808L217.38 200.89ZM239.733 187.186L245.013 204.966L231.294 198.858L239.733 187.186ZM236.742 172.162L245.353 178.692L239.969 185.947L236.742 172.162ZM221.919 168.838L229.912 159.683L235.817 171.136L221.919 168.838ZM221.558 168.425L218.761 153.461L229.542 159.28L221.558 168.425ZM207.897 162.082L195.959 153.904L217.66 153.244L207.897 162.082ZM188.544 164.774L183.54 149.254L194.733 153.792L188.544 164.774ZM175.532 163.563L169.736 155.705L182.504 149.382L175.532 163.563ZM175.129 163.932L157.376 169.108L169.302 156.033L175.129 163.932ZM164.95 184.235L152.299 181.239L156.576 170.255L164.95 184.235ZM155.932 198.646L147.922 195.141L151.902 182.437L155.932 198.646ZM151.466 205.651L144.576 208.171L147.648 196.163L151.466 205.651ZM163.858 227.68L148.701 218.286L151.911 206.519L163.858 227.68ZM179.29 233.315L164.953 235.59L164.891 228.838L179.29 233.315ZM177.466 222.263L194.321 233.287L180.684 233.132L177.466 222.263ZM198.802 219.069L208.588 227.736L195.629 233.118L198.802 219.069ZM217.964 220.152L223.135 234.487L209.571 227.753L217.964 220.152ZM218.426 219.828L229.971 214.934L223.61 234.198L218.426 219.828ZM231.139 199.382L244.855 205.489L230.704 213.961L231.139 199.382ZM240.323 187.259L249.292 193.642L245.464 204.57L240.323 187.259ZM240.222 186.52L245.612 179.256L249.164 192.885L240.222 186.52ZM236.625 171.391L239.127 163.63L245.089 177.81L236.625 171.391ZM236.248 170.785L230.545 159.724L238.756 163.007L236.248 170.785ZM219.348 153.16L231.29 152.379L229.786 158.793L219.348 153.16ZM195.703 153.368L204.111 142.94L217.585 152.704L195.703 153.368ZM195.206 153.119L190.877 141.779L203.527 142.798L195.206 153.119ZM194.645 153.172L183.585 148.688L190.364 141.961L194.645 153.172ZM169.799 155.069L174.554 141.352L182.625 148.717L169.799 155.069ZM157.041 168.671L160.524 154.418L168.788 155.793L157.041 168.671ZM151.873 180.833L147.408 173.825L156.037 170.143L151.873 180.833ZM151.635 181.47L147.818 193.655L147.305 174.675L151.635 181.47ZM147.24 195.563L144.128 207.731L139.241 195.575L147.24 195.563ZM139.117 195.033L139.378 183.087L147.093 195.021L139.117 195.033ZM151.422 206.245L148.328 217.586L144.549 208.759L151.422 206.245ZM163.836 228.304L154.443 229.635L149.073 219.155L163.836 228.304ZM164.346 228.78L164.407 235.435L155.108 230.088L164.346 228.78ZM180.012 233.75L175.257 243.704L165.35 236.076L180.012 233.75ZM180.566 233.851L193.131 245.451L175.772 243.888L180.566 233.851ZM181.183 233.68L194.945 233.836L193.689 245.227L181.183 233.68ZM208.837 228.219L209.362 241.088L195.871 233.604L208.837 228.219ZM209.384 228.266L222.996 235.023L209.909 241.141L209.384 228.266ZM230.495 215.078L237.252 225.646L224.125 234.369L230.495 215.078ZM230.965 214.805L243.976 216.717L237.642 225.246L230.965 214.805ZM231.208 214.292L245.124 205.96L244.219 216.205L231.208 214.292ZM249.588 194.437L252.046 203.035L245.879 205.027L249.588 194.437ZM246.319 179.816L253.367 188.693L249.746 192.966L246.319 179.816ZM239.723 163.647L248.877 170.352L245.729 177.934L239.723 163.647ZM230.288 159.037L231.763 152.743L238.355 162.262L230.288 159.037ZM218.618 152.665L217.028 143.048L230.797 151.869L218.618 152.665ZM218.014 152.344L204.891 142.835L216.43 142.763L218.014 152.344ZM191.32 141.27L199.886 136.012L203.562 142.256L191.32 141.27ZM183.094 148.41L175.163 141.172L189.835 141.721L183.094 148.41ZM169.143 155.301L160.906 153.93L173.816 141.824L169.143 155.301ZM156.362 169.158L147.934 162.315L159.895 154.7L156.362 169.158ZM156.004 169.566L147.296 173.282L147.721 162.841L156.004 169.566ZM147.292 194.33L139.468 182.226L146.753 174.374L147.292 194.33ZM143.903 208.629L142.418 216.034L139.488 197.648L143.903 208.629ZM144.28 209.514L147.947 218.074L142.71 217.34L144.28 209.514ZM153.793 229.56L148.265 228.496L148.617 219.458L153.793 229.56ZM164.235 235.962L160.308 239.738L155.034 230.673L164.235 235.962ZM164.703 236.265L174.133 243.524L160.784 240.033L164.703 236.265ZM195.474 234.005L208.936 241.473L194.214 245.428L195.474 234.005ZM223.313 235.474L222.576 244.865L210.433 241.496L223.313 235.474ZM236.821 226.585L229.346 239.676L224.067 235.062L236.821 226.585ZM244.198 217.33L244.24 224.185L238.258 225.327L244.198 217.33ZM245.697 205.657L251.778 203.692L244.84 215.352L245.697 205.657ZM249.916 193.605L253.368 189.532L252.242 201.742L249.916 193.605ZM246.043 178.595L249.143 171.129L253.159 187.558L246.043 178.595ZM239.449 162.773L241.626 158.97L248.19 169.175L239.449 162.773ZM239.071 162.34L232.629 153.04L241.249 158.536L239.071 162.34ZM217.457 142.678L223.978 141.984L230.575 151.082L217.457 142.678ZM204.217 142.296L200.625 136.193L215.308 142.227L204.217 142.296ZM190.567 141.096L187.674 136.029L199.004 135.917L190.567 141.096ZM189.992 141.184L175.722 140.65L187.09 136.103L189.992 141.184ZM161.15 152.956L166.26 141.89L173.671 141.215L161.15 152.956ZM160.232 153.648L155.561 149.16L165.419 142.415L160.232 153.648ZM159.882 154.064L148.268 161.459L155.193 149.56L159.882 154.064ZM146.753 173.256L140.924 170.122L147.168 163.042L146.753 173.256ZM146.569 173.774L139.489 181.405L140.718 170.628L146.569 173.774ZM138.57 195.174L135.577 197.623L138.799 184.635L138.57 195.174ZM138.645 195.814L141.7 214.984L135.439 198.437L138.645 195.814ZM148.105 218.644L147.754 227.653L142.862 217.909L148.105 218.644ZM154.116 230.174L159.085 238.715L148.858 229.162L154.116 230.174ZM175.077 244.33L174.861 249.279L161.819 240.864L175.077 244.33ZM175.612 244.542L182.38 247.706L175.399 249.415L175.612 244.542ZM193.639 246.116L193.849 253.057L184.013 247.91L193.639 246.116ZM209.186 241.966L205.196 251.361L194.645 245.873L209.186 241.966ZM209.811 241.884L221.945 245.251L205.828 251.264L209.811 241.884ZM223.849 235.59L228.99 240.085L223.141 244.623L223.849 235.59ZM237.799 225.966L243.725 224.834L230.737 238.333L237.799 225.966ZM244.777 223.346L244.737 216.665L250.205 213.324L244.777 223.346ZM245.258 215.71L251.894 204.557L250.673 212.401L245.258 215.71ZM253.72 191.625L254.494 199.825L252.74 202.248L253.72 191.625ZM249.69 171.081L251.208 172.504L252.724 183.489L249.69 171.081ZM242.005 158.554L243.432 157.838L247.558 167.187L242.005 158.554ZM232.023 152.009L234.527 148.423L240.658 157.515L232.023 152.009ZM231.634 151.617L225.105 142.613L234.142 148.027L231.634 151.617ZM216.929 142.189L216.889 138.275L223.178 141.525L216.929 142.189ZM216.384 142.083L202.01 136.177L216.343 138.064L216.384 142.083ZM187.951 135.485L190.24 133.521L197.828 135.386L187.951 135.485ZM175.453 140.172L179.903 135.378L186.055 135.931L175.453 140.172ZM174.304 140.612L167.565 141.226L178.629 135.953L174.304 140.612ZM155.773 148.358L156.518 146.691L162.702 143.617L155.773 148.358ZM147.656 161.431L147.206 157.069L153.933 150.646L147.656 161.431ZM147.188 162.198L141.61 168.523L146.75 157.942L147.188 162.198ZM138.878 181.966L135.317 182.629L140.021 171.948L138.878 181.966ZM138.76 182.54L135.354 196.266L135.137 183.214L138.76 182.54ZM141.772 216.71L137.724 213.378L135.784 200.886L141.772 216.71ZM147.448 228.256L144.863 227.405L143.133 219.659L147.448 228.256ZM158.5 238.913L149.909 234.236L148.53 229.599L158.5 238.913ZM160.067 240.384L163.787 245.127L152.417 236.219L160.067 240.384ZM161.459 241.278L173.286 248.909L165.547 246.49L161.459 241.278ZM183.157 248.075L192.348 252.885L176.37 249.736L183.157 248.075ZM194.187 246.247L204.476 251.599L194.397 253.198L194.187 246.247ZM221.499 245.998L217.321 249.602L207.922 251.061L221.499 245.998ZM229.219 240.595L229.567 242.843L224.167 244.513L229.219 240.595ZM243.23 226.134L237.677 236.001L230.608 239.252L243.23 226.134ZM244.779 224.49L248.497 217.621L244.522 227.045L244.779 224.49ZM252.639 203.318L254.043 201.378L251.786 208.8L252.639 203.318ZM253.99 188.678V188.666V188.662L253.97 188.518L254.11 186.679L254.252 191.44L253.99 188.678ZM253.617 185.97L252.211 175.793L253.951 181.567L253.617 185.97ZM249.436 170.099L246.873 164.289L250.462 171.06L249.436 170.099ZM241.705 158.097L236.584 150.502L243.117 157.389L241.705 158.097ZM224.599 141.677L224.941 141.429L228.877 144.24L224.599 141.677ZM224.082 141.38L221.421 140.005L224.379 141.166L224.082 141.38ZM201.613 135.577L206.601 134.552L214.107 137.222L201.613 135.577ZM199.986 135.358L193.194 133.688L204.583 134.413L199.986 135.358ZM187.119 135.482L181.822 135.006L189.234 133.668L187.119 135.482ZM168.424 140.216L171.455 137.944L176.342 136.442L168.424 140.216ZM165.936 141.403L163.307 142.709L167.349 140.344L165.936 141.403ZM154.905 148.966L151.787 151.945L155.353 147.965L154.905 148.966ZM140.297 169.983L138.91 170.496L144.298 161.744L140.297 169.983ZM138.49 171.231L139.987 170.676L136.203 179.27L138.49 171.231ZM134.764 193.528L134.843 198.311L134.566 199.181L134.764 193.528ZM135.024 199.534L136.389 208.325L134.509 201.153L135.024 199.534ZM142.142 217.719L143.895 225.565L138.302 214.558L142.142 217.719ZM147.764 228.931L148.981 233.021L145.359 228.139L147.764 228.931ZM174.934 249.994L175.442 250.803L170.125 248.491L174.934 249.994ZM176.299 251.148L175.675 250.153L187.24 252.432L176.299 251.148ZM204.628 252.125L203.412 253.501L197.064 253.324L204.628 252.125ZM205.471 251.991L213.039 250.816L204.348 253.264L205.471 251.991ZM222.957 245.457L227.395 244.084L219.569 248.381L222.957 245.457ZM230.066 242.511L229.717 240.259L236.202 237.276L230.066 242.511ZM244.113 225.673L243.809 228.701L239.544 233.79L244.113 225.673ZM251.135 212.767L252.23 212.239L247.214 222.06L251.135 212.767ZM252.594 211.462L251.364 212.055L253.837 203.923L252.594 211.462Z" fill="url(#paint0_radial_3692_1609)"/>
<path d="M255.047 199.919V199.902V199.891L254.497 181.53V181.522V181.509C254.497 181.504 254.495 181.496 254.494 181.49C254.492 181.483 254.491 181.473 254.489 181.465V181.46L251.728 172.297V172.295C251.727 172.293 251.726 172.291 251.725 172.29C251.724 172.285 251.722 172.28 251.72 172.275C251.717 172.268 251.714 172.261 251.711 172.255C251.711 172.252 251.709 172.25 251.708 172.247L243.806 157.34C243.804 157.338 243.802 157.336 243.801 157.333C243.795 157.323 243.789 157.314 243.782 157.305L243.777 157.297L243.768 157.288C243.765 157.284 243.765 157.283 243.763 157.281L234.73 147.757L234.725 147.753L234.719 147.747C234.714 147.742 234.708 147.738 234.702 147.733C234.696 147.729 234.695 147.726 234.69 147.723H234.689L234.687 147.721L225.099 140.875L225.094 140.872L225.085 140.866C225.078 140.862 225.072 140.859 225.065 140.855C225.058 140.852 225.051 140.848 225.044 140.845L225.04 140.843L216.718 137.576L216.713 137.574H216.709L216.705 137.572H216.703L206.712 134.016C206.709 134.016 206.706 134.016 206.702 134.014C206.699 134.011 206.69 134.01 206.683 134.008L206.666 134.004C206.659 134.004 206.653 134.003 206.647 134.002C206.641 134.001 206.641 134.001 206.638 134.001L190.186 132.953H190.179C190.172 132.953 190.165 132.954 190.158 132.954C190.149 132.954 190.14 132.955 190.131 132.956H190.121L179.747 134.829L179.741 134.831C179.738 134.831 179.734 134.831 179.731 134.832L179.725 134.834C179.718 134.836 179.712 134.837 179.706 134.839L171.25 137.44H171.247C171.24 137.442 171.234 137.445 171.228 137.448C171.222 137.45 171.213 137.453 171.206 137.457C171.199 137.461 171.199 137.46 171.196 137.462L171.192 137.464L156.172 146.257L156.17 146.259L156.157 146.268C156.153 146.27 156.15 146.272 156.146 146.275C156.142 146.278 156.139 146.281 156.136 146.284C156.132 146.287 156.13 146.288 156.127 146.291C156.124 146.294 156.12 146.299 156.116 146.302C156.112 146.306 156.11 146.307 156.108 146.31L156.104 146.314L146.719 156.783C146.718 156.785 146.717 156.787 146.716 156.789L146.709 156.796L146.703 156.805C146.7 156.809 146.697 156.813 146.695 156.817C146.693 156.819 146.692 156.821 146.69 156.823L146.687 156.828L138.035 170.883C138.033 170.885 138.032 170.888 138.031 170.891C138.025 170.901 138.019 170.911 138.015 170.922C138.013 170.928 138.01 170.935 138.008 170.942C138.008 170.945 138.006 170.947 138.005 170.95L134.6 182.916V182.921C134.6 182.924 134.598 182.926 134.597 182.929V182.936C134.596 182.942 134.596 182.949 134.595 182.955C134.594 182.961 134.593 182.969 134.593 182.975V182.98L133.953 201.135V201.163C133.953 201.168 133.954 201.174 133.955 201.18C133.956 201.187 133.957 201.195 133.959 201.202C133.959 201.206 133.959 201.209 133.961 201.213L133.963 201.22L137.207 213.59L137.208 213.595C137.209 213.598 137.21 213.601 137.211 213.604C137.214 213.613 137.218 213.622 137.222 213.63C137.224 213.635 137.225 213.639 137.227 213.643V213.647L144.385 227.735L144.386 227.737C144.388 227.74 144.39 227.742 144.391 227.744C144.395 227.752 144.4 227.76 144.405 227.767C144.407 227.769 144.407 227.772 144.409 227.774L149.456 234.576L149.457 234.577L149.458 234.579L149.461 234.582L149.467 234.59C149.471 234.595 149.477 234.6 149.482 234.605C149.487 234.611 149.489 234.614 149.493 234.618L156.475 241.021C156.481 241.026 156.487 241.029 156.493 241.034C156.499 241.039 156.501 241.042 156.507 241.045L165.228 246.945C165.229 246.946 165.231 246.947 165.233 246.948H165.236C165.242 246.952 165.249 246.957 165.256 246.96L165.267 246.966L165.271 246.968L176.025 251.646C176.029 251.648 176.032 251.648 176.036 251.65C176.044 251.653 176.052 251.655 176.06 251.658L176.073 251.661C176.079 251.663 176.085 251.664 176.092 251.665C176.098 251.666 176.099 251.667 176.103 251.667L194.1 253.78H194.124L203.524 254.047H203.534C203.552 254.047 203.57 254.045 203.587 254.042C203.591 254.042 203.594 254.039 203.598 254.038H203.606L217.514 250.12C217.517 250.12 217.519 250.118 217.522 250.117C217.524 250.116 217.53 250.115 217.534 250.114C217.538 250.112 217.541 250.11 217.545 250.109L217.552 250.105C217.558 250.103 217.563 250.101 217.569 250.098H217.571L217.577 250.094L230 243.275L230.004 243.272L230.009 243.27C230.016 243.265 230.023 243.26 230.03 243.255C230.035 243.251 230.041 243.248 230.046 243.243L238.044 236.42C238.047 236.417 238.05 236.414 238.052 236.411C238.055 236.408 238.06 236.405 238.063 236.401L238.073 236.391L238.076 236.387L244.277 228.99V228.989L244.28 228.985C244.288 228.975 244.295 228.964 244.302 228.953C244.304 228.949 244.307 228.945 244.309 228.941L244.311 228.938L253.079 211.772C253.081 211.768 253.082 211.764 253.084 211.76C253.087 211.753 253.09 211.746 253.093 211.739C253.093 211.736 253.094 211.733 253.095 211.73C253.098 211.722 253.1 211.715 253.101 211.708C253.101 211.703 253.104 211.698 253.105 211.693L255.04 199.954V199.951C255.04 199.949 255.04 199.946 255.04 199.944C255.04 199.941 255.04 199.938 255.042 199.934C255.043 199.931 255.047 199.923 255.047 199.919ZM156.833 240.61L155.024 238.951L159.092 242.138L156.833 240.61ZM183.228 247.505L176.873 244.533L191.918 245.886L183.228 247.505ZM185.548 193.381L168.859 195.139L179.15 177.847L185.548 193.381ZM179.722 177.809L200.111 188.022L186.087 193.267L179.722 177.809ZM185.7 193.911L187.64 209.296L169.074 195.662L185.7 193.911ZM187.397 209.79L167.231 216.137L168.588 195.977L187.397 209.79ZM186.281 194.167L201.912 204.547L188.216 209.517L186.281 194.167ZM186.53 193.681L200.555 188.435L202.18 204.074L186.53 193.681ZM208.079 175.615L221.077 169.476L219.612 184.078L208.079 175.615ZM219.166 184.425L201.297 187.689L207.641 175.967L219.166 184.425ZM200.788 187.488L189.148 166.111L207.181 175.675L200.788 187.488ZM200.136 187.427L179.614 177.146L188.436 165.94L200.136 187.427ZM168.447 194.767L165.831 184.784L178.456 177.948L168.447 194.767ZM166.718 215.641L156.744 199.273L168.051 195.838L166.718 215.641ZM187.083 210.456L176.937 221.296L167.646 216.574L187.083 210.456ZM202.107 205.053L198.488 218.088L188.53 209.979L202.107 205.053ZM201.125 188.669L216.21 200.569L202.747 204.272L201.125 188.669ZM201.428 188.217L219.495 184.917L216.616 200.197L201.428 188.217ZM220.146 184.195L221.595 169.756L229.941 181.092L220.146 184.195ZM230.122 181.603L230.584 198.139L220.284 184.721L230.122 181.603ZM207.834 175.13L208.181 162.857L220.769 169.022L207.834 175.13ZM207.291 175.119L189.324 165.592L207.639 162.746L207.291 175.119ZM179.314 176.649L175.945 164.396L187.958 165.666L179.314 176.649ZM178.874 177.104L166.13 184.004L175.505 164.849L178.874 177.104ZM168.019 195.282L156.951 198.644L165.409 185.319L168.019 195.282ZM166.014 215.533L152.196 205.743L156.318 199.621L166.014 215.533ZM167.129 216.921L176.416 221.642L164.993 227.951L167.129 216.921ZM188.013 210.26L197.986 218.381L177.72 221.255L188.013 210.26ZM202.649 205.133L217.368 219.366L198.99 218.31L202.649 205.133ZM203.04 204.755L216.55 201.039L217.763 218.993L203.04 204.755ZM219.988 185.228L230.374 198.759L217.134 200.375L219.988 185.228ZM230.668 181.71L239.439 186.667L231.128 198.162L230.668 181.71ZM230.761 181.139L236.193 172.201L239.432 186.04L230.761 181.139ZM230.362 180.75L222.009 169.403L235.865 171.693L230.362 180.75ZM208.4 162.361L218.211 153.478L221.027 168.545L208.4 162.361ZM188.988 165.095L195.213 154.049L207.204 162.265L188.988 165.095ZM175.994 163.856L183.05 149.507L188.09 165.135L175.994 163.856ZM165.49 184.078L156.939 169.802L175.065 164.517L165.49 184.078ZM156.44 198.434L152.303 181.798L165.081 184.823L156.44 198.434ZM151.884 205.233L148.091 195.807L155.922 199.234L151.884 205.233ZM166.63 216.634L164.488 227.691L152.656 206.732L166.63 216.634ZM176.829 222.031L180.074 232.991L165.304 228.397L176.829 222.031ZM198.285 218.885L195.068 233.127L177.746 221.798L198.285 218.885ZM217.418 219.912L209.09 227.454L199.403 218.876L217.418 219.912ZM217.118 201.398L229.94 214.356L218.328 219.28L217.118 201.398ZM217.38 200.89L230.596 199.277L230.162 213.808L217.38 200.89ZM239.733 187.186L245.013 204.966L231.294 198.858L239.733 187.186ZM236.742 172.162L245.353 178.692L239.969 185.947L236.742 172.162ZM221.919 168.838L229.912 159.683L235.817 171.136L221.919 168.838ZM221.558 168.425L218.761 153.461L229.542 159.28L221.558 168.425ZM207.897 162.082L195.959 153.904L217.66 153.244L207.897 162.082ZM188.544 164.774L183.54 149.254L194.733 153.792L188.544 164.774ZM175.532 163.563L169.736 155.705L182.504 149.382L175.532 163.563ZM175.129 163.932L157.376 169.108L169.302 156.033L175.129 163.932ZM164.95 184.235L152.299 181.239L156.576 170.255L164.95 184.235ZM155.932 198.646L147.922 195.141L151.902 182.437L155.932 198.646ZM151.466 205.651L144.576 208.171L147.648 196.163L151.466 205.651ZM163.858 227.68L148.701 218.286L151.911 206.519L163.858 227.68ZM179.29 233.315L164.953 235.59L164.891 228.838L179.29 233.315ZM177.466 222.263L194.321 233.287L180.684 233.132L177.466 222.263ZM198.802 219.069L208.588 227.736L195.629 233.118L198.802 219.069ZM217.964 220.152L223.135 234.487L209.571 227.753L217.964 220.152ZM218.426 219.828L229.971 214.934L223.61 234.198L218.426 219.828ZM231.139 199.382L244.855 205.489L230.704 213.961L231.139 199.382ZM240.323 187.259L249.292 193.642L245.464 204.57L240.323 187.259ZM240.222 186.52L245.612 179.256L249.164 192.885L240.222 186.52ZM236.625 171.391L239.127 163.63L245.089 177.81L236.625 171.391ZM236.248 170.785L230.545 159.724L238.756 163.007L236.248 170.785ZM219.348 153.16L231.29 152.379L229.786 158.793L219.348 153.16ZM195.703 153.368L204.111 142.94L217.585 152.704L195.703 153.368ZM195.206 153.119L190.877 141.779L203.527 142.798L195.206 153.119ZM194.645 153.172L183.585 148.688L190.364 141.961L194.645 153.172ZM169.799 155.069L174.554 141.352L182.625 148.717L169.799 155.069ZM157.041 168.671L160.524 154.418L168.788 155.793L157.041 168.671ZM151.873 180.833L147.408 173.825L156.037 170.143L151.873 180.833ZM151.635 181.47L147.818 193.655L147.305 174.675L151.635 181.47ZM147.24 195.563L144.128 207.731L139.241 195.575L147.24 195.563ZM139.117 195.033L139.378 183.087L147.093 195.021L139.117 195.033ZM151.422 206.245L148.328 217.586L144.549 208.759L151.422 206.245ZM163.836 228.304L154.443 229.635L149.073 219.155L163.836 228.304ZM164.346 228.78L164.407 235.435L155.108 230.088L164.346 228.78ZM180.012 233.75L175.257 243.704L165.35 236.076L180.012 233.75ZM180.566 233.851L193.131 245.451L175.772 243.888L180.566 233.851ZM181.183 233.68L194.945 233.836L193.689 245.227L181.183 233.68ZM208.837 228.219L209.362 241.088L195.871 233.604L208.837 228.219ZM209.384 228.266L222.996 235.023L209.909 241.141L209.384 228.266ZM230.495 215.078L237.252 225.646L224.125 234.369L230.495 215.078ZM230.965 214.805L243.976 216.717L237.642 225.246L230.965 214.805ZM231.208 214.292L245.124 205.96L244.219 216.205L231.208 214.292ZM249.588 194.437L252.046 203.035L245.879 205.027L249.588 194.437ZM246.319 179.816L253.367 188.693L249.746 192.966L246.319 179.816ZM239.723 163.647L248.877 170.352L245.729 177.934L239.723 163.647ZM230.288 159.037L231.763 152.743L238.355 162.262L230.288 159.037ZM218.618 152.665L217.028 143.048L230.797 151.869L218.618 152.665ZM218.014 152.344L204.891 142.835L216.43 142.763L218.014 152.344ZM191.32 141.27L199.886 136.012L203.562 142.256L191.32 141.27ZM183.094 148.41L175.163 141.172L189.835 141.721L183.094 148.41ZM169.143 155.301L160.906 153.93L173.816 141.824L169.143 155.301ZM156.362 169.158L147.934 162.315L159.895 154.7L156.362 169.158ZM156.004 169.566L147.296 173.282L147.721 162.841L156.004 169.566ZM147.292 194.33L139.468 182.226L146.753 174.374L147.292 194.33ZM143.903 208.629L142.418 216.034L139.488 197.648L143.903 208.629ZM144.28 209.514L147.947 218.074L142.71 217.34L144.28 209.514ZM153.793 229.56L148.265 228.496L148.617 219.458L153.793 229.56ZM164.235 235.962L160.308 239.738L155.034 230.673L164.235 235.962ZM164.703 236.265L174.133 243.524L160.784 240.033L164.703 236.265ZM195.474 234.005L208.936 241.473L194.214 245.428L195.474 234.005ZM223.313 235.474L222.576 244.865L210.433 241.496L223.313 235.474ZM236.821 226.585L229.346 239.676L224.067 235.062L236.821 226.585ZM244.198 217.33L244.24 224.185L238.258 225.327L244.198 217.33ZM245.697 205.657L251.778 203.692L244.84 215.352L245.697 205.657ZM249.916 193.605L253.368 189.532L252.242 201.742L249.916 193.605ZM246.043 178.595L249.143 171.129L253.159 187.558L246.043 178.595ZM239.449 162.773L241.626 158.97L248.19 169.175L239.449 162.773ZM239.071 162.34L232.629 153.04L241.249 158.536L239.071 162.34ZM217.457 142.678L223.978 141.984L230.575 151.082L217.457 142.678ZM204.217 142.296L200.625 136.193L215.308 142.227L204.217 142.296ZM190.567 141.096L187.674 136.029L199.004 135.917L190.567 141.096ZM189.992 141.184L175.722 140.65L187.09 136.103L189.992 141.184ZM161.15 152.956L166.26 141.89L173.671 141.215L161.15 152.956ZM160.232 153.648L155.561 149.16L165.419 142.415L160.232 153.648ZM159.882 154.064L148.268 161.459L155.193 149.56L159.882 154.064ZM146.753 173.256L140.924 170.122L147.168 163.042L146.753 173.256ZM146.569 173.774L139.489 181.405L140.718 170.628L146.569 173.774ZM138.57 195.174L135.577 197.623L138.799 184.635L138.57 195.174ZM138.645 195.814L141.7 214.984L135.439 198.437L138.645 195.814ZM148.105 218.644L147.754 227.653L142.862 217.909L148.105 218.644ZM154.116 230.174L159.085 238.715L148.858 229.162L154.116 230.174ZM175.077 244.33L174.861 249.279L161.819 240.864L175.077 244.33ZM175.612 244.542L182.38 247.706L175.399 249.415L175.612 244.542ZM193.639 246.116L193.849 253.057L184.013 247.91L193.639 246.116ZM209.186 241.966L205.196 251.361L194.645 245.873L209.186 241.966ZM209.811 241.884L221.945 245.251L205.828 251.264L209.811 241.884ZM223.849 235.59L228.99 240.085L223.141 244.623L223.849 235.59ZM237.799 225.966L243.725 224.834L230.737 238.333L237.799 225.966ZM244.777 223.346L244.737 216.665L250.205 213.324L244.777 223.346ZM245.258 215.71L251.894 204.557L250.673 212.401L245.258 215.71ZM253.72 191.625L254.494 199.825L252.74 202.248L253.72 191.625ZM249.69 171.081L251.208 172.504L252.724 183.489L249.69 171.081ZM242.005 158.554L243.432 157.838L247.558 167.187L242.005 158.554ZM232.023 152.009L234.527 148.423L240.658 157.515L232.023 152.009ZM231.634 151.617L225.105 142.613L234.142 148.027L231.634 151.617ZM216.929 142.189L216.889 138.275L223.178 141.525L216.929 142.189ZM216.384 142.083L202.01 136.177L216.343 138.064L216.384 142.083ZM187.951 135.485L190.24 133.521L197.828 135.386L187.951 135.485ZM175.453 140.172L179.903 135.378L186.055 135.931L175.453 140.172ZM174.304 140.612L167.565 141.226L178.629 135.953L174.304 140.612ZM155.773 148.358L156.518 146.691L162.702 143.617L155.773 148.358ZM147.656 161.431L147.206 157.069L153.933 150.646L147.656 161.431ZM147.188 162.198L141.61 168.523L146.75 157.942L147.188 162.198ZM138.878 181.966L135.317 182.629L140.021 171.948L138.878 181.966ZM138.76 182.54L135.354 196.266L135.137 183.214L138.76 182.54ZM141.772 216.71L137.724 213.378L135.784 200.886L141.772 216.71ZM147.448 228.256L144.863 227.405L143.133 219.659L147.448 228.256ZM158.5 238.913L149.909 234.236L148.53 229.599L158.5 238.913ZM160.067 240.384L163.787 245.127L152.417 236.219L160.067 240.384ZM161.459 241.278L173.286 248.909L165.547 246.49L161.459 241.278ZM183.157 248.075L192.348 252.885L176.37 249.736L183.157 248.075ZM194.187 246.247L204.476 251.599L194.397 253.198L194.187 246.247ZM221.499 245.998L217.321 249.602L207.922 251.061L221.499 245.998ZM229.219 240.595L229.567 242.843L224.167 244.513L229.219 240.595ZM243.23 226.134L237.677 236.001L230.608 239.252L243.23 226.134ZM244.779 224.49L248.497 217.621L244.522 227.045L244.779 224.49ZM252.639 203.318L254.043 201.378L251.786 208.8L252.639 203.318ZM253.99 188.678V188.666V188.662L253.97 188.518L254.11 186.679L254.252 191.44L253.99 188.678ZM253.617 185.97L252.211 175.793L253.951 181.567L253.617 185.97ZM249.436 170.099L246.873 164.289L250.462 171.06L249.436 170.099ZM241.705 158.097L236.584 150.502L243.117 157.389L241.705 158.097ZM224.599 141.677L224.941 141.429L228.877 144.24L224.599 141.677ZM224.082 141.38L221.421 140.005L224.379 141.166L224.082 141.38ZM201.613 135.577L206.601 134.552L214.107 137.222L201.613 135.577ZM199.986 135.358L193.194 133.688L204.583 134.413L199.986 135.358ZM187.119 135.482L181.822 135.006L189.234 133.668L187.119 135.482ZM168.424 140.216L171.455 137.944L176.342 136.442L168.424 140.216ZM165.936 141.403L163.307 142.709L167.349 140.344L165.936 141.403ZM154.905 148.966L151.787 151.945L155.353 147.965L154.905 148.966ZM140.297 169.983L138.91 170.496L144.298 161.744L140.297 169.983ZM138.49 171.231L139.987 170.676L136.203 179.27L138.49 171.231ZM134.764 193.528L134.843 198.311L134.566 199.181L134.764 193.528ZM135.024 199.534L136.389 208.325L134.509 201.153L135.024 199.534ZM142.142 217.719L143.895 225.565L138.302 214.558L142.142 217.719ZM147.764 228.931L148.981 233.021L145.359 228.139L147.764 228.931ZM174.934 249.994L175.442 250.803L170.125 248.491L174.934 249.994ZM176.299 251.148L175.675 250.153L187.24 252.432L176.299 251.148ZM204.628 252.125L203.412 253.501L197.064 253.324L204.628 252.125ZM205.471 251.991L213.039 250.816L204.348 253.264L205.471 251.991ZM222.957 245.457L227.395 244.084L219.569 248.381L222.957 245.457ZM230.066 242.511L229.717 240.259L236.202 237.276L230.066 242.511ZM244.113 225.673L243.809 228.701L239.544 233.79L244.113 225.673ZM251.135 212.767L252.23 212.239L247.214 222.06L251.135 212.767ZM252.594 211.462L251.364 212.055L253.837 203.923L252.594 211.462Z" fill="url(#paint1_radial_3692_1609)"/>
<defs>
<radialGradient id="paint0_radial_3692_1609" cx="0" cy="0" r="1" gradientUnits="userSpaceOnUse" gradientTransform="translate(188.837 198.254) scale(68.8528)">
<stop offset="0.467" stop-color="#00DDFF" stop-opacity="0.2"/>
<stop offset="0.606" stop-color="#06DFFA" stop-opacity="0.214"/>
<stop offset="0.748" stop-color="#18E7EC" stop-opacity="0.256"/>
<stop offset="0.889" stop-color="#35F2D5" stop-opacity="0.326"/>
<stop offset="1" stop-color="#54FFBD" stop-opacity="0.4"/>
</radialGradient>
<radialGradient id="paint1_radial_3692_1609" cx="0" cy="0" r="1" gradientUnits="userSpaceOnUse" gradientTransform="translate(200.641 183.104) scale(73.5479)">
<stop offset="0.434" stop-color="#7542E5" stop-opacity="0"/>
<stop offset="0.561" stop-color="#7844E6" stop-opacity="0.013"/>
<stop offset="0.665" stop-color="#804BE8" stop-opacity="0.053"/>
<stop offset="0.761" stop-color="#8D57ED" stop-opacity="0.12"/>
<stop offset="0.852" stop-color="#A068F3" stop-opacity="0.214"/>
<stop offset="0.939" stop-color="#B97EFB" stop-opacity="0.335"/>
<stop offset="0.978" stop-color="#C689FF" stop-opacity="0.4"/>
</radialGradient>
</defs>
</svg>
