<?xml version="1.0" encoding="UTF-8"?>
<svg id="a" data-name="Layer 1" xmlns="http://www.w3.org/2000/svg" width="512" height="512" viewBox="0 0 512 512">
  <path d="M484.634,373.61H208.189c-38.212,0-69.189,30.977-69.189,69.189v33.835c0,5.173,4.193,9.366,9.366,9.366h276.445c38.212,0,69.189-30.977,69.189-69.189v-52.567c0,5.173-4.193,9.366-9.366,9.366Z" fill="#efefef"/>
  <g>
    <path d="M178.513,406.33h9.663l20.479,31.806v-31.806h8.704v46.717h-8.959l-21.118-32.83v32.83h-8.768v-46.717Z"/>
    <path d="M227.215,406.33h9.151v46.717h-9.151v-46.717Z"/>
    <path d="M244.879,429.688c0-13.438,10.047-23.998,24.126-23.998,8.832,0,15.551,3.775,19.967,9.728l-7.616,5.312c-2.688-4.096-6.911-6.464-12.351-6.464-8.639,0-15.103,6.848-15.103,15.423,0,8.703,6.335,15.295,15.231,15.295,7.104,0,11.775-3.968,13.311-10.111h-14.847v-8.447h24.574v3.903c0,12.479-8.896,23.358-22.91,23.358-14.655,0-24.382-11.007-24.382-23.998Z"/>
    <path d="M328.268,433.977h-18.878v19.07h-9.087v-46.717h9.087v18.814h18.878v-18.814h9.023v46.717h-9.023v-19.07Z"/>
    <path d="M358.413,414.649h-12.991v-8.319h34.75v8.319h-12.863v38.397h-8.895v-38.397Z"/>
    <path d="M388.302,406.33h9.087v37.949h21.566v8.768h-30.654v-46.717Z"/>
    <path d="M430.669,433.336l-15.871-27.006h9.919l10.559,18.559,10.559-18.559h9.855l-15.935,27.198v19.519h-9.087v-19.711Z"/>
  </g>
</svg>